<svg width="444" height="176" viewBox="0 0 444 176" fill="none" xmlns="http://www.w3.org/2000/svg">
<path d="M382.254 172V139.36H306.894V109.84L385.134 4H425.454V103.84H443.694V139.36H425.454V172H382.254ZM345.534 103.84H382.254V51.76L345.534 103.84Z" fill="#0A7AE0"/>
<path d="M224 175.12C214.56 175.12 205.76 173.6 197.6 170.56C189.44 167.36 182.32 162.32 176.24 155.44C170.16 148.56 165.36 139.6 161.84 128.56C158.48 117.36 156.8 103.84 156.8 87.9999V83.1999C156.8 68.4799 158.48 55.9199 161.84 45.5199C165.36 35.1199 170.16 26.6399 176.24 20.0799C182.32 13.5199 189.44 8.71989 197.6 5.67989C205.76 2.47989 214.56 0.879883 224 0.879883C233.44 0.879883 242.24 2.47989 250.4 5.67989C258.56 8.71989 265.68 13.5199 271.76 20.0799C277.84 26.6399 282.56 35.1199 285.92 45.5199C289.44 55.9199 291.2 68.4799 291.2 83.1999V87.9999C291.2 103.84 289.44 117.36 285.92 128.56C282.56 139.6 277.84 148.56 271.76 155.44C265.68 162.32 258.56 167.36 250.4 170.56C242.24 173.6 233.44 175.12 224 175.12ZM224 139.6C227.2 139.6 230.24 138.8 233.12 137.2C236 135.6 238.48 132.88 240.56 129.04C242.8 125.04 244.56 119.76 245.84 113.2C247.12 106.48 247.76 98.0799 247.76 87.9999V83.1999C247.76 71.3599 246.72 62.0799 244.64 55.3599C242.56 48.4799 239.68 43.5999 236 40.7199C232.32 37.8399 228.32 36.3999 224 36.3999C219.68 36.3999 215.68 37.8399 212 40.7199C208.48 43.5999 205.6 48.4799 203.36 55.3599C201.12 62.0799 200 71.3599 200 83.1999V87.9999C200 98.0799 200.64 106.48 201.92 113.2C203.2 119.76 204.96 125.04 207.2 129.04C209.6 132.88 212.16 135.6 214.88 137.2C217.76 138.8 220.8 139.6 224 139.6Z" fill="#0A7AE0"/>
<path d="M76.16 172V139.36H0.800049V109.84L79.04 4H119.36V103.84H137.6V139.36H119.36V172H76.16ZM39.4401 103.84H76.16V51.76L39.4401 103.84Z" fill="#0A7AE0"/>
</svg>
