<svg width="72" height="72" viewBox="0 0 72 72" fill="none" xmlns="http://www.w3.org/2000/svg">
<path opacity="0.946" fill-rule="evenodd" clip-rule="evenodd" d="M22.7109 8.36714C26.0188 8.21208 29.3002 8.42301 32.5546 8.99996C35.2227 9.54863 37.543 10.7439 39.5156 12.5859C39.8709 13.1092 40.1522 13.6717 40.3593 14.2734C40.4531 17.5546 40.4531 20.8359 40.3593 24.1171C40.1443 24.5413 39.7928 24.7287 39.3046 24.6796C38.8165 24.7287 38.465 24.5413 38.25 24.1171C38.2263 22.5213 38.156 20.9276 38.039 19.3359C35.5428 20.879 32.8239 21.793 29.8828 22.0781C24.9035 22.7379 20.0753 22.1754 15.3984 20.3906C14.7708 20.0671 14.1615 19.7156 13.5703 19.3359C13.4063 21.5845 13.3828 23.8345 13.5 26.0859C13.7683 27.1517 14.4011 27.9251 15.3984 28.4062C19.311 30.2761 23.4361 31.0261 27.7734 30.6562C30.1192 30.4564 32.4161 30.011 34.664 29.3203C35.6636 29.4561 36.0152 30.0186 35.7187 31.0078C35.6533 31.209 35.536 31.373 35.3671 31.5C28.834 33.6885 22.3184 33.6417 15.8203 31.3593C14.9895 31.0028 14.216 30.5575 13.5 30.0234C13.3692 32.514 13.4161 34.9984 13.6406 37.4765C14.2951 38.4593 15.1623 39.186 16.2421 39.6562C20.6558 41.3858 25.2026 41.9013 29.8828 41.2031C32.0016 40.8902 34.0406 40.3042 36 39.4453C36.7117 39.571 37.1101 39.9929 37.1953 40.7109C37.1484 41.0639 37.0078 41.3686 36.7734 41.625C34.2376 42.8332 31.5658 43.5363 28.7578 43.7343C24.7905 44.1143 20.8998 43.7394 17.0859 42.6093C15.162 42.0115 13.4979 41.0037 12.0937 39.5859C11.8237 39.1867 11.5893 38.7648 11.3906 38.3203C11.2282 34.2506 11.1579 30.1725 11.1796 26.0859C11.1579 21.9993 11.2282 17.9212 11.3906 13.8515C11.7411 12.9871 12.2801 12.2605 13.0078 11.6718C14.6728 10.488 16.5009 9.64422 18.4921 9.14058C19.9096 8.83433 21.3159 8.57652 22.7109 8.36714ZM25.664 10.6171C29.0226 10.6181 32.2569 11.2509 35.3671 12.5156C36.3271 12.9612 37.1473 13.594 37.8281 14.414C38.2348 15.5496 37.9302 16.4636 36.914 17.1562C34.6798 18.5573 32.2423 19.401 29.6015 19.6875C25.1671 20.2885 20.8546 19.8198 16.664 18.2812C15.3887 17.7747 14.381 16.9543 13.6406 15.8203C13.5468 15.4452 13.5468 15.0703 13.6406 14.6953C14.2951 13.7125 15.1623 12.9859 16.2421 12.5156C19.2785 11.2759 22.4191 10.6431 25.664 10.6171Z" fill="#0A7AE0"/>
<path opacity="0.958" fill-rule="evenodd" clip-rule="evenodd" d="M38.7422 26.9297C46.6173 26.9062 54.4923 26.9297 62.3672 27C62.496 27.0526 62.6133 27.1229 62.7187 27.211C62.9496 29.964 62.9965 32.7296 62.8594 35.5078C62.5328 37.1918 61.8297 38.6919 60.75 40.0078C58.8165 41.9641 56.9649 43.9796 55.1953 46.0547C56.9649 48.1298 58.8165 50.1453 60.75 52.1016C61.8297 53.4176 62.5328 54.9176 62.8594 56.6016C62.9532 59.2735 62.9532 61.9453 62.8594 64.6172C62.8068 64.746 62.7365 64.8633 62.6484 64.9688C58.6291 65.1318 54.5978 65.2021 50.5547 65.1797C46.6172 65.1562 42.6797 65.1329 38.7422 65.1094C38.6134 65.0568 38.4961 64.9865 38.3906 64.8985C38.2299 63.5056 38.1596 62.0993 38.1797 60.6797C37.7319 57.6886 38.3647 54.9699 40.0781 52.5235C41.6718 50.836 43.2657 49.1485 44.8594 47.461C45.2427 47.0086 45.5943 46.5399 45.9141 46.0547C44.1444 43.9796 42.2928 41.9641 40.3594 40.0078C38.4369 37.4978 37.7103 34.6618 38.1797 31.5C38.2032 30.1641 38.2265 28.8281 38.25 27.4922C38.347 27.2321 38.511 27.0445 38.7422 26.9297ZM40.4297 29.1797C47.1797 29.1797 53.9297 29.1797 60.6797 29.1797C60.7032 30.7273 60.6797 32.2742 60.6094 33.8203C60.5423 35.3607 60.0734 36.767 59.2031 38.0391C57.1359 40.153 55.1203 42.3092 53.1562 44.5078C52.6875 45.539 52.6875 46.5704 53.1562 47.6016C54.9844 49.5235 56.8125 51.4453 58.6406 53.3672C59.303 54.1518 59.842 55.019 60.2578 55.9688C54.7495 56.0121 49.2418 56.0824 43.7344 56.1797C42.7735 56.1329 41.8124 56.0859 40.8516 56.0391C41.2492 55.0548 41.7884 54.1643 42.4687 53.3672C44.2969 51.4453 46.125 49.5235 47.9531 47.6016C48.5339 46.2874 48.3933 45.0686 47.5312 43.9453C45.7031 42.0234 43.875 40.1016 42.0469 38.1797C41.0856 36.8899 40.5699 35.4367 40.5 33.8203C40.4297 32.2742 40.4062 30.7273 40.4297 29.1797ZM57.8672 58.4297C58.8047 58.4297 59.7421 58.4297 60.6797 58.4297C60.6797 59.9298 60.6797 61.4297 60.6797 62.9297C53.9297 62.9297 47.1797 62.9297 40.4297 62.9297C40.4297 61.4766 40.4297 60.0234 40.4297 58.5703C46.266 58.617 52.0786 58.5702 57.8672 58.4297Z" fill="#0A7AE0"/>
</svg>
