<svg width="53" height="53" viewBox="0 0 53 53" fill="none" xmlns="http://www.w3.org/2000/svg">
<g clip-path="url(#clip0_82_2585)">
<path opacity="0.962" fill-rule="evenodd" clip-rule="evenodd" d="M6.74609 -0.0517578C19.1367 -0.0517578 31.5273 -0.0517578 43.918 -0.0517578C47.2046 0.692727 49.2867 2.72854 50.1641 6.05566C50.2976 13.8852 50.3654 21.7179 50.3672 29.5537C51.4587 31.4595 52.1527 33.4954 52.4492 35.6611C52.4492 36.8689 52.4492 38.0765 52.4492 39.2842C51.0612 46.9788 46.5924 51.5335 39.043 52.9482C37.858 52.9482 36.6732 52.9482 35.4883 52.9482C33.3631 52.6459 31.3658 51.9385 29.4961 50.8262C21.8081 50.8243 14.1232 50.7553 6.44141 50.6191C3.22278 49.7368 1.22538 47.6493 0.449219 44.3564C0.449219 31.6931 0.449219 19.0296 0.449219 6.36621C1.22786 2.88118 3.32682 0.741862 6.74609 -0.0517578ZM7.25391 2.22559C19.3398 2.20833 31.4258 2.22559 43.5117 2.27734C46.057 2.87021 47.5635 4.4747 48.0312 7.09082C48.1159 13.5436 48.099 19.996 47.9805 26.4482C43.8467 22.522 39.0055 21.1936 33.457 22.4629C27.4808 24.3099 23.7738 28.3297 22.3359 34.5225C21.4685 39.8565 22.8396 44.4803 26.4492 48.3936C20.1187 48.5144 13.788 48.5315 7.45703 48.4453C4.89117 47.9695 3.31695 46.434 2.73438 43.8389C2.66666 31.5205 2.66666 19.2021 2.73438 6.88379C3.24355 4.31182 4.75006 2.75908 7.25391 2.22559ZM36.4023 24.2744C41.6204 24.1812 45.6321 26.3551 48.4375 30.7959C50.7301 35.1073 50.7977 39.455 48.6406 43.8389C45.78 48.67 41.5652 50.9301 35.9961 50.6191C30.4369 49.779 26.7298 46.6562 24.875 41.251C23.5588 35.8325 24.896 31.226 28.8867 27.4316C31.0824 25.6051 33.5876 24.5527 36.4023 24.2744Z" fill="#0A7AE0"/>
<path opacity="0.963" fill-rule="evenodd" clip-rule="evenodd" d="M14.0584 6.57338C14.8462 6.35867 15.371 6.63472 15.6326 7.40151C15.6834 9.33349 15.7003 11.2657 15.6834 13.1984C17.6472 13.1811 19.6108 13.1984 21.574 13.2501C22.4376 14.0745 22.3699 14.7992 21.3709 15.424C19.4753 15.4757 17.5796 15.493 15.6834 15.4757C15.7003 17.4084 15.6834 19.3406 15.6326 21.2726C15.0196 22.2908 14.3086 22.3598 13.4998 21.4796C13.449 19.4787 13.4321 17.4773 13.449 15.4757C11.5528 15.493 9.65704 15.4757 7.76151 15.424C6.94295 15.0674 6.7229 14.4634 7.10136 13.6124C7.22465 13.4521 7.377 13.3314 7.55839 13.2501C9.52164 13.1984 11.4852 13.1811 13.449 13.1984C13.4321 11.1968 13.449 9.19549 13.4998 7.19448C13.6379 6.93335 13.8241 6.72632 14.0584 6.57338Z" fill="#0A7AE0"/>
<path opacity="0.959" fill-rule="evenodd" clip-rule="evenodd" d="M31.324 13.1979C35.285 13.1806 39.2459 13.1979 43.2068 13.2496C43.8132 13.6841 43.9656 14.2534 43.6638 14.9577C43.488 15.1768 43.2679 15.3321 43.0037 15.4235C39.1781 15.4925 35.3527 15.4925 31.5271 15.4235C30.7857 15.0676 30.5656 14.4983 30.8669 13.7155C31.0403 13.5564 31.1927 13.3838 31.324 13.1979Z" fill="#0A7AE0"/>
<path opacity="0.942" fill-rule="evenodd" clip-rule="evenodd" d="M7.76187 30.7956C8.12333 30.7861 8.46188 30.8723 8.7775 31.0544C10.3193 32.6431 11.8766 34.2131 13.4494 35.7644C15.0222 34.2131 16.5794 32.6431 18.1212 31.0544C19.1382 30.5594 19.7476 30.87 19.9494 31.9861C19.95 32.2241 19.8992 32.4484 19.797 32.6589C18.2228 34.2634 16.6486 35.8679 15.0744 37.4724C16.6486 39.0769 18.2228 40.6814 19.797 42.2859C20.2102 43.7624 19.6854 44.3317 18.2228 43.9939C16.6472 42.3706 15.056 40.7662 13.4494 39.1804C11.8428 40.7662 10.2516 42.3706 8.67593 43.9939C7.2133 44.3317 6.68856 43.7624 7.10171 42.2859C8.67593 40.6814 10.2502 39.0769 11.8244 37.4724C10.2502 35.8679 8.67593 34.2634 7.10171 32.6589C6.72572 31.7936 6.94578 31.1725 7.76187 30.7956Z" fill="#0A7AE0"/>
<path opacity="0.959" fill-rule="evenodd" clip-rule="evenodd" d="M31.324 33.0729C35.285 33.0556 39.2459 33.0729 43.2068 33.1246C43.8132 33.5591 43.9656 34.1284 43.6638 34.8327C43.488 35.0518 43.2679 35.2071 43.0037 35.2985C39.1781 35.3675 35.3527 35.3675 31.5271 35.2985C30.7857 34.9426 30.5656 34.3733 30.8669 33.5905C31.0403 33.4314 31.1927 33.2588 31.324 33.0729Z" fill="#0A7AE0"/>
<path opacity="0.959" fill-rule="evenodd" clip-rule="evenodd" d="M31.324 39.6979C35.285 39.6806 39.2459 39.6979 43.2068 39.7496C43.8132 40.1841 43.9656 40.7534 43.6638 41.4577C43.488 41.6768 43.2679 41.8321 43.0037 41.9235C39.1781 41.9925 35.3527 41.9925 31.5271 41.9235C30.7857 41.5676 30.5656 40.9983 30.8669 40.2155C31.0403 40.0564 31.1927 39.8838 31.324 39.6979Z" fill="#0A7AE0"/>
</g>
<defs>
<clipPath id="clip0_82_2585">
<rect width="52" height="53" fill="white" transform="translate(0.5)"/>
</clipPath>
</defs>
</svg>
