<svg width="15" height="15" viewBox="0 0 15 15" fill="none" xmlns="http://www.w3.org/2000/svg">
<g clip-path="url(#clip0_261_1582)">
<path d="M13.4682 9.54065V12.2916C13.4704 12.4939 13.4286 12.6942 13.346 12.8788C13.2633 13.0634 13.1416 13.2279 12.9892 13.3609C12.8369 13.494 12.6575 13.5924 12.4635 13.6495C12.2694 13.7066 12.0653 13.721 11.8652 13.6916C9.09108 13.3353 6.51438 12.066 4.54109 10.0839C2.56781 8.10172 1.31013 5.51935 0.966215 2.74365C0.93697 2.54411 0.951179 2.34061 1.00787 2.14708C1.06456 1.95354 1.16239 1.77454 1.29467 1.62232C1.42695 1.4701 1.59056 1.34825 1.77429 1.26511C1.95802 1.18198 2.15755 1.13952 2.35922 1.14065H5.06821C5.24126 1.1396 5.40857 1.20269 5.53784 1.31774C5.66711 1.43279 5.74918 1.59164 5.76821 1.76365C5.83768 2.68105 6.07494 3.57791 6.46821 4.40965C6.53565 4.56717 6.54297 4.74395 6.48879 4.9065C6.4346 5.06906 6.32268 5.20609 6.17421 5.29165L5.57221 5.63465C5.48544 5.68237 5.40978 5.74796 5.35024 5.82709C5.29069 5.90622 5.24861 5.99708 5.22678 6.09367C5.20494 6.19027 5.20386 6.2904 5.22358 6.38744C5.24331 6.48449 5.2834 6.57624 5.34122 6.65665C6.03374 7.67107 6.90979 8.54712 7.92422 9.23965C8.00462 9.29746 8.09637 9.33755 8.19342 9.35728C8.29047 9.37701 8.39059 9.37592 8.48719 9.35409C8.58378 9.33225 8.67464 9.29017 8.75377 9.23063C8.8329 9.17108 8.89849 9.09542 8.94622 9.00865L9.28921 8.40665C9.37988 8.25624 9.52376 8.14541 9.69233 8.09613C9.86089 8.04686 10.0418 8.06275 10.1992 8.14065C11.031 8.53392 11.9278 8.77118 12.8452 8.84065C13.0172 8.85968 13.1761 8.94175 13.2911 9.07102C13.4062 9.20029 13.4693 9.3676 13.4682 9.54065Z" stroke="white" stroke-width="1.4" stroke-linecap="round" stroke-linejoin="round"/>
</g>
<defs>
<clipPath id="clip0_261_1582">
<rect width="14" height="14" fill="white" transform="translate(0.167969 0.44043)"/>
</clipPath>
</defs>
</svg>
