<svg width="35" height="35" viewBox="0 0 35 35" fill="none" xmlns="http://www.w3.org/2000/svg">
<circle cx="17.5" cy="17.5" r="17.5" fill="#0A7AE0" fill-opacity="0.07"/>
<g clip-path="url(#clip0_55_6195)">
<path d="M24.0001 14.4347C21.595 16.9347 19.2106 19.4565 16.8055 21.9782C16.5152 22.2825 16.2249 22.5869 15.9347 22.8912C15.7895 23.0434 15.7066 23.0434 15.5615 22.8912C14.0894 21.326 12.5965 19.7608 11.1037 18.1956C10.9586 18.0434 10.9586 17.9565 11.1037 17.8043C11.4355 17.4565 11.7672 17.1086 12.0989 16.7608C12.2441 16.6086 12.327 16.6086 12.4721 16.7608C13.5296 17.8695 14.587 18.9782 15.6444 20.0869C15.6859 20.1304 15.7066 20.1738 15.7273 20.2173C15.7688 20.1738 15.8103 20.1304 15.8517 20.1086C18.0702 17.7825 20.268 15.4782 22.4865 13.1521C22.6731 12.9565 22.7353 12.9565 22.9219 13.1521C23.2329 13.4782 23.5439 13.8043 23.8549 14.1304C23.8964 14.1738 23.9586 14.2391 24.0001 14.3043C24.0001 14.3478 24.0001 14.3912 24.0001 14.4347Z" fill="#0A7AE0"/>
</g>
<defs>
<clipPath id="clip0_55_6195">
<rect width="13" height="10" fill="white" transform="translate(11 13)"/>
</clipPath>
</defs>
</svg>
