<svg width="72" height="72" viewBox="0 0 72 72" fill="none" xmlns="http://www.w3.org/2000/svg">
<g clip-path="url(#clip0_248_5595)">
<path d="M68 20.7826C67.7583 21.35 67.3273 21.5978 66.7134 21.5717C66.2106 21.5522 65.7143 21.5522 65.2114 21.5717C64.4277 21.6043 63.6963 21.4217 63.0171 21.05C61.1036 20 59.1836 18.95 57.2832 17.8804C54.6645 16.4065 52.0065 15.037 49.1591 14.0391C46.4685 13.087 43.7322 12.8978 40.9436 13.5435C38.6057 14.0848 36.764 15.4152 35.1771 17.15C34.1257 18.3043 33.2767 19.6087 32.48 20.9457C30.9453 23.5087 29.4236 26.0783 27.9085 28.6543C27.7518 28.9217 27.6342 29.2217 27.4971 29.5022C27.4057 29.6848 27.4383 29.8348 27.6016 29.9587C28.4506 30.5913 29.3649 31.0739 30.4424 31.1783C30.9322 31.2239 31.3828 31.0935 31.7551 30.7935C32.2514 30.3891 32.7216 29.9522 33.1722 29.5022C35.7126 26.9391 38.24 24.363 40.7804 21.7935C41.0024 21.5717 41.2506 21.3761 41.4922 21.1739C42.3412 20.4565 43.2881 20.4174 44.2743 20.8348C45.1624 21.213 45.9069 21.8261 46.6383 22.4457C48.2253 23.7761 49.6228 25.3022 51.0204 26.8283C54.1028 30.1739 57.1461 33.5652 60.2481 36.9043C61.1755 37.9022 61.5934 39.0174 61.5869 40.3478C61.5738 43.263 61.6196 46.1717 61.5804 49.087C61.5543 51.2457 60.3983 52.7848 58.4914 53.3522C57.5967 53.6196 56.7085 53.587 55.84 53.2348C55.6179 53.1435 55.3959 53.0522 55.1412 52.9478C54.9257 54.4478 54.142 55.537 52.8294 56.2348C51.4906 56.9457 50.1518 56.8478 48.7869 56.1761C48.7151 56.4174 48.6563 56.6196 48.5845 56.8217C48.0555 58.3543 47.0563 59.4239 45.4498 59.8022C44.2873 60.0761 43.1706 59.8413 42.1714 59.1957C41.8906 59.013 41.6489 58.7326 41.4726 58.4522C41.2571 58.1 41.3289 57.7087 41.5771 57.3826C41.8253 57.05 42.1975 56.9783 42.5763 57.0761C42.8114 57.1348 43.0465 57.2457 43.262 57.3696C44.4963 58.0935 45.7567 57.7804 46.4881 56.5609C46.5469 56.4565 46.5534 56.313 46.5534 56.1891C46.5926 52.1 46.6318 48.0174 46.671 43.9283C46.6775 43.2696 47.4547 42.7609 48.0816 42.9957C48.5191 43.1587 48.6694 43.3674 48.6759 43.8304C48.7151 46.5174 48.7543 49.1978 48.8 51.8848C48.8065 52.2761 48.8065 52.6739 48.8914 53.0522C49.1983 54.337 50.844 55.0935 52.1436 54.1935C52.8032 53.737 53.0253 53.0587 53.0383 52.2957C53.0645 50.7761 53.1036 49.25 53.1102 47.7304C53.1102 45.8848 53.071 44.0391 53.0579 42.187C53.0514 41.6391 52.862 41.1696 52.4832 40.7717C51.3469 39.5717 50.2106 38.3717 49.0612 37.1848C47.7812 35.8674 46.4816 34.563 45.1951 33.2522C45.0645 33.1217 44.9534 32.9717 44.8294 32.8348C44.4049 32.3978 44.4571 32.0065 44.9208 31.4978C45.293 31.087 45.7828 31.0804 46.2269 31.4652C46.6187 31.8109 47.004 32.1696 47.3698 32.5348C49.4726 34.6478 51.5689 36.7674 53.6587 38.887C53.9396 39.1739 54.2073 39.4804 54.4489 39.8C54.9322 40.4457 55.2261 41.1304 55.2196 41.9848C55.213 44.4109 55.2783 46.8304 55.3306 49.2565C55.3567 50.5543 56.1338 51.3891 57.3028 51.4087C58.4718 51.4348 59.3992 50.5217 59.4383 49.2304C59.4906 47.5674 59.4971 45.9043 59.5036 44.2413C59.5036 42.937 59.4514 41.6326 59.4645 40.3283C59.471 39.6043 59.2424 39.0239 58.7526 38.4826C56.4734 35.9848 54.24 33.4413 51.9608 30.9435C50.4196 29.2478 48.8457 27.5717 47.2587 25.9152C46.2138 24.8196 45.0775 23.8217 43.804 22.987C43.1836 22.5826 43.0661 22.5696 42.5306 23.0848C40.924 24.6435 39.324 26.2152 37.7502 27.8065C36.5616 29 35.4122 30.2326 34.2367 31.4391C33.9363 31.7522 33.6163 32.0522 33.2832 32.3326C32.1338 33.2978 30.8081 33.487 29.391 33.1283C28.5028 32.9065 27.6473 32.5739 26.8898 32.0457C26.5371 31.7978 26.1975 31.5174 25.9036 31.1978C25.1787 30.4217 25.0743 29.5087 25.5314 28.5761C25.9167 27.787 26.3543 27.0174 26.8049 26.2674C28.5028 23.463 30.1812 20.6457 31.9314 17.8674C33.2114 15.8391 34.8702 14.15 36.9404 12.9043C38.6187 11.8935 40.4734 11.3717 42.413 11.1304C42.733 11.0913 43.0596 11.0457 43.3796 11C44.013 11 44.64 11 45.2734 11C45.9134 11.0978 46.56 11.1696 47.2 11.3C49.8057 11.8348 52.2612 12.8 54.5991 14.0326C57.2506 15.4283 59.8694 16.8891 62.462 18.3826C63.7289 19.113 65.022 19.6152 66.5045 19.4587C67.2555 19.3804 67.7257 19.7261 68 20.3913C68 20.5217 68 20.6522 68 20.7826Z" fill="#0A7AE0"/>
<path d="M4 45.8261C4.03265 45.7609 4.06531 45.6891 4.10449 45.6304C4.32653 45.2717 4.58122 45.0304 5.07755 45.0369C7.37633 45.0696 9.66857 45.05 11.9673 45.0565C12.2024 45.0565 12.3657 44.9913 12.5355 44.8282C15.0106 42.3826 17.4922 39.9435 19.9673 37.4913C20.7576 36.7087 21.711 36.2978 22.7951 36.2522C24.5388 36.1869 25.7992 37.0217 26.6808 38.4826C26.831 38.7304 26.942 39.0043 27.0922 39.3043C27.2033 39.213 27.3012 39.1348 27.3927 39.0435C28.1763 38.2935 28.96 37.5369 29.7437 36.7804C30.4425 36.1087 31.2392 35.6391 32.2253 35.5087C33.9037 35.2869 35.6604 36.1804 36.4571 37.6804C36.6008 37.9543 36.7314 38.2413 36.8882 38.5609C36.9796 38.4761 37.058 38.4109 37.1363 38.3391C37.7829 37.7261 38.4098 37.0935 39.0825 36.5065C40.3755 35.3848 42.178 35.1696 43.6539 35.913C45.2343 36.7087 46.1812 38.3065 46.0506 40.0282C45.9853 40.9282 45.6718 41.7435 45.058 42.4217C44.4506 43.0935 43.8237 43.7391 43.2163 44.4043C43.0531 44.5804 42.9029 44.7761 42.7722 44.9326C43.2816 45.2456 43.778 45.4935 44.2024 45.8261C45.5935 46.9022 46.0245 48.6565 45.5608 50.3196C45.4433 50.75 45.1624 51.1739 44.8555 51.513C43.7127 52.7652 42.5567 54.0043 41.3551 55.2043C39.5135 57.0565 37.6457 58.8761 35.7714 60.6891C35.2033 61.2369 34.5763 61.7456 33.76 61.9087C33.6163 61.9348 33.4661 61.9739 33.3225 62.0065C32.9763 62.0065 32.6237 62.0065 32.2776 62.0065C32.2318 61.9869 32.1796 61.9609 32.1339 61.9478C30.4751 61.6282 29.3192 60.7087 28.7184 59.1174C28.6596 58.9674 28.6008 58.8239 28.542 58.6739C28.2612 58.7391 28.0196 58.7978 27.778 58.85C25.6359 59.3456 23.6637 58.3674 22.8016 56.3782C22.6971 56.1435 22.6384 55.7848 22.462 55.713C22.2531 55.6282 21.9461 55.7848 21.6784 55.85C19.6473 56.3456 17.7143 55.413 16.8653 53.5152C16.7608 53.2869 16.6825 53.0522 16.591 52.8174C16.5257 52.6478 16.4473 52.563 16.2514 52.6609C15.6114 52.9674 14.9257 53.0196 14.24 52.9348C12.6269 52.7456 11.4122 51.9696 10.7984 50.4174C10.3804 49.3739 10.4065 48.2978 10.6873 47.1826C10.5633 47.1826 10.4457 47.1826 10.3282 47.1826C8.61061 47.163 6.88653 47.1109 5.16898 47.1369C4.58122 47.1435 4.30041 46.8696 4.07184 46.4196C4.04571 46.3739 4.01959 46.3282 3.99347 46.2891C4 46.1326 4 45.9761 4 45.8261ZM43.8629 39.9696C43.8825 38.8804 43.4514 38.1239 42.7004 37.7978C41.9037 37.4522 41.1527 37.5174 40.5061 38.15C40.3494 38.3 40.1731 38.4304 40.0229 38.5869C37.1559 41.4109 34.2825 44.2217 31.4351 47.0652C29.3061 49.1913 27.2163 51.363 25.1069 53.5152C24.9633 53.6587 24.8261 53.8282 24.7543 54.0109C24.4212 54.8391 24.7608 55.9543 25.4727 56.4696C26.2498 57.0239 27.2229 56.9717 27.9804 56.3261C28.0522 56.2609 28.1306 56.2022 28.1959 56.1304C33.2571 51.0891 38.3118 46.0413 43.3796 41.0065C43.7453 40.6543 43.8629 40.2369 43.8629 39.9696ZM18.6286 51.6304C18.6351 53.0456 19.6016 53.9456 20.9012 53.8478C21.4629 53.8087 21.8416 53.4696 22.2073 53.1174C23.7878 51.5913 25.3747 50.0717 26.9225 48.5196C29.4237 46.0087 31.9053 43.4782 34.3804 40.9413C34.5894 40.7261 34.7527 40.4196 34.8114 40.1326C35.0269 39.063 34.3804 38.0587 33.329 37.6869C32.7739 37.4913 32.2841 37.55 31.8335 37.9217C31.52 38.1761 31.1935 38.4109 30.9061 38.6913C26.9747 42.6043 23.0563 46.5239 19.1184 50.4304C18.7592 50.7956 18.609 51.213 18.6286 51.6304ZM30.6318 57.8913C30.6776 58.7065 31.1412 59.3456 31.938 59.7109C32.6825 60.05 33.4074 59.9652 34.0212 59.3848C35.3469 58.1326 36.6988 56.8935 37.9853 55.6022C39.7225 53.8674 41.4139 52.0804 43.1184 50.313C43.249 50.1761 43.3665 50.0065 43.4384 49.8304C43.9282 48.65 43.2359 47.3261 41.969 47.0065C41.3878 46.8565 40.8588 46.9217 40.3951 47.3587C39.2261 48.4804 38.018 49.5565 36.8686 50.6978C34.9355 52.6217 33.0351 54.5782 31.1216 56.5217C30.769 56.8804 30.6449 57.3174 30.6318 57.8913ZM12.542 48.813C12.5551 48.8913 12.5616 49.0413 12.5943 49.1913C12.9273 50.6782 14.7886 51.4609 16.0163 50.2935C17.0873 49.2761 18.1714 48.2717 19.2163 47.2217C21.0188 45.4087 22.7951 43.5761 24.5714 41.7369C24.7543 41.5478 24.8849 41.2609 24.9502 41C25.1853 40.0152 24.8261 39.1217 24.0425 38.6522C23.2131 38.1565 22.338 38.2609 21.5282 38.9587C21.4041 39.063 21.28 39.1674 21.1624 39.2848C18.4718 41.9717 15.7747 44.6652 13.0841 47.3522C12.6988 47.7369 12.542 48.2065 12.542 48.813Z" fill="#0A7AE0"/>
<path d="M4 20.326C4.03265 20.2738 4.06531 20.2216 4.09796 20.1695C4.32 19.739 4.58776 19.4912 5.14939 19.4912C7.94449 19.5042 10.7461 19.4651 13.5412 19.4325C13.7698 19.4325 14.031 19.3412 14.2269 19.2173C15.8531 18.1868 17.4269 17.0716 19.0857 16.1064C22.6253 14.0586 26.4784 13.139 30.5731 13.1455C31.4155 13.1455 32.049 13.9738 31.5265 14.7825C31.3371 15.0695 31.0759 15.1412 30.782 15.1738C30.0767 15.2455 29.378 15.3108 28.6727 15.3629C25.3486 15.5912 22.2857 16.6086 19.4645 18.3564C18.2106 19.1325 16.9698 19.9412 15.742 20.7695C15.0106 21.2651 14.2465 21.5651 13.3453 21.5586C10.4914 21.5455 7.64408 21.5716 4.7902 21.5716C4.43755 21.5716 4.32653 21.2521 4.14367 21.0434C4.07837 20.9716 4.05224 20.8738 4.00653 20.789C4 20.6325 4 20.476 4 20.326Z" fill="#0A7AE0"/>
<path d="M68 46.2173C67.9347 46.3477 67.8693 46.4912 67.7975 46.6151C67.6277 46.889 67.3991 47.0716 67.0661 47.0847C66.2628 47.1173 65.4596 47.189 64.6628 47.1695C64.4473 47.1629 64.1991 46.889 64.0293 46.6869C63.6114 46.2043 63.6702 45.6499 64.173 45.2716C64.3493 45.1412 64.6106 45.076 64.8391 45.0629C65.5314 45.0369 66.2302 45.0629 66.9224 45.0499C67.484 45.0434 67.7844 45.3695 68.0065 45.826C68 45.9564 68 46.0869 68 46.2173Z" fill="#0A7AE0"/>
</g>
<defs>
<clipPath id="clip0_248_5595">
<rect width="64" height="51" fill="white" transform="translate(4 11)"/>
</clipPath>
</defs>
</svg>
