<svg width="72" height="72" viewBox="0 0 72 72" fill="none" xmlns="http://www.w3.org/2000/svg">
<path d="M44.49 51H33V18C33 17.2044 33.3161 16.4413 33.8787 15.8787C34.4413 15.3161 35.2044 15 36 15H57" stroke="#0A7AE0" stroke-width="2.5" stroke-linecap="round" stroke-linejoin="round"/>
<path d="M63 39V48C63 48.7957 62.6839 49.5587 62.1213 50.1213C61.5587 50.6839 60.7957 51 60 51H57.39" stroke="#0A7AE0" stroke-width="2.5" stroke-linecap="round" stroke-linejoin="round"/>
<path d="M14.6701 51.0001H12.0001C11.2044 51.0001 10.4413 50.684 9.87873 50.1214C9.31612 49.5588 9.00005 48.7957 9.00005 48.0001V35.3401C8.98009 34.6548 9.19545 33.9833 9.61029 33.4375C10.0251 32.8916 10.6144 32.5043 11.2801 32.3401L15.0001 31.5001L17.3701 23.1901C17.5515 22.5412 17.9462 21.9723 18.4904 21.575C19.0346 21.1777 19.6967 20.9752 20.3701 21.0001H33.0001V51.0001H27.3901" stroke="#0A7AE0" stroke-width="2.5" stroke-linecap="round" stroke-linejoin="round"/>
<path d="M45 27H63M45 51C45 52.1867 45.3519 53.3467 46.0112 54.3334C46.6705 55.3201 47.6075 56.0892 48.7039 56.5433C49.8003 56.9974 51.0067 57.1162 52.1705 56.8847C53.3344 56.6532 54.4035 56.0818 55.2426 55.2426C56.0818 54.4035 56.6532 53.3344 56.8847 52.1705C57.1162 51.0067 56.9974 49.8003 56.5433 48.7039C56.0892 47.6075 55.3201 46.6705 54.3334 46.0112C53.3467 45.3519 52.1867 45 51 45C49.4087 45 47.8826 45.6321 46.7574 46.7574C45.6321 47.8826 45 49.4087 45 51ZM15 51C15 52.1867 15.3519 53.3467 16.0112 54.3334C16.6705 55.3201 17.6075 56.0892 18.7039 56.5433C19.8003 56.9974 21.0067 57.1162 22.1705 56.8847C23.3344 56.6532 24.4035 56.0818 25.2426 55.2426C26.0818 54.4035 26.6532 53.3344 26.8847 52.1705C27.1162 51.0067 26.9974 49.8003 26.5433 48.7039C26.0892 47.6075 25.3201 46.6705 24.3334 46.0112C23.3467 45.3519 22.1867 45 21 45C19.4087 45 17.8826 45.6321 16.7574 46.7574C15.6321 47.8826 15 49.4087 15 51Z" stroke="#0A7AE0" stroke-width="2.5" stroke-linecap="round" stroke-linejoin="round"/>
</svg>
