<svg width="72" height="72" viewBox="0 0 72 72" fill="none" xmlns="http://www.w3.org/2000/svg">
<path d="M13.4117 7.16992C12.7773 7.39648 12.1996 7.90625 11.8711 8.54062L11.5879 9.08437L11.5539 31.9559C11.5426 47.4527 11.5652 54.9746 11.6445 55.2691C11.8258 55.9375 12.4148 56.6398 13.1058 56.9797L13.7289 57.2969H16.4703H19.223L19.257 60.1629C19.291 62.8363 19.3023 63.0516 19.5402 63.4707C19.8234 64.0031 20.2652 64.4336 20.8203 64.7281C21.2054 64.932 21.7492 64.9434 34.0742 64.9434H46.9316L47.9285 64.5922C48.4722 64.3883 49.2086 64.0598 49.5597 63.8559C50.2168 63.4594 58.1691 56.0848 58.8715 55.2238C59.4152 54.5441 59.9929 53.3207 60.2535 52.3352C60.4574 51.5082 60.4687 50.9078 60.4687 34.3121C60.4687 22.8254 60.4234 17.0027 60.3554 16.7195C60.1629 16.0512 59.5738 15.3602 58.8941 15.009L58.2711 14.7031H55.5297H52.7769L52.7429 11.8371C52.709 9.31094 52.6863 8.93711 52.4937 8.58594C52.1992 8.03086 51.7687 7.58906 51.2363 7.30586L50.7832 7.05664L32.3183 7.03398C16.8215 7.01133 13.7855 7.03398 13.4117 7.16992ZM50.5113 9.34492C50.6359 9.48086 50.6699 10.0812 50.6699 12.0863V14.6465L35.9433 14.7031L21.2168 14.7598L20.7636 15.009C20.1746 15.3262 19.7554 15.7793 19.4722 16.4023C19.2457 16.9121 19.2344 17.0367 19.2344 36.0906V55.2691L16.6515 55.2352C14.6578 55.2125 14.0121 55.1672 13.8761 55.0426C13.6949 54.9066 13.6836 53.1508 13.6836 32.1937C13.6836 11.7238 13.7062 9.49219 13.8648 9.33359C14.0234 9.175 15.8359 9.15234 32.1937 9.15234C48.948 9.15234 50.3754 9.16367 50.5113 9.34492ZM57.9765 16.8895L58.2597 17.0367V34.3574V51.6895L53.7851 51.7461L49.3105 51.8027L48.6761 52.1199C47.9625 52.4598 47.2601 53.1621 46.8523 53.9211C46.5918 54.3969 46.5918 54.4875 46.5351 58.5996L46.4785 62.791H34.0176H21.5679L21.4207 62.5078C21.3074 62.2812 21.2847 57.716 21.3074 39.7043L21.3301 17.1727L21.6019 16.9574C21.8625 16.7422 22.3043 16.7422 39.7836 16.7422C54.0004 16.7422 57.75 16.7762 57.9765 16.8895ZM57.1156 54.0344C56.6398 54.5668 48.7668 61.9414 48.6648 61.9414C48.6082 61.9414 48.5742 60.548 48.5968 58.441C48.6308 54.4648 48.6195 54.5441 49.5937 54.0344C50.0808 53.7965 50.1828 53.7852 53.7172 53.7852H57.3308L57.1156 54.0344Z" fill="#0A7AE0"/>
<path d="M29.2144 24.6039C28.5914 24.9551 28.4781 25.6234 28.9652 26.1672L29.2937 26.541H39.8402H50.3867L50.6926 26.2352C51.1344 25.782 51.123 25.2043 50.6359 24.7738L50.2734 24.4453H39.8742C31.4687 24.4566 29.4297 24.4793 29.2144 24.6039Z" fill="#0A7AE0"/>
<path d="M29.1691 31.5934C29.0671 31.65 28.8972 31.8652 28.7953 32.0465C28.5687 32.4883 28.6707 32.9754 29.0558 33.2812C29.339 33.5078 29.4976 33.5078 39.8175 33.5078C47.1015 33.5078 50.3527 33.4738 50.5226 33.3832C50.6472 33.3152 50.8171 33.0887 50.9078 32.8734C51.0437 32.5449 51.0437 32.4316 50.9078 32.1031C50.8171 31.8879 50.6472 31.6613 50.5226 31.5934C50.2054 31.4234 29.4636 31.4234 29.1691 31.5934Z" fill="#0A7AE0"/>
<path d="M29.0559 38.7189C28.8973 38.8435 28.7387 39.0927 28.6934 39.2739C28.6141 39.6591 28.8633 40.2368 29.1918 40.4181C29.509 40.5767 50.2055 40.5767 50.5227 40.4068C50.8172 40.2482 51.0664 39.6478 50.9871 39.2513C50.9531 39.0814 50.7945 38.8435 50.6359 38.7189C50.3641 38.4923 50.1488 38.4923 39.8516 38.4923C29.4977 38.4923 29.3391 38.4923 29.0559 38.7189Z" fill="#0A7AE0"/>
<path d="M29.3617 45.5159C29.0445 45.6405 28.6367 46.1729 28.6367 46.4448C28.6367 46.8073 28.9539 47.2944 29.2824 47.4303C29.5203 47.5209 31.1969 47.5549 35.4789 47.5323L41.3469 47.4983L41.6188 47.1811C41.9813 46.762 41.9813 46.1955 41.6188 45.7764L41.3469 45.4592L35.4676 45.4366C32.2391 45.4252 29.4863 45.4592 29.3617 45.5159Z" fill="#0A7AE0"/>
</svg>
