<svg width="57" height="57" viewBox="0 0 57 57" fill="none" xmlns="http://www.w3.org/2000/svg">
<path opacity="0.958" fill-rule="evenodd" clip-rule="evenodd" d="M26.9973 1.61452C29.9622 1.33388 32.1517 2.48428 33.5656 5.06569C36.4595 5.15845 39.354 5.21411 42.2492 5.23268C45.316 5.47917 47.2272 7.09343 47.9826 10.0755C48.0569 23.4719 48.0569 36.8685 47.9826 50.2649C47.3686 53.0685 45.643 54.6827 42.8059 55.1077C32.9348 55.1819 23.0637 55.1819 13.1926 55.1077C10.63 54.7082 8.94153 53.2796 8.12717 50.8216C7.99831 43.9417 7.94265 37.0579 7.96018 30.1702C7.97874 23.4719 7.99729 16.7737 8.01585 10.0755C8.77133 7.09343 10.6825 5.47917 13.7492 5.23268C16.6438 5.19558 19.5383 5.15846 22.4328 5.12135C23.3938 3.2131 24.9153 2.04416 26.9973 1.61452ZM27.3313 4.39772C29.5736 4.28604 30.9652 5.3251 31.5061 7.51491C31.6412 7.68733 31.8082 7.81722 32.0071 7.90456C33.0826 7.9602 34.1588 7.97876 35.2356 7.96022C35.4633 9.56224 34.9438 10.8425 33.677 11.801C33.2615 12.0385 32.8162 12.1869 32.341 12.2464C29.4465 12.3206 26.552 12.3206 23.6574 12.2464C22.4306 12.0693 21.5585 11.42 21.0412 10.2981C20.8199 9.53516 20.7272 8.75586 20.7629 7.96022C21.925 8.01045 23.0753 7.95479 24.2141 7.79323C24.3068 7.70046 24.3997 7.60768 24.4924 7.51491C24.8502 5.9149 25.7965 4.87584 27.3313 4.39772ZM13.7492 7.96022C15.1594 7.96022 16.5695 7.96022 17.9797 7.96022C17.7483 11.1181 19.047 13.3632 21.8762 14.6956C22.1309 14.7871 22.3908 14.8613 22.6555 14.9182C24.4334 15.0407 26.2147 15.0964 27.9992 15.0852C29.7838 15.0964 31.5651 15.0407 33.343 14.9182C36.1227 14.1796 37.6627 12.3797 37.9631 9.51882C38.0187 9.00061 38.0373 8.48107 38.0188 7.96022C39.4294 7.94167 40.8396 7.96023 42.2492 8.01589C43.7601 8.16775 44.7434 8.9656 45.1994 10.4094C45.2737 23.5832 45.2737 36.7571 45.1994 49.9309C44.8258 51.2693 43.9537 52.0671 42.5832 52.3245C32.8606 52.3987 23.1379 52.3987 13.4153 52.3245C12.0448 52.0671 11.1727 51.2693 10.799 49.9309C10.7248 36.7571 10.7248 23.5832 10.799 10.4094C11.2997 8.99876 12.2831 8.18235 13.7492 7.96022Z" fill="#0A7AE0"/>
<path opacity="0.944" fill-rule="evenodd" clip-rule="evenodd" d="M35.2346 25.8838C36.7849 26.0154 37.2488 26.7947 36.6262 28.2217C33.342 31.4316 30.0579 34.6416 26.7737 37.8516C26.0783 38.2483 25.4104 38.2113 24.7698 37.7402C22.8494 35.8571 20.9753 33.9459 19.1477 32.0068C18.9607 30.6726 19.5358 30.0603 20.8733 30.1699C22.6253 31.5874 24.2766 33.1275 25.8274 34.79C28.7776 31.9141 31.7278 29.038 34.678 26.1621C34.88 26.0778 35.0655 25.9851 35.2346 25.8838Z" fill="#0A7AE0"/>
</svg>
