<svg width="20" height="18" viewBox="0 0 20 18" fill="none" xmlns="http://www.w3.org/2000/svg">
<path fill-rule="evenodd" clip-rule="evenodd" d="M0.75 0.75C1.16421 0.75 1.5 1.08579 1.5 1.5L1.5 16.5C1.5 16.9142 1.16421 17.25 0.749999 17.25C0.335786 17.25 -7.0656e-07 16.9142 -6.88454e-07 16.5L-3.27835e-08 1.5C-1.46777e-08 1.08579 0.335786 0.75 0.75 0.75Z" fill="#0A7AE0"/>
<path fill-rule="evenodd" clip-rule="evenodd" d="M14.2574 3.69672L19.0303 8.46969C19.3232 8.76259 19.3232 9.23746 19.0303 9.53035L14.2574 14.3033C13.9645 14.5962 13.4896 14.5962 13.1967 14.3033C12.9038 14.0104 12.9038 13.5356 13.1967 13.2427L16.6893 9.75002H6.5V8.25002H16.6893L13.1967 4.75738C12.9038 4.46449 12.9038 3.98961 13.1967 3.69672C13.4896 3.40383 13.9645 3.40383 14.2574 3.69672Z" fill="#0A7AE0"/>
</svg>
