<svg width="52" height="52" viewBox="0 0 52 52" fill="none" xmlns="http://www.w3.org/2000/svg">
<rect width="52" height="52" rx="26" fill="white"/>
<path d="M29.6555 32.458H24.7084V18.2497C24.7084 17.9071 24.8445 17.5786 25.0867 17.3363C25.3289 17.0941 25.6575 16.958 26 16.958H35.0417" stroke="#0A7AE0" stroke-width="1.5" stroke-linecap="round" stroke-linejoin="round"/>
<path d="M37.625 27.292V31.167C37.625 31.5096 37.4889 31.8381 37.2467 32.0803C37.0045 32.3226 36.6759 32.4587 36.3333 32.4587H35.2096" stroke="#0A7AE0" stroke-width="1.5" stroke-linecap="round" stroke-linejoin="round"/>
<path d="M16.8163 32.4586H15.6667C15.3242 32.4586 14.9956 32.3225 14.7534 32.0802C14.5111 31.838 14.3751 31.5095 14.3751 31.1669V25.7161C14.3665 25.421 14.4592 25.1319 14.6378 24.8969C14.8164 24.6619 15.0701 24.4951 15.3567 24.4244L16.9584 24.0627L17.9788 20.4848C18.0569 20.2054 18.2269 19.9605 18.4612 19.7894C18.6955 19.6184 18.9806 19.5312 19.2705 19.5419H24.7084V32.4586H22.293" stroke="#0A7AE0" stroke-width="1.5" stroke-linecap="round" stroke-linejoin="round"/>
<path d="M29.875 22.125H37.625M29.875 32.4583C29.875 32.9693 30.0266 33.4687 30.3104 33.8936C30.5943 34.3184 30.9977 34.6495 31.4698 34.845C31.9418 35.0405 32.4612 35.0917 32.9624 34.992C33.4635 34.8923 33.9238 34.6463 34.2851 34.285C34.6464 33.9237 34.8924 33.4634 34.9921 32.9623C35.0917 32.4612 35.0406 31.9418 34.8451 31.4697C34.6495 30.9977 34.3184 30.5942 33.8936 30.3104C33.4688 30.0265 32.9693 29.875 32.4584 29.875C31.7732 29.875 31.1162 30.1472 30.6317 30.6316C30.1472 31.1161 29.875 31.7732 29.875 32.4583ZM16.9584 32.4583C16.9584 32.9693 17.1099 33.4687 17.3937 33.8936C17.6776 34.3184 18.0811 34.6495 18.5531 34.845C19.0252 35.0405 19.5446 35.0917 20.0457 34.992C20.5468 34.8923 21.0071 34.6463 21.3684 34.285C21.7297 33.9237 21.9757 33.4634 22.0754 32.9623C22.1751 32.4612 22.1239 31.9418 21.9284 31.4697C21.7329 30.9977 21.4018 30.5942 20.9769 30.3104C20.5521 30.0265 20.0526 29.875 19.5417 29.875C18.8566 29.875 18.1995 30.1472 17.715 30.6316C17.2305 31.1161 16.9584 31.7732 16.9584 32.4583Z" stroke="#0A7AE0" stroke-width="1.5" stroke-linecap="round" stroke-linejoin="round"/>
</svg>
