<svg width="52" height="52" viewBox="0 0 52 52" fill="none" xmlns="http://www.w3.org/2000/svg">
<rect width="52" height="52" rx="26" fill="white"/>
<path d="M23.6666 14.333H28.3333" stroke="#0A7AE0" stroke-width="1.75" stroke-linecap="round" stroke-linejoin="round"/>
<path d="M26 28.3337V23.667" stroke="#0A7AE0" stroke-width="1.75" stroke-linecap="round" stroke-linejoin="round"/>
<path d="M16.6666 27.167C16.9523 24.8989 18.0604 22.8146 19.7807 21.3093C21.5011 19.804 23.7141 18.9824 26 19.0003C27.5097 19.0019 28.9965 19.3697 30.3328 20.0722C31.6692 20.7746 32.8151 21.7908 33.6725 23.0335C34.5298 24.2762 35.0729 25.7083 35.2551 27.2069C35.4374 28.7056 35.2533 30.2261 34.7188 31.6381C34.1843 33.05 33.3153 34.3112 32.1862 35.3135C31.0572 36.3157 29.7019 37.0292 28.2365 37.3926C26.7712 37.7559 25.2396 37.7584 23.7731 37.3998C22.3066 37.0412 20.9489 36.3322 19.8166 35.3336L16.6666 32.5336" stroke="#0A7AE0" stroke-width="1.75" stroke-linecap="round" stroke-linejoin="round"/>
<path d="M22.5 31.833H16.6666V37.6663" stroke="#0A7AE0" stroke-width="1.75" stroke-linecap="round" stroke-linejoin="round"/>
</svg>
