<svg width="105" height="17" viewBox="0 0 105 17" fill="none" xmlns="http://www.w3.org/2000/svg">
<path d="M19.9337 8.40989L19.6423 7.88454L19.2617 7.19705V7.1965H19.2612L18.9703 6.6717L18.5897 5.98366L18.2983 5.45832L18.0075 5.98421L17.6274 6.67225L17.9182 7.19705H17.9187V7.1976L18.2999 7.88509L18.009 8.41098L17.6289 9.09902L17.3386 9.62492L16.958 10.313L16.6677 10.8383L15.9064 10.8388L15.6156 10.3135L15.2344 9.62546L14.943 9.10012L14.5624 8.41208L14.271 7.88673L13.8904 7.19924V7.19869H13.8899L13.599 6.6739L13.2184 5.98585L12.927 5.46051L12.5464 4.77302V4.77247H12.5459L12.255 4.24712L11.8744 3.55963V3.55908H11.8739L11.2932 3.55963L10.5315 3.56018H10.5309L9.9503 3.56073L9.18852 3.56127H9.188L8.60735 3.56182L7.8461 3.56237H7.84557L7.26492 3.56292L6.50315 3.56346H6.50262L5.92197 3.56401L5.1602 3.56456L4.5785 3.56511L4.1984 4.25315L3.90755 4.77904L3.52745 5.46708L3.23712 5.99297L3.2366 5.99352L2.8565 6.68156L2.56617 7.20746H2.56565L2.18555 7.8955L2.47692 8.42139L3.23817 8.42084H3.81935L3.5285 7.89495L3.9086 7.20691L3.90912 7.20636L4.19892 6.68102L4.57955 5.99297V5.99243L4.86987 5.46708L5.24997 4.77904L5.83167 4.77849L6.59292 4.77795L7.1741 4.7774H7.17462L7.93587 4.77685L8.51705 4.7763H8.51757L9.27882 4.77575L9.85947 4.77521H9.86L10.6212 4.77466L11.2024 4.77411H11.2029V4.77466L11.5836 5.46215L11.8749 5.9875L12.2561 6.67554L12.5464 7.20034H12.5469V7.20088L12.9281 7.88838L13.2189 8.41372L13.6001 9.10176L13.8909 9.62711L14.2721 10.3151L14.5635 10.8405H13.9818L13.2205 10.841H12.6388L11.8776 10.8416H11.2959L10.5346 10.8421H9.95345L9.1922 10.8427H8.6105L7.84925 10.8432H7.26755L6.5063 10.8438H5.9246L5.16335 10.8443H4.58165L3.82092 10.8465L4.20155 11.534L4.49292 12.0594L4.87355 12.7474L5.16492 13.2727L5.54555 13.9608L5.83692 14.4861L6.59817 14.4856H7.17987L7.94112 14.485H8.52282L9.28407 14.4845H9.86577L10.627 14.4839H11.2087L11.97 14.4834H12.5517L13.3129 14.4828L13.8941 14.4823L14.6553 14.4817L15.237 14.4812L15.9983 14.4806L16.2886 13.9548L16.6692 13.2667L16.9596 12.7414L17.3397 12.0533L17.63 11.5274L18.0106 10.8394L18.3009 10.3135L18.681 9.62546L18.9719 9.09957L19.2627 9.62492L19.6439 10.3124L20.024 9.62437L20.3143 9.09848L19.9337 8.40989ZM15.6166 12.7408L15.3263 13.2662L14.565 13.2667H13.9833L13.2221 13.2673L12.6404 13.2678L11.8791 13.2684L11.2974 13.2689L10.5362 13.2695L9.9545 13.27L9.19325 13.2706L8.61155 13.2711L7.8503 13.2716L7.26912 13.2722L6.50787 13.2727L6.2165 12.7474L5.83587 12.0594L6.59712 12.0588L7.1783 12.0583L7.93955 12.0577L8.52125 12.0572L9.2825 12.0566L9.8642 12.0561L10.6254 12.0555L11.2066 12.055L11.9679 12.0544L12.5496 12.0539L13.3108 12.0533L13.8925 12.0528L14.6538 12.0522L15.2355 12.0517L15.9967 12.0511L15.6166 12.7408Z" fill="white"/>
<path d="M11.2061 9.6281L10.6244 9.62865L9.86315 9.62919L9.19115 8.41636L9.9524 8.41581L10.5341 8.41526L11.2061 9.6281ZM8.5202 9.62974L7.93903 9.63029L7.17778 9.63084L6.59608 9.63139H5.83483L5.25313 9.63193H4.49188L3.9107 9.63248L3.14893 9.63303L2.85808 9.10768L2.47693 8.42019L3.2387 8.41964H3.81988L4.58113 8.41855H5.16283L5.92408 8.418L6.50578 8.41745H7.26703L7.8482 8.4169L8.22935 9.1044L8.5202 9.62974ZM29.4446 9.73711H27.5315V12.3458H25.7959V5.55518H27.5315V8.16382H29.348L31.0595 5.55518H33.1595L30.8684 8.88747L33.3501 12.3463H31.1981L29.4446 9.73711Z" fill="white"/>
<path d="M41.6971 12.3458H39.9268L39.4706 10.7703H35.9699L35.5136 12.3458H33.7433L35.7221 5.55521H39.7194L41.6971 12.3458ZM37.0514 7.03812L36.434 9.19537H39.0065L38.3885 7.03812H37.0514ZM50.201 8.15783C50.201 8.48487 50.1842 8.9883 50.1417 9.27535C49.9758 10.3923 49.423 10.8612 47.9798 10.8612H44.383V12.3392H42.6473V5.54864H47.9798C49.2776 5.54864 49.9244 5.95237 50.1281 7.03373C50.1779 7.29668 50.201 7.83079 50.201 8.15783ZM48.4139 7.64837C48.4139 7.30873 48.1499 7.03373 47.8249 7.03373H44.3835V9.2863H47.8249C48.1504 9.2863 48.4139 9.01076 48.4139 8.67167V7.64837ZM53.1573 7.03812V8.20823H58.0687V9.69332H53.1573V10.8656H58.9759V12.3458H51.4217V5.55521H58.9754V7.03757L53.1573 7.03812ZM68.103 5.55412V12.3458H66.3674V7.03921H62.9228C62.5973 7.03921 62.3338 7.31476 62.3338 7.65385V9.6117L62.3312 9.61389C62.3312 10.1173 62.2997 10.3863 62.2424 10.7144C62.1569 11.2096 61.8928 11.6019 61.5809 11.873C61.1798 12.222 60.6338 12.3463 59.8059 12.3463V10.8662C60.4711 10.7774 60.5393 10.068 60.5462 9.96503V8.16385C60.5462 7.83681 60.5693 7.30271 60.6191 7.03921C60.8228 5.95839 61.4702 5.55412 62.7674 5.55412H68.103ZM77.1388 5.55083V12.3414H75.3827V7.12577L72.4374 12.3414H69.5851V5.55083H71.3412V10.7659L74.3127 5.55083H77.1388ZM78.4933 9.27316C78.4508 8.98611 78.434 8.48268 78.434 8.15564C78.434 7.8286 78.4576 7.29449 78.5069 7.031C78.7106 5.95018 79.3575 5.5459 80.6553 5.5459H85.9877V12.3365H84.252V10.8585H81.2296L80.4038 12.3387H78.434L79.3874 10.6536C78.854 10.4197 78.5972 9.9738 78.4933 9.27316ZM84.252 7.031H80.8106C80.4851 7.031 80.2216 7.30654 80.2216 7.64563V8.66838C80.2216 9.00802 80.4851 9.28302 80.8106 9.28302H84.252V7.031Z" fill="white"/>
<path d="M92.0562 12.3465V5.5559H93.7918V12.3465H92.0562ZM102.308 7.03661H99.3993V12.3421H97.6637V7.03661H94.7547V5.55151H102.308V7.03661Z" fill="white"/>
</svg>
