<svg width="111" height="54" viewBox="0 0 111 54" fill="none" xmlns="http://www.w3.org/2000/svg">
<path d="M34.717 34.9604H41.618V37.1928H38.3351V52.8783H34.717V34.9604Z" fill="#0A7AE0"/>
<path d="M45.7093 46.1518L46.3293 37.1928H46.537L47.1571 46.1518H45.7093ZM41.7025 52.8783H45.245L45.5802 48.1198H47.2862L47.6229 52.8783H51.1639L49.2769 34.9604H43.5894L41.7025 52.8783Z" fill="#0A7AE0"/>
<path d="M56.3455 46.6071V49.985C56.3455 50.4403 56.7016 50.5725 56.9092 50.5725C57.2504 50.5725 57.4878 50.2935 57.4878 49.985V45.814C57.4878 45.2559 57.3839 44.639 56.034 44.639H54.5654V42.671H56.0933C57.1169 42.671 57.4878 42.436 57.4878 41.3345V37.7803C57.4878 37.4719 57.2504 37.1928 56.9092 37.1928C56.7016 37.1928 56.3455 37.3103 56.3455 37.7803V40.703H52.726V38.1622C52.726 36.9138 52.8743 34.9604 55.411 34.9604H58.4075C60.9442 34.9604 61.1074 36.9138 61.1074 38.1622V41.0261C61.1074 42.9794 59.7278 43.5082 58.6449 43.4641V43.6403C61.0777 43.5816 61.1074 45.4321 61.1074 46.0637V49.6766C61.1074 50.9397 60.9442 52.8783 58.4075 52.8783H55.411C52.8743 52.8783 52.726 50.9397 52.726 49.6766V46.6071H56.3455Z" fill="#0A7AE0"/>
<path d="M63.4808 34.9604H71.8623V52.8783H68.2427V37.1928H67.1004V52.8783H63.4808V34.9604Z" fill="#0A7AE0"/>
<path d="M77.8554 44.8153V37.1928H78.3301C78.7158 37.1928 78.9977 37.5159 78.9977 38.0887V43.9194C78.9977 44.4922 78.7158 44.8153 78.3301 44.8153H77.8554ZM74.2358 52.8783H77.8554V46.7833H79.9322C82.4541 46.7833 82.6173 44.8447 82.6173 43.5816V38.1622C82.6173 36.9138 82.4541 34.9604 79.9322 34.9604H74.2358V52.8783Z" fill="#0A7AE0"/>
<path d="M89.7525 49.985C89.7525 50.2935 89.5152 50.5725 89.174 50.5725C88.9663 50.5725 88.6103 50.4403 88.6103 49.985V37.7803C88.6103 37.3103 88.9663 37.1928 89.174 37.1928C89.5152 37.1928 89.7525 37.4719 89.7525 37.7803V49.985ZM84.9907 49.6766C84.9907 50.9397 85.1539 52.8783 87.6757 52.8783H90.6871C93.209 52.8783 93.3721 50.9397 93.3721 49.6766V38.1622C93.3721 36.9138 93.209 34.9604 90.6871 34.9604H87.6757C85.1539 34.9604 84.9907 36.9138 84.9907 38.1622V49.6766Z" fill="#0A7AE0"/>
<path d="M105.151 34.9604H109.868V52.8783H106.248V41.6429H106.115L104.246 52.8783H101.353L99.4987 41.6429H99.3652V52.8783H95.7456V34.9604H100.448L102.807 47.5617L105.151 34.9604Z" fill="#0A7AE0"/>
<path d="M30.0263 10.4629C28.9182 5.66028 26.1412 1.7536 25.7585 1.12207C25.1532 2.01796 22.9385 5.46935 21.8125 9.28792C20.5828 13.5618 20.4018 17.351 20.826 21.0667C21.2473 24.7971 22.8391 28.6304 22.8391 28.6304C23.6846 30.6278 24.9515 32.7868 25.7763 33.8442C26.9853 32.2874 29.7638 27.6464 30.6301 21.5954C31.1122 18.2175 31.133 15.2654 30.0263 10.4629ZM25.7585 32.6399C25.2141 31.6265 24.3685 29.7025 24.2884 26.7064C24.2676 23.8278 25.4351 21.3458 25.7763 20.8317C26.0804 21.3458 27.0862 23.5047 27.2063 26.4568C27.2879 29.3354 26.3207 31.6118 25.7585 32.6399ZM29.7044 18.614C29.6629 20.4499 29.4419 22.3885 29.16 23.5488C29.2609 21.5514 29.0191 18.7462 28.5562 16.5432C28.0934 14.3549 26.7835 10.6832 25.7377 8.99418C24.772 10.6097 23.5823 13.7821 22.9592 16.5285C22.3332 19.2749 22.3154 22.6088 22.3154 23.6075C22.1493 22.7704 21.7339 19.7596 21.8511 16.7488C21.949 14.2667 22.5364 11.6966 22.8584 10.5216C24.0866 6.60024 25.4766 4.0888 25.7377 3.69225C25.9988 4.0888 27.7493 7.1877 28.6571 10.4335C29.5605 13.6793 29.743 16.7929 29.7044 18.614Z" fill="#0A7AE0"/>
<path d="M27.638 34.9603H19.2136V40.5559C19.221 40.5559 19.2269 40.5413 19.2344 40.5413C21.2192 38.5732 24.4383 38.5732 26.4246 40.5413C28.4094 42.4946 28.4094 45.6816 26.4246 47.6496C26.4157 47.6643 26.4068 47.6643 26.3979 47.679C26.3875 47.679 26.3771 47.6937 26.3682 47.7084C24.3878 49.647 21.8007 50.6164 19.2136 50.6164C16.6146 50.6164 14.0156 49.647 12.0338 47.679C8.53876 44.2276 8.12489 38.8669 10.7891 34.9603C11.1481 34.4315 11.562 33.9322 12.0338 33.4622C14.0156 31.4942 16.6146 30.5249 19.2136 30.5249V17.0718C9.22709 17.0718 1.13196 25.0761 1.13196 34.9603C1.13196 44.8445 9.22709 52.8634 19.2136 52.8634C24.4205 52.8634 29.1111 50.6751 32.4102 47.1944V34.9603H27.638Z" fill="#0A7AE0"/>
</svg>
