<svg width="18" height="15" viewBox="0 0 18 15" fill="none" xmlns="http://www.w3.org/2000/svg">
<g clip-path="url(#clip0_261_1586)">
<path d="M4.72105 4.89023L8.44405 7.85673C8.59411 7.97532 8.77978 8.03982 8.97105 8.03982C9.16231 8.03982 9.34798 7.97532 9.49805 7.85673L13.221 4.89023M15.771 13.3902H2.17104C1.94561 13.3902 1.72941 13.3007 1.57 13.1413C1.4106 12.9819 1.32104 12.7657 1.32104 12.5402V2.34023C1.32104 2.1148 1.4106 1.8986 1.57 1.73919C1.72941 1.57979 1.94561 1.49023 2.17104 1.49023H15.771C15.9965 1.49023 16.2127 1.57979 16.3721 1.73919C16.5315 1.8986 16.621 2.1148 16.621 2.34023V12.5402C16.621 12.7657 16.5315 12.9819 16.3721 13.1413C16.2127 13.3007 15.9965 13.3902 15.771 13.3902Z" stroke="white" stroke-width="1.7" stroke-linecap="round" stroke-linejoin="round"/>
</g>
<defs>
<clipPath id="clip0_261_1586">
<rect width="17" height="13.6" fill="white" transform="translate(0.471069 0.640625)"/>
</clipPath>
</defs>
</svg>
