<svg width="19" height="19" viewBox="0 0 19 19" fill="none" xmlns="http://www.w3.org/2000/svg">
<path opacity="0.958" fill-rule="evenodd" clip-rule="evenodd" d="M8.99897 0.538173C9.98727 0.444627 10.7171 0.828093 11.1884 1.68856C12.153 1.71948 13.1179 1.73804 14.083 1.74423C15.1052 1.82639 15.7423 2.36448 15.9941 3.35849C16.0188 7.82397 16.0188 12.2895 15.9941 16.755C15.7894 17.6895 15.2142 18.2276 14.2685 18.3692C10.9781 18.394 7.68779 18.394 4.39741 18.3692C3.54321 18.2361 2.98039 17.7599 2.70894 16.9405C2.66598 14.6472 2.64743 12.3526 2.65327 10.0567C2.65946 7.82397 2.66564 5.59125 2.67183 3.35849C2.92365 2.36448 3.5607 1.82639 4.58296 1.74423C5.5478 1.73186 6.51265 1.71949 7.47749 1.70712C7.79782 1.07103 8.30499 0.681385 8.99897 0.538173ZM9.1103 1.46591C9.85776 1.42868 10.3216 1.77503 10.5019 2.50497C10.547 2.56244 10.6026 2.60574 10.6689 2.63485C11.0274 2.6534 11.3861 2.65959 11.7451 2.65341C11.821 3.18742 11.6478 3.61417 11.2255 3.93368C11.087 4.01284 10.9386 4.0623 10.7802 4.08212C9.81538 4.10687 8.85054 4.10687 7.88569 4.08212C7.47675 4.02311 7.18603 3.80666 7.01362 3.4327C6.93985 3.17839 6.90894 2.91862 6.92085 2.65341C7.3082 2.67015 7.69165 2.6516 8.07124 2.59774C8.10215 2.56682 8.1331 2.53589 8.16401 2.50497C8.28328 1.97163 8.59871 1.62528 9.1103 1.46591ZM4.58296 2.65341C5.05302 2.65341 5.52305 2.65341 5.99312 2.65341C5.91597 3.70602 6.34888 4.4544 7.29194 4.89852C7.37685 4.92903 7.46346 4.95378 7.55171 4.97274C8.14435 5.01356 8.7381 5.03212 9.33296 5.02841C9.92782 5.03212 10.5216 5.01356 11.1142 4.97274C12.0408 4.72652 12.5541 4.12658 12.6542 3.17294C12.6728 3.0002 12.679 2.82702 12.6728 2.65341C13.143 2.64722 13.6131 2.65341 14.083 2.67196C14.5866 2.72258 14.9144 2.98853 15.0664 3.46981C15.0911 7.86108 15.0911 12.2524 15.0664 16.6436C14.9418 17.0898 14.6511 17.3557 14.1943 17.4415C10.9534 17.4662 7.7125 17.4662 4.47163 17.4415C4.01481 17.3557 3.7241 17.0898 3.59956 16.6436C3.57482 12.2524 3.57482 7.86108 3.59956 3.46981C3.76644 2.99959 4.09423 2.72745 4.58296 2.65341Z" fill="#404349"/>
<path opacity="0.944" fill-rule="evenodd" clip-rule="evenodd" d="M11.7451 8.62793C12.2619 8.67179 12.4165 8.93156 12.209 9.40723C11.1143 10.4772 10.0195 11.5472 8.9248 12.6172C8.69302 12.7494 8.47036 12.7371 8.25684 12.5801C7.6167 11.9524 6.992 11.3153 6.38281 10.6689C6.32047 10.2242 6.51218 10.0201 6.95801 10.0566C7.542 10.5291 8.09244 11.0425 8.60937 11.5967C9.59277 10.638 10.5762 9.67935 11.5596 8.7207C11.6269 8.69261 11.6887 8.6617 11.7451 8.62793Z" fill="#404349"/>
</svg>
