<svg width="6" height="10" viewBox="0 0 6 10" fill="none" xmlns="http://www.w3.org/2000/svg">
<path d="M5.39815 5.25525C5.46605 5.18593 5.5 5.10714 5.5 5.01891C5.5 4.91807 5.45062 4.81723 5.35185 4.71639L1.46296 0.689077C1.41358 0.638656 1.3642 0.594538 1.31481 0.556723C1.27161 0.518908 1.23148 0.5 1.19444 0.5C1.13889 0.5 1.08025 0.531513 1.01852 0.594539L0.648148 0.97269C0.580247 1.04202 0.546296 1.10819 0.546296 1.17122C0.546296 1.25315 0.601852 1.35084 0.712963 1.46429L4.11111 5.02836L0.666667 8.58298C0.555556 8.69643 0.5 8.79412 0.5 8.87605C0.5 8.93908 0.524691 8.9958 0.574074 9.04622L0.907407 9.39601C0.975309 9.46534 1.05247 9.5 1.13889 9.5C1.25 9.5 1.34259 9.45273 1.41667 9.35819L5.39815 5.25525Z" fill="#0A7AE0"/>
</svg>
