<svg width="72" height="72" viewBox="0 0 72 72" fill="none" xmlns="http://www.w3.org/2000/svg">
<g clip-path="url(#clip0_248_5595)">
<path d="M19.3031 10.1522C18.4805 10.3654 17.6375 10.8326 16.7742 11.574C15.8196 12.3967 12.3969 15.8803 11.8383 16.6014C9.57346 19.4959 9.53284 23.9951 11.7266 29.8045C14.3977 36.9037 19.4047 44.0943 25.7422 49.9342C34.4766 57.9881 46.1766 63.1982 52.1992 61.7357C53.093 61.5225 54.5758 60.8318 55.2563 60.3139C55.9469 59.7959 60.5375 55.0834 60.9641 54.4639C61.7563 53.3162 62.061 51.7826 61.7563 50.4826C61.411 49.0303 61.2992 48.8982 56.8813 44.4701C52.4227 40.0115 52.2805 39.8998 50.8078 39.5951C49.6399 39.3514 48.4516 39.5647 47.3039 40.2248C47.0399 40.3873 45.7805 41.535 44.511 42.7943L42.2055 45.0693L41.4641 44.6834C39.6461 43.7389 38.3055 42.835 36.3047 41.1897C34.2531 39.5037 31.3891 36.5482 29.8047 34.4764C28.6571 32.9732 26.9711 30.2006 26.961 29.8248C26.961 29.7537 27.7531 28.9209 28.718 27.9764C30.7492 25.9959 31.5516 25.0717 32.0086 24.1982C32.5774 23.0912 32.6891 21.6897 32.293 20.5318C31.8969 19.3537 31.511 18.9068 27.6313 15.017C23.7922 11.1779 23.2031 10.6701 22.1063 10.2943C21.3446 10.0201 20.0852 9.95919 19.3031 10.1522ZM21.6594 13.0061C21.9438 13.1686 23.5688 14.7022 25.7524 16.8959C29.7031 20.8568 29.8555 21.0397 29.8453 22.0857C29.8453 23.01 29.6016 23.335 26.9508 25.9857C25.6102 27.3162 24.4422 28.5451 24.361 28.7178C24.2391 28.9311 24.2086 29.2256 24.2391 29.7232C24.2696 30.3326 24.3508 30.5662 24.9703 31.7951C26.3719 34.5779 28.2203 37.0256 31.2774 40.1537C34.3141 43.2615 37.3406 45.5771 40.4586 47.1818C41.5656 47.7506 41.7789 47.8318 42.2867 47.8217C42.6321 47.8217 42.9977 47.7506 43.211 47.6389C43.4039 47.5373 44.6633 46.3592 46.0039 45.0287C47.7305 43.3123 48.5735 42.5506 48.8985 42.4084C49.5078 42.1342 50.3 42.1342 50.8586 42.4084C51.468 42.7131 58.6485 49.8834 58.9633 50.5131C59.136 50.8482 59.207 51.1529 59.207 51.5896C59.207 52.6357 58.9938 52.9201 56.1094 55.8146C53.2555 58.6787 52.9914 58.8717 51.468 59.217C49.9953 59.542 47.5274 59.2779 45.0289 58.5365C41.2203 57.4092 36.1016 54.7076 31.8867 51.5998C23.7719 45.6279 16.8047 36.4975 13.9102 28.0576C12.5289 24.0459 12.3766 21.1717 13.4328 19.0389C13.7578 18.3584 14.0625 18.0131 16.175 15.8701C17.475 14.5498 18.7242 13.3514 18.9375 13.199C19.8516 12.5693 20.786 12.4982 21.6594 13.0061Z" fill="#0A7AE0"/>
</g>
<defs>
<clipPath id="clip0_248_5595">
<rect width="52" height="52" fill="white" transform="translate(10 10)"/>
</clipPath>
</defs>
</svg>
