<svg width="12" height="12" viewBox="0 0 12 12" fill="none" xmlns="http://www.w3.org/2000/svg">
<path fill-rule="evenodd" clip-rule="evenodd" d="M9.90265 2.09972C9.86345 2.1188 9.82295 2.1353 9.78155 2.1491L3.35138 4.29249L6.18834 5.14358C6.51031 5.24017 6.76222 5.49208 6.85881 5.81406L7.7099 8.65101L9.85325 2.22083C9.86705 2.17942 9.88355 2.13896 9.90265 2.09972ZM6.25227 10.7524C6.25402 10.7648 6.25598 10.7777 6.25819 10.7909C6.27607 10.8981 6.31368 11.0564 6.39889 11.2268C6.48605 11.4012 6.63249 11.6059 6.87088 11.7648C7.11553 11.9279 7.39679 12.0024 7.68316 12.0024C7.96954 12.0024 8.2508 11.9279 8.49544 11.7648C8.73383 11.6059 8.88028 11.4012 8.96744 11.2268C9.05265 11.0564 9.09025 10.8981 9.10815 10.7909C9.10925 10.7843 9.11025 10.7779 9.11125 10.7715L11.7328 2.90695C11.7327 2.90698 11.7328 2.90692 11.7328 2.90695C11.7504 2.86747 11.7733 2.81407 11.798 2.74984C11.8464 2.62419 11.9075 2.44262 11.9497 2.23194C12.0196 1.88228 12.1073 1.09147 11.5091 0.49332C10.911 -0.104839 10.1202 -0.0171719 9.77045 0.0527582C9.55975 0.0948958 9.37825 0.15609 9.25255 0.204419C9.18835 0.229123 9.13505 0.251898 9.09555 0.269597C9.09555 0.269584 9.09555 0.26961 9.09555 0.269597L1.23086 2.89115C1.22452 2.89213 1.21807 2.89316 1.21153 2.89425C1.10426 2.91213 0.945963 2.94974 0.775563 3.03495C0.601233 3.12211 0.396493 3.26856 0.237563 3.50695C0.074463 3.7516 0 4.03286 0 4.31923C0 4.6056 0.074463 4.88686 0.237563 5.13151C0.396493 5.3699 0.601233 5.51634 0.775563 5.60351C0.945963 5.68871 1.10426 5.72633 1.21153 5.7442C1.22474 5.74641 1.23756 5.74837 1.24995 5.75012L5.09789 6.90451L6.25227 10.7524Z" fill="white"/>
</svg>
