<svg width="53" height="52" viewBox="0 0 53 52" fill="none" xmlns="http://www.w3.org/2000/svg">
<g clip-path="url(#clip0_82_2618)">
<path opacity="0.951" fill-rule="evenodd" clip-rule="evenodd" d="M4.91797 0.151856C15.6837 0.134928 26.4493 0.151856 37.2148 0.202637C39.4323 0.795084 40.8373 2.20004 41.4297 4.41748C41.5953 10.4752 41.6293 16.535 41.5312 22.5972C41.1945 23.5842 40.5681 23.8211 39.6523 23.3081C39.4156 23.0931 39.2972 22.8222 39.2969 22.4956C39.2631 16.605 39.2291 10.7144 39.1953 4.82373C38.8746 3.55509 38.079 2.75952 36.8086 2.43701C26.3138 2.3693 15.819 2.3693 5.32422 2.43701C4.05469 2.75863 3.25912 3.5542 2.9375 4.82373C2.86979 18.9071 2.86979 32.9904 2.9375 47.0737C3.25912 48.3433 4.05469 49.1388 5.32422 49.4605C15.819 49.5282 26.3138 49.5282 36.8086 49.4605C37.9088 49.1898 38.6705 48.5296 39.0938 47.48C39.1967 45.585 39.2983 43.6892 39.3984 41.7925C39.897 41.1342 40.4895 41.0326 41.1758 41.4878C41.3995 41.6701 41.5179 41.9071 41.5312 42.1987C41.599 43.6544 41.599 45.1102 41.5312 46.5659C41.2588 49.3097 39.7861 51.0193 37.1133 51.6948C26.4154 51.7626 15.7174 51.7626 5.01953 51.6948C2.74556 51.1474 1.30676 49.7425 0.703125 47.48C0.635417 33.1259 0.635417 18.7716 0.703125 4.41748C1.31409 2.1985 2.71903 0.776632 4.91797 0.151856Z" fill="#0A7AE0"/>
<path opacity="0.951" fill-rule="evenodd" clip-rule="evenodd" d="M23.9101 6.55029C27.3634 6.53336 30.8165 6.55029 34.2695 6.60108C35.0654 6.9244 35.2855 7.48299 34.9296 8.27686C34.7729 8.46762 34.5867 8.61997 34.371 8.73389C30.8841 8.8016 27.397 8.8016 23.9101 8.73389C23.2079 8.36052 23.0216 7.80193 23.3515 7.05811C23.5272 6.86495 23.7134 6.69567 23.9101 6.55029Z" fill="#0A7AE0"/>
<path opacity="0.953" fill-rule="evenodd" clip-rule="evenodd" d="M7.66063 13.0503C16.5982 13.0333 25.5357 13.0503 34.4731 13.1011C35.0811 13.5244 35.2334 14.083 34.9302 14.7769C34.7319 15.02 34.478 15.1724 34.1684 15.2339C25.4341 15.3016 16.6997 15.3016 7.96532 15.2339C7.04562 14.8652 6.82556 14.239 7.30516 13.355C7.45938 13.2877 7.57787 13.1861 7.66063 13.0503Z" fill="#0A7AE0"/>
<path opacity="0.956" fill-rule="evenodd" clip-rule="evenodd" d="M7.86305 19.4487C16.6991 19.4318 25.535 19.4487 34.3709 19.4995C35.0731 19.8824 35.2592 20.441 34.9295 21.1753C34.7728 21.366 34.5866 21.5184 34.3709 21.6323C25.5011 21.7001 16.6313 21.7001 7.76149 21.6323C7.08971 21.242 6.9035 20.6834 7.2029 19.9566C7.38621 19.7203 7.60626 19.5511 7.86305 19.4487Z" fill="#0A7AE0"/>
<path opacity="0.955" fill-rule="evenodd" clip-rule="evenodd" d="M46.1523 20.566C46.5391 20.5318 46.9114 20.5826 47.2695 20.7183C48.8776 22.3264 50.4857 23.9345 52.0938 25.5426C52.1864 25.7618 52.271 25.9818 52.3477 26.2027C52.271 26.4236 52.1864 26.6436 52.0938 26.8629C45.4076 33.549 38.7213 40.2353 32.0352 46.9215C30.0666 47.2995 28.0861 47.6211 26.0938 47.8863C25.4334 47.7676 25.0441 47.3783 24.9258 46.7183C25.1911 44.7252 25.5127 42.7447 25.8906 40.7769C32.6339 34.0167 39.3878 27.2798 46.1523 20.566ZM46.5586 23.3082C47.5721 24.2539 48.5539 25.2357 49.5039 26.2535C48.5574 27.2507 47.5926 28.2325 46.6094 29.1988C45.6261 28.2325 44.6613 27.2507 43.7148 26.2535C44.665 25.2697 45.6128 24.2879 46.5586 23.3082ZM41.9883 27.8785C43.0459 28.7833 44.0615 29.7482 45.0352 30.773C40.3295 35.4787 35.6237 40.1845 30.918 44.8902C29.7716 45.0854 28.6206 45.2378 27.4648 45.3472C27.5838 44.1926 27.7361 43.0416 27.9219 41.8941C32.6622 37.2723 37.3509 32.6004 41.9883 27.8785Z" fill="#0A7AE0"/>
<path opacity="0.956" fill-rule="evenodd" clip-rule="evenodd" d="M7.65951 25.9487C16.5971 25.9318 25.5346 25.9487 34.472 25.9995C35.08 26.4228 35.2323 26.9814 34.929 27.6753C34.7308 27.9184 34.4769 28.0708 34.1673 28.1323C25.4668 28.2001 16.7663 28.2001 8.06576 28.1323C7.27572 27.9588 6.95411 27.4679 7.10091 26.6597C7.19911 26.3427 7.3853 26.1058 7.65951 25.9487Z" fill="#0A7AE0"/>
<path opacity="0.933" fill-rule="evenodd" clip-rule="evenodd" d="M15.278 37.7305C16.6672 37.7323 17.0904 38.3755 16.5475 39.6602C14.3978 41.8099 12.2481 43.9596 10.0983 46.1094C9.61055 46.4985 9.10274 46.5323 8.57488 46.2109C7.77931 45.4154 6.98373 44.6198 6.18816 43.8242C5.74033 42.8403 6.04502 42.2309 7.10222 41.9961C7.42485 42.0358 7.71261 42.1542 7.96551 42.3516C8.37176 42.7578 8.77801 43.1641 9.18426 43.5703C9.25197 43.6381 9.31967 43.6381 9.38738 43.5703C11.3402 41.6004 13.3038 39.6539 15.278 37.7305Z" fill="#0A7AE0"/>
</g>
<defs>
<clipPath id="clip0_82_2618">
<rect width="52" height="52" fill="white" transform="translate(0.5)"/>
</clipPath>
</defs>
</svg>
