<svg width="6" height="10" viewBox="0 0 6 10" fill="none" xmlns="http://www.w3.org/2000/svg">
<path d="M0.601851 5.25525C0.533949 5.18593 0.5 5.10714 0.5 5.01891C0.5 4.91807 0.549382 4.81723 0.648148 4.71639L4.53704 0.689077C4.58642 0.638656 4.6358 0.594538 4.68519 0.556723C4.72839 0.518908 4.76852 0.5 4.80556 0.5C4.86111 0.5 4.91975 0.531513 4.98148 0.594539L5.35185 0.97269C5.41975 1.04202 5.4537 1.10819 5.4537 1.17122C5.4537 1.25315 5.39815 1.35084 5.28704 1.46429L1.88889 5.02836L5.33333 8.58298C5.44444 8.69643 5.5 8.79412 5.5 8.87605C5.5 8.93908 5.47531 8.9958 5.42593 9.04622L5.09259 9.39601C5.02469 9.46534 4.94753 9.5 4.86111 9.5C4.75 9.5 4.65741 9.45273 4.58333 9.35819L0.601851 5.25525Z" fill="#0A7AE0"/>
</svg>
