<svg width="57" height="56" viewBox="0 0 57 56" fill="none" xmlns="http://www.w3.org/2000/svg">
<path opacity="0.963" fill-rule="evenodd" clip-rule="evenodd" d="M13.5694 2.24219C20.9341 2.22396 28.2987 2.24219 35.6632 2.29688C36.9373 2.49643 38.0311 3.04331 38.9445 3.9375C41.6211 6.7235 44.3372 9.47611 47.0929 12.1953C47.7497 13.0711 48.1507 14.0555 48.296 15.1484C48.369 20.6901 48.369 26.2317 48.296 31.7734C47.8486 32.6899 47.174 32.8904 46.2726 32.375C46.1412 32.2762 46.05 32.1487 45.9991 31.9922C45.9775 26.3761 45.9228 20.7616 45.8351 15.1484C43.2827 15.1667 40.7307 15.1484 38.1788 15.0938C36.8194 14.7187 35.9262 13.8619 35.4991 12.5234C35.4444 9.93516 35.4262 7.34661 35.4444 4.75781C28.3017 4.63137 21.1559 4.61313 14.0069 4.70313C12.1509 5.10116 11.1483 6.2496 10.9991 8.14844C10.9262 21.3464 10.9262 34.5442 10.9991 47.7422C11.1483 49.641 12.1509 50.7895 14.0069 51.1875C19.3663 51.2239 24.7257 51.2605 30.0851 51.2969C30.8721 51.7702 31.0362 52.4083 30.5773 53.2109C30.4445 53.3804 30.2804 53.5079 30.0851 53.5938C24.5799 53.6667 19.0746 53.6667 13.5694 53.5938C10.9962 53.0986 9.37384 51.5856 8.70226 49.0547C8.57582 42.0215 8.52114 34.985 8.5382 27.9453C8.52114 20.9056 8.57582 13.8691 8.70226 6.83594C9.39305 4.30367 11.0154 2.77242 13.5694 2.24219ZM37.8507 6.39844C39.9038 8.50628 41.9819 10.6026 44.0851 12.6875C42.2987 12.7605 40.5121 12.7605 38.7257 12.6875C38.4308 12.612 38.1938 12.448 38.0148 12.1953C37.8537 10.2733 37.799 8.34102 37.8507 6.39844Z" fill="#0A7AE0"/>
<path opacity="0.959" fill-rule="evenodd" clip-rule="evenodd" d="M16.3041 12.7422C20.898 12.7239 25.4917 12.7422 30.0854 12.7969C30.8724 13.2703 31.0365 13.9084 30.5776 14.711C30.4448 14.8804 30.2807 15.0079 30.0854 15.0938C25.4916 15.1667 20.8979 15.1667 16.3041 15.0938C15.2892 14.3102 15.2892 13.5264 16.3041 12.7422Z" fill="#0A7AE0"/>
<path opacity="0.962" fill-rule="evenodd" clip-rule="evenodd" d="M19.8041 19.7422C26.7313 19.7239 33.6584 19.7422 40.5854 19.7969C41.3724 20.2703 41.5365 20.9084 41.0776 21.711C40.9448 21.8804 40.7807 22.0079 40.5854 22.0938C33.6583 22.1667 26.7312 22.1667 19.8041 22.0938C18.7892 21.3102 18.7892 20.5264 19.8041 19.7422Z" fill="#0A7AE0"/>
<path opacity="0.964" fill-rule="evenodd" clip-rule="evenodd" d="M16.4139 25.5391C24.4348 25.5208 32.4556 25.5391 40.4764 25.5938C41.5522 26.254 41.6251 27.0196 40.6951 27.8906C32.5284 27.9636 24.3618 27.9636 16.1951 27.8906C15.271 27.0027 15.344 26.2188 16.4139 25.5391Z" fill="#0A7AE0"/>
<path opacity="0.948" fill-rule="evenodd" clip-rule="evenodd" d="M36.5388 30.1328C42.4723 30.5567 45.9906 33.6922 47.0935 39.5391C47.3155 41.5244 47.0057 43.4202 46.1638 45.2266C47.73 46.8474 49.3159 48.4516 50.9216 50.0391C52.1886 52.0518 51.9152 53.82 50.1013 55.3438C48.8239 55.9998 47.5478 55.9998 46.2732 55.3438C44.5401 53.6835 42.8083 52.0247 41.0779 50.3672C36.2681 52.2457 32.0754 51.3342 28.4997 47.6328C25.5992 43.7295 25.2711 39.6098 27.5154 35.2734C29.6579 32.042 32.6657 30.3284 36.5388 30.1328ZM35.8826 32.6484C40.0629 32.614 42.8885 34.5462 44.3591 38.4453C45.3133 42.8621 43.8002 46.1251 39.8201 48.2344C35.6262 49.6556 32.2538 48.5801 29.7029 45.0078C27.6767 41.0961 28.2418 37.6144 31.3982 34.5625C32.721 33.4995 34.2157 32.8615 35.8826 32.6484ZM44.7419 47.4141C46.1964 48.8138 47.6365 50.2357 49.0622 51.6797C49.4266 53.0122 48.9344 53.5409 47.5857 53.2656C46.1638 51.8438 44.7419 50.4219 43.3201 49C43.8597 48.5159 44.3336 47.9872 44.7419 47.4141Z" fill="#0A7AE0"/>
<path opacity="0.955" fill-rule="evenodd" clip-rule="evenodd" d="M16.1953 31.4453C18.8935 31.4271 21.5915 31.4453 24.2891 31.5C24.5625 31.6277 24.763 31.8281 24.8907 32.1016C25.1716 32.9491 24.8982 33.5143 24.0703 33.7969C21.5183 33.8698 18.9661 33.8698 16.4141 33.7969C15.6157 33.4209 15.3786 32.8193 15.7032 31.9922C15.8899 31.8241 16.0539 31.6418 16.1953 31.4453Z" fill="#0A7AE0"/>
<path opacity="0.949" fill-rule="evenodd" clip-rule="evenodd" d="M16.3041 37.2422C18.1638 37.2239 20.0232 37.2422 21.8823 37.2969C22.5498 37.6294 22.7867 38.1581 22.5932 38.8828C22.4291 39.1927 22.1921 39.4297 21.8823 39.5938C20.0229 39.6667 18.1635 39.6667 16.3041 39.5938C15.2892 38.8102 15.2892 38.0264 16.3041 37.2422Z" fill="#0A7AE0"/>
<path opacity="0.936" fill-rule="evenodd" clip-rule="evenodd" d="M31.6165 39.539C32.1637 39.4936 32.6194 39.6759 32.9836 40.0859C33.006 41.5339 33.571 42.7188 34.679 43.6406C35.4264 44.0527 36.2285 44.2715 37.0852 44.2968C38.0055 44.9346 38.0784 45.6637 37.304 46.4843C34.3974 46.7897 32.3375 45.6048 31.1243 42.9296C30.7386 41.9994 30.6657 41.0514 30.9055 40.0859C31.1204 39.8617 31.3575 39.6793 31.6165 39.539Z" fill="#0A7AE0"/>
<path opacity="0.95" fill-rule="evenodd" clip-rule="evenodd" d="M16.4139 43.0391C18.6017 43.0208 20.7892 43.0391 22.9764 43.0938C24.0522 43.754 24.1251 44.5196 23.1951 45.3906C20.8618 45.4636 18.5284 45.4636 16.1951 45.3906C15.271 44.5027 15.344 43.7188 16.4139 43.0391Z" fill="#0A7AE0"/>
</svg>
