<svg width="20" height="18" viewBox="0 0 20 18" fill="none" xmlns="http://www.w3.org/2000/svg">
<path fill-rule="evenodd" clip-rule="evenodd" d="M7.75736 3.69672L12.5303 8.46969C12.8232 8.76259 12.8232 9.23746 12.5303 9.53035L7.75736 14.3033C7.46447 14.5962 6.98959 14.5962 6.6967 14.3033C6.40381 14.0104 6.40381 13.5356 6.6967 13.2427L10.1893 9.75002H0V8.25002H10.1893L6.6967 4.75738C6.40381 4.46449 6.40381 3.98961 6.6967 3.69672C6.98959 3.40383 7.46447 3.40383 7.75736 3.69672Z" fill="#0A7AE0"/>
<path fill-rule="evenodd" clip-rule="evenodd" d="M18.5 0.75C18.9142 0.75 19.25 1.08579 19.25 1.5L19.25 16.5C19.25 16.9142 18.9142 17.25 18.5 17.25C18.0858 17.25 17.75 16.9142 17.75 16.5L17.75 1.5C17.75 1.08579 18.0858 0.75 18.5 0.75Z" fill="#0A7AE0"/>
</svg>
