<svg width="1189" height="673" viewBox="0 0 1189 673" fill="none" xmlns="http://www.w3.org/2000/svg">
<path d="M764.58 457.227C763.796 455.316 760.969 455.512 760.591 457.544C760.591 457.559 760.585 457.575 760.585 457.591C760.329 459.135 760.524 460.986 759.316 461.983C758.821 462.393 758.181 462.561 757.586 462.817C753.818 464.448 752.644 469.309 749.417 471.85C745.505 474.935 738.872 474.42 736.563 478.838C734.348 483.079 738.137 488.278 737.03 492.93C736.357 495.752 734.036 497.811 732.116 499.986C730.035 502.357 728.293 505.145 727.776 508.255C727.253 511.366 728.138 514.827 730.542 516.864C731.109 517.337 731.744 517.732 732.228 518.289C734.665 521.082 732.339 526.585 735.867 528.355C736.49 528.667 737.191 528.772 737.887 528.75C742.494 528.583 746.356 525.122 748.337 521.032C750.207 517.176 750.674 512.807 750.914 508.528C751.047 506.158 751.12 503.754 751.832 501.494C752.956 497.911 755.544 495.017 757.758 491.99C764.658 482.545 769.027 468.02 764.58 457.227Z" fill="#E1E4EC"/>
<path d="M1153 450.266C1152.35 450.309 1151.77 450.656 1151.42 451.202C1148.56 455.708 1148.11 461.386 1147.25 466.711C1146.49 471.437 1145.02 476.502 1141.68 479.725C1140.53 480.83 1138.75 480.939 1137.46 480.013L1131.08 475.45C1127.15 472.641 1122.72 468.115 1124.8 463.757C1126.01 461.236 1129.29 459.281 1127.88 456.415C1127.31 455.28 1126.18 454.533 1124.93 454.355C1118.07 453.38 1111.13 452.979 1104.21 453.158C1103.02 453.188 1101.76 453.262 1100.8 453.967C1099.84 454.689 1099.41 455.909 1099.02 457.056L1095.78 466.806C1095.3 468.268 1093.45 468.725 1092.34 467.662C1088.81 464.297 1083.64 462.484 1079.75 465.126C1078.45 466.008 1077.46 467.278 1076.5 468.526C1072.93 473.186 1069.36 477.846 1065.79 482.507C1060.71 489.13 1055.17 496.097 1047.27 498.791C1040.97 500.933 1033.52 500.215 1028.26 504.294C1022.54 508.735 1021.78 516.937 1021.5 524.177C1021.19 531.873 1020.89 539.568 1020.58 547.259C1020.37 552.601 1020.15 558.032 1018.41 563.085C1017.71 565.11 1016.77 567.303 1017.55 569.295C1018.73 572.311 1023.03 572.661 1025.96 571.298C1028.91 569.94 1031.26 567.469 1034.3 566.335C1040.74 563.919 1048.28 568.16 1054.72 565.745C1058.18 564.448 1060.66 561.471 1063.59 559.228C1071.6 553.063 1082.4 552.663 1092.61 552.896C1094.09 552.929 1095.35 553.975 1095.62 555.422C1095.91 557.031 1095.93 558.711 1096.06 560.353C1096.26 562.857 1096.87 565.556 1098.82 567.141C1100.26 568.321 1102.6 568.399 1104 567.381C1104.9 566.735 1106.19 567.08 1106.68 568.076C1109.03 572.901 1106.8 580.313 1110.81 584.286C1115.25 588.688 1122.97 585.015 1128.93 586.94C1131.02 587.62 1132.86 588.994 1135 589.484C1139.19 590.435 1143.41 587.748 1146.14 584.431C1148.88 581.12 1150.7 577.108 1153.55 573.892C1158.21 568.632 1165.14 565.989 1170.43 561.371C1175.71 556.769 1179.1 550.442 1182.38 544.265C1184.05 541.115 1185.76 537.877 1186.24 534.343C1186.59 531.801 1186.28 529.224 1186.25 526.659C1186.21 522.874 1186.74 519.007 1185.71 515.367C1184.78 512.007 1182.6 509.158 1180.51 506.369C1172.41 495.624 1164.7 484.329 1160.45 471.567C1158.86 466.783 1157.78 461.844 1156.93 456.873C1156.37 453.567 1155.3 453.709 1155.38 452.525C1155.48 451.254 1154.5 450.167 1153.23 450.251L1153 450.266Z" fill="#E1E4EC"/>
<path d="M405.467 430.276C405.355 431.901 404.582 433.398 403.758 434.806C396.396 447.354 383.258 458.2 383.904 472.734C384.132 477.715 386.041 482.445 387.109 487.317C388.183 492.186 388.283 497.695 385.301 501.696C380.704 507.867 370.727 508.023 366.342 514.35C365.156 516.064 364.494 518.106 363.22 519.753C361.918 521.445 360.037 522.641 358.818 524.394C357.527 526.264 357.104 528.584 356.659 530.81C353.91 544.644 347.533 559.729 334.217 564.37C331.418 565.35 327.946 566.251 327.139 569.1C326.766 570.397 327.094 571.771 327.228 573.112C327.829 578.933 324.473 584.959 319.204 587.508C317.445 588.359 315.453 588.888 314.073 590.274C311.458 592.883 308.931 597.775 305.526 599.032C304.736 599.322 304.379 600.201 304.724 600.969C307.368 606.884 305.787 614.652 303.372 621.363C302.66 623.339 303.984 625.437 306.071 625.67C308.208 625.915 310.284 626.984 311.313 629.326C312.598 632.259 311.246 635.687 310 638.636C308.759 641.58 307.234 644.523 307.084 647.717C306.8 653.583 311.179 658.646 315.926 662.108C320.667 665.569 326.137 668.212 329.91 672.714C320.094 672.486 309.816 671.523 301.592 666.159C296.377 662.759 292.376 657.828 288.465 652.987C283.362 646.655 276.501 639.465 277.664 629.749C277.842 628.252 277.814 626.739 277.602 625.247C276.723 619.149 274.876 613.189 272.143 607.663C270.179 603.701 267.764 599.951 266.239 595.794C261.048 581.637 267.057 565.617 263.791 550.893C262.695 545.935 260.558 541.232 259.74 536.219C257.425 522.068 265.733 506.804 259.951 493.683C258.811 491.084 257.163 488.747 255.527 486.426C252.278 481.816 248.95 477.119 244.393 473.797C241.226 471.488 237.587 469.93 234.27 467.838C224.683 461.778 218.283 451.288 216.196 440.137C215.456 436.208 215.128 431.968 212.691 428.802C211.077 426.698 208.562 425.101 207.972 422.519C207.243 419.347 209.764 416.326 209.964 413.076C210.087 411.1 209.346 409.181 209.146 407.216C208.818 403.916 210.031 400.672 211.372 397.645C214.388 390.817 218.166 384.329 222.618 378.336C223.686 376.9 224.844 375.359 224.877 373.572C224.911 372.037 224.109 370.629 223.33 369.31C220.509 364.524 220.793 354.77 217.087 352.076C216.569 351.703 215.256 352.16 214.638 352.788C213.731 353.718 213.364 355.031 212.652 356.116C211.333 358.103 208.74 359.154 206.408 358.637C204.082 358.125 202.168 356.088 201.806 353.729C201.712 353.117 201.706 352.477 201.433 351.92C200.732 350.496 198.785 350.418 197.288 349.884C194.928 349.038 193.409 346.79 192.057 344.67C190.582 342.366 189.113 340.057 187.639 337.747C184.539 332.895 180.778 327.581 175.09 326.668C172.542 326.256 169.236 324.587 167.495 323.491C157.896 317.431 146.483 315.344 135.648 311.955C124.808 308.561 113.495 301.705 111.275 290.57C110.724 287.793 110.785 284.933 110.285 282.151C108.843 274.16 103.757 267.393 99.5337 260.465C96.1393 254.906 93.9134 245.814 92.6391 239.103C92.3776 237.712 90.3242 237.901 90.3298 239.309C90.3854 250.861 94.1694 266.069 98.4486 276.063C99.4725 278.456 96.3118 280.448 94.6257 278.473C88.6771 271.506 85.6499 262.257 84.409 255.168C82.6839 245.352 81.4319 234.896 75.2997 227.039C73.4411 224.651 71.1429 222.531 69.9465 219.755C68.7946 217.061 68.7946 214.04 68.8168 211.107C68.9003 200.79 69.1452 189.872 74.6041 181.111C78.082 175.518 83.4352 171.261 86.735 165.569C90.569 158.952 91.2813 151.045 91.9046 143.422C92.7726 132.815 93.5628 121.714 89.3782 111.931C88.2096 109.216 86.518 106.5 83.8303 105.265C82.2332 104.525 80.3802 104.352 78.9501 103.328C77.6702 102.416 76.919 100.952 75.845 99.7947C72.4227 96.1387 66.6244 96.3724 61.683 97.196C47.3763 99.5721 33.5036 104.547 20.9443 111.809C16.754 114.235 8.1621 116.839 1.72948 117.412C0.126803 117.552 -0.641174 115.487 0.655444 114.535C8.36815 108.854 21.267 101.13 12.9312 96.6506C11.3174 95.7825 11.0279 93.067 12.7974 91.509C13.0814 91.2585 13.4207 91.0638 13.7659 90.8969L31.5336 82.3662C29.0908 80.5076 26.6423 78.6546 24.1996 76.8071C24.1939 73.1957 28.1559 70.8752 31.734 70.3855C35.3064 69.9014 39.1016 70.4412 42.4182 69.011C45.7291 67.5809 47.9717 62.8343 45.334 60.3691C44.7442 59.8127 43.9039 59.3341 44.0653 58.4104C44.1766 57.7816 44.6941 57.2975 45.3173 57.1305C59.4905 53.3299 73.6748 49.507 88.0983 46.7859C96.718 45.1666 97.6695 45.3168 104.625 50.6589C114.82 56.4127 127.145 50.1636 130.596 53.124C134.046 56.0844 143.25 58.7164 144.897 56.741C146.538 54.7656 153.522 47.4481 159.153 52.5118C164.228 54.1646 169.498 50.887 174.801 50.236C184.306 49.0729 193.009 56.396 202.585 56.5295C203.999 56.5463 205.518 56.4405 206.698 57.214C207.877 57.993 208.2 60.1076 206.909 60.6641C215.05 64.921 224.855 59.8016 234.031 60.2022C236.474 60.3135 238.895 60.8199 241.338 60.8588C243.853 60.8867 246.34 60.4136 248.811 59.9407C253.329 59.067 257.848 58.199 262.366 57.3364C263.719 57.0749 265.132 56.7967 266.239 55.9675C267.258 55.2108 267.909 54.07 268.716 53.0851C271.926 49.1453 277.536 47.6317 280.407 43.4415C281.531 41.7999 282.154 39.8412 283.34 38.2385C287.229 32.98 295.292 33.5198 301.436 35.7679C297.68 38.2775 293.923 40.7816 290.167 43.2857C288.843 44.1705 287.491 45.0831 286.578 46.3907C283.623 50.6088 286.567 56.3237 289.472 60.5806C290.323 61.816 291.57 63.2239 293.028 62.851C293.873 62.6284 294.447 61.8605 294.864 61.087C296.032 58.9391 296.528 56.435 296.249 54.0032C295.921 51.054 294.497 48.1826 294.936 45.25C295.415 42.0504 298.086 39.524 301.08 38.2942C304.073 37.07 307.379 36.9086 310.612 36.7639C317.974 36.4412 325.336 36.1129 332.698 35.7901C334.868 35.6844 337.144 35.6121 339.103 36.5413C342.942 38.3665 344.478 43.4971 348.451 44.9996C350.321 45.7063 352.43 45.4726 354.333 46.068C358.585 47.4036 360.477 53.4134 357.755 56.9413C359.308 59.8628 362.83 60.9534 365.763 62.4837C368.696 64.014 371.561 67.2471 370.237 70.2798C369.102 72.8674 365.741 73.4183 362.919 73.6075C359.302 73.8523 355.391 74.0193 352.352 72.0327C351.94 71.7656 351.518 71.4428 351.028 71.4094C349.709 71.326 349.197 73.2402 349.737 74.4421C350.282 75.6441 351.378 76.6068 351.64 77.8923C351.996 79.6006 350.705 81.3089 349.114 82.0323C347.522 82.7446 345.708 82.7112 343.966 82.6722C346.309 83.8297 345.263 87.8196 342.831 88.7711C340.394 89.7283 337.678 88.7099 335.269 87.7083C332.626 86.6009 329.916 85.4546 327.879 83.4513C327.005 82.5887 326.254 81.5704 325.213 80.9194C323.26 79.7007 320.751 80.0291 318.491 80.4854C316.238 80.9472 313.828 81.5037 311.697 80.6412C309.56 79.7786 308.174 76.7904 309.738 75.1043C311.357 73.3514 314.195 74.4422 316.572 74.5924C322.242 74.9485 326.287 69.3895 329.164 64.487C329.498 63.9194 329.843 63.3129 329.815 62.6506C329.771 61.4765 328.613 60.7086 327.584 60.1354C324.98 58.6886 322.376 57.2418 319.771 55.795C319.02 55.3777 318.191 54.938 317.345 55.0994C316.655 55.2385 316.099 55.7449 315.614 56.2513C312.148 59.885 309.66 64.8098 305.042 66.7741C301.408 68.3267 297.157 67.7034 293.467 69.1223C287.83 71.2925 284.413 77.8422 279.561 80.9472C278.648 81.5315 277.869 82.2883 277.196 83.1453C275.632 85.1263 272.639 86.05 270.007 86.6343C263.407 88.1033 256.813 89.5724 250.213 91.0359C246.535 91.8539 242.729 92.7275 240.002 95.5544C239.045 96.5449 238.322 97.7636 238.004 99.1047C237.008 103.323 240.047 106.027 242.951 108.186C248.199 112.087 253.819 115.481 259.712 118.319C260.869 118.876 261.253 120.295 260.597 121.402C259.745 122.849 259.545 124.769 259.985 126.422C260.658 128.959 262.444 131.029 264.18 133.004C265.705 134.729 267.731 136.649 270.012 135.932C271.442 135.486 272.372 134.145 272.572 132.659C272.733 131.502 272.544 130.417 272.166 129.371C271.504 127.534 272.433 125.548 274.264 124.863C283.072 121.58 290.062 113.528 291.748 104.235C292.727 98.8431 292.549 92.2991 297.106 89.2664C299.477 87.6804 302.499 87.597 305.342 87.5524C312.682 87.4578 320.973 87.7472 325.92 93.1727C328.357 95.8494 329.643 99.4886 332.904 101.442C334.173 102.204 335.692 102.51 337.127 102.148C340.861 101.191 340.088 97.196 342.497 95.254C343.098 94.7754 343.883 94.525 344.629 94.7086C345.892 95.0146 346.242 96.2222 346.532 97.3073C349.102 106.995 353.109 116.299 358.379 124.824C360.393 128.08 362.691 131.697 361.857 135.431C361.45 137.245 360.337 138.82 359.703 140.561C357.538 146.571 360.9 154.668 356.081 158.852C352.252 162.174 346.365 160.115 341.796 157.923C340.466 157.283 338.953 156.393 338.841 154.918C338.769 153.989 339.309 153.132 339.832 152.358C342.147 148.953 342.831 146.015 344.3 143.11C345.168 141.396 343.716 139.432 341.818 139.771L339.203 140.255C333.065 141.385 326.721 142.604 321.268 145.503C319.526 146.426 318.742 148.53 319.482 150.349C320.189 152.075 320.244 154.167 319.927 156.048C319.432 159.008 318.252 161.885 318.302 164.879C318.319 165.708 318.413 166.598 317.974 167.31C317.712 167.728 317.284 168.034 316.855 168.29C314.029 170.021 310.601 170.761 307.318 170.332L309.877 168.34C310.022 166.982 308.013 166.654 306.7 167.004C301.553 168.357 297.068 171.445 292.694 174.478C291.625 175.218 290.518 175.997 289.889 177.138C289.116 178.523 289.166 180.226 288.503 181.667C286.634 185.718 280.941 185.396 276.562 186.247C271.364 187.265 267.03 190.724 262.917 194.068C259.757 196.645 256.407 199.499 255.422 203.456C255.01 205.086 254.977 206.956 253.797 208.158C252.845 209.132 251.337 209.427 250.43 210.45C249 212.064 249.685 214.652 248.816 216.627C247.659 219.281 244.248 219.96 242.028 221.825C240.692 222.938 239.791 224.496 238.477 225.636C236.107 227.701 232.785 228.135 229.763 229.009C229.522 229.079 229.279 229.155 229.037 229.237C226.611 230.062 224.97 232.353 224.955 234.915C224.951 235.479 224.881 236.037 224.716 236.582C224.349 237.828 223.52 238.897 223.152 240.143C222.362 242.787 223.77 245.569 223.781 248.329C223.792 251.139 222.351 253.816 222.395 256.626C222.434 259.403 223.915 262.046 223.703 264.817C223.481 267.777 221.099 270.448 218.183 270.999C217.037 268.211 215.896 265.424 214.75 262.636C214.104 261.05 213.448 259.453 213.175 257.761C212.924 256.208 212.997 254.617 212.913 253.042C212.808 251.2 212.457 249.308 211.411 247.789C210.365 246.276 208.495 245.213 206.681 245.563C204.856 245.908 203.353 247.572 201.5 247.433C200.454 247.35 199.558 246.704 198.596 246.281C191.617 243.21 183.137 252.208 176.543 248.368C175.714 247.884 174.985 247.216 174.083 246.882C172.748 246.387 171.256 246.699 169.888 247.105C165.213 248.49 160.845 250.905 157.178 254.127C155.737 255.396 154.329 256.937 154.123 258.846C153.978 260.221 154.485 261.584 154.485 262.964C154.485 265.173 153.221 267.154 152.125 269.074C149.938 272.897 148.241 277.093 147.924 281.489C147.49 287.565 149.871 293.792 154.251 298.027C155.286 299.023 156.488 299.941 157.901 300.175C158.981 300.347 160.077 300.102 161.14 299.863C163.405 299.351 165.664 298.834 167.929 298.322C169.264 298.016 170.683 297.671 171.629 296.68C173.037 295.211 172.937 292.868 173.894 291.077C174.896 289.207 176.905 288.155 178.802 287.209C181.05 286.085 183.426 284.939 185.936 285.067C188.446 285.189 191.055 287.098 191.011 289.608C190.955 292.618 187.383 294.66 187.266 297.665C187.221 298.795 187.689 299.897 187.655 301.026C187.594 302.762 186.376 304.215 185.207 305.5C184.033 306.786 182.781 308.193 182.631 309.924C182.475 311.655 184.111 313.586 185.747 313.001C186.42 312.756 186.915 312.161 187.561 311.849C188.429 311.426 189.453 311.56 190.41 311.699C194.75 312.35 199.725 313.424 201.756 317.314C203.042 319.779 202.752 322.739 202.43 325.505C202.201 327.464 201.968 329.456 201.178 331.264C200.666 332.433 199.931 333.501 199.514 334.709C198.523 337.586 199.503 340.847 201.305 343.295C202.53 344.959 204.088 346.322 205.735 347.569C206.892 348.443 208.434 348.626 209.736 347.997C212.685 346.589 215.568 344.948 218.016 345.46C218.934 345.655 219.775 346.139 220.437 346.806C225.862 352.21 228.734 349.956 230.331 350.24C232 350.535 233.809 349.544 234.46 347.981C235.027 346.617 234.782 344.953 235.634 343.746C236.196 342.945 237.136 342.511 238.032 342.11C240.675 340.936 243.319 339.756 245.962 338.576C247.041 338.092 248.232 337.603 249.384 337.892C250.53 338.187 251.398 339.689 250.642 340.602C254.175 341.236 257.865 340.986 261.276 339.867C262.149 339.584 263.073 339.239 263.963 339.456C265.816 339.901 266.345 342.344 267.892 343.457C270.385 345.26 273.919 342.872 276.912 343.601C278.048 343.879 279.027 344.592 280.134 344.965C282.599 345.788 285.254 344.814 287.775 344.169C290.295 343.523 293.367 343.362 295.098 345.31C295.771 346.066 296.138 347.051 296.806 347.814C298.592 349.856 301.753 349.656 304.357 350.396C312.153 352.616 314.813 363.289 322.426 366.088C327.211 367.841 333.232 366.138 337.138 369.421C340.928 372.61 340.461 378.642 343.132 382.821C344.417 384.835 346.404 386.354 347.528 388.463C348.49 390.261 348.763 392.375 349.82 394.117C352.781 398.97 359.787 398.608 365.09 400.639C368.74 402.036 371.745 404.718 375.256 406.426C376.503 407.033 378.217 407.556 380.003 407.995C387.743 409.887 394.838 413.883 400.186 419.787C401.816 421.584 403.23 423.421 404.076 425.101C404.888 426.72 405.595 428.473 405.467 430.276Z" fill="#E1E4EC"/>
<path d="M240.054 294.226C237.611 295.111 235.174 296.002 232.731 296.886C231.395 297.37 229.982 297.866 228.58 297.621C227.177 297.376 225.853 296.102 226.087 294.699C226.154 294.304 226.337 293.932 226.387 293.531C226.437 293.102 226.326 292.674 226.22 292.257C225.553 289.624 224.668 286.703 222.292 285.39C220.583 284.444 218.519 284.572 216.599 284.216C214.323 283.793 212.192 282.646 210.584 280.983C210.022 280.398 209.421 279.703 208.614 279.675C208.146 279.658 207.707 279.87 207.289 280.081C205.414 281.022 203.544 281.962 201.669 282.902C200.896 283.292 199.95 283.676 199.204 283.231C198.709 282.936 198.469 282.34 198.408 281.767C198.247 280.215 199.215 278.707 200.512 277.833C201.803 276.959 203.377 276.603 204.919 276.358C208.018 275.858 211.174 275.724 214.306 275.947C217.762 276.197 221.323 276.943 224.072 279.052C225.987 280.521 227.417 282.574 229.426 283.91C231.134 285.039 233.148 285.573 235.035 286.364C236.543 286.995 237.968 287.79 239.351 288.668C240.565 289.44 241.325 290.757 241.4 292.195C241.4 292.203 241.4 292.21 241.401 292.218C241.423 292.652 241.44 293.125 241.206 293.492C240.955 293.881 240.488 294.065 240.054 294.226Z" fill="#E1E4EC"/>
<path d="M264.863 302.443C264.848 302.678 264.818 302.938 264.647 303.103C264.463 303.283 264.172 303.293 263.912 303.289C262.591 303.279 261.275 303.263 259.954 303.253C259.594 303.248 259.218 303.248 258.898 303.418C258.332 303.724 258.152 304.444 257.727 304.92C257.261 305.435 256.536 305.63 255.845 305.69C253.999 305.845 252.092 305.16 250.766 303.864C250.175 303.283 249.605 302.548 248.784 302.468C248.499 302.438 248.214 302.498 247.933 302.552C246.898 302.763 245.862 302.973 244.826 303.183C244.02 303.348 243.134 303.503 242.404 303.118C241.673 302.728 241.363 301.547 242.054 301.092C242.404 300.861 242.86 300.901 243.28 300.856C244.425 300.736 245.452 299.84 245.727 298.719C245.982 297.669 245.712 296.342 246.562 295.677C246.918 295.402 247.378 295.327 247.824 295.272C252.461 294.665 257.211 294.962 261.738 296.134C262.805 296.411 263.687 297.171 264.108 298.19C264.662 299.532 264.941 300.983 264.863 302.443Z" fill="#E1E4EC"/>
<path d="M411.241 7.62167C411.152 7.88321 410.863 7.99449 410.612 8.08352C402.883 10.7768 395.104 13.4812 387.007 14.6776C383.056 15.2619 379.038 15.4901 375.143 16.4027C369.768 17.6658 364.787 20.2144 359.874 22.7408C356.034 24.6995 352.2 26.6694 348.361 28.6393C346.213 29.7355 344.026 30.8652 342.312 32.568C341.683 33.1912 341.115 33.8979 340.364 34.3709C339.491 34.9106 338.444 35.0998 337.42 35.2612C329.388 36.5188 321.173 36.6301 313.106 35.6062C311.354 35.3837 309.795 34.4989 308.538 33.2579C308.325 33.0521 308.081 32.874 307.822 32.7404C306.665 32.1729 305.307 32.1729 304.094 31.7388C301.851 30.9486 300.404 28.8229 299.113 26.8308C298.891 26.4969 298.663 26.1241 298.652 25.7179C298.618 24.9944 299.269 24.4213 299.909 24.0652C302.73 22.4904 306.542 22.9467 308.918 25.1447C309.224 25.4229 309.547 25.7512 309.965 25.7735C310.343 25.7846 310.677 25.5398 310.977 25.3005C312.096 24.4157 313.242 23.492 313.949 22.2511C314.656 21.0157 314.822 19.3463 313.971 18.2056C313.27 17.2429 312.057 16.8423 311.105 16.13C310.154 15.4233 309.464 13.9765 310.254 13.0917C310.627 12.6799 311.211 12.5352 311.751 12.4184C318.139 11.0439 324.689 10.4318 331.221 10.5876C332.741 10.621 334.271 10.6989 335.768 10.4707C337.855 10.1368 339.791 9.22429 341.755 8.45637C357.208 2.41873 374.542 5.33457 391.047 3.63735C394.508 3.28121 397.975 2.71364 401.447 2.93623C404.92 3.15881 408.481 4.27174 410.896 6.77583C411.124 7.00398 411.352 7.32674 411.241 7.62167Z" fill="#E1E4EC"/>
<path d="M260.135 41.1316C259.312 41.9496 257.959 41.7437 256.835 42.0331C254.81 42.5617 253.647 44.7597 253.38 46.8353C253.112 48.9109 253.48 51.0255 253.274 53.1067C253.213 53.7077 253.101 54.3253 252.751 54.8206C252.317 55.4327 251.599 55.7499 250.909 56.0448C246.702 57.8533 242.133 59.7008 237.676 58.6602C235.35 58.1037 233.224 56.7849 230.848 56.5178C227.899 56.1728 225.044 57.4916 222.229 58.4376C219.413 59.3836 216.102 59.9234 213.642 58.254C213.309 58.0258 212.991 57.7532 212.824 57.3803C212.624 56.9352 212.68 56.4065 212.507 55.9447C212.313 55.416 211.845 55.0432 211.528 54.5758C209.986 52.3722 212.012 48.9666 210.498 46.7352C205.318 48.5771 199.647 49.0334 194.244 48.0317C193.643 47.9093 193.009 47.7647 192.58 47.3251C191.812 46.5571 192.068 45.1826 192.792 44.3702C193.515 43.5578 194.567 43.1404 195.552 42.673C197.299 41.8272 198.924 40.731 200.36 39.4233C201.634 38.2658 202.775 36.9303 204.272 36.0845C206.019 35.0995 208.089 34.8825 210.087 34.6877C214.996 34.2147 220.064 33.7529 224.837 34.7545C225.623 34.9159 226.353 35.3388 226.796 36.0121C226.798 36.0121 226.801 36.0177 226.803 36.0177C227.287 36.7634 227.593 37.6425 228.289 38.1935C229.474 39.1339 231.321 38.7221 232.573 39.5791C233.436 40.1745 233.831 41.2429 234.571 41.9774C236.168 43.5633 238.789 43.1905 240.987 42.7175C243.04 42.2556 245.155 41.7826 246.891 40.6029C248.115 39.7794 249.112 38.6275 250.419 37.9486C251.922 37.164 253.686 37.0805 255.377 37.0137C256.746 36.9581 258.204 36.9303 259.362 37.6537C260.519 38.3771 261.098 40.1689 260.135 41.1316Z" fill="#E1E4EC"/>
<path d="M268.143 24.7879C267.575 25.3166 267.163 26.1401 267.442 26.8635C267.603 27.2753 267.942 27.5814 268.182 27.9431C269.306 29.6514 267.731 31.9607 265.878 32.8233C261.983 34.6485 257.203 33.0792 253.202 34.6485C252.278 35.0102 251.421 35.5221 250.486 35.8338C246.669 37.0969 242.718 34.7152 238.806 33.8138C236.202 33.2016 233.492 33.2573 230.865 32.7676C229.652 32.5395 228.422 32.1777 227.465 31.3931C226.514 30.6141 225.896 29.3175 226.202 28.1211C226.58 26.6354 228.144 25.8174 229.569 25.2553C232.724 24.0033 236.068 23.0629 239.463 23.1296C243.024 23.202 246.619 24.3817 250.102 23.6138C253.408 22.8904 256.095 20.531 259.217 19.2177C262.53 17.8265 266.18 17.6707 269.802 17.7542C270.48 17.7709 271.1 18.205 271.3 18.8505C271.301 18.856 271.302 18.8616 271.303 18.8616C271.804 20.4586 271.276 22.3116 270.012 23.4079C269.428 23.9142 268.71 24.2593 268.143 24.7879Z" fill="#E1E4EC"/>
<path d="M296.059 22.7689C295.369 24.3548 293.995 25.5234 292.693 26.6642C290.216 28.8399 287.846 31.1549 285.87 33.7925C284.997 34.9555 284.156 36.2242 282.882 36.9142C281.925 37.4318 280.779 37.5876 279.955 38.2999C278.575 39.4907 278.686 41.6998 277.64 43.2023C276.093 45.417 272.827 45.2612 270.161 44.8661C268.52 44.6269 266.884 44.3876 265.242 44.1483C264.119 43.9813 262.937 43.8033 262.232 42.657C261.767 41.9057 261.714 40.9375 262.104 40.1417C262.702 38.912 263.926 38.5948 265.086 38.3221C267.145 37.8213 269.504 37.71 271.774 37.4874C272.343 37.4318 272.906 37.3149 273.443 37.1202C274.509 36.7306 275.553 36.2854 276.572 35.7902C277.256 35.4563 277.952 35.0724 278.414 34.4658C278.881 33.8593 279.048 32.9689 278.62 32.3401C278.119 31.5944 277.011 31.4609 276.494 30.7264C275.843 29.8082 276.483 28.5061 277.351 27.7882C278.219 27.0815 279.326 26.6363 280.016 25.746C280.946 24.5496 280.89 22.8691 281.458 21.4668C282.242 19.5192 284.201 18.2393 286.238 17.7329C288.274 17.2321 290.411 17.3712 292.503 17.5159C293.377 17.5771 294.284 17.6495 295.024 18.1113C296.499 19.0184 296.749 21.1719 296.059 22.7689Z" fill="#E1E4EC"/>
<path d="M537.954 10.193C537.673 11.3115 536.629 11.7289 535.662 12.046C528.027 14.539 518.99 15.2402 513.965 21.5059C514.867 21.9233 515.596 22.6968 515.963 23.6205C514.65 24.2716 513.336 24.9226 512.023 25.5792C513.242 26.4195 514.455 27.2653 515.673 28.1167C514.115 29.5914 512.552 31.0716 510.994 32.5518C507.488 35.8794 503.932 39.2404 499.731 41.6332C499.041 42.0283 498.267 42.468 498.05 43.2359C497.672 44.538 499.13 45.6955 499.18 47.0477C499.208 47.8434 498.751 48.5612 498.295 49.2067C494.656 54.3874 489.792 58.8558 483.922 61.2097C478.045 63.5747 471.112 63.6526 465.542 60.6421C461.936 68.555 453.327 73.9082 444.635 73.6578C442.793 73.6021 440.868 73.3294 439.171 74.0473C436.889 74.9988 435.671 77.4195 434.101 79.3337C429.983 84.3586 422.749 86.4008 419.472 92.01C417.168 95.9609 416.567 101.793 412.182 103.095C408.699 99.845 405.215 96.5952 401.732 93.3399C399.178 90.9638 396.412 88.0702 396.657 84.5812C396.724 83.6185 397.019 82.6168 396.668 81.7098C396.084 80.2352 394.097 79.8345 393.279 78.4768C392.75 77.6087 392.806 76.5069 392.884 75.4941C393.329 69.4286 394.542 62.2057 400.107 59.7517C398.783 58.0935 398.604 55.6117 399.678 53.7809C399.482 53.7085 399.294 53.6084 399.119 53.4915C397.689 52.5622 398.277 50.3475 399.97 50.1249C402.595 49.7855 405.263 49.7632 407.892 50.0637C408.131 49.2679 408.37 48.4666 408.615 47.6709C406.395 47.9547 404.152 48.0326 401.915 47.9046C401.303 47.8656 400.652 47.81 400.151 47.4483C398.688 46.4021 399.606 44.1651 400.207 42.4679C401.721 38.1831 399.79 32.9412 395.85 30.6709C389.338 26.9259 380.37 31.3164 373.72 28.3393C372.911 27.9776 372.507 27.0595 372.761 26.2081C372.909 25.7184 373.055 25.2286 373.202 24.7445C372.419 24.6388 371.682 24.2715 371.099 23.7373C370.249 22.9527 370.458 21.5616 371.478 21.0218C372.744 20.3485 374.094 19.8421 375.489 19.5027C378.293 18.8349 381.215 18.885 384.081 18.5734C389.634 17.9557 394.926 15.9691 400.151 13.9937C403.447 12.7528 406.743 11.5063 410.038 10.2654C412.843 9.20251 415.754 8.45685 418.722 8.0395C421.727 7.61658 424.734 7.19363 427.741 6.77071C429.071 6.57595 430.418 6.38676 431.753 6.52031C433.139 6.64829 434.474 7.11016 435.865 7.18806C437.479 7.26041 439.065 6.79854 440.629 6.38119C449.343 4.06074 458.413 3.07026 467.428 3.43752C468.485 3.47648 469.587 3.53213 470.566 3.13147C471.357 2.80315 471.997 2.20771 472.709 1.73471C477.567 -1.48722 483.894 1.7514 489.642 2.70853C497.505 4.00509 506.598 0.994659 512.925 5.84146C513.898 6.59269 514.783 7.52199 515.935 7.95603C517.081 8.39007 518.35 8.28431 519.569 8.17302C523.831 7.77793 528.094 7.38843 532.351 6.9989C533.948 6.85422 535.661 6.72621 536.996 7.75567C537.743 8.33439 538.183 9.2748 537.954 10.193Z" fill="#E1E4EC"/>
<path d="M898.679 357.868C898.353 360.144 897.2 362.258 895.615 363.917C895.378 364.167 895.12 364.412 894.81 364.562C894.248 364.841 893.585 364.784 892.955 364.724C891.892 364.612 890.722 364.451 890.019 363.638C889.71 363.282 889.536 362.837 889.378 362.397C888.934 361.112 888.647 359.776 888.529 358.424C888.405 357.028 888.462 355.625 888.518 354.228C888.591 352.353 888.664 350.456 889.187 348.658C889.485 347.635 889.941 346.638 890.57 345.788C891.003 345.205 891.819 345.131 892.387 345.584C892.392 345.587 892.392 345.59 892.398 345.592C892.87 345.96 893.427 346.21 893.815 346.66C894.265 347.2 894.4 347.935 894.698 348.57C895.221 349.671 896.222 350.444 896.992 351.385C898.438 353.171 898.994 355.592 898.679 357.868Z" fill="#E1E4EC"/>
<path d="M512.638 75.0879C512.532 77.0967 510.863 78.7494 508.988 79.4728C507.107 80.1795 505.037 80.1462 503.028 80.1128C498.871 80.0182 494.709 79.9292 490.552 79.8401C489.879 79.8346 489.139 79.7901 488.649 79.3226C488.209 78.9053 488.103 78.2542 488.02 77.6532C487.809 76.0284 487.653 74.3979 487.547 72.7674C487.464 71.5432 487.436 70.2356 488.098 69.195C489.122 67.5757 491.331 67.303 493.245 67.2028C493.935 67.1583 494.642 67.1249 495.299 67.3308C495.95 67.5423 496.501 67.9707 497.113 68.2657C498.821 69.0948 500.83 68.7888 502.7 68.4716C503.594 68.3213 504.46 67.9652 505.534 67.6925C506.61 67.4143 507.744 67.7092 508.54 68.4883C508.919 68.8555 509.289 69.2339 509.65 69.6012C511.147 71.137 512.744 72.9455 512.638 75.0879Z" fill="#E1E4EC"/>
<path d="M564.882 128.519C566.401 128.374 567.525 129.899 566.946 131.312C566.189 133.137 565.31 134.907 564.309 136.61C564.058 137.038 563.769 137.489 563.307 137.667C562.873 137.834 562.389 137.728 561.938 137.639C559.545 137.177 557.036 137.316 554.704 138.034C553.419 138.435 552.144 139.014 550.798 138.958C550.18 138.93 549.546 138.774 548.95 138.941C548.516 139.064 548.154 139.347 547.809 139.631C546.207 140.945 544.215 141.518 542.668 142.736C542 143.259 541.082 143.337 540.353 142.892C540.347 142.887 540.336 142.881 540.331 142.875C539.245 142.219 538.995 140.716 539.863 139.798C540.637 138.986 541.566 138.318 542.595 137.862C543.942 137.25 545.745 136.61 545.745 135.124C544.894 135.692 543.625 134.951 543.424 133.944C543.23 132.937 543.853 131.919 544.682 131.312C544.109 130.427 542.306 131.067 541.928 130.082C541.827 129.815 541.883 129.52 541.944 129.242C542.072 128.647 542.195 128.046 542.323 127.445C542.523 126.465 543.391 125.764 544.393 125.77C544.793 125.77 545.194 125.775 545.595 125.775C545.851 125.775 546.118 125.775 546.34 125.647C546.619 125.492 546.769 125.174 546.869 124.874C547.459 123.149 547.153 121.157 546.112 119.665C545.817 119.242 545.328 118.986 544.81 118.936C543.013 118.764 541.132 118.363 540.102 116.928C538.794 115.102 539.602 112.409 541.21 110.845C541.004 109.977 539.796 109.705 539.468 108.875C539.017 107.729 540.459 106.811 541.015 105.72C541.26 105.236 541.332 104.691 541.505 104.179C542.234 102.081 544.432 101.13 546.708 100.634C547.259 100.517 547.804 100.868 547.926 101.419C548.088 102.114 548.221 102.827 548.422 103.511C548.767 104.685 549.479 105.893 550.503 106.455C551.031 106.75 551.143 107.468 550.775 107.946C550.069 108.859 549.323 109.744 548.527 110.584C548.026 111.118 548.199 111.986 548.867 112.281C550.13 112.849 551.387 113.416 552.651 113.984C553.229 114.24 553.83 114.524 554.209 115.036C555.049 116.176 554.376 117.874 554.971 119.159C555.617 120.556 557.47 120.956 558.371 122.203C559.451 123.689 558.889 125.965 560.046 127.395C561.126 128.725 563.14 128.68 564.848 128.519H564.882Z" fill="#E1E4EC"/>
<path d="M538.395 122.57C538.389 122.726 538.367 122.888 538.284 123.021C537.967 123.544 537.171 123.216 536.575 123.327C535.724 123.489 535.407 124.524 535.257 125.381C535.067 126.477 534.873 127.612 535.156 128.692C535.268 129.115 535.446 129.515 535.529 129.944C535.752 131.096 535.218 132.27 534.5 133.205C534.144 133.672 533.726 134.117 533.225 134.423C531.684 135.386 529.681 135.013 527.928 135.492C527.071 135.731 526.281 136.176 525.424 136.432C524.428 136.744 523.348 136.794 522.324 136.593C521.851 136.493 521.351 136.315 521.1 135.909C520.672 135.219 521.161 134.34 521.64 133.683C522.352 132.715 523.059 131.741 523.766 130.767C524.016 130.428 524.278 129.977 524.066 129.61C523.932 129.387 523.671 129.276 523.448 129.142C522.792 128.731 522.463 127.868 522.669 127.133C522.881 126.382 523.615 125.826 524.389 125.826C524.634 125.826 524.884 125.865 525.129 125.826C525.719 125.742 526.119 125.158 526.281 124.585C526.442 124.006 526.437 123.394 526.604 122.821C527.121 121.046 529.052 120.133 530.822 119.61C531.311 119.46 531.829 119.326 532.335 119.426C532.337 119.426 532.338 119.426 532.34 119.426C532.734 119.504 533.134 119.532 533.53 119.471C534.922 119.243 536.369 119.426 537.504 120.45C538.099 120.985 538.423 121.764 538.395 122.57Z" fill="#E1E4EC"/>
<path d="M993.603 32.4882C993.305 33.8099 991.872 34.6103 990.513 34.691C989.16 34.7841 987.838 34.3373 986.51 34.0519C985.183 33.7727 983.712 33.6672 982.545 34.3497C981.472 34.9888 980.833 36.1802 979.772 36.8441C978.345 37.7501 976.254 37.3716 975.217 36.0375C974.969 35.7272 974.777 35.3673 974.466 35.1253C974.206 34.933 973.883 34.8337 973.561 34.7655C971.209 34.2442 968.801 35.0695 966.419 35.4729C961.349 36.3167 955.789 35.0447 952.122 31.4396C951.464 30.7943 950.832 29.8387 951.241 29.0134C951.446 28.5852 951.874 28.3184 952.296 28.1261C953.376 27.6297 954.586 27.4311 955.765 27.549C957.061 27.6731 958.29 28.1696 959.574 28.2874C960.617 28.3867 961.666 28.2316 962.708 28.1385C970.067 27.4373 977.383 29.4044 984.73 30.18C987.181 30.4406 989.65 30.5646 992.114 30.6577C993.057 30.6949 993.808 31.5513 993.609 32.4696C993.603 32.4758 993.603 32.482 993.603 32.4882Z" fill="#E1E4EC"/>
<path d="M752.419 30.7375C749.642 32.1898 747.121 33.8537 744.01 34.1764C740.9 34.4992 737.416 35 735.541 37.5041C734.595 38.7673 734.222 40.3532 733.877 41.8834C733.799 42.2284 733.721 42.6069 733.861 42.9296C733.961 43.1522 734.144 43.3191 734.328 43.4805C735.063 44.1371 735.797 44.7771 736.532 45.4281C737.622 46.3964 738.824 47.6707 738.479 49.0897C738.09 50.7034 735.936 51.182 734.356 50.6867C732.775 50.1859 731.446 49.0618 729.86 48.5888C727.851 47.9767 725.692 48.4776 723.594 48.4386C721.49 48.3997 719.07 47.4871 718.558 45.4504C718.33 44.5434 718.536 43.5863 718.78 42.6792C719.704 39.257 721.184 35.9404 723.477 33.2416C725.77 30.5427 728.93 28.5005 732.425 27.9273C735.558 27.4154 738.757 28.0831 741.935 27.9996C745.886 27.8939 749.792 26.5695 753.014 24.2713C756.358 23.0582 764.299 24.544 752.419 30.7375Z" fill="#E1E4EC"/>
<path d="M636.446 14.9781C635.405 14.9614 634.921 16.2302 634.649 17.2374C634.12 19.185 633.285 21.0436 632.189 22.7408C631.994 23.0246 631.783 23.3307 631.466 23.4698C631.087 23.6368 630.653 23.5477 630.258 23.442C628.038 22.8521 625.94 21.7726 623.664 21.4721C621.382 21.1716 618.717 21.9172 617.726 23.9929C617.181 25.1336 617.187 26.5638 616.296 27.4597C615.083 28.6783 613.041 28.1664 611.427 27.5654C609.129 26.7195 606.831 25.8626 604.538 25.0112C602.88 24.3991 601.183 23.7592 599.842 22.6073C598.501 21.461 597.566 19.6636 597.922 17.9274C598.528 14.9837 602.123 13.9376 605.095 13.459C613.842 12.0678 622.657 10.7268 631.488 10.7268C632.323 10.7268 633.135 10.9994 633.814 11.4835C634.231 11.784 634.654 12.079 635.071 12.3795C635.94 13.0083 636.924 14.021 636.446 14.9781Z" fill="#E1E4EC"/>
<path d="M849.519 18.9464C849.346 19.3081 848.951 19.5028 848.584 19.6642C846.92 20.4154 845.223 21.1833 843.403 21.3336C842.106 21.4504 840.804 21.2501 839.513 21.0498C837.827 20.7827 836.136 20.5211 834.449 20.2651C833.648 20.1371 832.819 19.9981 832.168 19.5195C831.817 19.2635 831.539 18.9296 831.183 18.6792C830.816 18.4288 830.382 18.2953 829.953 18.1673C829.046 17.8891 828.139 17.6219 827.232 17.3437C826.498 17.1211 825.741 16.8985 824.973 16.9263C824.183 16.9653 823.431 17.288 822.658 17.455C821.59 17.6887 820.477 17.6553 819.386 17.5719C815.724 17.2881 812.119 16.4033 808.735 14.9843C807.789 14.5892 806.838 14.1329 806.164 13.365C805.741 12.8808 805.435 12.2298 805.586 11.6121C805.669 11.2615 805.881 10.9611 806.125 10.7051C807.628 9.14698 810.093 9.19152 812.252 9.3362C816.125 9.60886 819.998 9.87595 823.871 10.1486C825.201 10.2488 826.553 10.3378 827.794 10.8164C830.81 11.9849 832.836 15.2458 836.024 15.7689C836.937 15.9247 837.872 15.8245 838.795 15.7578C841.266 15.5574 845.017 15.602 848.077 15.7856C848.355 15.8023 848.606 15.9526 848.745 16.1919C849.029 16.6982 849.268 17.2268 849.457 17.7722C849.585 18.1506 849.691 18.5791 849.519 18.9464Z" fill="#E1E4EC"/>
<path d="M1018.27 300.588C1016.44 303.182 1013.84 305.675 1010.66 305.658C1009.97 305.652 1009.21 305.474 1008.85 304.89C1008.69 304.629 1008.63 304.323 1008.59 304.022C1008.23 301.496 1008.53 298.775 1009.98 296.665C1011.11 295.002 1014.03 294.685 1016.42 294.963C1016.36 295.04 1016.29 295.107 1016.23 295.18C1017.08 296.07 1018.58 296.337 1019.07 297.467C1019.54 298.496 1018.91 299.665 1018.27 300.588Z" fill="#E1E4EC"/>
<path d="M1168 76.3696C1167.68 76.5808 1167.34 76.7702 1166.98 76.937C1165.19 77.7833 1162.98 77.961 1161.28 76.937C1160.33 76.3637 1159.61 75.4737 1158.76 74.7614C1156.78 73.1138 1154.13 72.5188 1151.57 72.2515C1148.43 71.9179 1145.25 71.9958 1142.14 72.4685C1142.83 72.9638 1143.15 73.6871 1143.15 74.3994C1143.15 75.524 1142.37 76.631 1141.06 76.8095L1139.72 76.993C1142.8 77.2873 1145.8 78.2895 1148.45 79.8583C1151.02 81.3777 1151.07 85.0449 1148.55 86.6473C1144.51 89.2234 1140.8 92.3233 1137.56 95.8456C1136.25 97.2703 1134.29 97.8602 1132.39 97.515C1128.64 96.8311 1124.65 97.4932 1121.36 99.4291C1122.8 101.65 1123.52 104.327 1123.39 106.964L1130.16 108.839C1129.07 110.014 1129.21 111.877 1129.77 113.374C1130.33 114.872 1131.24 116.257 1131.51 117.837C1131.68 118.883 1131.56 119.952 1131.54 121.015C1131.35 127.458 1134.24 134.119 1132.05 140.191C1131.95 140.469 1131.83 140.764 1131.58 140.931C1131.2 141.192 1130.69 141.07 1130.25 140.941C1126.23 139.74 1122 138.416 1119.12 135.36C1113.73 129.635 1114.83 119.846 1109.42 114.137C1108.06 112.695 1106.33 111.593 1105.45 109.719C1105.23 109.262 1105.1 108.767 1105.06 108.266C1104.83 104.833 1108.9 104.466 1109.95 101.945C1110.28 101.193 1110.27 100.348 1110.26 99.5296C1110.24 97.5544 1110.21 95.5733 1110.19 93.598C1110.17 91.2826 1110.09 88.8062 1108.21 87.1317C1107.22 86.2525 1105.78 86.0078 1104.64 86.6699C1102.8 87.7493 1103.07 90.2199 1103.24 92.2454C1103.42 94.4377 1102.65 97.3927 1100.03 96.8639C1098.88 96.6301 1097.97 95.74 1097.57 94.638C1096.68 92.2563 1094.61 90.1142 1092.06 89.5913C1090.08 89.179 1087.82 89.8914 1086.65 91.544C1086.14 92.2789 1085.84 93.1581 1085.77 94.0539C1085.65 95.4232 1086.02 96.7306 1086.65 97.9549C1087.65 99.8632 1086.2 102.139 1084.04 102.095C1079.39 102.006 1074.62 100.492 1069.91 100.031C1064.02 99.4517 1058.1 100.537 1052.27 101.622C1051.13 101.833 1049.95 102.067 1049.02 102.757C1047.85 103.625 1047.27 105.077 1046.76 106.446C1045.44 109.936 1044.13 113.419 1042.82 116.908C1042.61 117.465 1042.4 118.038 1042.42 118.633C1042.49 120.275 1044.29 121.299 1045.91 121.56C1047.53 121.827 1049.28 121.693 1050.73 122.473C1051.9 123.107 1052.74 124.275 1053.97 124.771C1054.96 125.166 1056.06 125.077 1057.11 125.099C1058.38 125.133 1059.63 125.344 1060.83 125.717C1062.02 126.079 1062.93 127.013 1063.35 128.176C1063.74 129.278 1064.14 130.38 1064.68 131.415C1065.41 132.812 1066.18 134.426 1067.58 135.299C1068.33 135.767 1069.21 135.995 1070 136.401C1074.43 138.671 1074.7 145.605 1079.12 147.87C1080.03 148.337 1081.19 148.704 1081.45 149.695C1081.55 150.073 1081.48 150.479 1081.42 150.864C1079.91 159.683 1078.37 168.581 1075.03 176.878C1074.17 179.004 1072.77 181.391 1070.48 181.508C1068.21 181.625 1066.05 179.321 1063.87 180.807C1063.5 181.057 1063.2 181.402 1062.97 181.781C1061.87 183.623 1062.24 185.798 1061.56 187.713C1060.56 190.528 1057.54 192.164 1056.23 194.858C1056.06 195.202 1055.93 195.604 1056.05 195.965C1056.22 196.438 1056.73 196.655 1057.2 196.85C1060.7 198.33 1063.4 201.246 1065.66 204.301C1067.97 207.401 1070 210.856 1069.82 214.935C1069.74 216.682 1069.09 218.379 1067.97 219.721C1067.54 220.238 1067 220.722 1066.35 220.906C1065.29 221.195 1064.18 220.605 1063.35 219.882C1059.65 216.621 1059.36 210.795 1056.03 207.161C1054.05 205.019 1051.09 203.833 1048.18 204.062C1047.72 204.1 1047.23 204.045 1046.84 203.789C1045.42 202.882 1046.54 201.146 1046.71 199.676C1046.89 198.219 1045.97 196.794 1044.73 196.009C1043.49 195.225 1041.98 194.98 1040.51 194.902C1038.23 194.78 1035.55 195.314 1034.15 196.966C1033.63 197.584 1032.64 197.556 1032.17 196.9C1031.18 195.497 1030.69 193.739 1030.8 192.025C1030.86 191.257 1030.06 190.695 1029.33 190.968C1025.71 192.342 1022.68 195.314 1021.36 198.97C1021.18 199.459 1021.04 199.966 1021 200.489C1020.76 203.577 1023.32 204.556 1025.57 205.258C1026.35 205.503 1027.35 205.987 1028.39 206.487C1028.39 206.487 1028.39 206.487 1028.39 206.493C1028.82 206.699 1029.68 207.117 1029.68 207.117H1029.92C1030.5 207.117 1031.08 206.994 1031.6 206.721C1032.76 206.092 1033.82 205.063 1035.15 205.047C1037.29 205.024 1038.5 207.701 1038.15 209.815C1037.81 211.93 1036.53 213.783 1036.04 215.87C1035.9 216.498 1035.82 217.155 1035.96 217.784C1036.15 218.68 1036.73 219.431 1037.3 220.149C1039.33 222.697 1041.35 225.24 1043.38 227.789C1047.91 233.487 1052.71 240.059 1051.8 247.282C1051.25 251.667 1048.6 255.696 1048.73 260.108C1048.77 261.544 1049.11 262.985 1048.86 264.399C1048.57 266.096 1047.47 267.532 1046.41 268.889C1041.74 274.894 1036.64 281.209 1029.41 283.608C1024.77 285.15 1019.19 285.144 1015.92 288.784C1014.75 290.085 1014.01 291.76 1012.68 292.901C1011.35 294.042 1009.03 294.381 1008.02 292.951C1007.9 290.074 1006.32 286.107 1003.6 287.058C1002.95 287.286 1002.44 287.787 1001.95 288.271C999.478 290.731 997.009 293.19 994.533 295.656C998.393 300.246 1001.72 305.288 1004.44 310.641C1005.38 312.488 1006.25 314.659 1005.44 316.567C1004.98 317.675 1003.97 318.637 1004.06 319.84C1004.13 320.641 1004.69 321.303 1005.23 321.91C1008.38 325.455 1011.53 328.999 1014.69 332.544C1010.94 336.751 1007.18 340.958 1003.43 345.165C1001.59 347.223 999.435 349.432 996.682 349.494C993.928 349.554 991.466 345.776 993.564 343.995C990.68 343.728 988.16 341.247 987.839 338.364C985.319 338.225 982.799 338.081 980.279 337.936C979.485 337.891 978.662 337.836 977.999 337.424C976.018 336.216 976.732 333.233 977.577 331.075C978.422 328.921 978.742 325.75 976.565 324.959C976.026 327.296 975.574 329.65 975.108 332.004C973.972 337.869 972.828 343.968 974.314 349.76C975.166 353.094 977.176 356.444 980.447 357.523C982.318 358.141 984.438 357.968 986.142 358.948C988.029 360.039 988.91 362.248 989.653 364.295C991.904 370.478 994.154 376.655 996.397 382.837C997.395 385.58 997.526 389.865 994.628 390.171C993.681 390.271 992.785 389.82 991.94 389.386C986.252 386.41 980.017 382.793 978.276 376.61C977.723 374.646 977.686 372.553 977.06 370.612C975.669 366.315 971.67 363.438 969.325 359.576C965.501 353.244 966.542 345.275 966.586 337.874C966.644 328.581 964.904 319.283 961.488 310.641C959.798 311.287 958.115 311.938 956.433 312.583C957.037 314.765 955.333 317.285 953.082 317.524C950.832 317.769 948.625 315.671 948.756 313.407C948.814 312.405 949.259 311.459 949.31 310.458C949.601 305.299 940.504 303.402 940.912 298.254C941.028 296.774 941.997 295.355 941.669 293.908C941.429 292.846 940.548 292.072 939.717 291.371C935.821 288.104 931.931 284.826 928.035 281.561C926.782 280.509 924.983 280.486 923.679 281.466C918.668 285.227 914.771 291.037 910.751 295.744C906.395 300.847 902.047 305.944 897.691 311.042C895.798 313.262 893.86 315.555 892.943 318.32C890.401 325.966 896.125 335.326 891.588 341.987C890.146 344.113 887.808 345.593 886.693 347.907C885.783 349.794 884.261 351.864 882.454 353.5C880.728 355.069 877.989 353.99 877.771 351.669C877.356 347.212 874.581 343.818 872.075 338.837C870.123 334.976 869.679 330.095 866.307 327.391C865.149 326.467 863.685 325.844 862.905 324.586C862.148 323.368 862.206 321.832 862.206 320.396C862.272 310.068 858.615 300.163 854.682 290.559C854.274 289.562 853.029 289.284 852.199 289.969C852.184 289.98 852.162 289.996 852.148 290.007C851.419 290.586 850.319 290.347 849.868 289.535C848.855 287.693 846.445 286.663 844.587 285.4C843.102 284.381 842.009 282.278 842.191 280.686C842.373 279.062 841.55 277.487 840.21 276.547L832.773 271.31C830.603 269.78 828.396 268.233 825.891 267.348C820.508 265.451 814.594 266.864 808.891 267.053C798.971 267.382 789.364 263.948 780.041 260.565C773.966 258.356 767.615 255.968 763.354 251.105C761.373 248.846 759.516 244.483 756.646 243.331C755.102 242.713 753.616 244.466 752.298 245.49C750.761 246.681 750.929 248.078 751.198 249.391C752.495 255.757 756.049 261.645 761.075 265.762C763.689 267.894 766.799 269.713 768.635 272.445C769.327 273.469 770.623 273.903 771.81 273.564C774.935 272.685 777.717 270.587 779.363 267.782C779.866 266.931 780.318 265.957 781.454 265.779C782.43 265.634 783.377 266.168 783.923 266.998C784.804 268.316 784.688 269.947 784.549 271.482C787.74 273.202 791.505 273.408 795.03 274.26C798.563 275.105 802.27 277.003 803.399 280.448C804.462 283.703 802.889 287.17 801.36 290.23C791.986 299.445 784.069 310.552 772.59 316.957C769.735 318.548 766.581 319.918 764.636 322.549C763.507 324.085 762.837 325.994 761.38 327.224C757.36 330.635 751.147 326.634 746.005 327.774C742.203 328.621 737.614 332.004 735.24 328.743C734.876 328.237 734.643 327.635 734.497 327.023C732.195 316.968 728.925 307.141 724.744 297.715C724.038 296.106 723.288 294.492 722.159 293.146C721.212 292.027 720.032 291.126 718.998 290.091C717.279 288.371 715.982 286.285 714.708 284.22L696.154 254.794C695.625 253.949 694.556 253.614 693.644 254.015L692.325 254.588C691.629 254.895 691.351 255.724 691.713 256.392C697.584 267.17 701.991 279.746 707.066 290.881C713.2 304.342 721.372 316.762 729.508 329.121C733.128 334.608 737.585 340.64 744.119 341.33C750.776 342.037 756.712 336.817 763.165 335.471C764.651 335.164 766.137 336.094 766.457 337.569C768.147 345.325 763.442 356.015 759.174 362.893C753.602 371.875 744.541 378.279 736.842 385.691C732.603 389.776 728.743 394.206 725.145 398.813C720.535 404.717 716.172 411.484 716.558 418.834C717.002 427.07 723.28 433.948 725.422 441.939C728.037 451.66 724.307 461.799 720.52 471.165C719.027 474.865 717.454 478.66 714.613 481.554C711.955 484.258 708.379 485.98 705.552 488.518C701.123 492.497 698.78 498.484 699.398 504.255C699.659 506.725 700.433 509.207 699.993 511.661C699.303 515.501 695.881 518.244 693.343 521.299C685.859 530.319 685.603 543.241 678.647 552.639C673.873 559.088 666.316 563.279 658.408 565.622C650.501 567.964 642.171 568.632 633.918 569.288L633.863 569.294C630.953 569.517 628.459 567.313 628.343 564.397C627.641 546.685 617.125 530.815 614.359 524.916C611.281 518.344 613.858 510.253 611.437 503.409C609.734 498.584 606.234 494.583 604.298 489.848C599.768 478.76 604.476 466.329 608.16 454.932C608.822 452.885 609.456 450.798 609.64 448.65C609.846 446.257 609.479 443.859 609.117 441.488C608.393 436.72 607.659 431.928 606.129 427.36C603.842 420.56 599.863 414.472 595.867 408.506C593.719 405.307 591.472 401.851 591.51 397.995C591.533 395.341 592.646 392.842 593.497 390.332C594.41 387.65 595.044 384.868 595.389 382.052C595.595 380.361 594.599 378.747 592.991 378.179C587.17 376.143 581.349 374.1 575.523 372.064C570.181 370.194 563.32 368.686 559.625 372.977C558.373 374.434 557.588 376.487 555.779 377.138C554.027 377.768 552.157 376.765 550.482 375.953C544.066 372.837 536.47 372.225 529.637 374.267C526.943 375.074 524.25 376.293 521.446 376.048C518.54 375.792 516.025 374.012 513.671 372.292C507.845 368.035 501.796 363.522 498.641 357.034C497.506 354.702 496.777 352.165 495.38 349.977C493.472 347.001 490.484 344.914 487.929 342.471C482.209 337.018 478.52 329.477 477.724 321.615C477.128 315.772 478.075 309.89 479.082 304.102C482.292 285.606 486.978 265.729 501.424 253.737C505.408 250.426 510.333 247.405 511.607 242.38C512.263 239.787 511.813 237.015 512.442 234.417C513.321 230.8 516.131 228.028 518.813 225.458C524.278 220.232 530.632 214.651 538.184 214.974C541.039 215.096 543.81 216.081 546.665 216.115C552.758 216.176 558.034 211.963 563.976 210.6C570.247 209.164 576.758 210.995 582.935 212.814C589.117 214.635 596.101 217.161 598.389 223.187C598.989 224.778 599.223 226.542 600.197 227.934C601.199 229.358 602.829 230.176 604.426 230.872C609.061 232.892 613.88 234.444 618.816 235.535C622.344 236.32 626.189 236.926 629.572 235.574C631.175 234.934 632.599 233.71 633.49 232.241C635.583 228.802 639.822 227.25 643.696 228.334C653.038 230.955 662.025 237.427 671.736 236.398C672.988 236.264 674.268 236.014 675.47 236.364C675.692 236.425 675.904 236.531 676.099 236.642C676.649 236.954 677.094 237.266 677.484 237.577C678.436 238.339 679.676 238.634 680.873 238.412C686.298 237.399 691.724 236.431 695.497 234.5C697.411 233.521 699.448 232.358 700.243 230.365C701.134 228.134 700.176 225.636 699.225 223.432C698.318 221.323 697.411 219.214 696.504 217.105C696.02 215.975 695.503 214.806 694.551 214.039C693.46 213.16 691.997 212.954 690.611 212.781C686.939 212.319 683.221 211.857 679.554 212.331C675.37 212.871 671.002 214.59 667.106 212.97C665.32 212.23 663.873 210.856 662.637 209.37C659.098 205.102 657.056 199.816 655.07 194.635C654.864 194.095 654.652 193.522 654.73 192.949C654.897 191.753 656.199 191.096 657.351 190.74C663.6 188.831 670.851 189.66 676.143 185.832C677.311 184.991 678.352 183.934 679.676 183.361C681.124 182.743 682.759 182.771 684.334 182.821C692.737 183.105 701.123 183.806 709.459 184.913C710.438 185.047 711.474 185.175 712.37 184.758C714.897 183.594 713.797 179.444 711.365 178.086C708.936 176.733 705.941 176.912 703.332 175.932C698.435 174.101 695.83 167.746 698.029 163.005C695.558 162.383 692.826 162.889 690.739 164.352C692.069 167.223 691.424 170.891 689.198 173.144C687.194 173.84 685.036 174.546 682.993 173.979C680.951 173.411 679.309 170.968 680.361 169.126C680.867 168.253 681.863 167.669 681.429 166.294C681.246 165.699 680.834 165.181 680.3 164.853C679.243 164.207 677.962 164.207 676.739 164.219C673.767 164.252 669.766 165.282 669.905 168.253C669.938 169.01 670.283 169.767 670.094 170.501C669.744 171.853 667.919 172.215 667.173 173.395C665.865 175.481 668.692 178.32 667.624 180.54C667.156 181.508 666.082 182.009 665.32 182.771C664.563 183.533 664.245 185.042 665.197 185.542C662.02 188.97 654.736 185.503 652.326 189.51C651.925 190.178 651.731 190.99 651.158 191.513C650.462 192.137 649.394 192.186 648.687 192.799C647.691 193.667 647.852 195.292 648.447 196.466C649.049 197.646 649.995 198.647 650.412 199.904C650.796 201.051 650.696 202.297 650.585 203.505C650.295 206.588 649.616 210.144 646.884 211.602C644.375 212.943 641.114 211.768 639.2 209.665C637.286 207.562 636.401 204.746 635.566 202.025L632.527 192.109C631.76 189.593 630.885 186.928 628.855 185.259C625.287 182.337 618.794 182.944 617.191 178.62C616.64 177.134 616.824 175.264 615.655 174.196C614.392 173.044 612.383 173.561 610.736 173.1C608.566 172.493 607.208 169.861 607.971 167.741C606.1 167.229 603.937 168.559 603.547 170.462C606.374 169.839 608.95 172.332 610.241 174.925C611.538 177.513 612.244 180.5 614.32 182.521C615.655 183.828 617.425 184.58 618.938 185.676C621.404 187.451 623.19 190.217 623.563 193.233C624.136 197.901 621.432 202.281 618.844 206.215C617.77 207.846 616.495 209.615 614.581 209.982C613.324 210.221 612.038 209.793 610.853 209.303C608.02 208.118 605.36 206.527 602.979 204.585C604.582 202.448 607.792 202.793 610.463 202.765C613.135 202.731 616.54 201.017 615.878 198.424C615.566 197.206 614.436 196.416 613.591 195.492C612.617 194.429 611.972 193.105 611.109 191.953C607.57 187.234 601.104 186.06 595.266 185.242C594.76 182.805 594.231 180.317 592.913 178.213C591.594 176.105 589.29 174.435 586.808 174.58C583.108 174.797 580.136 178.831 576.486 178.169C575.662 178.019 574.878 177.624 574.037 177.612C572.135 177.579 570.765 179.465 570.164 181.269C569.569 183.077 569.341 185.086 568.133 186.561C565.367 189.949 558.546 189.293 557.61 193.566C557.294 195.002 557.872 196.466 557.956 197.929C558.039 199.392 557.238 201.184 555.768 201.19L556.38 200.667C553.615 201.078 552.825 204.612 551.066 206.782C547.744 210.889 541.273 209.737 536.314 211.551C534.528 212.208 532.78 213.293 530.889 213.109C528.997 212.92 527.338 210.439 528.712 209.125C525.797 208.385 522.758 208.14 519.771 208.402C519.164 205.57 518.557 202.737 517.95 199.899C517.789 199.131 517.623 198.33 517.789 197.562C517.945 196.827 518.384 196.188 518.813 195.57C521.028 192.337 523.076 188.008 520.956 184.707C520.344 183.75 519.403 182.955 519.158 181.847C518.835 180.395 519.821 179.004 520.75 177.835C522.125 176.099 523.777 174.218 525.986 174.09C526.994 174.029 527.972 174.352 528.946 174.596C533.81 175.837 538.936 175.242 543.916 174.647C546.214 174.368 548.996 173.701 549.609 171.469C549.814 170.707 549.709 169.895 549.597 169.11C549.285 166.867 548.974 164.625 548.663 162.383C548.545 161.52 548.418 160.635 548.012 159.861C547.249 158.42 545.685 157.647 544.384 156.673C542.041 154.926 540.371 152.299 539.781 149.439C541.234 148.42 543.198 149.149 544.89 149.667C546.587 150.19 548.913 150.19 549.586 148.554C549.748 148.165 549.787 147.725 549.998 147.363C550.449 146.618 551.445 146.478 552.312 146.379C561.423 145.349 569.958 140.046 574.922 132.333C575.668 131.181 576.352 129.951 577.421 129.089C580.086 126.947 584.154 127.748 587.098 126.018C590.386 124.081 591.198 119.746 591.438 115.939C591.566 113.903 591.66 111.761 592.74 110.03C593.124 109.418 593.714 108.834 594.437 108.823C594.882 108.817 595.3 109.029 595.695 109.234C596.931 109.885 598.171 110.536 599.412 111.188C599.657 113.547 598.478 115.996 596.48 117.275C597.582 118.934 598.199 120.909 598.25 122.901C602.189 122.562 606.129 122.228 610.074 121.894C611.732 121.755 613.452 121.594 614.887 120.753C616.112 120.036 617.035 118.878 618.287 118.215C620.574 117.008 623.579 118.177 624.937 120.291C626.011 121.961 628.459 121.921 629.567 120.403C629.795 120.085 630.095 119.835 630.468 119.712C630.708 119.634 630.992 119.535 631.275 119.429C632.293 119.062 632.738 117.87 632.227 116.919C631.703 115.956 630.953 115.022 631.353 113.926C632.839 109.847 637.908 107.604 641.97 108.928C642.616 109.139 643.3 108.767 643.467 108.11C643.578 107.665 643.696 107.214 643.807 106.769C643.89 106.452 643.968 106.123 643.913 105.801C643.762 104.983 642.828 104.599 642.271 103.981C641.548 103.185 641.503 101.855 642.176 101.016C643.195 99.7358 645.126 99.8968 646.761 99.9353C649.817 100.014 652.822 99.2514 655.782 98.5005C657.312 98.1108 658.837 97.7212 660.367 97.3315C660.395 97.3147 660.428 97.3424 660.457 97.1865C660.584 96.5361 660.228 95.901 659.633 95.6228C658.703 95.1778 657.841 94.5995 657.089 93.8981C656.861 93.681 656.545 93.5863 656.233 93.6533C653.879 94.193 643.723 96.5135 638.292 97.7881C636.272 98.2659 633.913 98.6833 632.483 96.7918C632.205 96.4138 632.004 95.9797 631.876 95.5288C631.025 92.5346 633.017 89.6525 632.661 86.6917C632.572 85.9408 632.333 85.1673 632.572 84.4492C632.784 83.8097 633.334 83.3479 633.88 82.9582C635.771 81.5889 637.919 80.5706 639.672 79.0237C641.42 77.4715 642.766 75.1729 642.326 72.8749C640.195 72.9252 638.07 72.9806 635.938 73.0308C635.304 73.0476 634.637 73.0694 634.074 73.3702C632.967 73.9711 632.672 75.3848 632.149 76.5254C631.075 78.8569 628.771 80.3369 626.556 81.6283C624.342 82.9138 621.988 84.2488 620.68 86.4528C619.372 88.6561 619.645 92.0284 621.921 93.2025C622.912 93.7145 624.264 93.8594 624.714 94.8835C624.992 95.523 624.781 96.263 624.531 96.92C623.624 99.2682 622.233 101.427 620.469 103.225C619.762 103.942 618.983 104.627 618.555 105.539C617.53 107.704 618.755 110.57 617.386 112.534C615.884 114.687 612.495 114.17 610.28 115.589C608.555 116.691 607.063 119.084 605.105 118.194C604.365 117.859 603.903 117.108 603.836 116.301C603.697 114.649 604.693 113.369 605.644 112.167C602.156 109.969 599.379 106.663 597.815 102.852C597.593 102.295 597.319 101.661 596.752 101.477C596.346 101.349 595.912 101.488 595.517 101.65C592.84 102.74 590.587 104.772 587.821 105.606C585.055 106.441 581.294 105.35 580.843 102.496C580.72 101.705 580.865 100.876 580.631 100.114C580.281 98.9841 579.19 98.2718 578.473 97.3315C576.903 95.2892 577.221 92.4181 577.615 89.8746C577.727 89.1682 577.843 88.4391 578.205 87.8163C578.583 87.1652 579.207 86.6917 579.847 86.297C582.573 84.6218 586.029 84.0711 588.238 81.7615C589.251 80.7047 589.924 79.3521 590.965 78.3281C593.658 75.6849 598.138 75.8022 601.076 73.4314C604.632 70.5602 605.355 64.5331 609.707 63.1252C608.855 62.0626 609.935 60.5658 610.948 59.6474C614.487 56.4426 618.449 53.0535 623.223 52.8642C624.848 52.7979 626.501 53.1147 628.086 52.7477C629.383 52.4468 630.529 51.7068 631.72 51.1118C633.947 49.9989 636.395 49.3587 638.865 49.0528C641.286 48.7578 643.74 48.7745 646.161 49.0585C650.268 49.5422 654.241 50.7724 658.191 51.991C660.339 52.6588 662.493 53.326 664.647 53.9939C673.032 56.5927 681.424 59.1914 689.81 61.7902C690.851 62.1128 691.785 62.764 692.347 63.6934C694 66.4203 691.323 68.7182 688.803 69.1742C686.711 69.558 684.513 69.1858 682.459 69.7306C680.879 70.1538 679.421 71.1109 677.79 71.1502C674.573 71.2332 671.936 67.783 668.753 68.2339C671.892 72.2347 675.703 76.5641 680.467 77.5772C681.351 77.7665 682.309 77.4264 682.843 76.6922C683.227 76.1525 684.106 75.6966 684.84 75.6237C686.482 75.4737 688.135 75.4511 689.782 75.5626C690.889 75.6347 691.907 75.0505 692.531 74.127C693.393 72.8524 694.951 71.9514 696.387 71.2223C699.002 69.8865 701.618 68.5514 704.233 67.2156C702.136 66.0029 701.351 62.9752 702.587 60.8943C703.365 59.5869 704.851 58.8076 706.359 58.7187C707.534 58.6517 708.462 59.7144 708.312 60.8775C708.101 62.5083 709.13 64.756 710.727 65.4348C712.683 66.2644 714.023 64.5331 715.414 63.3758C718.503 60.8105 721.977 58.4958 726.004 57.7726C727.104 57.5723 728.292 57.5111 729.297 58.0005C730.302 58.4958 731.03 59.6925 730.673 60.7494C734.796 59.6758 738.911 58.6073 743.033 57.533C743.529 57.4055 744.053 57.2715 744.548 57.4106C745.044 57.5497 745.422 57.9342 745.867 58.1899C747.272 59.002 749.334 58.262 749.894 56.7376C747.09 55.986 744.49 54.4396 742.494 52.3245C743.725 51.4957 745.306 52.5081 746.617 53.2036C750.761 55.3909 755.787 54.2554 760.455 54.7288C765.153 55.2015 769.676 57.3552 774.389 57.0544C770.805 55.2576 767.907 52.1074 766.472 48.3572C765.874 46.7875 765.758 45.0461 766.333 43.4714C767.491 40.3162 770.245 40.0715 772.757 39.9098L776.771 39.6542C778.453 39.5427 780.019 40.6782 780.318 42.3475C780.769 44.8516 782.233 47.1831 784.367 48.5793C784.688 47.5502 784.52 46.4373 784.651 45.3688C784.768 44.2894 785.358 43.1043 786.436 42.9208C786.465 42.9208 786.494 42.9149 786.523 42.9149C789.386 42.9929 789.123 46.3702 791.024 47.6114C792.197 48.012 793.457 47.2108 794.215 46.237C794.972 45.2632 795.467 44.0781 796.349 43.2158C798.388 41.2346 801.935 41.4902 804.237 41.2288C804.965 41.1508 805.708 41.1341 806.422 41.3009C807.07 41.4568 807.427 40.7277 807.004 40.2994C806.961 40.2491 806.91 40.1938 806.866 40.1436C806.407 39.593 806.189 38.853 806.414 38.1741C806.728 37.217 807.66 36.9665 808.512 36.7997C810.45 36.4152 812.416 36.1981 814.39 36.1486C815.351 36.1201 816.182 35.3357 816.116 34.3728C816.094 34.0895 816.131 33.7996 816.211 33.5381C816.546 32.4697 817.471 31.7078 818.381 31.0618C822.453 28.2073 827.799 28.4077 832.89 28.7806H832.897C836.124 28.5359 839.336 28.2853 842.563 28.0347C843.429 27.9684 844.318 27.8956 845.104 27.5344C847.428 26.4709 848.185 23.2997 850.509 22.2421C853.058 21.079 855.833 23.0215 858.404 24.1228C866.394 27.5234 875.651 22.7149 884.18 24.535C885.076 24.7244 885.914 25.1133 886.657 25.6363C887.684 26.3545 888.23 27.4899 888.23 28.6415C888.23 29.3924 887.997 30.155 887.502 30.8061C886.3 32.4085 885.164 34.0502 884.079 35.7363C882.178 38.6971 884.814 42.4583 888.259 41.7408C892.265 40.9113 896.227 39.8486 900.117 38.563C901.748 38.0292 903.424 37.4451 905.128 37.6395C907.109 37.8624 908.813 39.1086 910.707 39.7153C913.839 40.7168 917.218 39.9156 920.503 39.6876C924.283 39.4261 928.115 39.9491 931.691 41.212C931.159 40.5391 930.635 39.8712 930.11 39.2032C929.331 38.2069 930.256 36.7939 931.472 37.1057C932.288 37.3168 933.191 37.6119 934.182 37.9789C934.24 38.0015 934.313 38.0234 934.378 38.046C941.254 39.9324 945.792 41.3738 952.682 43.2595C953.6 43.51 954.532 43.7664 955.297 44.3338C956.025 44.8735 956.542 45.6528 957.227 46.2537C959.776 48.5131 963.782 47.6893 966.877 46.2595C969.98 44.8348 973.127 42.8873 976.514 43.282C980.672 43.7722 984.467 47.7563 988.415 46.3593C987.402 44.5399 986.39 42.7256 985.37 40.9061C995.545 40.928 1005.72 42.1305 1015.62 44.4787C1022.64 46.1422 1029.62 48.3958 1036.83 48.4184C1039.84 48.4293 1042.86 48.0513 1045.85 48.374C1048.26 48.6296 1050.6 49.3369 1052.95 49.9487C1062.75 52.5139 1072.97 53.4877 1083.09 52.8147C1087.78 52.5029 1092.44 51.8409 1097.14 51.7017C1106.63 51.4235 1116.02 53.2932 1125.33 55.1461C1140.63 58.2008 1157.03 61.8732 1168.33 72.2129C1169.6 73.376 1169.46 75.4511 1168 76.3696Z" fill="#E1E4EC"/>
<path d="M1057.4 276.109C1057.09 277.706 1056.62 279.353 1055.49 280.527C1054.37 281.696 1052.43 282.23 1051.08 281.323C1049.95 280.571 1049.54 279.047 1049.74 277.7C1049.94 276.353 1050.63 275.141 1051.31 273.966C1052.11 272.583 1052.96 271.155 1053.95 269.898C1055.08 268.483 1057.38 269.13 1057.62 270.921C1057.85 272.622 1057.71 274.415 1057.4 276.109Z" fill="#E1E4EC"/>
<path d="M1094.02 164.432C1093.48 164.744 1092.83 165.061 1092.26 164.788C1091.79 164.571 1091.58 164.037 1091.44 163.536C1091.11 162.262 1091.03 160.909 1090.49 159.708C1089.97 158.545 1089.03 157.621 1088.3 156.586C1085.86 153.18 1085.44 148.59 1082.77 145.373C1081.67 144.049 1080.19 142.947 1079.63 141.322C1079.47 140.854 1079.39 140.343 1079.1 139.942C1078.8 139.536 1078.32 139.302 1077.89 139.052C1075.97 137.95 1074.45 136.169 1073.66 134.105C1073.15 132.781 1072.9 131.295 1071.98 130.221C1071.58 129.759 1071.07 129.391 1070.73 128.885C1070.67 128.802 1070.62 128.717 1070.58 128.632C1069.51 126.55 1072.28 124.593 1074.01 126.173C1077.76 129.59 1082.05 132.463 1085.2 136.431C1087.1 138.818 1088.54 141.539 1089.96 144.244C1090.7 145.646 1091.44 147.304 1090.79 148.751C1090.47 149.486 1089.78 150.192 1089.99 150.971C1090.1 151.361 1090.42 151.65 1090.73 151.917C1092.28 153.297 1093.84 154.672 1095.4 156.052C1096.51 157.025 1097.69 158.155 1097.82 159.624C1098.01 161.783 1095.9 163.358 1094.02 164.432Z" fill="#E1E4EC"/>
<path d="M1117.34 212.483C1116.96 213.518 1115.42 214.236 1115.83 215.26C1115.95 215.549 1116.2 215.75 1116.41 215.984C1117.35 217.041 1117.23 218.805 1116.32 219.89C1115.4 220.981 1113.87 221.42 1112.46 221.231C1111.36 221.086 1110.19 220.602 1109.16 221.053C1108.75 221.231 1108.41 221.548 1108.08 221.86C1106.25 223.59 1104.42 225.327 1102.59 227.057C1102.23 227.402 1101.81 227.764 1101.31 227.769C1099.9 227.781 1099.84 225.232 1098.47 224.882C1097.48 224.627 1096.58 225.737 1096.27 226.609C1096.12 227.018 1095.92 227.407 1095.63 227.737C1093.62 230.099 1091.16 226.346 1088.91 227.146C1087.85 227.519 1087.36 228.788 1087.41 229.912C1087.46 231.036 1087.92 232.093 1088.15 233.195C1088.44 234.614 1088.36 236.111 1087.92 237.491C1087.78 237.881 1087.62 238.27 1087.31 238.526C1087.07 238.726 1086.75 238.821 1086.44 238.882C1083.72 239.383 1081.27 237.246 1079.38 235.209C1078.72 234.497 1078.06 233.757 1077.66 232.872C1076.86 231.164 1077.13 229.177 1077.43 227.313C1077.7 225.605 1078.02 223.774 1079.24 222.538C1079.81 221.966 1080.53 221.565 1081.06 220.964C1081.59 220.369 1081.91 219.617 1082.32 218.938C1083.8 216.562 1086.51 215.277 1089.14 214.353C1091.78 213.424 1094.56 212.684 1096.76 210.948C1099.8 208.532 1101.19 204.565 1101.73 200.72C1102.48 195.439 1101.84 189.735 1098.74 185.389C1098.23 184.677 1097.65 183.998 1097.34 183.18C1096.41 180.726 1098.08 177.754 1096.86 175.429C1096.28 174.31 1095.11 173.575 1094.51 172.457C1093.71 170.96 1094.37 168.745 1096 168.267C1097.15 167.928 1098.38 168.467 1099.31 169.213C1100.25 169.959 1101 170.91 1101.96 171.622C1104.17 173.249 1107.03 173.315 1109.83 172.989C1110.9 172.864 1111.97 173.232 1112.74 173.981C1113.49 174.701 1114.23 175.42 1114.98 176.141C1115.4 176.558 1115.87 177.165 1115.56 177.682C1115.26 178.216 1114.47 178.083 1113.87 178.222C1112.41 178.551 1112.11 180.498 1112.38 181.961C1112.64 183.425 1113.15 185.077 1112.29 186.291C1110.34 184.666 1108.01 183.503 1105.53 182.924C1105.23 182.852 1104.87 182.813 1104.67 183.041C1104.54 183.191 1104.52 183.42 1104.54 183.619C1104.66 184.905 1105.64 185.924 1106.57 186.825C1108.61 188.806 1110.65 190.787 1112.69 192.773C1114.11 194.159 1115.59 195.639 1116.13 197.553C1117.21 201.36 1114.27 205.745 1116.17 209.217C1116.74 210.269 1117.76 211.354 1117.34 212.483Z" fill="#E1E4EC"/>
<path d="M1084.87 436.963C1082.99 438.727 1080.09 438.827 1077.56 438.344C1075.03 437.859 1072.56 436.891 1069.99 436.874C1065.76 436.846 1061.95 439.351 1057.8 440.185C1051.48 441.454 1045.13 438.783 1038.85 437.314C1027.25 434.592 1014.33 435.783 1004.25 429.417C1002.9 428.56 1001.61 427.576 1000.14 426.953C997.63 425.896 994.681 425.923 992.422 424.41C988.837 422.011 988.485 416.942 986.328 413.202C984.055 409.262 979.719 406.797 977.663 402.741C975.938 399.33 975.999 395.095 973.679 392.045C972.097 389.953 969.594 388.729 967.849 386.759C965.773 384.416 964.941 381.228 963.189 378.635C961.376 375.947 958.603 373.916 957.257 370.967C955.904 368.017 957.101 363.499 960.341 363.304C961.992 363.209 963.459 364.278 964.717 365.346C966.266 366.66 967.741 368.056 969.127 369.531C971.792 376.325 977.007 382.113 983.561 385.362C985.225 386.191 987.004 386.887 988.37 388.155C989.588 389.286 990.379 390.776 991.238 392.195C993.355 395.668 996 398.812 999.057 401.489C1000.52 402.768 1002.15 404.032 1002.82 405.851C1003.95 408.895 1002.05 412.167 1001.75 415.4C1001.36 419.59 1004.03 423.875 1007.98 425.361C1012.71 427.153 1018.06 425.044 1023.06 425.856C1028.84 426.797 1033.47 431.493 1039.25 432.439C1042.16 432.912 1045.18 432.389 1048.1 432.834C1051.93 433.413 1055.45 435.633 1059.32 435.628C1061.69 435.628 1063.96 434.793 1066.27 434.27C1072.52 432.862 1079.27 433.842 1084.87 436.963Z" fill="#E1E4EC"/>
<path d="M1054.92 390.869C1053.97 391.809 1055.1 393.334 1055.21 394.664C1055.35 396.456 1053.57 397.708 1052.27 398.943C1050.72 400.401 1049.62 402.32 1049.13 404.391C1048.52 406.973 1048.77 409.956 1047.03 411.953C1044.9 414.39 1041.08 414.012 1037.9 413.428C1036.89 413.244 1035.84 413.038 1035.02 412.421C1034.58 412.092 1034.24 411.658 1033.82 411.302C1031.2 409.065 1027.18 410.517 1023.81 409.811C1023.27 409.705 1022.74 409.527 1022.35 409.165C1021.33 408.247 1021.58 406.616 1021.11 405.337C1020.4 403.445 1018.21 402.549 1017.13 400.835C1015.34 397.969 1017.26 393.957 1015.75 390.936C1015.24 389.929 1014.38 389.088 1014.1 387.992C1013.63 386.167 1015.34 384.147 1017.21 384.297C1018.01 384.358 1018.74 384.737 1019.53 384.876C1021.24 385.171 1023.09 384.141 1023.74 382.527C1023.92 382.088 1024.02 381.604 1024.33 381.247C1024.79 380.73 1025.54 380.63 1026.21 380.447C1029.92 379.423 1031.68 375.327 1034.26 372.467C1035.86 370.686 1037.9 369.311 1040.15 368.493C1040.8 368.26 1041.49 368.054 1041.99 367.581C1043.36 366.284 1042.53 364.025 1042.69 362.144C1042.9 359.746 1045.19 357.737 1047.6 357.776C1049.69 359.262 1051.76 360.77 1053.81 362.311C1055.08 363.263 1056.42 364.354 1056.77 365.9C1057.16 367.547 1056.29 369.195 1055.46 370.669C1055 371.471 1054.54 372.289 1053.89 372.94C1053.49 373.351 1053 373.708 1052.74 374.225C1052.5 374.726 1052.51 375.31 1052.53 375.866C1052.66 379.7 1052.97 383.98 1055.81 386.561C1056.3 387.007 1056.86 387.391 1057.23 387.942C1057.59 388.492 1057.71 389.289 1057.27 389.789C1056.7 390.457 1055.55 390.251 1054.92 390.869Z" fill="#E1E4EC"/>
<path d="M1089.22 441.114C1088.49 441.808 1087.47 442.085 1086.59 442.563C1085.88 442.955 1085.25 443.484 1084.61 443.976C1082.19 445.834 1079.43 447.239 1076.52 448.112C1075.59 448.39 1074.46 448.577 1073.72 447.946C1072.88 447.225 1073.04 445.898 1073.31 444.821C1073.69 443.34 1074.25 441.749 1075.57 440.972C1076.21 440.598 1076.97 440.459 1077.7 440.307C1079.68 439.894 1081.62 439.302 1083.48 438.537C1084.03 438.31 1084.57 438.066 1085.01 437.676C1085.52 437.231 1085.85 436.624 1086.27 436.097C1086.8 435.444 1087.48 434.917 1088.24 434.567C1088.83 435.13 1089.32 435.749 1089.69 436.463C1090.45 437.951 1090.43 439.967 1089.22 441.114Z" fill="#E1E4EC"/>
<path d="M1188.83 448.043C1184.18 447.576 1179.25 447.003 1175.58 444.103C1172.96 442.039 1170.75 438.727 1167.41 438.772C1164.19 438.817 1161.7 442.106 1158.5 442.106C1157.36 442.1 1156.26 441.677 1155.19 441.304C1151.05 439.891 1146.66 439.245 1142.29 439.417C1140.93 435.311 1143.85 430.085 1141.04 426.808C1138.9 424.321 1134.87 424.805 1132.04 423.152C1129.94 421.933 1128.62 419.608 1126.45 418.522C1123.3 416.964 1118.54 417.949 1116.98 414.811C1115.71 412.24 1117.74 408.411 1115.51 406.603C1114.7 405.941 1113.56 405.846 1112.64 405.34C1110.39 404.116 1110.22 400.526 1112.1 398.785C1113.97 397.043 1117.13 397.204 1119.15 398.785C1120.97 400.215 1121.89 402.469 1123.09 404.455C1124.29 406.436 1126.14 408.372 1128.45 408.345C1130.07 408.328 1131.49 407.36 1132.84 406.475C1134.96 405.078 1137.21 403.776 1139.71 403.286C1141.28 402.974 1142.98 403.036 1144.48 403.548C1145.64 404.928 1146.89 406.191 1148.43 406.898C1152.05 408.545 1156.5 406.714 1160.18 408.25C1162.04 409.029 1163.44 410.582 1164.79 412.084C1168.26 415.963 1171.72 419.835 1175.18 423.709C1176.05 424.677 1176.98 425.885 1176.65 427.142C1176.48 427.827 1175.95 428.377 1175.76 429.062C1175.51 429.969 1175.89 430.926 1176.34 431.761C1177.65 434.281 1179.52 436.518 1181.76 438.266C1183.46 439.59 1185.39 440.653 1186.88 442.194C1188.38 443.741 1189.43 445.972 1188.83 448.043Z" fill="#E1E4EC"/>
<path d="M1090.54 360.877C1089.52 363.127 1086.78 364.007 1084.31 364.123C1080.49 364.297 1076.58 363.164 1073.64 360.719C1070.72 358.274 1068.88 354.47 1069.11 350.661C1069.22 348.685 1069.86 346.735 1069.69 344.764C1069.46 342.146 1067.85 339.891 1066.37 337.725C1061.55 330.712 1057.56 323.141 1054.49 315.216C1053.53 312.74 1052.66 310.169 1052.68 307.518C1052.69 304.868 1053.75 302.086 1055.97 300.627C1057.07 299.895 1058.49 299.62 1059.81 299.809C1061.55 303.641 1062.66 307.919 1065.36 311.138C1067.07 313.166 1069.31 314.669 1071.09 316.628C1073.07 318.82 1074.4 321.513 1075.62 324.205C1078.19 329.817 1080.39 335.592 1082.22 341.482C1083.16 344.538 1084.04 347.695 1085.88 350.324C1087.05 351.988 1088.56 353.39 1089.65 355.102C1090.75 356.815 1091.38 359.023 1090.54 360.877Z" fill="#E1E4EC"/>
<path d="M1130.77 607.379C1130.38 608.976 1128.94 610.151 1127.39 610.679C1126.62 610.935 1122.73 610.384 1121.32 610.729C1120.87 610.841 1120.42 610.946 1119.97 610.918C1118.47 610.824 1117.5 609.36 1116.77 608.058C1116.3 607.24 1115.83 606.389 1115.74 605.454C1115.66 604.603 1115.91 603.762 1116.15 602.944C1116.41 602.048 1116.67 601.152 1116.93 600.262C1117.12 599.622 1117.33 598.955 1117.82 598.503C1118.54 597.847 1119.63 597.869 1120.61 597.936C1122 598.03 1123.38 598.12 1124.76 598.209C1126.73 598.343 1128.79 598.453 1130.57 597.619C1130.65 597.58 1130.74 597.541 1130.82 597.497C1130.55 598.52 1130.09 599.556 1129.99 600.607C1129.78 602.894 1131.32 605.159 1130.77 607.379Z" fill="#E1E4EC"/>
</svg>
