<?xml version="1.0" standalone="no"?>
<!DOCTYPE svg PUBLIC "-//W3C//DTD SVG 1.1//EN" "http://www.w3.org/Graphics/SVG/1.1/DTD/svg11.dtd" >
<svg xmlns="http://www.w3.org/2000/svg">
<metadata>Generated by IcoMoon</metadata>
<defs>
<font id="icomoon" horiz-adv-x="1024">
<font-face units-per-em="1024" ascent="960" descent="-64" />
<missing-glyph horiz-adv-x="1024" />
<glyph unicode="&#x20;" horiz-adv-x="512" d="" />
<glyph unicode="&#xe900;" glyph-name="big-phone" d="M183.2 957.004c-16.2-4.2-32.8-13.4-49.8-28-18.8-16.2-86.2-84.8-97.2-99-44.6-57-45.4-145.6-2.2-260 52.6-139.8 151.2-281.399 276-396.4 172-158.6 402.4-261.199 520.999-232.399 17.601 4.198 46.801 17.8 60.201 27.999 13.6 10.201 103.999 103.001 112.4 115.2 15.6 22.601 21.6 52.801 15.6 78.401-6.8 28.599-9.001 31.2-96 118.4-87.8 87.8-90.6 90-119.601 96-22.999 4.799-46.399 0.599-69-12.4-5.199-3.2-29.999-25.801-54.999-50.599l-45.401-44.8-14.6 7.599c-35.801 18.599-62.2 36.399-101.6 68.801-40.401 33.199-96.8 91.4-128 132.198-22.599 29.601-55.8 84.2-55.999 91.601 0 1.4 15.598 17.8 34.599 36.399 39.999 39.001 55.8 57.2 64.8 74.401 11.201 21.799 13.401 49.398 5.6 72.2-7.8 23.199-15.399 31.999-91.8 108.599-75.601 75.6-87.201 85.6-108.8 93-15 5.4-39.8 6.6-55.2 2.8zM229.6 900.804c5.6-3.2 37.6-33.4 80.601-76.6 77.798-77.999 80.8-81.601 80.599-102.199 0-18.202-4.799-24.602-56.999-76.8-26.4-26.201-49.4-50.4-50.999-53.801-2.4-4.2-3.001-10-2.4-19.799 0.601-12 2.2-16.601 14.399-40.8 27.601-54.8 64-103.001 124.201-164.6 59.8-61.2 119.398-106.801 180.799-138.4 21.799-11.201 26-12.8 36-12.601 6.802 0 14.001 1.4 18.202 3.6 3.799 2.001 28.599 25.2 54.999 51.401 34.001 33.8 50.601 48.8 57.001 51.6 11.999 5.4 27.599 5.4 38.599 0 12-6 153.401-147.2 159.6-159.6 3.401-6.599 4.799-12.599 4.799-21.199 0-20.6-4.198-26.201-60.999-83.2-56.2-56.401-61.401-60.201-91.4-67.001-29.001-6.4-77.6-1.199-126.801 13.401-75 22.199-175.799 75.4-258.8 136.6-159.799 117.6-296.999 297.399-353.999 463.6-27.2 79-30.2 135.599-9.4 177.6 6.4 13.4 12.4 20.2 54 62.4 25.6 26 50.2 49.6 54.4 52.6 18 12.4 36.401 13.8 53.6 3.8z" />
<glyph unicode="&#xe901;" d="M130.34 961c-66.063-15.333-106.616-56.667-121.66-124 0-244.666 0-489.335 0-733.999 14.996-63.621 53.587-103.953 115.774-121 148.418-2.631 296.896-3.965 445.434-4.001 36.124-21.49 74.713-35.158 115.774-40.999 22.893 0 45.784 0 68.679 0 145.86 27.333 232.201 115.333 259.018 263.999 0 23.334 0 46.665 0 70.001-5.729 41.843-19.137 81.178-40.226 118-0.035 151.394-1.345 302.727-3.924 454-16.952 64.282-57.18 103.616-120.679 118-239.398 0-478.793 0-718.189 0zM140.151 917c233.509 0.333 467.019 0 700.528-1 49.177-11.455 78.284-42.455 87.32-93 1.636-124.673 1.31-249.338-0.98-373.999-79.868 75.857-173.404 101.523-280.605 76.999-115.465-35.685-187.087-113.351-214.868-233.001-16.759-103.057 9.732-192.392 79.472-268-122.31-2.334-244.624-2.664-366.943-0.999-49.574 9.193-79.989 38.86-91.245 88.999-1.308 238.001-1.308 476.002 0 714.001 9.838 49.692 38.944 79.693 87.321 90zM703.32 491c100.818 1.801 178.327-40.201 232.529-126 44.295-83.3 45.601-167.3 3.924-252.001-55.269-93.34-136.702-137.007-244.301-130.999-107.408 16.231-179.032 76.566-214.868 180.999-25.43 104.69 0.406 193.691 77.509 267.001 42.423 35.289 90.825 55.623 145.207 60.999z" />
<glyph unicode="&#xe902;" d="M271.619 832.997c15.221 4.148 25.36-1.185 30.415-16 0.981-37.327 1.308-74.659 0.981-112 37.942 0.334 75.88 0 113.811-0.999 16.685-15.928 15.377-29.93-3.924-42.001-36.624-0.999-73.251-1.333-109.887-0.999 0.327-37.341 0-74.673-0.981-112-11.844-19.672-25.581-21.006-41.207-3.999-0.981 38.659-1.308 77.327-0.981 116-36.636-0.334-73.264 0-109.887 0.999-15.815 6.89-20.067 18.56-12.755 35.001 2.382 3.097 5.326 5.429 8.83 7 37.931 0.999 75.869 1.333 113.811 0.999-0.327 38.672 0 77.339 0.981 116 2.668 5.045 6.266 9.045 10.793 12z" />
<glyph unicode="&#xe903;" d="M605.203 705.007c76.53 0.334 153.057 0 229.585-0.999 11.716-8.395 14.661-19.394 8.83-33.002-3.397-4.233-7.649-7.234-12.754-9-73.913-1.333-147.823-1.333-221.737 0-14.324 6.876-18.577 17.876-12.756 33 3.35 3.074 6.295 6.409 8.832 10z" />
<glyph unicode="&#xe904;" d="M149.965 365.006c6.984 0.184 13.525-1.482 19.623-5 29.789-30.695 59.877-61.028 90.265-91.001 30.388 29.972 60.474 60.306 90.263 91.001 19.649 9.564 31.423 3.563 35.322-18.001 0.012-4.598-0.97-8.932-2.944-12.999-30.415-31-60.829-62-91.244-93 30.415-31 60.829-62 91.244-93 7.983-28.527-2.156-39.526-30.415-33-30.442 31.363-61.185 62.362-92.226 93-31.041-30.639-61.784-61.637-92.227-93-28.259-6.527-38.397 4.473-30.415 33 30.415 31 60.831 62 91.246 93-30.415 31-60.831 62-91.246 93-7.264 16.718-3.013 28.718 12.755 36z" />
<glyph unicode="&#xe905;" d="M605.203 321.007c76.53 0.334 153.057 0 229.585-0.999 11.716-8.395 14.661-19.394 8.83-33.002-3.397-4.233-7.649-7.234-12.754-9-73.913-1.333-147.823-1.333-221.737 0-14.324 6.876-18.577 17.876-12.756 33 3.35 3.074 6.295 6.409 8.832 10z" />
<glyph unicode="&#xe906;" glyph-name="instr" horiz-adv-x="1071" d="M250.532 961c-55.539-12.534-90.538-46.534-105-102-2.31-136.614-3.31-273.282-3-409.999-0.31-136.718 0.69-273.385 3-410 14.454-55.459 49.454-89.46 105-102 205.334 0 410.664 0 616 0 24.548 7.703 38.884 24.371 42.999 49.999 1.336 307.335 1.336 614.666 0 922-4.766 26.422-19.768 43.756-45 52-204.665 0-409.332 0-613.998 0zM262.532 911c94 0 188 0 281.998 0-0.33-86.669 0-173.336 1.001-260 5.488-21.15 19.153-32.482 41.002-34 13.996 1.5 25.665 7.5 34.998 18 14.666 22.666 29.338 45.334 43.999 68 12.67-20 25.335-40 38-60 22.635-31.166 47.97-33.834 76.004-8 1.997 4 3.998 8 6 12 1.001 87.998 1.331 175.997 1.001 264 22.007 0.333 44.009 0 65.997-1 2.337-1 4.003-2.667 4.999-5 1.001-236.666 1.336-473.333 1.001-709.998-195.942 2.318-391.941 2.648-587.998 0.996-27.246-0.968-51.912-9.304-74-25-2.333 224.666-2.667 449.331-1 674.001 8.925 35.927 31.258 57.927 67 66zM594.534 911c47.332 0 94.664 0 141.996 0 0.335-74.003 0-148.003-1.001-222-17.389 26.398-34.392 53.066-51 80-16.319 12.168-30.655 10.168-42.999-6-15.332-24.666-30.664-49.334-46.001-74-0.996 73.997-1.331 147.997-0.996 222zM264.532 144.998c196.002 0.335 392.001 0 587.999-0.996 1.834-0.749 3.5-1.75 4.999-3.002 1.001-16.654 1.336-33.322 1.001-49.999-187.331 0.335-374.668 0-561.999-1.001-14.948-1.508-22.948-9.844-24-25 1.052-15.155 9.052-23.491 24-25 187.336-0.745 374.667-0.41 561.999 1.001 0.335-16.682 0-33.35-1.001-50.004-0.996-0.996-1.997-1.997-2.998-2.998-198-1.336-396-1.336-594.001 0-56.201 17.394-75.868 54.398-59 111.002 13.838 25.391 34.838 40.727 63 45.996z" />
<glyph unicode="&#xe907;" d="M605.203 193.007c76.53 0.334 153.057 0 229.585-0.999 11.716-8.395 14.661-19.394 8.83-33.002-3.397-4.233-7.649-7.234-12.754-9-73.913-1.333-147.823-1.333-221.737 0-14.324 6.876-18.577 17.876-12.756 33 3.35 3.074 6.295 6.409 8.832 10z" />
<glyph unicode="&#xe908;" glyph-name="compare" horiz-adv-x="977" d="M396.416 928.165c-10.428-3.834-17.035-11.303-19.822-22.408-0.862-66.071-1.15-132.145-0.862-198.221-116.062 0.288-232.122 0-348.18-0.862-8.331-3.735-14.364-9.768-18.099-18.098-1.149-202.241-1.149-404.486 0-606.73 3.735-8.332 9.768-14.364 18.099-18.097 154.652-1.713 309.208-1.136 463.666 1.722 8.015 4.231 12.898 10.84 14.653 19.824 0.861 66.071 1.15 132.143 0.861 198.218 116.061-0.289 232.118 0 348.179 0.861 8.332 3.738 14.364 9.77 18.097 18.102 1.15 202.242 1.15 404.487 0 606.729-3.733 8.331-9.765 14.364-18.097 18.099-152.832 0.862-305.664 1.149-458.494 0.862zM432.613 871.284c128.125 0 256.251 0 384.377 0 0-79.288 0-158.577 0-237.865-53.439-0.288-106.868 0-160.303 0.862 22.123 22.12 44.241 44.241 66.365 66.361 8.485 18.783 3.603 32.86-14.653 42.23-10.631 2.334-20.396 0.61-29.3-5.171-37.637-37.633-75.269-75.267-112.901-112.9-8.034-12.576-8.034-25.216 0-37.921 37.632-37.633 75.264-75.267 112.901-112.898 11.664-7.34 23.729-7.913 36.194-1.727 12.605 10.878 15.188 23.805 7.759 38.784-22.123 22.12-44.241 44.241-66.365 66.361 53.434 0.862 106.864 1.15 160.303 0.862 0-79.289 0-158.579 0-237.865-103.419 0-206.839 0-310.258 0 0.289 114.911 0 229.822-0.861 344.732-2.462 11.075-9.067 18.257-19.824 21.546-17.804 0.862-35.613 1.148-53.434 0.862 0 54.583 0 109.165 0 163.748zM65.472 650.655c128.125 0 256.252 0 384.377 0 0-176.962 0-353.923 0-530.889-128.125 0-256.252 0-384.377 0 0 79.29 0 158.576 0 237.866 65.502 0.289 131 0 196.498-0.861-23.954-22.803-46.649-46.643-68.085-71.531-2.356-33.257 12.295-44.46 43.954-33.615 38.782 38.786 77.565 77.568 116.347 116.35 5.745 11.492 5.745 22.979 0 34.472-38.783 38.782-77.565 77.568-116.347 116.349-31.659 10.849-46.31-0.355-43.954-33.61 21.436-24.888 44.131-48.733 68.085-71.536-65.497-0.861-130.996-1.15-196.498-0.861 0 79.29 0 158.578 0 237.867z" />
<glyph unicode="&#xe909;" d="M484.997 930.995c-37.402-7.718-64.736-28.718-82-63-52-0.667-104-1.333-156-2-55.094-4.428-89.428-33.428-103-87-0.334-120.334-0.667-240.666-1-360.998-0.315-123.737 0.685-247.404 3-371.001 14.63-44.161 44.963-69.826 91-76.999 177.334-1.337 354.665-1.337 532 0 50.968 7.631 81.969 36.632 93.001 86.997 1.331 240.667 1.331 481.336 0 722.001-13.571 53.572-47.907 82.572-102.998 87-52.014 0.334-104.017 1.334-156.004 3-25.401 46.375-64.735 67.041-117.999 62zM490.997 880.995c40.284 2.007 65.283-16.66 75-56 2.431-3.097 5.427-5.431 9-7 19.321-1 38.653-1.333 58.002-1 4.091-28.78-5.244-51.78-28.004-69-7.464-4.266-15.462-6.932-23.999-8-51.999-1.334-103.999-1.334-155.999 0-22.040 3.18-37.708 14.846-47 35-3.976 13.706-5.642 27.706-5 42 20.876-0.902 41.542 0.098 62 3 1.666 1.666 3.334 3.333 5 5 6.428 28.744 23.428 47.411 51 56zM246.997 816.995c25.334 0 50.666 0 76 0-4.158-56.73 19.174-97.064 70-121 4.576-1.644 9.244-2.978 14-4 31.94-2.2 63.94-3.2 96-3 32.060-0.2 64.061 0.8 95.999 3 49.939 13.27 77.603 45.604 82.998 97 1.002 9.31 1.337 18.643 1.002 28 25.341 0.334 50.677 0 76.002-1 27.141-2.728 44.808-17.061 53-43 1.331-236.666 1.331-473.335 0-709.998-6.715-24.048-22.382-38.378-47.002-43.003-174.667-1.331-349.335-1.331-524.001 0-24.62 4.624-40.288 18.955-47 43.003-1.333 236.663-1.333 473.332 0 709.998 8.994 25.342 26.66 40.009 53 44z" />
<glyph unicode="&#xe90a;" d="M632.999 495c27.853-2.364 36.185-16.364 25.002-42-58.999-57.666-118.003-115.333-177.001-173-12.492-7.125-24.492-6.462-36 1.999-34.5 33.83-68.168 68.166-101 103.004-3.36 23.967 6.972 34.967 31 33 31.474-25.465 61.14-53.135 89-83.003 53 51.669 106.002 103.335 159.002 155.001 3.627 1.514 6.958 3.18 9.997 5z" />
<glyph unicode="&#xe90b;" glyph-name="docs" d="M113.199 957c-11.2-4-21.4-13-27.2-24.2l-5-9.6-0.6-403.801c-0.2-273.599 0.2-406.399 1.6-411.599 3.2-11.801 13.6-24.2 25.8-30.201l11-5.6h97l0.6-50.6c0.6-47.199 0.8-51 5-58.4 5-9.4 12.8-17 22.6-22.2 6.799-3.6 16.4-3.801 234-3.801h227l17.6 6.2c9.599 3.6 22.6 9.4 28.799 13 11.601 7 152 137.2 164.401 152.401 9.599 12 19.799 33.6 24.399 50.999 3.6 14.601 3.799 25.201 3.799 318.201 0 202.8-0.8 305.6-2 310.6-3.399 11.8-13.799 24-25.8 30.2l-10.999 5.4h-97.001l-0.6 50.6c-0.599 44.6-0.999 51.2-4.4 57.4-5.199 9.8-12.8 17.6-22.2 22.6l-8 4.4-326.001 0.4c-273.599 0.4-327.199 0-333.799-2.4zM768.2 918.6c2.2-2.4 2.8-13 2.8-48.4v-45.2l-520-2-8.001-4.4c-10.399-5.6-17.8-13.6-22.8-24.6-3.999-9-4.198-11.2-4.198-347.6v-338.6l-45.601 0.599c-35.2 0.401-46.6 1.201-49 3.4-3.2 2.401-3.4 33.4-3.4 403.401 0 361.399 0.4 400.799 3.2 403.599s34.8 3.2 323.6 3.2c295.8 0 321.001-0.2 323.4-3.4zM899.999 785.4l5-2.6v-611.801l-158-1.999-11.2-5.6c-12.599-6.001-25-18.4-32.2-31.8-4.599-8.4-4.599-10-5.6-82.6l-0.999-74h-439.801l-2.599 5c-2 4.001-2.401 84.6-2 402.6l0.401 397.799 4.799 3.801c4.601 3.8 12.401 3.8 321.001 3.8 251 0 317.2-0.6 321.199-2.6zM884.8 129.6c-8.4-9.4-147.4-139.599-149.2-139.599-0.999 0-1.6 24.601-1.199 61.8 0.599 70.2 0.399 68.8 17.599 77.799 8.6 4.2 10.401 4.4 72.801 4.4h63.799l-3.799-4.4zM392.199 649.2c-10.999-6.2-13-17.999-4.4-27.6l5.8-6.6h372.401l5.401 5.399c7.8 8.001 7.599 18.201-1.001 25.801l-6.4 5.8h-183.6c-148.401-0.2-184.399-0.6-188.201-2.8zM391.399 525.799c-1.801-0.999-4.8-4.799-6.6-8-4.001-7.8-2.2-16.4 4.599-21.799 5-4.001 7.8-4.001 190-4.001 128.6 0 186.001 0.6 189 2.2 2.2 1.201 5.199 5.199 6.801 9.001 2.399 5.8 2.399 7.8 0 13.6-1.601 3.799-4.601 7.8-6.801 8.999-5.6 3.001-371.8 3.001-377 0zM389.399 399.997c-2.8-2.2-5.6-6.6-6.4-9.799-1.4-6.801 3-17 8.799-20.201 5.6-2.8 371-2.8 376.601 0.2 5.199 2.8 9.599 13.4 8.199 20.401-0.599 3-3.399 7.2-6.199 9.4-4.8 4.001-8.6 4.001-190.4 4.001-182.8 0-185.6 0-190.6-4.001zM394.8 279.995c-5.6-2.2-12.8-11.599-12.8-16.4 0-6.4 5.6-15 11.4-17.399 4.2-1.6 33.801-2.2 109.4-1.801l103.601 0.6 4.8 5.6c6.4 7.399 6.4 17.401 0 24.8l-4.8 5.6-103.8 0.399c-57 0.201-105.601-0.399-107.801-1.4z" />
<glyph unicode="&#xe90c;" glyph-name="download" horiz-adv-x="979" d="M477.326 819.53c-7.079-3.252-13.392-9.948-16.068-17.026-1.532-3.826-2.106-77.096-2.106-235.305v-229.948l-63.514 63.515c-35.008 35.007-66.191 64.467-69.061 65.425-13.965 5.356-30.226-0.383-37.496-13.201-4.4-7.845-5.356-20.663-1.913-27.354 3.061-5.93 183.27-186.524 189.583-189.965 6.696-3.446 19.322-3.446 26.019 0 2.867 1.527 46.294 43.996 96.416 94.31 98.522 98.714 95.651 95.464 92.592 112.489-1.723 8.797-11.861 19.131-21.811 21.998-16.642 5.165-17.599 4.403-86.849-64.659l-62.749-62.366-0.383 232.626c-0.574 231.669-0.574 232.817-4.59 237.982-2.106 2.869-6.122 7.078-8.802 8.991-6.505 4.783-21.615 6.122-29.269 2.487zM86.871 327.867c-7.27-3.25-13.583-10.903-16.261-20.084-1.339-4.782-1.722-28.316-1.339-71.929 0.765-64.28 0.957-65.238 6.122-82.263 13.2-43.427 41.131-76.524 80.539-95.651 34.243-16.647 4.783-15.307 333.825-15.307 329.047 0 299.582-1.34 333.828 15.307 40.363 19.509 69.823 55.666 81.684 99.475 3.637 13.966 4.212 21.045 4.786 81.306 0.761 65.808 0.761 65.999-3.637 74.418-5.739 11.095-12.435 15.876-24.104 17.025-12.052 1.149-22.955-4.59-28.886-14.919-3.829-6.888-4.016-9.759-4.016-66.195 0-66.19-1.34-77.094-11.865-96.991-7.84-14.919-24.296-31.374-37.875-38.071-23.534-11.669-7.462-11.095-309.916-11.095-302.26 0-285.616-0.574-309.529 11.095-14.539 6.888-30.991 23.534-38.452 38.453-10.33 20.28-11.67 30.8-11.67 96.608 0 56.436-0.191 59.307-4.018 66.195-7.461 13.196-24.869 18.744-39.217 12.622z" />
<glyph unicode="&#xe90d;" d="M485.004 930.995c-37.403-7.718-64.737-28.718-82.001-63-51.999-0.667-103.999-1.334-156-2-55.093-4.428-89.427-33.428-102.999-87.001-0.333-120.333-0.667-240.665-1-361-0.315-123.737 0.685-247.404 3-371.001 14.63-44.158 44.963-69.822 91-76.999 177.333-1.333 354.667-1.333 532 0 50.968 7.635 81.969 36.634 92.999 87 1.335 240.665 1.335 481.334 0 721.999-13.571 53.573-47.905 82.573-103 87.001-52.012 0.334-104.011 1.334-156 3-25.401 46.375-64.735 67.042-117.999 62zM491.004 880.995c40.283 2.006 65.283-16.66 75-56 2.427-3.098 5.427-5.431 9-7 19.321-1 38.655-1.333 58-1 4.091-28.78-5.242-51.78-28-68.999-7.464-4.267-15.464-6.933-24.001-8.002-51.999-1.333-103.999-1.333-156 0-22.039 3.182-37.707 14.846-47 35.001-3.976 13.706-5.641 27.706-5 42 20.877-0.902 41.542 0.098 62.001 3 1.665 1.667 3.334 3.333 5 5 6.428 28.744 23.428 47.411 51.001 56zM247.003 816.995c25.334 0 50.666 0 76.001 0-4.157-56.731 19.174-97.064 70-121.001 4.576-1.644 9.245-2.977 14-3.999 31.94-2.201 63.941-3.201 95.999-3 32.060-0.201 64.061 0.799 96.001 3 49.937 13.269 77.603 45.604 83 96.999 0.999 9.31 1.333 18.643 1.001 28 25.341 0.333 50.675 0 75.999-1 27.143-2.728 44.808-17.061 53-42.999 1.335-236.666 1.335-473.334 0-710-6.712-24.044-22.379-38.377-47-43.001-174.666-1.333-349.333-1.333-523.999 0-24.621 4.624-40.288 18.957-47.002 43.001-1.333 236.666-1.333 473.334 0 710 8.995 25.342 26.662 40.009 53 43.999z" />
<glyph unicode="&#xe90e;" d="M632.986 495c27.851-2.364 36.185-16.364 25-42-59-57.666-117.999-115.333-176.999-173-12.493-7.127-24.492-6.462-36 2.001-34.5 33.83-68.168 68.164-101.001 103-3.359 23.969 6.972 34.969 31 33 31.475-25.465 61.14-53.133 89-83 53 51.665 106 103.334 159 154.999 3.629 1.514 6.961 3.18 9.999 5z" />
<glyph unicode="&#xe90f;" glyph-name="loop" horiz-adv-x="1205" d="M611.864 960c-238.122 0-431.158-193.036-431.158-431.158s193.036-431.159 431.158-431.159c99.635 0 191.38 33.792 264.391 90.552l182.549-182.555c21.052-21.046 55.176-21.046 76.222 0s21.046 55.17 0 76.222l-182.555 182.549c56.754 73.011 90.546 164.756 90.546 264.391 0 238.122-193.030 431.158-431.152 431.158zM288.496 528.842c0 178.591 144.777 323.368 323.368 323.368s323.367-144.777 323.367-323.368c0-178.586-144.776-323.368-323.367-323.368s-323.368 144.782-323.368 323.368z" />
<glyph unicode="&#xe911;" d="M322.999 841.001c-19.84-2.978-39.841-6.644-60.001-11-28.319-7.163-54.319-19.163-77.999-36-10.35-8.373-18.015-18.706-23-31-2.31-57.88-3.31-115.88-3.001-174-0.309-58.121 0.691-116.12 3.001-174 2.826-6.322 6.16-12.322 10-18 19.971-20.164 43.638-34.497 71-42.999 54.242-16.073 109.577-21.404 166-16 39.936 2.816 77.935 12.816 114 29.999 3.334 3.647 5.333 7.98 6 13.001-1.212 10.212-6.878 16.212-17 18-27.867-12.215-56.866-20.55-87-25-66.563-9.93-131.228-2.598-194.001 22-15.357 6.687-27.691 17.023-36.999 31-3.193 35.244-3.86 70.578-2 106 10.183-7.596 21.184-13.929 33-18.999 92.417-32.461 185.084-33.126 277.999-2.001 2.402 1.806 4.070 4.139 5.001 7 4.217 14.069-0.784 22.069-15 24-31.97-9.823-64.637-16.158-98-18.999-61.686-5.261-120.354 5.406-176 32-14.184 6.842-23.184 17.842-26.999 33-1.667 32.020-1.333 64.020 1 96 8.408-5.4 17.074-10.399 26-15 66.516-25.384 135.184-33.384 206-24 41.829 4.055 80.498 17.054 115.999 39 1.664-22.638 2.664-45.303 3.001-67.999 3.058-6.033 8.057-8.698 14.999-8 6.943-0.698 11.942 1.967 15 8 1.334 46.666 1.334 93.333 0 139.999-2.945 8.558-6.946 16.558-11.999 24-28.055 26.197-61.055 43.197-99.001 51-46.285 8.206-92.954 11.205-139.999 9zM364.999 809.001c47.767-0.014 93.766-9.014 138-27.001 13.653-6.337 25.318-15.337 35.001-26.999 5.784-16.151 1.452-29.15-13.001-39-31.775-19.927-66.442-31.926-104-36.001-63.067-8.548-124.4-1.882-184 20.001-18.138 7.204-32.469 18.871-42.999 34.999-1.334 5.335-1.334 10.667 0 16 9.308 13.978 21.642 24.311 36.999 31 43.184 17.631 87.851 26.631 134 27.001z" />
<glyph unicode="&#xe912;" d="M551 577c-3.288-1.633-5.621-4.301-7-8-0.334-18.999-0.666-38-1-57-6.676-44.968 3.658-85.302 31-121 27.497-27.823 53.831-56.488 79-86-4.548-6.901-9.549-13.567-15-20.001-22.666-24-45.335-48-68.001-72-24.368-34.793-33.368-73.459-26.999-115.999-0.286-20.19 0.714-40.191 2.999-60.001 1.5-1.252 3.169-2.251 5.001-2.999 56-0.334 112-0.666 168-1 57.502-0.319 114.836 0.681 171.999 2.999 1.253 1.5 2.253 3.169 3.001 5.001 1.334 38 1.334 75.999 0 114-4.645 23.95-14.645 45.284-30 64-27.499 27.823-53.833 56.488-79 86 25.168 29.513 51.502 58.177 79 86 15.356 18.715 25.355 40.050 30 64 1.95 39.512 1.283 78.845-2.001 117.999-1.499 1.253-3.167 2.253-4.999 3.001-111.999 1-223.999 1.334-336 1zM575 545c96 0 192 0 288 0 0.334-22.010 0-44.011-1-66-0.954-21.908-7.623-41.909-20.001-60.001-29.4-30.064-58.066-60.73-86-91.999-6.666-14.666-6.666-29.335 0-44.001 26.001-27.334 52.001-54.666 78-82 9.421-11.159 17.087-23.492 23-37.001-78.34-0.616-156.672-1.616-234.999-2.999-13.666 0.666-27.335 1.334-41 2 5.655 13.999 13.323 26.664 22.999 38 26.001 27.334 52.001 54.666 78 82 8.26 18.691 6.261 36.025-6 52.001-26 27.334-51.999 54.666-77.999 82-13.672 18.344-21.006 39.012-22 62-1 21.989-1.334 43.989-1 66zM823 129c13.333 0 26.665 0 40 0 0-21.335 0-42.667 0-64-96 0-192 0-288 0 0 20.666 0 41.334 0 62 83.005-0.664 165.673 0.001 248 2z" />
<glyph unicode="&#xe913;" glyph-name="next" horiz-adv-x="439" d="M438.857 446.155c0-8.605-2.98-16.287-8.94-23.049l-349.46-400.134c-6.502-9.22-14.629-13.83-24.381-13.83-7.585 0-14.358 3.381-20.317 10.142l-29.257 34.112c-4.334 4.917-6.502 10.449-6.502 16.596 0 7.99 4.876 17.516 14.629 28.58l302.324 346.661-298.261 347.582c-9.752 11.064-14.629 20.591-14.629 28.581 0 6.146 2.98 12.6 8.94 19.361l32.508 36.879c5.418 6.146 10.565 9.22 15.441 9.22 3.251 0 6.772-1.844 10.565-5.532 4.334-3.688 8.669-7.991 13.003-12.908l341.333-392.758c8.669-9.835 13.003-19.67 13.003-29.504z" />
<glyph unicode="&#xe915;" glyph-name="place" d="M858.797 715.837c-1.504-3.091-2.804-6.278-3.891-9.54l-168.834-506.5-67.040 223.464c-7.608 25.362-27.451 45.205-52.812 52.813l-223.465 67.040 506.503 168.833c3.261 1.087 6.451 2.387 9.539 3.89zM571.256 34.272c0.138-0.977 0.292-1.993 0.466-3.033 1.408-8.444 4.371-20.913 11.083-34.336 6.866-13.737 18.4-29.861 37.178-42.378 19.271-12.847 41.426-18.716 63.983-18.716s44.713 5.868 63.983 18.716c18.778 12.516 30.314 28.64 37.179 42.378 6.716 13.422 9.678 25.891 11.088 34.336 0.087 0.52 0.165 1.024 0.244 1.528l206.494 619.485c-0.008-0.002 0 0.002 0 0 1.386 3.11 3.19 7.316 5.136 12.375 3.812 9.897 8.625 24.199 11.949 40.795 5.506 27.542 12.414 89.834-34.706 136.95-47.112 47.117-109.403 40.211-136.948 34.703-16.597-3.319-30.893-8.139-40.795-11.946-5.057-1.946-9.255-3.74-12.367-5.134 0 0.002 0-0.001 0 0l-619.5-206.497c-0.499-0.077-1.007-0.158-1.523-0.244-8.45-1.408-20.919-4.371-34.341-11.083-13.732-6.866-29.859-18.401-42.378-37.179-12.847-19.271-18.712-41.426-18.712-63.983s5.865-44.712 18.712-63.983c12.519-18.778 28.646-30.313 42.378-37.179 13.422-6.711 25.891-9.674 34.341-11.082 1.041-0.174 2.050-0.328 3.026-0.466l303.099-90.93 90.93-303.095z" />
<glyph unicode="&#xe916;" glyph-name="plitka" horiz-adv-x="973" d="M0 934.4h307.2v-307.2h-307.2v307.2zM0 268.8h307.2v-307.2h-307.2v307.2zM665.6 934.4h307.2v-307.2h-307.2v307.2zM665.6 268.8h307.2v-307.2h-307.2v307.2z" />
<glyph unicode="&#xe917;" horiz-adv-x="1044" d="M96.846 957.010c212.002 0.333 424.002 0 635.999-1 43.668-11.667 71.335-39.333 83.001-83 3.261-119.29 3.931-238.622 1.999-358.001-6.63-19.436-18.966-24.101-37-13.999-4.661 4.234-6.993 9.568-6.999 16-0.666 116-1.335 231.999-2.001 348-6.315 24.982-21.983 40.649-47 47-206.667 1.333-413.334 1.333-620 0-25-6.333-40.667-22-47-47-1.333-277.334-1.333-554.667 0-831.999 6.333-25.001 22-40.667 47-47.002 206.666-1.333 413.333-1.333 620 0 21.665 5.331 36.665 18.332 45.001 39.001 2.026 37.317 4.027 74.65 5.998 112 9.819 12.963 21.486 14.964 35.001 6 4.405-3.59 6.737-8.257 6.999-13.999 1.335-28.666 1.335-57.334 0-86-5.364-54.032-34.365-87.698-86.999-101-210.666-1.335-421.335-1.335-632 0-44.78 10.78-73.113 38.445-85 82.999-1.333 282.665-1.333 565.335 0 848 12.031 43.697 39.698 71.697 83 84z" />
<glyph unicode="&#xe918;" horiz-adv-x="1044" d="M470.845 831.010c68.003 0.333 136.003 0 204-1 15.673-6.367 20.007-17.367 12.999-33-3.086-3.757-6.752-6.757-11-9-68.665-1.333-137.334-1.333-205.999 0-13.828 7.353-17.497 18.352-11 33 3.46 3.804 7.127 7.137 11 10z" />
<glyph unicode="&#xe919;" horiz-adv-x="1044" d="M150.855 703.009c176.001 0.335 352.001 0 527.999-1 11.973-8.336 14.972-19.336 9.001-33-3.905-4.787-8.905-7.788-15.002-8.999-171.999-1.333-343.999-1.333-515.999 0-18.111 7.261-22.445 19.592-13 37 3.037 1.325 5.37 3.326 7 6z" />
<glyph unicode="&#xe91a;" horiz-adv-x="1044" d="M154.842 577.010c174.002 0.333 348.001 0 522.001-1 13.828-7.54 17.493-18.54 11-33-3.086-3.755-6.752-6.756-11-8.999-174.667-1.335-349.334-1.335-524.001 0-13.229 7.686-16.896 18.686-11 32.998 3.61 4.653 7.943 7.985 13 10.002z" />
<glyph unicode="&#xe91b;" horiz-adv-x="1044" d="M908.845 555.008c-133.209-132.21-266.208-264.875-399-397.999-7.442-38.751-13.775-77.751-18.999-117 2.33-12.997 9.996-20.663 23.001-23.001 39.233 5.222 78.234 11.555 117 18.999 131.665 131.667 263.333 263.335 395 395 1.824 4.319 3.489 8.651 5 13.001-1.51 4.35-3.176 8.682-5 12.999-31.667 31.667-63.334 63.334-95.002 95.002-7.052 2.672-14.383 3.673-22 2.999zM916.846 501.008c19.958-18.623 39.292-37.957 58-58-18.639-19.637-37.638-38.971-56.999-58-19.363 19.029-38.363 38.363-57.001 58 18.712 19.373 37.376 38.707 56.001 58zM826.847 411.008c20.827-17.818 40.826-36.819 60-56.999-92.666-92.666-185.334-185.334-278-278-22.575-3.844-45.241-6.845-68.001-8.999 2.343 22.737 5.343 45.403 9.001 68 93.347 91.014 185.679 183.014 277 276z" />
<glyph unicode="&#xe91c;" horiz-adv-x="1044" d="M150.833 449.010c176.002 0.333 352.002 0 528-1 11.973-8.336 14.972-19.336 8.999-33-3.903-4.787-8.903-7.788-15-8.999-171.333-1.335-342.666-1.335-514 0-15.558 3.417-21.891 13.084-19 28.999 1.934 6.242 5.6 10.908 11 14.001z" />
<glyph unicode="&#xe91d;" horiz-adv-x="1044" d="M300.859 216.999c27.357-0.035 35.69-12.702 24.999-38-42.333-42.333-84.665-84.665-127-127-9.605-7.662-19.605-8.328-30-1.999-15.667 15.665-31.333 31.332-47 47-8.819 19.375-2.819 31.376 18 36 6.353-0.782 12.020-3.113 17-7.001 8-7.999 16-16 24-23.999 1.333-1.335 2.667-1.335 4 0 38.456 38.792 77.123 77.123 116 114.999z" />
<glyph unicode="&#xe91e;" horiz-adv-x="1042" d="M248.126 919c-46.702-9.696-76.368-37.696-88.999-84-2.312-128.606-3.312-257.274-3-386-0.312-128.726 0.688-257.393 3-386 12.28-46.279 41.946-73.946 88.999-83.001 100.667-1.333 201.335-1.333 302.001 0 3.571 1.571 6.572 3.902 9 7.002 8.391 14.676 5.391 26.344-9 34.999-98 0.666-196.001 1.335-294.001 2-33.938 7.278-52.272 28.279-55 63-1.333 241.335-1.333 482.666 0 724 2.728 34.722 21.061 55.722 55 63 130.725 1.646 261.391 1.312 392-1-0.333-47.338 0-94.672 1-141.999 7.81-24.475 24.143-40.143 49-47.002 46.663-0.998 93.328-1.333 140.001-0.998 1.604-102.641 2.604-205.307 2.999-308.001 0.931-2.862 2.598-5.193 5.001-7 16.483-9.424 28.818-5.758 36.999 11.001 1.335 101.334 1.335 202.666 0 304-2.657 19.984-9.989 37.985-22 54-50.39 49.722-100.056 100.056-148.999 151-16.702 16.351-36.703 26.351-60.001 30-134.665 1-269.332 1.333-404.001 1zM692.127 843c37.542-38.543 75.542-76.876 114-115-32.666-1.335-65.335-1.335-98 0-5.392 1.381-9.726 4.379-12.999 9-2.946 35.145-3.946 70.478-3.001 106z" />
<glyph unicode="&#xe91f;" horiz-adv-x="1042" d="M298.132 727c84.003 0.335 168.002 0 252.001-1 14.391-8.656 17.392-20.325 9-35.001-2.428-3.098-5.429-5.429-9-7-84.001-1.333-168-1.333-252.001 0-18.558 14.329-18.558 28.661 0 43.001z" />
<glyph unicode="&#xe920;" horiz-adv-x="1042" d="M362.132 599c126.669 0.335 253.336 0 380.001-1 14.391-8.656 17.392-20.325 9-35.001-2.428-3.098-5.429-5.429-9-7-126.667-1.333-253.334-1.333-380.001 0-18.558 14.329-18.558 28.661 0 43.001z" />
<glyph unicode="&#xe921;" horiz-adv-x="1042" d="M300.14 492.999c146.668 0.335 293.334 0 440-1 19.672-12.072 21.005-26.072 3.999-41.999-149.334-1.335-298.666-1.335-448 0-16.898 16.236-15.563 30.57 4.001 42.999z" />
<glyph unicode="&#xe922;" horiz-adv-x="1042" d="M668.138 409c-70.822-3.577-125.822-34.911-164.999-94-41.039-79.294-35.039-154.626 17.999-226 65.384-67.683 142.051-84.35 230.001-50 31.642-30.309 63.309-60.641 95-91.001 23.307-11.995 46.641-11.995 70 0 33.168 27.864 38.168 60.197 15 97-29.361 29.029-58.361 58.363-87 88 15.395 33.031 21.060 67.697 17 104-20.167 106.915-84.502 164.25-193 172.001zM656.139 363.001c76.44 0.629 128.108-34.703 154.999-106 17.448-80.764-10.22-140.431-82.999-179.001-76.688-25.988-138.355-6.321-185 59.001-37.051 71.528-26.717 135.194 31 191 24.188 19.438 51.52 31.104 82 35.001zM818.138 92.999c26.597-25.595 52.93-51.595 79-78 6.663-24.366-2.337-34.033-26.999-28.999-26 25.999-52.001 51.999-78 78 9.867 8.852 18.533 18.52 25.999 28.999z" />
<glyph unicode="&#xe923;" horiz-adv-x="1042" d="M296.143 385c49.339 0.333 98.673 0 148.001-1 4.999-2.335 8.666-6 11.001-11.001 5.136-15.497 0.137-25.832-15.002-31-46.665-1.333-93.334-1.333-139.999 0-14.599 6.875-18.935 17.876-12.999 33 3.414 3.074 6.413 6.407 8.998 10z" />
<glyph unicode="&#xe924;" horiz-adv-x="1042" d="M298.132 279c34.006 0.335 68.006 0 102.001-1 12.206-6.080 16.538-15.748 12.999-28.999-3.001-5.667-7.334-10-12.999-13.001-34-1.333-68.001-1.333-102.001 0-18.558 14.329-18.558 28.661 0 43.001z" />
<glyph unicode="&#xe925;" horiz-adv-x="1042" d="M578.13 237.001c10.006 0.83 18.339-2.503 24.998-10 0.41-26.478 10.741-48.144 31.002-65 13.667-7.536 28.334-11.536 43.999-11.999 16.828-11.663 18.161-24.995 4.001-40-53.149-5.584-90.816 16.082-113 65-7.053 17.009-8.386 34.344-4.001 51.999 3.93 4.1 8.265 7.435 13.001 10z" />
<glyph unicode="&#xe926;" horiz-adv-x="1042" d="M300.14 172.999c40.005 0.335 80.005 0 120-1 19.672-12.072 21.005-26.072 3.999-41.999-42.666-1.335-85.334-1.335-128 0-16.898 16.236-15.563 30.57 4.001 42.999z" />
<glyph unicode="&#xe927;" glyph-name="sdelka" horiz-adv-x="1285" d="M1285.020 763.581c-4.851-11.392-13.505-16.368-25.831-15.844-10.097 0.392-20.062 0.392-30.158 0-15.735-0.655-30.421 3.012-44.058 10.475-38.42 21.082-76.971 42.165-115.128 63.64-52.581 29.594-105.948 57.092-163.119 77.127-54.023 19.118-108.964 22.916-164.954 9.952-46.943-10.868-83.92-37.582-115.782-72.413-21.112-23.178-38.157-49.367-54.156-76.211-30.814-51.462-61.366-103.056-91.787-154.778-3.146-5.369-5.508-11.393-8.26-17.025-1.837-3.666-1.181-6.678 2.098-9.166 17.045-12.702 35.402-22.391 57.039-24.488 9.834-0.916 18.882 1.703 26.355 7.726 9.967 8.12 19.408 16.892 28.455 25.927 51.007 51.463 101.751 103.187 152.759 154.779 4.459 4.453 9.441 8.381 14.294 12.441 17.047 14.404 36.059 15.19 55.858 6.809 17.834-7.594 32.782-19.904 47.467-32.345 31.862-26.712 59.924-57.354 87.984-87.996 61.892-67.174 122.996-135.266 185.28-202.31 18.619-20.036 27.012-42.428 26.881-69.14-0.263-58.533 0.655-116.935-0.133-175.469-0.524-43.343-23.733-74.246-62.020-85.639-17.964-5.369-35.798-4.714-53.238 2.357-4.457 1.833-8.917 3.666-14.029 5.763-4.329-30.118-20.062-51.987-46.419-65.998-26.881-14.272-53.76-12.308-81.165 1.179-1.444-4.845-2.622-8.905-4.066-12.963-10.621-30.772-30.682-52.248-62.94-59.844-23.339-5.499-45.763-0.785-65.823 12.178-5.64 3.668-10.491 9.298-14.031 14.928-4.327 7.072-2.885 14.928 2.098 21.476 4.981 6.678 12.457 8.118 20.062 6.154 4.72-1.179 9.441-3.405 13.768-5.893 24.783-14.535 50.090-8.248 64.775 16.237 1.181 2.096 1.311 4.977 1.311 7.465 0.787 82.103 1.574 164.075 2.359 246.178 0.133 13.226 15.735 23.44 28.325 18.725 8.784-3.273 11.8-7.463 11.931-16.759 0.787-53.951 1.574-107.769 2.492-161.72 0.133-7.857 0.133-15.844 1.837-23.44 6.162-25.797 39.205-40.986 65.299-22.916 13.244 9.166 17.701 22.785 17.964 38.105 0.524 30.511 1.311 61.153 1.442 91.664 0 37.057-0.787 74.116-1.048 111.303-0.131 11.001-3.933 20.428-11.539 28.417-22.815 24.094-45.632 48.188-68.708 72.019-25.7 26.451-51.794 52.642-77.627 78.96-2.622 2.62-4.851 5.632-7.343 8.381-8.523 8.774-7.473 16.631 1.835 26.845 7.475 8.248 17.31 8.381 26.226 0.655 7.867-6.941 15.603-14.143 22.946-21.476 42.223-42.426 84.313-84.984 126.273-127.542 5.638-5.761 11.015-11.915 15.866-18.332 9.704-12.965 15.603-26.712 15.472-43.867-0.131-48.712 1.181-97.292 2.229-146.004 0.526-26.058 16.129-42.819 39.601-43.213 23.472-0.524 42.090 17.81 42.877 43.737 1.048 33.39 1.181 66.783 1.311 100.173 0 26.188-1.048 52.379-0.787 78.567 0.133 14.537-4.457 26.19-14.292 37.059-45.763 50.152-90.608 101.221-136.371 151.373-30.945 34.047-62.546 67.7-94.409 100.96-20.98 21.998-43.795 42.034-69.365 58.794-12.457 8.12-14.818 8.381-25.57-1.964-32.256-31.296-64.381-62.854-95.983-94.804-23.863-23.964-46.941-48.712-70.544-72.937-6.032-6.287-12.457-12.31-19.145-17.94-23.078-19.38-49.696-23.179-78.151-15.976-17.832 4.453-35.009 11.131-50.22 21.737-7.080 4.977-13.898 10.607-19.799 17.025-14.555 15.583-16.653 33.914-7.473 52.64 7.736 15.844 16.521 31.296 25.568 46.355 34.093 56.308 67.793 112.876 102.934 168.659 25.7 40.724 59.004 74.639 100.571 99.65 33.7 20.297 70.939 30.772 109.883 35.617 6.425 0.786 12.981 1.702 19.406 2.619 12.72 0 25.307 0 38.027 0 12.85-1.964 25.831-3.405 38.681-6.024 52.318-10.738 101.623-30.118 148.564-54.867 53.236-28.022 105.817-57.354 157.875-87.341 25.437-14.666 51.401-24.749 81.165-21.606 15.079 1.572 24.52-5.369 30.027-18.725 0-2.619 0-5.238 0-7.857zM0.001 260.747c0.656 1.309 1.311 2.751 2.098 3.929 4.458 7.202 9.572 12.047 19.537 11.917 46.156-0.657 92.18-0.263 138.336-0.394 4.72 0 7.999 1.309 11.408 4.584 49.697 49.104 99.523 98.077 149.219 147.313 15.866 15.713 35.011 23.964 56.778 24.879 35.009 1.311 60.316-15.45 78.019-44.783 3.016-4.975 5.244-10.475 8.26-16.498 2.229 1.833 4.196 3.403 6.032 5.236 15.735 15.059 31.471 30.25 47.204 45.439 14.031 13.487 30.027 22.916 49.829 25.534 33.698 4.453 68.971-13.487 84.968-43.604 2.885-5.499 5.508-11.262 8.654-17.679 1.837 1.703 3.409 3.012 4.983 4.453 12.981 12.308 25.57 25.010 39.075 36.796 25.963 22.522 62.153 26.843 91.787 11.917 31.732-15.976 50.746-48.058 48.124-82.627-1.311-18.071-7.606-34.441-19.932-48.058-12.194-13.489-24.783-26.451-36.976-39.807-3.279-3.536-6.295-7.465-8.917-10.607 10.228-6.285 20.193-11.262 28.716-17.94 27.929-21.606 36.585-56.83 27.275-90.222-2.361-8.642-7.999-17.153-14.161-23.962-22.948-25.142-46.156-50.021-70.283-74.116-36.978-37.189-74.479-73.724-112.112-110.126-11.409-10.999-23.996-21.213-40.386-24.488-2.885-0.524-5.901-1.309-8.786-1.964-6.949 0-14.031 0-20.98 0-0.918 0.394-1.966 0.916-2.885 1.179-33.304 6.417-56.515 24.879-68.578 56.83-1.179 3.012-2.359 5.893-3.54 8.905-5.638-1.309-10.489-2.488-15.342-3.536-43.008-9.951-82.609 9.69-99.916 49.63-2.098 4.712-3.279 11.915-6.819 13.356-4.196 1.703-10.358-1.442-15.735-2.751-40.779-9.951-79.593 8.774-96.637 46.879-2.098 4.584-3.672 9.296-5.508 14.011-1.311 3.405-2.885 5.108-6.819 3.142-12.85-6.154-26.618-7.202-40.386-5.499-32.389 3.799-56.778 19.38-69.103 50.545-8.392 20.952-7.868 42.558-2.229 64.95-2.491 0-4.852 0-7.212 0-34.486 0.394-69.103 1.44-103.588 0.918-11.801-0.133-17.44 5.367-22.029 14.404-0.524 0.916-1.049 1.833-1.573 2.618 0.131 3.142 0.131 6.285 0.131 9.296zM800.385 378.336c0.394 21.869-8.26 37.059-23.339 43.606-15.998 6.939-31.077 5.63-44.058-7.072-3.148-3.012-6.688-5.63-9.704-8.772-57.563-56.701-115.258-113.138-172.428-170.231-42.747-42.689-84.707-86.293-127.060-129.506-2.885-2.881-5.638-6.285-7.082-9.953-6.686-16.629 0.133-39.020 14.424-49.367 15.605-11.129 35.141-10.081 50.353 2.881 1.442 1.309 3.016 2.488 4.327 3.929 101.621 101.221 203.111 202.573 304.865 303.664 7.343 7.072 9.702 15.452 9.702 20.819zM293.719 144.205c0.133-28.415 19.538-46.486 45.632-44.522 11.276 0.785 18.882 7.594 26.224 14.665 31.732 30.642 63.596 61.153 94.672 92.317 50.22 50.415 100.049 101.223 149.745 152.16 4.196 4.321 7.473 10.475 8.654 16.237 4.327 21.476-8.654 41.641-29.766 49.106-11.146 3.927-20.98 2.749-30.027-4.714-6.293-5.108-12.85-9.822-18.619-15.452-78.936-78.567-157.612-157.266-236.681-235.703-7.212-7.333-10.228-15.713-9.834-24.094zM534.727 18.496c0.918-16.368 10.228-29.2 26.224-36.535 14.948-6.809 29.503-5.106 41.829 6.548 26.618 25.142 53.76 50.021 79.593 75.949 34.878 34.832 68.839 70.712 103.063 106.199 2.622 2.749 4.983 6.154 6.425 9.69 9.834 23.701-4.064 50.282-29.503 56.699-11.67 3.012-22.291 1.703-31.599-7.072-23.472-22.522-47.73-44.128-70.809-67.044-38.812-38.629-76.969-77.912-115.389-116.935-7.082-7.202-9.571-15.976-9.834-27.499zM171.512 200.774c0.262-1.572 0.394-4.584 1.049-7.596 6.687-29.855 44.057-45.57 68.709-22.13 21.504 20.428 43.271 40.595 64.251 61.677 36.189 36.402 71.857 73.198 107.522 110.126 3.67 3.797 6.295 9.557 7.606 14.796 4.72 19.773-2.492 37.713-18.227 47.14-16.653 9.953-34.224 7.857-50.483-6.154-2.492-2.094-4.981-4.19-7.343-6.548-54.023-53.949-108.177-108.030-162.201-161.981-7.736-7.724-10.883-17.153-10.883-29.331zM0 772.749c0.656 1.048 1.311 2.095 1.967 3.143 4.458 8.643 9.834 13.619 21.111 13.619 56.121-0.262 112.374 0.524 168.495 1.178 4.59 0 9.834 1.833 13.767 4.321 32.652 20.689 64.251 43.081 97.557 62.461 71.070 41.117 148.434 59.581 230.649 59.45 16.914 0 29.634-16.63 19.143-32.868-3.803-5.762-9.047-7.202-14.948-7.857-14.161-1.44-28.19-2.75-42.351-3.797-66.743-4.583-128.241-25.011-184.886-60.104-25.176-15.583-50.090-31.82-74.742-48.45-14.685-9.952-30.027-15.975-48.122-15.845-57.301 0.263-114.472-0.261-171.773-0.261-7.081 0-9.31 6.415-12.981 10.605-1.311 1.441-1.836 3.405-2.754 5.108-0.131 3.143-0.131 6.285-0.131 9.297zM1285.022 252.892c-1.311-2.618-2.622-5.499-4.066-7.987-3.409-5.499-7.997-9.166-14.685-9.429-16.129-0.655-32.256-2.094-48.254-1.703-4.327 0.133-9.308 5.632-12.718 9.69-8.393 9.69-7.212 20.821 2.883 28.417 3.542 2.618 8.786 3.927 13.376 4.19 13.898 0.522 27.929 0 41.827 0.261 11.278 0.131 17.31-6.417 21.767-15.583-0.131-2.618-0.131-5.238-0.131-7.857z" />
<glyph unicode="&#xe928;" glyph-name="spisok" horiz-adv-x="1252" d="M0 931.556h1251.556v-56.889h-1251.556v56.889zM0 476.444h1251.556v-56.889h-1251.556v56.889zM0 21.333h1251.556v-56.889h-1251.556v56.889z" />
<glyph unicode="&#xe929;" glyph-name="star" horiz-adv-x="1088" d="M367.244 630.644c0 0-203.116-22.497-338.611-37.537-12.213-1.478-23.011-9.642-27.061-22.047s0-25.325 8.999-33.488c100.658-91.852 251.901-229.405 251.901-229.405-0.128 0-41.523-200.096-69.033-333.594-2.314-12.090 2.057-24.877 12.598-32.525 10.477-7.654 23.975-7.782 34.58-1.805 118.527 67.366 296.060 168.666 296.060 168.666s177.594-101.299 295.93-168.73c10.797-5.914 24.294-5.786 34.778 1.869 10.541 7.648 14.912 20.435 12.531 32.454-27.514 133.568-68.838 333.664-68.838 333.664s151.238 137.553 251.898 229.212c8.998 8.42 12.986 21.34 8.998 33.681-3.981 12.341-14.784 20.504-26.995 21.919-135.494 15.169-338.675 37.666-338.675 37.666s-84.202 186.275-140.316 310.458c-5.27 11.12-16.326 18.897-29.31 18.897s-24.104-7.842-29.117-18.897c-56.179-124.183-140.317-310.458-140.317-310.458z" />
<glyph unicode="&#xe92a;" glyph-name="suda" horiz-adv-x="1138" d="M441.308 749.698l271.527-271.529c16.663-16.662 16.663-43.678 0-60.34l-271.527-271.528c-16.662-16.663-43.678-16.663-60.34 0s-16.662 43.674 0 60.336l198.69 198.695h-579.658v85.333h579.658l-198.69 198.692c-16.662 16.662-16.662 43.678 0 60.34s43.678 16.662 60.34 0zM1052.444 917.333c23.563 0 42.667-19.103 42.667-42.667v-853.333c0-23.563-19.103-42.667-42.667-42.667s-42.667 19.103-42.667 42.667v853.333c0 23.564 19.103 42.667 42.667 42.667z" />
<glyph unicode="&#xe92b;" glyph-name="tg" horiz-adv-x="1186" d="M1015.021 17.699c-1.566-16.872-8.13-32.897-18.852-45.996-10.712-13.096-25.093-22.682-41.294-27.494-16.193-4.821-33.455-4.659-49.562 0.453-16.109 5.112-30.321 14.95-40.806 28.246-92.16 73.464-235.895 179.343-235.895 179.343s-104.009-183.84-122.611-202.674c-6.144-5.179-13.299-9.019-21.005-11.272-7.704-2.245-15.794-2.859-23.749-1.8-7.955 1.067-15.608 3.781-22.461 7.971-6.85 4.188-12.757 9.768-17.341 16.384-0.949 2.891-2.070 5.734-3.374 8.488l58.338 292.845 416.011 410.007-567.366-324.832c0 0-256.198 76.862-294.247 91.877-9.815 5.381-17.91 13.439-23.347 23.245s-7.989 20.957-7.37 32.159c0.619 11.205 4.383 22.003 10.869 31.146s15.425 16.252 25.773 20.51c54.115 27.656 1008.728 393.467 1040.86 402.884 32.124 9.417 116.679 33.934 107.38-48.61s-160.652-837.491-169.952-882.879z" />
<glyph unicode="&#xe92d;" glyph-name="tube" horiz-adv-x="1186" d="M869.392-64h-553.095c-87.273 3.622-169.545 41.596-228.788 105.591-59.242 63.984-90.623 148.776-87.265 235.795v341.307c-3.316 86.997 28.082 171.762 87.318 235.731s141.483 101.93 228.735 105.577h553.095c87.266-3.646 169.521-41.619 228.767-105.606 59.236-63.987 90.624-148.769 87.283-235.779v-341.306c3.341-87.002-28.058-171.773-87.293-235.752s-141.501-101.937-228.756-105.558zM1027.417 624.837c2.42 44.305-12.832 87.764-42.447 120.895-29.599 33.13-71.157 53.241-115.577 55.942h-553.095c-44.425-2.701-85.976-22.812-115.583-55.942s-44.863-76.59-42.444-120.895v-353.595c-2.419-44.307 12.838-87.768 42.444-120.897s71.158-53.237 115.583-55.937h553.095c44.42 2.7 85.978 22.808 115.577 55.937 29.615 33.129 44.867 76.59 42.447 120.897v353.595zM474.323 645.947l316.054-197.87-316.054-197.865v395.736z" />
<glyph unicode="&#xe92e;" glyph-name="tuda" horiz-adv-x="1138" d="M42.667 917.333c23.564 0 42.667-19.103 42.667-42.667v-853.333c0-23.563-19.103-42.667-42.667-42.667s-42.667 19.103-42.667 42.667v853.333c0 23.564 19.102 42.667 42.667 42.667zM811.088 749.698l271.525-271.529c16.663-16.662 16.663-43.678 0-60.34l-271.525-271.528c-16.663-16.663-43.679-16.663-60.342 0s-16.663 43.674 0 60.336l198.69 198.695h-579.658v85.333h579.658l-198.69 198.692c-16.663 16.662-16.663 43.678 0 60.34s43.679 16.662 60.342 0z" />
<glyph unicode="&#xe92f;" glyph-name="vk" horiz-adv-x="1626" d="M970.526 871.962v-367.368c-0.389-6.066 0.614-12.149 2.924-17.727 2.31-5.581 5.861-10.502 10.357-14.36 4.497-3.861 9.812-6.551 15.499-7.837 5.689-1.286 11.583-1.132 17.203 0.44 32.389 2.256 105.586 315.83 138.080 383.507 17.263 38.557 44.966 70.982 79.67 93.278 10.963 10.304 24.916 16.464 39.62 17.486h310.697c8.394-1.475 16.276-5.158 22.923-10.699 6.656-5.541 11.839-12.755 15.071-20.97 3.241-8.215 4.433-17.157 3.445-25.982-0.976-8.825-4.096-17.248-9.053-24.468-24.287-56.397-232.644-407.187-243.441-421.396-12.99-18.342-21.751-39.572-25.588-62.036 4.271-26.51 16.002-51.095 33.687-70.614 21.597-25.606 196.051-226.265 212.347-243.070 15.351-18.492 25.609-40.987 29.696-65.087-3.891-20.522-14.809-38.864-30.705-51.592-15.896-12.725-35.683-18.962-55.663-17.55-67.581 0-233.839 0-252.835 0-37.981 13.887-72.915 35.554-102.773 63.732-24.287 22.558-114.327 129.937-127.822 144.035-4.569 5.74-10.403 10.231-17.007 13.080-6.602 2.852-13.773 3.976-20.887 3.28-16.194 0-46.959-1.699-45.556-65.879 3.831-44.574-5.108-89.329-25.693-128.581-10.541-10.559-23.031-18.76-36.713-24.094s-28.262-7.692-42.848-6.927c-110.426-6.993-220.244 21.63-314.585 82.001-169.924 110.315-363.383 404.826-453.418 592.628-53.705 93.297-86.888 197.895-97.157 306.235 5.398 19.852 5.393 33.844 24.393 33.844s257.912 0 280.69 0c15.776-8.212 28.94-21.026 37.894-36.887 8.099-11.279 69.843-204.382 88.736-238.333s112.059-219.953 162.581-219.953c16.776 3.442 31.569 13.67 41.156 28.461s13.186 32.946 10.014 50.498c0 45.119 0 223.22 0 245.892-20.534 50.014-58.178 90.231-105.577 112.795 11.803 16.382 26.862 29.899 44.134 39.634s36.355 15.456 55.941 16.764c64.774 2.82 227.25 2.814 262.334-2.712 18.727-3.811 35.665-14.136 48.056-29.294s19.501-34.253 20.176-54.174z" />
<glyph unicode="&#xe930;" glyph-name="zen" d="M545.327 960c18.415-2.607 36.911-4.733 55.224-7.883 212.45-36.664 381.935-208.013 415.694-420.559 3.489-21.944 4.995-44.184 7.463-66.65-22.266 0-42.543-0.562-62.786 0.097-59.097 1.946-118.13 4.738-176.443 15.667-51.734 9.686-100.799 25.935-142.723 59.19-48.066 38.108-75.346 89.033-90.509 147.419-14.363 55.279-19.039 111.84-21.646 168.562-1.603 34.679-1.603 69.438-2.308 104.157 5.999 0 12.018 0 18.035 0zM-0.177 432.5c88.563-0.38 177.046-1.983 264.004-21.804 116.646-26.577 186.091-99.545 211.389-215.714 15.927-73.189 18.554-147.601 20.18-222.091 0.26-11.594 0.040-23.19 0.040-36.886-23.612 2.687-46.602 3.909-69.068 8.082-165.791 30.787-288.937 120.904-369.075 268.965-32.456 59.974-50.169 124.758-55.665 192.812-0.241 2.887-1.184 5.717-1.805 8.584 0 6.017 0 12.036 0 18.052zM495.294 960c-0.839-39.051-0.802-78.143-2.77-117.134-2.767-55.378-8.182-110.515-23.287-164.229-20.5-72.806-61.183-129.871-129.384-165.211-38.675-20.058-80.499-30.166-123.206-36.484-69.887-10.33-140.336-12.153-210.846-12.895-1.986-0.022-3.972 0.36-5.978 0.559 0 6.019 0 12.036 0 18.052 0.562 1.846 1.504 3.669 1.645 5.555 5.536 73.691 25.536 143.27 62.224 207.372 80.319 140.381 200.095 226.326 359.307 256.572 17.932 3.41 36.17 5.275 54.242 7.842 6.017 0 12.036 0 18.052 0zM527.924-63.386c0 19.496-0.477 37.466 0.082 55.398 1.906 60.753 4.493 121.486 15.525 181.475 8.584 46.634 22.328 91.403 49.549 130.972 38.472 55.925 93.057 87.552 157.586 104.181 55.303 14.259 111.871 18.914 168.623 21.619 34.022 1.626 68.084 2.128 103.889 3.192-4.573-115.47-41.262-217.985-113.779-306.416-98.172-119.723-226.009-181.755-381.475-190.422z" />
<glyph unicode="&#xe931;" glyph-name="uniE931" d="M845.026 780.824c-1.63-3.348-3.038-6.801-4.215-10.335l-182.899-548.709-72.626 242.086c-8.242 27.476-29.739 48.972-57.213 57.214l-242.087 72.626 548.708 182.903c3.533 1.178 6.989 2.586 10.334 4.214zM533.527 42.462c0.149-1.058 0.317-2.159 0.505-3.285 1.526-9.148 4.735-22.656 12.006-37.197 7.438-14.882 19.934-32.35 40.276-45.909 20.877-13.918 44.878-20.275 69.315-20.275s48.439 6.357 69.315 20.275c20.343 13.559 32.84 31.027 40.277 45.909 7.271 14.541 10.48 28.049 12.007 37.197 0.094 0.563 0.179 1.109 0.265 1.655l223.706 671.108c-0.009-0.003 0 0.003 0 0 1.502 3.369 3.456 7.926 5.564 13.407 4.13 10.722 9.344 26.216 12.945 44.194 5.965 29.838 13.449 97.32-37.598 148.362-51.038 51.043-118.519 43.562-148.365 37.595-17.98-3.596-33.468-8.818-44.194-12.942-5.478-2.108-10.027-4.052-13.397-5.562 0 0.001 0-0.001 0 0l-671.12-223.706c-0.541-0.084-1.091-0.172-1.649-0.265-9.154-1.526-22.662-4.735-37.203-12.006-14.876-7.438-32.347-19.935-45.909-40.277-13.918-20.877-20.272-44.878-20.272-69.315s6.354-48.438 20.272-69.315c13.562-20.343 31.033-32.839 45.909-40.277 14.541-7.27 28.049-10.481 37.203-12.006 1.127-0.189 2.221-0.356 3.279-0.505l328.358-98.508 98.507-328.353z" />
</font>
</defs>
</svg>
