<svg width="444" height="176" fill="none" xmlns="http://www.w3.org/2000/svg"><path d="M382.254 172v-32.64h-75.36v-29.52L385.134 4h40.32v99.84h18.24v35.52h-18.24V172h-43.2zm-36.72-68.16h36.72V51.76l-36.72 52.08zM224 175.12c-9.44 0-18.24-1.52-26.4-4.56-8.16-3.2-15.28-8.24-21.36-15.12-6.08-6.88-10.88-15.84-14.4-26.88-3.36-11.2-5.04-24.72-5.04-40.56v-4.8c0-14.72 1.68-27.28 5.04-37.68 3.52-10.4 8.32-18.88 14.4-25.44 6.08-6.56 13.2-11.36 21.36-14.4 8.16-3.2 16.96-4.8 26.4-4.8 9.44 0 18.24 1.6 26.4 4.8 8.16 3.04 15.28 7.84 21.36 14.4 6.08 6.56 10.8 15.04 14.16 25.44 3.52 10.4 5.28 22.96 5.28 37.68V88c0 15.84-1.76 29.36-5.28 40.56-3.36 11.04-8.08 20-14.16 26.88-6.08 6.88-13.2 11.92-21.36 15.12-8.16 3.04-16.96 4.56-26.4 4.56zm0-35.52c3.2 0 6.24-.8 9.12-2.4 2.88-1.6 5.36-4.32 7.44-8.16 2.24-4 4-9.28 5.28-15.84 1.28-6.72 1.92-15.12 1.92-25.2v-4.8c0-11.84-1.04-21.12-3.12-27.84-2.08-6.88-4.96-11.76-8.64-14.64-3.68-2.88-7.68-4.32-12-4.32s-8.32 1.44-12 4.32c-3.52 2.88-6.4 7.76-8.64 14.64-2.24 6.72-3.36 16-3.36 27.84V88c0 10.08.64 18.48 1.92 25.2 1.28 6.56 3.04 11.84 5.28 15.84 2.4 3.84 4.96 6.56 7.68 8.16 2.88 1.6 5.92 2.4 9.12 2.4zM76.16 172v-32.64H.8v-29.52L79.04 4h40.32v99.84h18.24v35.52h-18.24V172h-43.2zm-36.72-68.16h36.72V51.76l-36.72 52.08z" fill="#0A7AE0"/></svg>