<svg width="72" height="72" fill="none" xmlns="http://www.w3.org/2000/svg"><path opacity=".946" fill-rule="evenodd" clip-rule="evenodd" d="M22.71 8.367c3.309-.155 6.59.056 9.845.633 2.668.549 4.988 1.744 6.96 3.586a7.11 7.11 0 01.844 1.687c.094 3.282.094 6.563 0 9.844-.215.424-.566.612-1.054.563-.489.049-.84-.139-1.055-.563a81.77 81.77 0 00-.211-4.781 18.749 18.749 0 01-8.156 2.742c-4.98.66-9.808.097-14.485-1.687a22.217 22.217 0 01-1.828-1.055 54.066 54.066 0 00-.07 6.75c.268 1.066.901 1.84 1.898 2.32 3.913 1.87 8.038 2.62 12.375 2.25a32.9 32.9 0 006.891-1.336c1 .136 1.351.699 1.055 1.688a.982.982 0 01-.352.492c-6.533 2.188-13.049 2.142-19.547-.14a11.354 11.354 0 01-2.32-1.337 52.38 52.38 0 00.14 7.454 5.89 5.89 0 002.602 2.18c4.414 1.729 8.96 2.244 13.64 1.546A23.847 23.847 0 0036 39.445c.712.126 1.11.548 1.195 1.266a1.643 1.643 0 01-.422.914 22.084 22.084 0 01-8.015 2.11 30.48 30.48 0 01-11.672-1.126 11.88 11.88 0 01-4.992-3.023 8.26 8.26 0 01-.703-1.266 270.74 270.74 0 01-.211-12.234 270.74 270.74 0 01.21-12.234 5.346 5.346 0 011.618-2.18 16.265 16.265 0 015.484-2.531 67.234 67.234 0 014.219-.774zm2.954 2.25c3.359.001 6.593.634 9.703 1.899a6.983 6.983 0 012.461 1.898c.407 1.136.102 2.05-.914 2.742a17.048 17.048 0 01-7.313 2.532c-4.434.6-8.746.132-12.937-1.407a6.3 6.3 0 01-3.023-2.46 2.284 2.284 0 010-1.126 5.89 5.89 0 012.601-2.18 25.245 25.245 0 019.422-1.898z" fill="#0A7AE0"/><path opacity=".958" fill-rule="evenodd" clip-rule="evenodd" d="M38.742 26.93c7.875-.024 15.75 0 23.625.07.129.053.246.123.352.211.23 2.753.277 5.519.14 8.297a9.98 9.98 0 01-2.109 4.5 111.805 111.805 0 00-5.555 6.047c1.77 2.075 3.621 4.09 5.555 6.047a9.98 9.98 0 012.11 4.5 115.16 115.16 0 010 8.015 1.329 1.329 0 01-.212.352c-4.019.163-8.05.233-12.093.21l-11.813-.07a1.331 1.331 0 01-.351-.21 32.73 32.73 0 01-.211-4.22c-.448-2.99.185-5.71 1.898-8.156l4.781-5.062a14.52 14.52 0 001.055-1.406 111.887 111.887 0 00-5.555-6.047c-1.922-2.51-2.649-5.346-2.18-8.508l.071-4.008a.983.983 0 01.492-.562zm1.688 2.25h20.25c.023 1.547 0 3.094-.07 4.64a7.943 7.943 0 01-1.407 4.22 196.306 196.306 0 00-6.047 6.468c-.468 1.031-.468 2.062 0 3.094l5.485 5.765a10.6 10.6 0 011.617 2.602c-5.509.043-11.016.113-16.524.21l-2.882-.14a9.66 9.66 0 011.617-2.672l5.484-5.765c.58-1.315.44-2.533-.422-3.657l-5.484-5.765a7.691 7.691 0 01-1.547-4.36 76.554 76.554 0 01-.07-4.64zm17.437 29.25h2.813v4.5H40.43v-4.36c5.836.047 11.649 0 17.437-.14z" fill="#0A7AE0"/></svg>