<svg width="53" height="53" fill="none" xmlns="http://www.w3.org/2000/svg"><g clip-path="url(#clip0_82_2585)" fill-rule="evenodd" clip-rule="evenodd" fill="#0A7AE0"><path opacity=".962" d="M6.746-.052h37.172c3.287.745 5.369 2.78 6.246 6.108.134 7.83.201 15.662.203 23.498a16.751 16.751 0 012.082 6.107v3.623c-1.388 7.695-5.857 12.25-13.406 13.664h-3.555a16.028 16.028 0 01-5.992-2.122 1318.87 1318.87 0 01-23.055-.207c-3.218-.882-5.216-2.97-5.992-6.263V6.366C1.228 2.881 3.327.742 6.746-.052zm.508 2.278c12.086-.018 24.172 0 36.258.051 2.545.593 4.051 2.198 4.52 4.814.084 6.453.067 12.905-.051 19.357-4.134-3.926-8.976-5.254-14.524-3.985-5.976 1.847-9.683 5.867-11.121 12.06-.867 5.333.504 9.957 4.113 13.87-6.33.121-12.661.139-18.992.052-2.566-.476-4.14-2.011-4.723-4.606a3361.12 3361.12 0 010-36.955c.51-2.572 2.016-4.125 4.52-4.658zm29.148 22.048c5.218-.093 9.23 2.081 12.035 6.522 2.293 4.311 2.36 8.659.204 13.043-2.861 4.831-7.076 7.091-12.645 6.78-5.56-.84-9.266-3.963-11.121-9.368-1.316-5.418.021-10.025 4.012-13.82 2.195-1.826 4.7-2.878 7.515-3.157z"/><path opacity=".963" d="M14.058 6.573c.788-.214 1.313.062 1.575.829.05 1.931.067 3.864.05 5.796 1.964-.017 3.928 0 5.891.052.864.825.796 1.55-.203 2.174-1.896.052-3.791.069-5.688.052.017 1.932 0 3.865-.05 5.797-.613 1.018-1.324 1.087-2.133.207a176.738 176.738 0 01-.051-6.004c-1.896.017-3.792 0-5.687-.052-.819-.357-1.04-.96-.66-1.812.123-.16.275-.28.456-.362 1.964-.052 3.927-.069 5.891-.052-.017-2.001 0-4.003.05-6.004.139-.26.325-.468.56-.62z"/><path opacity=".959" d="M31.324 13.198c3.961-.017 7.922 0 11.883.052.606.434.759 1.003.457 1.708a1.43 1.43 0 01-.66.466c-3.826.069-7.651.069-11.477 0-.741-.356-.961-.926-.66-1.708.173-.16.326-.332.457-.518z"/><path opacity=".942" d="M7.762 30.796c.361-.01.7.076 1.016.258a292.32 292.32 0 004.671 4.71 303.437 303.437 0 004.672-4.71c1.017-.495 1.627-.184 1.828.932.001.238-.05.462-.152.673l-4.723 4.813 4.723 4.814c.413 1.476-.112 2.046-1.574 1.708a316.392 316.392 0 00-4.774-4.814 316.722 316.722 0 00-4.773 4.814c-1.463.338-1.987-.232-1.574-1.708l4.722-4.814-4.722-4.813c-.376-.865-.156-1.486.66-1.863z"/><path opacity=".959" d="M31.324 33.073c3.961-.017 7.922 0 11.883.052.606.434.759 1.003.457 1.708a1.43 1.43 0 01-.66.465c-3.826.07-7.651.07-11.477 0-.741-.355-.961-.925-.66-1.708.173-.159.326-.331.457-.517zm0 6.625c3.961-.017 7.922 0 11.883.052.606.434.759 1.003.457 1.708a1.43 1.43 0 01-.66.465c-3.826.07-7.651.07-11.477 0-.741-.355-.961-.925-.66-1.708.173-.159.326-.331.457-.517z"/></g><defs><clipPath id="clip0_82_2585"><path fill="#fff" transform="translate(.5)" d="M0 0h52v53H0z"/></clipPath></defs></svg>