<svg width="15" height="15" fill="none" xmlns="http://www.w3.org/2000/svg"><g clip-path="url(#clip0_261_1582)"><path d="M13.468 9.54v2.752a1.4 1.4 0 01-1.603 1.4A12.6 12.6 0 01.966 2.744 1.4 1.4 0 012.36 1.14h2.71a.7.7 0 01.7.623c.069.917.306 1.814.7 2.646a.7.7 0 01-.295.882l-.602.343a.7.7 0 00-.23 1.022 9.856 9.856 0 002.58 2.584.7.7 0 001.022-.231l.343-.602a.7.7 0 01.91-.266 7.54 7.54 0 002.646.7.7.7 0 01.623.7z" stroke="#fff" stroke-width="1.4" stroke-linecap="round" stroke-linejoin="round"/></g><defs><clipPath id="clip0_261_1582"><path fill="#fff" transform="translate(.168 .44)" d="M0 0h14v14H0z"/></clipPath></defs></svg>