<svg width="35" height="35" fill="none" xmlns="http://www.w3.org/2000/svg"><circle cx="17.5" cy="17.5" r="17.5" fill="#0A7AE0" fill-opacity=".07"/><g clip-path="url(#clip0_55_6195)"><path d="M24 14.435c-2.405 2.5-4.79 5.021-7.195 7.543l-.87.913c-.146.152-.228.152-.373 0a963.375 963.375 0 00-4.458-4.695c-.145-.153-.145-.24 0-.392l.995-1.043c.145-.152.228-.152.373 0l3.172 3.326a.455.455 0 01.083.13.56.56 0 01.125-.108l6.634-6.957c.187-.195.25-.195.436 0l.933.978c.041.044.104.11.145.174v.13z" fill="#0A7AE0"/></g><defs><clipPath id="clip0_55_6195"><path fill="#fff" transform="translate(11 13)" d="M0 0h13v10H0z"/></clipPath></defs></svg>