<svg width="72" height="72" fill="none" xmlns="http://www.w3.org/2000/svg"><g clip-path="url(#clip0_248_5595)" fill="#0A7AE0"><path d="M68 20.783c-.242.567-.673.815-1.287.789-.502-.02-.999-.02-1.502 0a4.14 4.14 0 01-2.194-.522c-1.913-1.05-3.833-2.1-5.734-3.17-2.619-1.473-5.276-2.843-8.124-3.84-2.69-.953-5.427-1.142-8.215-.496-2.338.54-4.18 1.871-5.767 3.606-1.051 1.154-1.9 2.459-2.697 3.796a1139.819 1139.819 0 00-4.571 7.708c-.157.268-.275.568-.412.848-.091.183-.059.333.105.457.849.632 1.763 1.115 2.84 1.22.49.045.94-.085 1.313-.385a19.09 19.09 0 001.417-1.292c2.54-2.563 5.068-5.139 7.608-7.708.222-.222.47-.418.712-.62.85-.718 1.796-.757 2.782-.34.888.379 1.633.992 2.364 1.612 1.587 1.33 2.985 2.856 4.382 4.382 3.083 3.346 6.126 6.737 9.228 10.076.928.998 1.345 2.113 1.339 3.444-.013 2.915.033 5.824-.007 8.739-.026 2.159-1.182 3.698-3.089 4.265a3.902 3.902 0 01-2.651-.117l-.699-.287c-.215 1.5-.999 2.589-2.312 3.287-1.338.71-2.677.613-4.042-.059-.072.241-.13.444-.203.646-.529 1.532-1.528 2.602-3.134 2.98-1.163.274-2.28.04-3.279-.606a2.454 2.454 0 01-.698-.744c-.216-.352-.144-.743.104-1.07.248-.332.62-.404 1-.306.234.059.47.17.685.294 1.234.724 2.495.41 3.226-.81.059-.104.065-.247.065-.37l.118-12.262c.007-.658.784-1.167 1.41-.932.438.163.588.371.595.834.04 2.687.078 5.368.124 8.055.007.391.007.789.091 1.167.307 1.285 1.953 2.041 3.253 1.142.66-.457.881-1.135.894-1.898.027-1.52.066-3.046.072-4.566 0-1.845-.039-3.69-.052-5.543a2.013 2.013 0 00-.575-1.415c-1.136-1.2-2.272-2.4-3.422-3.587-1.28-1.318-2.58-2.622-3.866-3.933-.13-.13-.242-.28-.366-.417-.424-.437-.372-.828.092-1.337.372-.411.862-.418 1.306-.033.392.346.777.705 1.143 1.07 2.103 2.113 4.199 4.232 6.289 6.352.28.287.548.593.79.913.483.646.777 1.33.77 2.185-.006 2.426.06 4.845.112 7.272.026 1.297.803 2.132 1.972 2.152 1.169.026 2.096-.887 2.135-2.179.053-1.663.06-3.326.066-4.989 0-1.304-.053-2.608-.04-3.913.007-.724-.222-1.304-.711-1.845-2.28-2.498-4.513-5.042-6.792-7.54a262.318 262.318 0 00-4.702-5.028c-1.045-1.095-2.181-2.093-3.455-2.928-.62-.404-.738-.417-1.273.098a325.44 325.44 0 00-4.78 4.721c-1.19 1.194-2.339 2.427-3.514 3.633-.3.313-.62.613-.954.894-1.15.965-2.475 1.154-3.892.795-.888-.221-1.744-.554-2.501-1.082a6.1 6.1 0 01-.986-.848c-.725-.776-.83-1.69-.373-2.622a30.48 30.48 0 011.274-2.309c1.698-2.804 3.376-5.621 5.126-8.4 1.28-2.028 2.94-3.717 5.01-4.963 1.678-1.01 3.532-1.532 5.472-1.774.32-.039.647-.084.967-.13h1.893c.64.098 1.287.17 1.927.3 2.606.535 5.061 1.5 7.4 2.733a235.94 235.94 0 017.862 4.35c1.267.73 2.56 1.232 4.042 1.076.751-.079 1.222.267 1.496.932v.392z"/><path d="M4 45.826c.033-.065.065-.137.104-.196.223-.358.477-.6.974-.593 2.298.033 4.59.013 6.89.02a.744.744 0 00.568-.229c2.475-2.445 4.956-4.885 7.431-7.337a4.155 4.155 0 012.828-1.239c1.744-.065 3.004.77 3.886 2.23.15.248.261.522.411.822.111-.091.21-.17.3-.26.784-.75 1.568-1.507 2.352-2.264.698-.671 1.495-1.14 2.481-1.271 1.679-.222 3.435.671 4.232 2.171.144.274.274.561.431.88.092-.084.17-.15.248-.22.647-.614 1.274-1.247 1.947-1.834a4.132 4.132 0 014.57-.593c1.581.796 2.528 2.394 2.398 4.115-.066.9-.38 1.715-.993 2.394-.607.672-1.234 1.317-1.842 1.982-.163.176-.313.372-.444.529.51.313 1.006.56 1.43.893 1.392 1.076 1.823 2.83 1.359 4.494-.118.43-.399.854-.706 1.193a109.783 109.783 0 01-3.5 3.691 401.35 401.35 0 01-5.584 5.485c-.568.548-1.195 1.057-2.011 1.22-.144.026-.294.065-.438.098h-1.044c-.046-.02-.098-.046-.144-.06-1.659-.319-2.815-1.238-3.416-2.83-.058-.15-.117-.293-.176-.443-.28.065-.522.124-.764.176-2.142.496-4.114-.483-4.976-2.472-.105-.234-.164-.593-.34-.665-.209-.085-.516.072-.784.137-2.03.496-3.964-.437-4.813-2.335-.104-.228-.182-.463-.274-.698-.065-.17-.144-.254-.34-.156-.64.306-1.325.359-2.011.274-1.613-.19-2.828-.965-3.442-2.518-.418-1.043-.392-2.12-.11-3.234h-.36c-1.717-.02-3.441-.072-5.159-.046-.588.007-.869-.267-1.097-.717a1.54 1.54 0 00-.079-.13C4 46.133 4 45.976 4 45.826zm39.863-5.856c.02-1.09-.412-1.846-1.163-2.172-.796-.346-1.547-.28-2.194.352-.157.15-.333.28-.483.437-2.867 2.824-5.74 5.635-8.588 8.478-2.129 2.126-4.219 4.298-6.328 6.45a1.55 1.55 0 00-.353.496c-.333.828.007 1.943.719 2.459.777.554 1.75.502 2.507-.144.072-.065.15-.124.216-.196 5.061-5.04 10.116-10.089 15.184-15.123.365-.353.483-.77.483-1.037zM18.629 51.63c.006 1.416.973 2.316 2.272 2.218.562-.04.94-.378 1.306-.73 1.58-1.527 3.168-3.046 4.715-4.598 2.502-2.511 4.983-5.042 7.458-7.579.21-.215.373-.521.431-.808.216-1.07-.43-2.074-1.482-2.446-.555-.196-1.045-.137-1.495.235-.314.254-.64.489-.928.77-3.931 3.912-7.85 7.832-11.788 11.738-.359.366-.509.783-.49 1.2zm12.003 6.261c.046.816.51 1.455 1.306 1.82.744.339 1.47.254 2.083-.326 1.326-1.252 2.678-2.491 3.964-3.783 1.737-1.735 3.429-3.522 5.133-5.289.131-.137.248-.306.32-.483.49-1.18-.202-2.504-1.469-2.823-.581-.15-1.11-.085-1.574.352-1.169 1.121-2.377 2.197-3.526 3.339-1.934 1.924-3.834 3.88-5.747 5.824-.353.358-.477.795-.49 1.37zm-18.09-9.078c.013.078.02.228.052.378.333 1.487 2.195 2.27 3.422 1.102 1.071-1.017 2.155-2.021 3.2-3.071a528.667 528.667 0 005.355-5.485c.183-.19.314-.476.38-.737.234-.985-.125-1.878-.909-2.348-.829-.495-1.704-.391-2.514.307a5.678 5.678 0 00-.366.326l-8.078 8.067c-.385.385-.542.855-.542 1.461zM4 20.326l.098-.157c.222-.43.49-.678 1.051-.678 2.795.013 5.597-.026 8.392-.058.229 0 .49-.092.686-.216 1.626-1.03 3.2-2.145 4.859-3.11 3.54-2.048 7.392-2.968 11.487-2.961.843 0 1.476.828.953 1.636-.189.287-.45.36-.744.392-.705.072-1.404.137-2.11.189-3.323.228-6.386 1.246-9.207 2.993a113.116 113.116 0 00-3.723 2.413c-.731.496-1.496.796-2.397.79-2.854-.014-5.7.013-8.555.013-.352 0-.463-.32-.646-.529-.066-.071-.092-.17-.137-.254C4 20.632 4 20.476 4 20.326zm64 25.891c-.065.13-.13.274-.203.398-.17.274-.398.457-.73.47-.804.032-1.607.104-2.404.084-.216-.006-.464-.28-.634-.482-.418-.483-.359-1.037.144-1.415.176-.13.438-.196.666-.21.692-.025 1.391 0 2.083-.012.562-.007.862.32 1.085.776-.007.13-.007.26-.007.391z"/></g><defs><clipPath id="clip0_248_5595"><path fill="#fff" transform="translate(4 11)" d="M0 0h64v51H0z"/></clipPath></defs></svg>