<svg width="72" height="72" fill="none" xmlns="http://www.w3.org/2000/svg"><path d="M13.412 7.17c-.635.226-1.212.736-1.54 1.37l-.284.544-.034 22.872c-.011 15.497.011 23.019.09 23.313.182.669.77 1.37 1.462 1.71l.623.318h5.494l.034 2.866c.034 2.673.045 2.889.283 3.308.283.532.725.963 1.28 1.257.385.204.93.215 13.254.215h12.858l.996-.35c.544-.205 1.28-.533 1.632-.737.657-.397 8.61-7.771 9.311-8.632.544-.68 1.122-1.903 1.383-2.889.203-.827.215-1.427.215-18.023 0-11.487-.046-17.31-.114-17.592-.192-.669-.781-1.36-1.46-1.711l-.624-.306h-5.494l-.034-2.866c-.034-2.526-.057-2.9-.25-3.251a3.046 3.046 0 00-1.257-1.28l-.453-.25-18.465-.022c-15.496-.023-18.532 0-18.906.136zm37.1 2.175c.124.136.158.736.158 2.741v2.56l-14.727.057-14.726.057-.453.249a2.865 2.865 0 00-1.292 1.393c-.226.51-.238.635-.238 19.689v19.178l-2.583-.034c-1.993-.023-2.639-.068-2.775-.192-.181-.136-.192-1.892-.192-22.85 0-20.47.022-22.7.18-22.86.16-.158 1.972-.18 18.33-.18 16.754 0 18.181.01 18.317.192zm7.465 7.545l.283.147V51.69l-4.475.056-4.474.057-.635.317c-.714.34-1.416 1.042-1.824 1.801-.26.476-.26.566-.317 4.679l-.056 4.191H21.567l-.147-.283c-.114-.227-.136-4.792-.114-22.804l.023-22.531.272-.216c.26-.215.702-.215 18.182-.215 14.216 0 17.966.034 18.193.148zm-.861 37.144c-.476.533-8.35 7.907-8.451 7.907-.057 0-.09-1.393-.068-3.5.034-3.976.023-3.897.997-4.407.487-.237.589-.249 4.123-.249h3.614l-.215.25z" fill="#0A7AE0"/><path d="M29.214 24.604c-.623.351-.736 1.02-.249 1.563l.329.374h21.093l.306-.306c.441-.453.43-1.03-.057-1.461l-.363-.329H39.874c-8.405.012-10.444.034-10.66.159zm-.044 6.989c-.103.057-.273.272-.375.454a.966.966 0 00.26 1.234c.284.227.443.227 10.763.227 7.284 0 10.535-.034 10.705-.125.124-.068.294-.294.385-.51.136-.328.136-.441 0-.77-.09-.215-.26-.442-.385-.51-.318-.17-21.06-.17-21.354 0zm-.114 7.126a1.188 1.188 0 00-.363.555c-.079.385.17.963.499 1.144.317.159 21.014.159 21.33-.011.295-.159.544-.76.465-1.156-.034-.17-.193-.407-.351-.532-.272-.227-.487-.227-10.784-.227-10.354 0-10.513 0-10.796.227zm.306 6.797c-.317.125-.725.657-.725.929 0 .362.317.85.645.985.238.09 1.915.125 6.197.102l5.868-.034.272-.317a1.045 1.045 0 000-1.405l-.272-.317-5.88-.022c-3.228-.012-5.98.022-6.105.079z" fill="#0A7AE0"/></svg>