<svg width="57" height="57" fill="none" xmlns="http://www.w3.org/2000/svg"><path opacity=".958" fill-rule="evenodd" clip-rule="evenodd" d="M26.997 1.615c2.965-.281 5.155.87 6.569 3.45 2.893.093 5.788.15 8.683.168 3.067.246 4.978 1.86 5.734 4.843a3623.15 3623.15 0 010 40.189c-.614 2.803-2.34 4.418-5.177 4.843-9.871.074-19.742.074-29.613 0-2.563-.4-4.251-1.828-5.066-4.286A970.81 970.81 0 017.96 30.17l.056-20.095c.755-2.982 2.666-4.596 5.733-4.842l8.684-.112c.96-1.908 2.482-3.077 4.564-3.506zm.334 2.783c2.243-.112 3.634.927 4.175 3.117.135.172.302.302.501.39 1.076.055 2.152.074 3.229.055.227 1.602-.292 2.882-1.559 3.841-.416.238-.86.386-1.336.445a169.4 169.4 0 01-8.684 0c-1.226-.177-2.099-.826-2.616-1.948a7.18 7.18 0 01-.278-2.338c1.162.05 2.312-.005 3.451-.167l.278-.278c.358-1.6 1.305-2.64 2.84-3.117zM13.75 7.96h4.23c-.23 3.158 1.068 5.403 3.897 6.736.255.091.515.165.78.222 1.777.123 3.559.178 5.343.167a71.213 71.213 0 005.344-.167c2.78-.738 4.32-2.538 4.62-5.4.056-.517.074-1.037.056-1.558 1.41-.018 2.82 0 4.23.056 1.511.152 2.494.95 2.95 2.393.075 13.174.075 26.348 0 39.522-.373 1.338-1.245 2.136-2.616 2.394-9.722.074-19.445.074-29.168 0-1.37-.258-2.242-1.056-2.616-2.394a3508.449 3508.449 0 010-39.522c.5-1.41 1.484-2.227 2.95-2.449z" fill="#0A7AE0"/><path opacity=".944" fill-rule="evenodd" clip-rule="evenodd" d="M35.235 25.884c1.55.131 2.014.91 1.391 2.338l-9.852 9.63c-.696.396-1.364.36-2.004-.112a203.81 203.81 0 01-5.622-5.733c-.187-1.334.388-1.947 1.725-1.837a48.404 48.404 0 014.954 4.62l8.851-8.628c.202-.084.388-.177.557-.278z" fill="#0A7AE0"/></svg>