<svg width="52" height="52" fill="none" xmlns="http://www.w3.org/2000/svg"><rect width="52" height="52" rx="26" fill="#fff"/><path d="M29.655 32.458h-4.947V18.25A1.292 1.292 0 0126 16.958h9.042m2.583 10.334v3.875a1.292 1.292 0 01-1.292 1.292H35.21m-18.394 0h-1.15a1.291 1.291 0 01-1.29-1.292v-5.45a1.292 1.292 0 01.98-1.293l1.602-.361 1.02-3.578a1.292 1.292 0 011.292-.943h5.438v12.917h-2.415" stroke="#0A7AE0" stroke-width="1.5" stroke-linecap="round" stroke-linejoin="round"/><path d="M29.875 22.125h7.75m-7.75 10.333a2.584 2.584 0 105.168 0 2.584 2.584 0 00-5.168 0zm-12.917 0a2.584 2.584 0 105.168 0 2.584 2.584 0 00-5.168 0z" stroke="#0A7AE0" stroke-width="1.5" stroke-linecap="round" stroke-linejoin="round"/></svg>