<svg width="104" height="27" fill="none" xmlns="http://www.w3.org/2000/svg"><path fill-rule="evenodd" clip-rule="evenodd" d="M18.993 26.84h-2.188c-.06-.09-.149-.09-.234-.088-.03 0-.06.001-.088-.002-1.387-.177-2.495-.781-3.196-2.034a7.922 7.922 0 01-.652-1.438l-1.284-3.997-.001-.002c-.632-1.968-1.263-3.935-1.897-5.901-.016-.049-.024-.102-.032-.152-.011-.073-.02-.136-.05-.156 0 .54-.002 1.082-.004 1.628a288.09 288.09 0 00.007 3.716c.026 2.591.074 5.183.126 7.775.006.289-.063.377-.363.376-2.334-.009-4.669-.008-7.003-.007H0V4.228c.073-.034.077-.097.081-.158a.498.498 0 01.006-.057C.402 2.345 1.39 1.228 2.957.636 4.828-.071 6.77-.132 8.726.184c1.11.18 2.174.518 3.07 1.237 1.065.855 1.682 2.005 2.104 3.27a4779.62 4779.62 0 012.13 6.388v.002c.617 1.852 1.233 3.703 1.851 5.553.007.02.01.043.015.066.014.077.029.162.15.197l.051-.16.131-.405c.382-1.144.761-2.288 1.141-3.432v-.002c.936-2.815 1.87-5.63 2.828-8.438.629-1.845 1.731-3.283 3.691-3.92 2.087-.68 4.193-.691 6.297-.18 2.596.63 3.823 2.255 3.823 4.92v3.134c0 5.917 0 11.834.008 17.75 0 .323-.084.403-.405.401-2.215-.01-4.43-.009-6.646-.008h-1.86c-.295 0-.442 0-.515-.073-.073-.074-.07-.222-.065-.52v-.002c.02-1.025.038-2.05.057-3.076v-.008c.048-2.574.095-5.149.14-7.723.008-.505.006-1.011.004-1.539a93.28 93.28 0 01-.003-.757l-.032.096-.073.222a1187.64 1187.64 0 01-.98 3.035c-.78 2.412-1.56 4.824-2.315 7.244-.556 1.778-1.725 2.822-3.521 3.218-.095.02-.193.032-.29.044-.178.02-.355.041-.52.122zm61.99 0h-2.33c-.043-.08-.115-.08-.185-.08-.022 0-.045 0-.066-.002-1.752-.206-3.206-.947-4.28-2.372a8.817 8.817 0 01-1.134-1.98L67.506 9.012 64.09.67c-.152-.372-.15-.375.236-.375h2.347c2.347 0 4.695 0 7.042-.007.276 0 .382.095.467.341a9837.737 9837.737 0 005.557 16.085l.022.073c.025.09.051.186.149.256l.033-.088v-.002l.06-.16.682-1.973A9941.33 9941.33 0 0085.574.675c.097-.283.542-.39.542-.39l8.372.008h8.96s.462 0 .462.447v25.478c.002.182.002.268-.04.308-.039.036-.112.035-.251.032l-.153-.002c-2.824.002-5.648.003-8.472 0-.075 0-.138.002-.193.003-.153.003-.232.005-.272-.034-.043-.04-.041-.127-.039-.306l.002-.167-.001-8.206-.003-13.665c0-.027.002-.054.004-.082.006-.104.014-.216-.068-.336l-.062.145-.001.002v.001l-.106.245-1.698 4.153-.003.009c-1.34 3.278-2.68 6.556-4.028 9.83-.204.498-.401.999-.598 1.5-.473 1.201-.946 2.403-1.523 3.558-.925 1.85-2.35 3.112-4.466 3.468-.105.017-.21.028-.317.038-.217.02-.433.042-.638.128zm-33.02-.116c.301.01.603.019.895.116h5.295c.04-.075.104-.07.166-.067a.48.48 0 00.053.002c1.188-.055 2.37-.155 3.543-.358 1.78-.31 3.416-.956 4.816-2.118 1.65-1.372 2.4-3.229 2.788-5.27.489-2.566.501-5.159.394-7.753-.067-1.63-.27-3.248-.729-4.825-.56-1.928-1.661-3.449-3.36-4.532-1.167-.744-2.447-1.184-3.802-1.43-2.373-.429-4.77-.497-7.172-.468-2.165.026-4.334.1-6.449.617-3.355.82-5.684 2.761-6.594 6.184-.333 1.25-.481 2.533-.557 3.824-.169 2.889-.157 5.772.383 8.63.642 3.392 2.604 5.637 5.895 6.728 1.306.433 2.66.572 4.019.699a6.4 6.4 0 00.416.021zm-.937-10.537a12.775 12.775 0 01-.227-2.693c-.012-1.203.078-2.32.374-3.417.355-1.317 1.207-2.075 2.534-2.335a9.85 9.85 0 013.609-.023c1.468.254 2.32 1.13 2.676 2.543.35 1.392.395 2.806.316 4.229-.04.727-.145 1.444-.326 2.152-.383 1.487-1.339 2.31-2.853 2.533-1.02.15-2.04.181-3.055.005-1.908-.33-2.674-1.096-3.048-2.994z" fill="#fff"/></svg>