<svg width="132" height="38" fill="none" xmlns="http://www.w3.org/2000/svg"><g clip-path="url(#clip0_55_6121)"><path d="M24.702 16.968c.35 0 .637-.286.637-.635a.639.639 0 00-1.087-.448.637.637 0 00-.187.448c0 .349.285.635.637.635zM9.4 4.214c.046 0 .091-.045.091-.09a.09.09 0 00-.091-.09.088.088 0 00-.09.09c0 .045.037.09.09.09zm1.527.027a.118.118 0 00.118-.118.117.117 0 00-.233 0c0 .067.053.118.116.118zm1.53 0a.118.118 0 00.114-.118.117.117 0 00-.114-.115c-.065 0-.11.05-.11.115 0 .067.047.118.11.118zm1.535-.027c.044 0 .09-.045.09-.09a.091.091 0 00-.124-.083.087.087 0 00-.055.082.09.09 0 00.09.091zm1.528-.036c.026 0 .053-.026.053-.053 0-.026-.027-.05-.053-.05-.027 0-.056.026-.056.05 0 .025.027.053.056.053zm-4.592-1.44a.044.044 0 00.045-.046c0-.032-.019-.051-.046-.051-.026 0-.053.019-.053.05 0 .027.027.046.053.046zm-3.063 1.44c.026 0 .053-.026.053-.053 0-.026-.027-.05-.053-.05-.027 0-.055.026-.055.05 0 .025.026.053.055.053zm4.592-1.44c.025 0 .053-.02.053-.046 0-.032-.026-.051-.055-.051-.027 0-.044.019-.044.05 0 .027.021.046.046.046zm-1.53 3.086c.1 0 .19-.082.19-.19a.188.188 0 00-.19-.185.192.192 0 00-.197.187c0 .108.091.188.197.188zm1.53.036a.23.23 0 00.232-.224.236.236 0 00-.234-.233.23.23 0 00-.224.233c0 .125.1.224.226.224zm1.535 0a.224.224 0 00.208-.138.22.22 0 00.017-.086.23.23 0 00-.225-.233.238.238 0 00-.234.233.23.23 0 00.234.224zm1.528-.01a.218.218 0 00.215-.216.217.217 0 00-.215-.214.218.218 0 00-.217.214.22.22 0 00.217.216zm1.535-.036a.178.178 0 00.171-.178c0-.098-.08-.18-.171-.18a.182.182 0 00-.2.18.179.179 0 00.125.17.19.19 0 00.075.008zm1.527-.053a.122.122 0 00.128-.127.12.12 0 00-.037-.09.123.123 0 00-.09-.035.122.122 0 00-.118.077.122.122 0 00-.008.048c0 .072.055.127.125.127zm1.528-.055c.046 0 .082-.024.082-.07 0-.045-.037-.072-.082-.072a.07.07 0 00-.07.072c0 .046.034.07.07.07zM6.328 7.263c.036 0 .063-.027.063-.065a.062.062 0 00-.063-.064c-.036 0-.063.025-.063.064 0 .033.027.065.063.065zm4.59.144a.21.21 0 00.194-.287.201.201 0 00-.114-.112.204.204 0 00-.08-.014.204.204 0 00-.144.352.21.21 0 00.144.06zm1.539.07a.279.279 0 00.278-.277.279.279 0 00-.557 0 .28.28 0 00.279.277zm1.526.064a.344.344 0 00.342-.34.34.34 0 00-.342-.341.344.344 0 00-.343.34.34.34 0 00.343.341zm1.527.017c.207 0 .36-.16.36-.358a.352.352 0 00-.355-.353.356.356 0 00-.005.711zm1.537-.017a.344.344 0 00.316-.21.34.34 0 00-.316-.471.343.343 0 00-.342.34.34.34 0 00.342.341zm1.528-.055a.29.29 0 00.296-.284.302.302 0 00-.296-.297.292.292 0 00-.29.295c0 .161.128.286.29.286zm1.535-.043a.242.242 0 00.243-.243.24.24 0 00-.243-.24.239.239 0 00-.242.24.24.24 0 00.242.243zm1.527-.063a.182.182 0 00.169-.11.179.179 0 00-.038-.196.181.181 0 00-.31.126c0 .099.08.18.18.18zm1.537-.064c.054 0 .109-.051.109-.114 0-.066-.055-.117-.109-.117a.118.118 0 00-.118.115c0 .065.056.116.118.116zm-9.182 1.772a.363.363 0 00.367-.367.363.363 0 00-.367-.367.364.364 0 00-.369.367c0 .206.162.367.37.367zm1.528.063a.433.433 0 00.43-.43.429.429 0 00-.431-.401.433.433 0 00-.431.4.434.434 0 00.432.43zm1.535.036a.47.47 0 10-.476-.466c0 .26.215.466.476.466zm1.527 0a.47.47 0 000-.94.473.473 0 00-.466.474c0 .26.206.466.466.466zm1.528-.046a.423.423 0 00.422-.42.42.42 0 00-.716-.295.42.42 0 00.294.715zm1.537-.062c.198 0 .35-.161.35-.358a.352.352 0 00-.35-.358.36.36 0 00-.36.36c0 .199.162.356.36.356zm1.527-.072a.29.29 0 00.297-.286.299.299 0 00-.297-.295.29.29 0 00-.287.295c0 .16.128.286.287.286zm1.528-.072a.22.22 0 00.224-.214.222.222 0 00-.224-.216c-.118 0-.215.1-.215.216 0 .115.099.214.215.214zm1.537-.08a.134.134 0 00.123-.083.13.13 0 00.01-.051c0-.081-.053-.144-.133-.144a.144.144 0 00-.134.089.14.14 0 00-.01.055c0 .072.062.132.144.132m-10.72 1.818a.45.45 0 00.45-.447.452.452 0 00-.45-.448.455.455 0 00-.448.448c0 .243.205.447.449.447zm1.536.07a.522.522 0 00.521-.518.518.518 0 00-.521-.52.522.522 0 00-.521.52.517.517 0 00.52.518zm1.527.065a.586.586 0 00.585-.582.581.581 0 00-.585-.583.586.586 0 00-.585.582.581.581 0 00.585.583zm1.528.017a.603.603 0 00.602-.6.598.598 0 00-.602-.599.598.598 0 00-.592.6c0 .332.268.599.592.599zm1.537-.053a.552.552 0 00.495-.546.548.548 0 00-.495-.547.544.544 0 00-.548.546c0 .302.242.547.548.547zm1.527-.082a.47.47 0 00.476-.465.47.47 0 00-.476-.464.464.464 0 100 .93zm1.528-.089a.383.383 0 00.386-.375.378.378 0 00-.377-.384.381.381 0 00-.385.374.377.377 0 00.376.383m1.537-.079a.288.288 0 00.285-.295.288.288 0 00-.285-.296.299.299 0 00-.297.296c0 .16.133.295.297.295zm1.526-.08a.213.213 0 00.216-.215.211.211 0 00-.216-.214.22.22 0 00-.215.214.22.22 0 00.215.215zm1.537-.089a.128.128 0 00.125-.126.129.129 0 00-.125-.125c-.073 0-.133.053-.133.125 0 .071.06.126.133.126zm-12.264 1.932a.53.53 0 00.53-.519.53.53 0 00-.899-.367.517.517 0 00.369.886zm1.537.089a.612.612 0 00.608-.608.614.614 0 00-.608-.608.612.612 0 00-.611.608.607.607 0 00.61.608zm1.527.045a.661.661 0 00.655-.653.645.645 0 00-.405-.594.652.652 0 00-.884.472.644.644 0 00.273.664c.106.071.231.11.36.111m1.536 0a.654.654 0 00.618-.648.648.648 0 00-.618-.649.66.66 0 00-.656.644c0 .358.297.653.656.653zm1.53 0a.653.653 0 00.617-.648.648.648 0 00-.617-.649.653.653 0 00-.652.649.647.647 0 00.652.648zm3.062-.197a.455.455 0 00.454-.451.45.45 0 00-.454-.452.452.452 0 00-.458.447c0 .25.207.454.456.454m1.53-.087a.366.366 0 00.26-.625.372.372 0 00-.26-.11.378.378 0 00-.37.368.37.37 0 00.37.367zm1.535-.1a.263.263 0 00.241-.365.258.258 0 00-.24-.161.264.264 0 00-.248.158.263.263 0 00.247.368zm1.528-.089a.181.181 0 00.18-.178.18.18 0 00-.18-.18.18.18 0 00-.181.18.18.18 0 00.18.178zm1.537-.089c.045 0 .081-.032.081-.089 0-.045-.038-.089-.081-.089a.09.09 0 00-.09.089c0 .051.036.089.09.089zm3.064 4.571c.044 0 .09-.038.09-.09a.095.095 0 00-.09-.09.092.092 0 00-.091.09c0 .052.038.09.091.09zm0 1.52c.044 0 .09-.045.09-.09a.09.09 0 00-.09-.09c-.055 0-.091.033-.091.09 0 .045.038.09.091.09zM18.582 13.89a.594.594 0 00.232-1.144.604.604 0 00-.833.554c0 .331.27.59.601.59zm1.528.053a.648.648 0 00.656-.643.65.65 0 00-.656-.644.642.642 0 00-.647.644c0 .357.287.643.647.643zm1.537 0a.64.64 0 00.647-.643.641.641 0 00-.647-.644.642.642 0 00-.647.644c0 .357.287.643.647.643zm1.527 0a.64.64 0 00.647-.643.641.641 0 00-.647-.644.642.642 0 00-.646.644c0 .357.287.643.646.643zm1.528 0a.65.65 0 00.656-.643.647.647 0 00-.651-.649.653.653 0 00-.652.649c0 .36.297.643.647.643zm1.537-.007a.64.64 0 00.637-.636.638.638 0 00-1.276 0c0 .35.287.636.639.636zm1.526-.117a.522.522 0 00.52-.52.517.517 0 00-.52-.518.523.523 0 00-.522.519.518.518 0 00.522.518zm1.537-.116a.403.403 0 100-.805.412.412 0 00-.413.402c0 .225.188.403.413.403zm1.527-.098a.3.3 0 00.305-.303.304.304 0 00-.305-.307.301.301 0 00-.304.305.3.3 0 00.304.304zm1.537-.108a.2.2 0 00.077-.385.202.202 0 00-.224.042.203.203 0 00-.06.146.2.2 0 00.207.197zm1.528-.107c.044 0 .09-.045.09-.09a.09.09 0 00-.09-.09.092.092 0 00-.092.09.095.095 0 00.092.09zM6.337 14.945a.065.065 0 00.063-.064c0-.038-.027-.072-.063-.072-.036 0-.062.034-.062.072 0 .026.026.064.062.064zm1.528 0c.034 0 .063-.032.063-.064 0-.038-.029-.072-.063-.072s-.063.034-.063.072c0 .026.027.064.063.064zm1.535.072a.139.139 0 00.135-.132c0-.082-.063-.146-.133-.146a.143.143 0 00-.145.144c0 .072.063.134.143.134zm1.527.063a.2.2 0 00.145-.056.201.201 0 00.063-.141.204.204 0 00-.207-.205.203.203 0 00-.206.205.2.2 0 00.206.197zm1.53.081a.28.28 0 100-.562.286.286 0 00-.28.284c0 .151.128.278.28.278zm1.535.063a.341.341 0 00.342-.341.35.35 0 00-.342-.349.35.35 0 00-.342.349c0 .187.152.34.342.34zm1.528.072a.42.42 0 00.422-.413.42.42 0 00-.422-.42.423.423 0 00-.423.42.42.42 0 00.423.413zm1.535.062a.484.484 0 00.442-.3.477.477 0 00-.357-.65.484.484 0 00-.492.21.48.48 0 00.407.74zm1.527.08a.563.563 0 00.561-.56.557.557 0 00-.56-.558.557.557 0 00-.556.563c0 .305.241.555.555.555zm3.065.088a.652.652 0 00.65-.647.646.646 0 00-.65-.648.653.653 0 00-.603.648.648.648 0 00.603.648zm1.537 0a.66.66 0 00.654-.643.656.656 0 00-.654-.652.654.654 0 00-.603.648.648.648 0 00.603.648zm1.518 0a.66.66 0 00.656-.643.655.655 0 00-.656-.652.66.66 0 00-.647.652c0 .348.297.644.647.644zm1.537 0a.652.652 0 00.65-.647.646.646 0 00-.65-.648.653.653 0 00-.603.648.648.648 0 00.603.648zm1.526 0a.66.66 0 00.656-.643.655.655 0 00-.656-.652.654.654 0 00-.603.648.648.648 0 00.603.648zm1.537-.115a.531.531 0 000-1.064.531.531 0 100 1.064zm1.527-.115a.42.42 0 00.422-.413.42.42 0 00-.422-.42.423.423 0 00-.422.42c0 .225.19.413.422.413zm1.537-.127a.287.287 0 00.285-.284c0-.16-.133-.298-.285-.298a.299.299 0 00-.297.296c0 .16.134.286.297.286zm1.528-.125a.162.162 0 00.161-.161c0-.099-.072-.17-.161-.17a.171.171 0 00-.172.17c0 .09.082.16.172.16zm-7.655 1.933a.648.648 0 00.647-.644.642.642 0 00-.647-.644.64.64 0 00-.647.644c0 .36.286.644.647.644zm1.526 0a.65.65 0 00.656-.644.648.648 0 00-.652-.614.654.654 0 00-.651.614c0 .356.289.644.647.644zm1.537 0a.642.642 0 00.646-.644.642.642 0 00-.646-.644.648.648 0 00-.657.644c0 .36.297.644.657.644zm1.527-.153c.28 0 .495-.214.495-.493a.49.49 0 00-.306-.455.497.497 0 00-.538.108.491.491 0 00.349.84zm1.537-.135a.357.357 0 000-.716.362.362 0 00-.367.504.36.36 0 00.367.212zm1.528-.168a.185.185 0 00.188-.19.183.183 0 00-.19-.185.182.182 0 00-.187.187c0 .108.08.188.189.188z" fill="#BDD8F1"/><path d="M35.421 16.367c.027 0 .044-.018.044-.032 0-.019-.019-.038-.044-.038-.019 0-.038.02-.038.038 0 .02.02.032.038.032zm-7.656 2.129a.648.648 0 00.656-.644.65.65 0 00-.656-.644.648.648 0 00-.647.644.642.642 0 00.647.644zm1.537 0a.64.64 0 00.646-.644.64.64 0 00-.646-.644.65.65 0 00-.657.644c0 .356.297.644.657.644zm1.527-.097a.545.545 0 00.548-.547.542.542 0 00-.548-.545.553.553 0 00-.548.545.55.55 0 00.548.547zm1.537-.178a.368.368 0 00.278-.635.368.368 0 00-.278-.098.369.369 0 00-.378.364c0 .204.17.37.378.37zm1.528-.17c.106 0 .205-.091.205-.199a.208.208 0 00-.397-.079.202.202 0 00.192.278zm1.535 1.384c.019 0 .038-.019.038-.045 0-.02-.02-.033-.038-.033-.02 0-.034.02-.034.033 0 .026.019.045.034.045zm-7.655.61a.654.654 0 00.617-.649.648.648 0 00-.617-.648.653.653 0 00-.651.648.647.647 0 00.651.649zm1.528 0a.662.662 0 00.656-.654.645.645 0 00-.404-.593.653.653 0 00-.884.472.645.645 0 00.272.663c.106.072.231.11.36.112zm1.537-.108a.552.552 0 00.548-.546.552.552 0 00-.548-.547.553.553 0 00-.548.547c0 .304.241.546.548.546zm1.527-.242a.3.3 0 00.305-.303.306.306 0 00-.305-.303.306.306 0 00-.304.303.3.3 0 00.304.303zm1.528-.107a.2.2 0 00.198-.197c0-.098-.092-.189-.198-.189-.1 0-.19.091-.19.19 0 .107.09.196.19.196z" fill="#BDD8F1"/><path d="M35.429 19.418c.01 0 .026-.006.026-.026 0-.006-.019-.02-.026-.02-.02 0-.027.006-.027.02 0 .018.01.026.027.026zm-.008-4.427c.027 0 .044-.006.044-.032 0-.02-.019-.038-.044-.038a.04.04 0 00-.038.038c0 .026.02.032.038.032zm-7.656 6.574a.65.65 0 00.656-.643.648.648 0 00-.652-.615.654.654 0 00-.651.615c0 .355.289.643.647.643zm1.537 0a.642.642 0 00.646-.643.642.642 0 00-.646-.644.648.648 0 00-.657.644c0 .36.297.643.657.643zm1.527-.206a.446.446 0 00.445-.443.442.442 0 00-.445-.443.452.452 0 00-.449.449c0 .24.207.435.45.435m1.536-.15a.289.289 0 00.285-.287.296.296 0 00-.285-.296.299.299 0 00-.297.296c0 .16.134.287.297.287zm1.528-.108a.125.125 0 00.09-.035.123.123 0 00.035-.09.122.122 0 00-.077-.116.124.124 0 00-.048-.009.123.123 0 00-.117.077.122.122 0 00-.009.049c0 .07.053.124.126.124zm-6.13 1.977a.661.661 0 00.657-.653.645.645 0 00-.404-.594.654.654 0 00-.884.472.645.645 0 00.272.664c.106.072.231.11.36.111zm1.538-.089a.563.563 0 00.557-.564.56.56 0 00-.567-.555.562.562 0 00-.556.564.557.557 0 00.566.553m1.527-.187a.371.371 0 000-.742.372.372 0 000 .742zm1.537-.178a.197.197 0 00.188-.197.197.197 0 00-.19-.19.198.198 0 00-.196.19c0 .108.09.197.198.197zm-6.127 1.967a.654.654 0 00.617-.648.648.648 0 00-.617-.649.653.653 0 00-.652.649.647.647 0 00.652.648zm3.063-.268a.383.383 0 00.376-.385.379.379 0 00-.386-.375.382.382 0 00-.377.385.379.379 0 00.387.375zm1.527-.188a.19.19 0 00.19-.197.19.19 0 00-.19-.187.19.19 0 00-.177.263.189.189 0 00.177.121zm-3.064 1.672a.363.363 0 00.361-.358.36.36 0 00-.609-.246.348.348 0 00-.102.246c0 .197.152.36.35.36m1.537-.18c.089 0 .17-.081.17-.18a.175.175 0 00-.17-.17.178.178 0 00-.18.17c0 .099.08.18.18.18zm-4.61 1.87a.498.498 0 00.456-.69.498.498 0 10-.81.547.5.5 0 00.354.142zm1.528-.171a.332.332 0 00.333-.322.33.33 0 00-.333-.332.333.333 0 00-.333.332c0 .18.152.322.333.322zm1.527-.188c.082 0 .145-.064.145-.132a.142.142 0 00-.145-.146c-.072 0-.133.066-.133.144 0 .072.061.134.133.134zm-3.045 1.636a.26.26 0 00.26-.25.26.26 0 00-.26-.26.26.26 0 00-.251.26c0 .135.116.25.25.25zm1.537-.151a.101.101 0 00.099-.099c0-.05-.046-.108-.1-.108-.054 0-.098.053-.098.108a.1.1 0 00.099.099zm-1.537 1.458c.026 0 .045-.019.045-.038s-.018-.04-.045-.04c-.02 0-.036.02-.036.038 0 .02.019.04.036.04zm-3.055 1.53c.019 0 .036-.019.036-.046 0-.018-.02-.037-.036-.037-.027 0-.046.018-.046.038 0 .024.02.045.046.045zM20.11 15.527a.66.66 0 00.656-.644.656.656 0 00-.656-.652.654.654 0 00-.603.648.648.648 0 00.603.648z" fill="#BDD8F1"/><path d="M.963 33.81c-.026 0-.043.018-.043.044 0 .027.019.046.043.046a.045.045 0 00.046-.045.044.044 0 00-.046-.046z" fill="#83B2DD"/><path d="M18.582 32.95c-.07 0-.133.052-.133.124 0 .072.061.125.133.125a.128.128 0 00.128-.125.129.129 0 00-.128-.125zm-1.535-1.887a.509.509 0 00-.508.506.504.504 0 00.508.506.51.51 0 00.508-.506.505.505 0 00-.508-.506zm1.535.099a.402.402 0 10.282.685.396.396 0 00.114-.284.404.404 0 00-.396-.401zm1.528.168a.24.24 0 00-.232.243c0 .125.106.223.232.223a.231.231 0 00.234-.223.238.238 0 00-.234-.243zm0-1.77a.484.484 0 100 .966c.27 0 .485-.214.485-.483a.481.481 0 00-.485-.483zm1.527.187a.299.299 0 00-.296.296c0 .16.135.295.296.295a.292.292 0 00.297-.295.292.292 0 00-.297-.296zm1.537.188a.109.109 0 00-.108.108c0 .05.046.108.108.108a.115.115 0 00.109-.108c0-.051-.055-.108-.109-.108zm0-1.754a.34.34 0 00-.342.341c0 .19.152.332.342.332.19 0 .333-.142.333-.332a.335.335 0 00-.333-.34zm-1.537-.151a.488.488 0 00-.45.304.482.482 0 00-.035.188c0 .27.215.483.485.483a.49.49 0 00.495-.483.49.49 0 00-.495-.492zm1.518-1.52a.488.488 0 00-.494.492c0 .268.217.492.494.492.27 0 .495-.224.495-.492a.492.492 0 00-.495-.493zM24.702 25a.452.452 0 000 .901.457.457 0 00.456-.454.453.453 0 00-.456-.447zM4.8 8.935a.21.21 0 00.215-.205.22.22 0 00-.215-.215.218.218 0 00-.215.215c0 .118.1.205.215.205zm1.528.045a.26.26 0 00.26-.25.259.259 0 00-.26-.259.26.26 0 00-.251.26c0 .132.116.25.25.25zM7.865 9a.272.272 0 00.278-.27.279.279 0 00-.558 0c0 .152.126.27.28.27zm1.527 0a.272.272 0 00.278-.27.279.279 0 00-.278-.276.272.272 0 00-.27.276c0 .152.116.27.27.27zm1.536-.02a.255.255 0 00.25-.25.257.257 0 00-.25-.259.261.261 0 00-.261.26c0 .132.118.25.26.25zm3.054 1.583a.343.343 0 00.343-.34.34.34 0 00-.342-.341.333.333 0 00-.333.34c0 .19.144.341.332.341zm-1.525.036a.383.383 0 00.382-.38.38.38 0 00-.382-.38.377.377 0 00-.38.384c0 .208.163.376.38.376zm-1.53.027a.4.4 0 00.396-.401.401.401 0 00-.396-.404.4.4 0 00-.403.404c0 .225.179.4.404.4zm-4.6-.027a.383.383 0 00.387-.374.379.379 0 00-.377-.385.382.382 0 00-.385.374.377.377 0 00.376.383m3.064-3.272a.128.128 0 00.126-.125.129.129 0 00-.126-.125c-.072 0-.135.052-.135.125 0 .072.065.125.135.125zm-1.539 0a.122.122 0 00.12-.076.12.12 0 00.008-.049.123.123 0 00-.126-.125.122.122 0 00-.117.077.12.12 0 00-.008.048.12.12 0 00.123.125zM4.8 5.715a.082.082 0 00.082-.079c0-.045-.038-.09-.082-.09-.045 0-.082.045-.082.09 0 .046.038.08.082.08zm1.528.046c.072 0 .133-.053.133-.127 0-.07-.061-.125-.133-.125a.128.128 0 00-.126.125.13.13 0 00.126.127zm1.537 0a.122.122 0 00.125-.127.123.123 0 00-.125-.125.122.122 0 00-.119.076.12.12 0 00-.009.05c0 .071.056.126.128.126zm1.527 0a.122.122 0 00.126-.127.123.123 0 00-.126-.125.122.122 0 00-.127.125c0 .072.055.127.127.127zm1.536-.019c.055 0 .098-.05.098-.106 0-.066-.043-.108-.098-.108a.105.105 0 00-.107.108c0 .051.044.106.107.106zM4.79 7.282c.055 0 .091-.04.091-.082a.089.089 0 00-.056-.082.09.09 0 00-.035-.007c-.044 0-.08.046-.08.09a.08.08 0 00.08.08zm1.537.043a.122.122 0 00.125-.125.123.123 0 00-.125-.125.122.122 0 00-.117.077.12.12 0 00-.009.048c0 .072.053.125.126.125zm4.59-.017a.114.114 0 00.108-.108.108.108 0 00-.107-.093.109.109 0 00-.108.093c0 .053.054.108.107.108zm1.539 0a.115.115 0 00.106-.108.108.108 0 00-.108-.106.104.104 0 00-.108.106c0 .053.047.108.11.108zm3.063 1.52c.062 0 .106-.045.106-.098 0-.066-.044-.108-.106-.108a.11.11 0 00-.109.108c0 .052.053.099.109.099zm-12.247 0a.101.101 0 00.099-.098c0-.066-.046-.108-.1-.108a.105.105 0 00-.108.108c0 .052.046.099.109.099zm9.184.133a.238.238 0 00.232-.23.23.23 0 00-.234-.233.233.233 0 00-.234.232c0 .125.108.233.234.233m1.527-.045a.197.197 0 00.198-.19.198.198 0 00-.197-.195.198.198 0 00-.19.197c0 .099.09.188.19.188zm4.6 1.494c.109 0 .19-.082.19-.19a.183.183 0 00-.19-.185.184.184 0 00-.188.188c0 .107.08.187.188.187zm7.647 4.658c.109 0 .198-.08.198-.187 0-.108-.091-.188-.198-.188a.192.192 0 00-.19.19c0 .107.091.185.19.185zM1.736 10.287c.038 0 .062-.027.062-.066 0-.033-.026-.065-.062-.065-.036 0-.063.027-.063.065 0 .037.028.066.063.066zm1.537.125c.099 0 .19-.082.19-.19a.188.188 0 00-.19-.185c-.109 0-.198.08-.198.188 0 .107.09.187.198.187zm1.527.125a.314.314 0 00.324-.313.316.316 0 00-.324-.314.312.312 0 00-.314.315c0 .177.143.312.314.312zm12.247-.08a.238.238 0 00.234-.232.238.238 0 00-.234-.233.239.239 0 00-.234.232c0 .125.109.233.234.233zm-1.527 0a.238.238 0 00.234-.232.238.238 0 00-.234-.233.239.239 0 00-.234.232c0 .125.108.233.234.233zm-13.792 1.43a.123.123 0 00.117-.077.12.12 0 00.009-.048.123.123 0 00-.126-.125.12.12 0 00-.125.125c0 .072.053.125.125.125zm1.535.17a.292.292 0 00.297-.295.297.297 0 00-.297-.295.292.292 0 00-.297.295c0 .17.128.295.297.295zm16.856 1.655a.4.4 0 00.376-.548.4.4 0 00-.376-.249.403.403 0 00-.405.404.397.397 0 00.405.393zm-1.544-1.611a.335.335 0 00.33-.33c0-.189-.152-.348-.33-.348a.349.349 0 00-.343.348c0 .178.152.33.343.33zm-1.52 0c.19 0 .342-.152.342-.33a.347.347 0 00-.342-.348.35.35 0 00-.343.348c0 .178.154.33.343.33zm3.047-.063a.279.279 0 00.278-.276.272.272 0 00-.278-.269.274.274 0 00-.28.269.28.28 0 00.28.277zm-18.366 1.45c.108 0 .198-.09.198-.188a.198.198 0 00-.272-.18.191.191 0 00-.115.18.189.189 0 00.19.189m1.536.168a.362.362 0 00.324-.357.359.359 0 00-.324-.358.37.37 0 00-.37.36c0 .197.172.356.37.356zm18.364.02a.384.384 0 00.387-.376.376.376 0 00-.231-.355.386.386 0 00-.418.077.38.38 0 00.262.654zm1.537-.082a.298.298 0 00.297-.295.293.293 0 00-.297-.296.293.293 0 00-.296.296c0 .16.133.295.296.295zm1.537 1.592a.293.293 0 00.209-.502.299.299 0 00-.209-.088.299.299 0 00-.296.295c0 .17.133.296.296.296zM.208 14.945c.038 0 .063-.024.063-.064s-.027-.065-.063-.065c-.036 0-.059.027-.059.065 0 .038.025.064.06.064zm1.528.197a.261.261 0 00.26-.26.257.257 0 00-.436-.175.255.255 0 00-.075.176c0 .144.117.26.25.26zm1.537.163a.424.424 0 00.423-.421.42.42 0 00-.423-.422.43.43 0 00-.432.42.43.43 0 00.432.423zm19.91-.019c.225 0 .395-.17.395-.394a.38.38 0 00-.244-.357.385.385 0 00-.15-.027.392.392 0 00-.397.546.389.389 0 00.236.212.395.395 0 00.16.02zM.209 16.441a.11.11 0 00.109-.108c0-.053-.054-.108-.109-.108a.109.109 0 00-.106.108c0 .065.043.106.106.106m1.528.188a.298.298 0 00.296-.296.296.296 0 00-.591 0c0 .161.133.296.295.296zm1.537.189a.486.486 0 00.485-.483.482.482 0 00-.485-.483.49.49 0 00-.495.483.49.49 0 00.495.483zM.208 17.994a.142.142 0 00.145-.14.148.148 0 00-.145-.152c-.08 0-.143.07-.143.152a.14.14 0 00.143.142m1.528.197a.343.343 0 00.342-.341.34.34 0 00-.342-.341.332.332 0 00-.331.34c0 .19.142.342.33.342zm1.537.187a.538.538 0 00.53-.528.528.528 0 00-.329-.49.534.534 0 00-.726.388.528.528 0 00.525.63zm22.966-1.6a.446.446 0 00.445-.443.442.442 0 00-.445-.443.45.45 0 00-.45.437.45.45 0 00.45.45zm-1.537 0a.448.448 0 00.45-.438.442.442 0 00-.44-.448.446.446 0 00-.45.438.442.442 0 00.44.448zm3.063 3.058a.446.446 0 00.445-.443.442.442 0 00-.445-.443.452.452 0 00-.45.449c0 .24.208.435.45.435m.01.639a.447.447 0 00-.475.442.442.442 0 00.474.442.45.45 0 00.449-.44.448.448 0 00-.449-.446M.208 19.562a.165.165 0 00.171-.17c0-.092-.072-.162-.17-.162a.162.162 0 00-.163.161c0 .099.073.17.162.17zm1.54.187a.354.354 0 00.357-.36.359.359 0 00-.72.002c0 .207.162.358.362.358zm1.525.195c.304 0 .557-.25.557-.553a.551.551 0 00-.557-.545.551.551 0 000 1.1m26.029-.824a.275.275 0 00-.274.273.272.272 0 00.274.273.274.274 0 00.274-.273.272.272 0 00-.274-.273zm0-.992c.152 0 .27-.125.27-.278a.271.271 0 00-.27-.277.279.279 0 00-.278.277.28.28 0 00.278.278zm-1.537-1.52a.28.28 0 00.28-.277.28.28 0 00-.28-.278.28.28 0 00-.257.277.278.278 0 00.257.278zM.208 21.09c.091 0 .171-.08.171-.17a.17.17 0 00-.17-.171.166.166 0 00-.172.17c0 .091.072.17.171.17zm1.528-.555a.385.385 0 00-.35.24.379.379 0 00.36.521.383.383 0 00.377-.385.38.38 0 00-.387-.376zm1.537.949a.566.566 0 00.524-.347.558.558 0 00.043-.216.56.56 0 00-.567-.573.57.57 0 00-.534.353.562.562 0 00-.04.22c0 .313.25.563.574.563zm26.02-.841a.27.27 0 00-.27.276c0 .152.117.27.27.27a.273.273 0 00.279-.27.278.278 0 00-.28-.276zM.207 22.235a.19.19 0 00-.176.263.19.19 0 00.366-.075.189.189 0 00-.117-.175.19.19 0 00-.073-.013zm1.528-.189a.382.382 0 00-.348.239.377.377 0 00.284.512.382.382 0 00.45-.376.377.377 0 00-.24-.346.384.384 0 00-.146-.029zm1.537-.214a.593.593 0 00-.594.591c0 .331.26.598.594.598a.599.599 0 00.597-.594.593.593 0 00-.597-.595zm24.492.153a.446.446 0 00-.446.444.442.442 0 00.446.443.452.452 0 00.45-.449.446.446 0 00-.45-.438zm-1.526 1.45a.505.505 0 00-.504.5.5.5 0 00.504.503.505.505 0 00.504-.502.5.5 0 00-.504-.502zm-26.03.321a.184.184 0 00-.19.188c0 .107.083.187.191.187a.185.185 0 00.188-.19.183.183 0 00-.19-.185zm1.527-.187a.382.382 0 00-.348.238.377.377 0 00.284.513.381.381 0 00.45-.377.377.377 0 00-.386-.374zm1.537-.216a.595.595 0 00-.55.364.587.587 0 00-.044.227c0 .33.26.588.594.588a.594.594 0 00.592-.59.588.588 0 00-.592-.59zm24.492.25a.343.343 0 00-.343.34.34.34 0 00.343.341.343.343 0 00.342-.34.34.34 0 00-.342-.341zM.208 25.284c-.099 0-.171.072-.171.161 0 .099.072.17.171.17a.171.171 0 00.171-.17c0-.089-.08-.16-.17-.16zm1.528-.214a.382.382 0 00-.348.239.377.377 0 00.284.512.382.382 0 00.45-.376.377.377 0 00-.386-.375zm1.537-.214a.595.595 0 00-.55.365.593.593 0 00.549.825.6.6 0 00.552-.595.595.595 0 00-.551-.595zm22.956.214a.382.382 0 00-.347.239.377.377 0 00.283.512.383.383 0 00.389-.165.378.378 0 00-.325-.586zM1.72 26.636a.361.361 0 00-.36.366.359.359 0 00.36.36.37.37 0 00.369-.36.368.368 0 00-.37-.366zm1.537-.206a.568.568 0 100 1.136.564.564 0 00.524-.782.563.563 0 00-.524-.354zm-3.048.42c-.08 0-.143.065-.143.152a.143.143 0 00.199.132.142.142 0 00.089-.132c0-.09-.063-.152-.145-.152zm1.528 1.331a.332.332 0 00-.331.341c0 .19.142.332.33.332.19 0 .343-.142.343-.332a.341.341 0 00-.342-.34zm1.537-.214a.56.56 0 00-.558.555c0 .296.251.546.558.546a.548.548 0 00.39-.936.551.551 0 00-.39-.165zm-3.065.447a.104.104 0 00-.1.067.104.104 0 00-.006.041c0 .051.043.099.106.099.055 0 .109-.046.109-.099a.108.108 0 00-.109-.108zm1.528 1.316a.318.318 0 00-.314.313c0 .178.144.312.314.312.18 0 .323-.132.323-.312a.318.318 0 00-.323-.313zm1.537-.197a.513.513 0 00-.512.51.508.508 0 10.512-.51zm-3.065.428c-.044 0-.09.04-.09.082 0 .045.046.081.09.081.046 0 .082-.04.082-.081a.08.08 0 00-.082-.08m1.528 1.35a.257.257 0 00-.251.25c0 .144.117.26.25.26a.261.261 0 00.261-.26.257.257 0 00-.26-.25zm19.901.214c-.019 0-.036.02-.036.046 0 .019.02.032.038.032.025 0 .044-.019.044-.032a.044.044 0 00-.028-.043.047.047 0 00-.018-.003zM1.736 32.87a.202.202 0 00-.206.204c0 .116.09.216.206.216a.219.219 0 00.217-.216c0-.117-.1-.204-.217-.204zm1.537-.17a.382.382 0 00-.386.374.378.378 0 00.376.385.382.382 0 00.386-.375.379.379 0 00-.376-.385zm1.527-.171a.554.554 0 00-.552.55.549.549 0 00.942.386.548.548 0 00.158-.39.54.54 0 00-.548-.546zm10.72.081a.464.464 0 100 .93.469.469 0 00.438-.465.465.465 0 00-.438-.465zm1.527.152a.32.32 0 00-.319.317.317.317 0 00.32.317.324.324 0 00.323-.322.318.318 0 00-.324-.312zM1.736 34.487a.123.123 0 00-.091.036.12.12 0 00-.035.09c0 .07.055.126.126.126a.122.122 0 00.127-.125.122.122 0 00-.078-.117.128.128 0 00-.05-.01zm1.537-.17a.294.294 0 00-.297.297c0 .16.126.295.297.295a.299.299 0 00.296-.295.3.3 0 00-.296-.297zm1.527-.142a.45.45 0 00-.449.439.449.449 0 00.898 0 .446.446 0 00-.449-.44zm1.528-.135a.571.571 0 10.009 1.143.571.571 0 00-.01-1.143zm1.537-.062a.642.642 0 00-.592.392.634.634 0 00.466.868.642.642 0 00.763-.626.637.637 0 00-.637-.634zm1.527-.017a.662.662 0 00-.656.653c0 .365.297.651.656.651a.651.651 0 00.607-.4.642.642 0 00.048-.251.649.649 0 00-.404-.604.656.656 0 00-.25-.05zm1.536.043a.616.616 0 00-.62.61c0 .34.279.617.62.617a.613.613 0 000-1.227zm1.529.127a.482.482 0 00-.487.483.486.486 0 00.97 0 .482.482 0 00-.483-.483zm1.525.125a.362.362 0 00-.324.358.359.359 0 00.325.358.364.364 0 00.369-.36.36.36 0 00-.37-.356zm1.538.151a.21.21 0 00-.217.207c0 .117.099.214.217.214a.21.21 0 00.205-.214.203.203 0 00-.205-.206zM.19 31.527l-.018.003a.043.043 0 00-.028.043c0 .019.02.032.046.032.019 0 .046-.019.046-.032 0-.027-.027-.046-.046-.046zm3.082 4.418a.198.198 0 00-.198.19.2.2 0 00.198.195c.099 0 .19-.09.19-.197a.197.197 0 00-.19-.188zM4.8 35.84a.3.3 0 00-.297.295c0 .17.136.296.297.296a.294.294 0 00.21-.504.3.3 0 00-.21-.087zm1.528-.081a.381.381 0 00-.367.457.378.378 0 00.303.294.382.382 0 00.45-.377.377.377 0 00-.24-.348.384.384 0 00-.146-.026zm1.537-.044a.422.422 0 00-.423.428c0 .223.189.42.423.42a.429.429 0 00.388-.424.425.425 0 00-.388-.424zm1.527 0a.422.422 0 00-.422.428c0 .223.188.42.422.42a.436.436 0 00.43-.42.429.429 0 00-.43-.428zm1.536.08a.343.343 0 00-.343.34.34.34 0 00.342.341c.19 0 .333-.151.333-.34a.333.333 0 00-.332-.341zm1.529.134a.212.212 0 00-.211.21.21.21 0 00.21.21.212.212 0 00.212-.21.21.21 0 00-.211-.21zm1.525.125a.082.082 0 00-.08.081c0 .052.035.09.08.09.056 0 .09-.038.09-.09 0-.045-.034-.081-.09-.081zM4.8 37.485a.143.143 0 00-.144.142c0 .081.062.151.144.151.082 0 .152-.07.152-.151 0-.082-.07-.142-.152-.142zm1.528-.044a.19.19 0 00-.19.186c0 .106.09.189.19.189a.19.19 0 00.198-.19.189.189 0 00-.124-.175.19.19 0 00-.074-.01zm1.537 0c-.109 0-.19.08-.19.186s.081.189.19.189a.185.185 0 00.188-.19.184.184 0 00-.19-.187m1.53.046a.143.143 0 00-.145.142c0 .081.063.151.144.151.08 0 .153-.07.153-.151 0-.082-.073-.142-.153-.142zm1.534.08c-.036 0-.072.026-.072.065 0 .04.038.065.072.065a.067.067 0 00.063-.065c0-.034-.036-.066-.063-.066zm-7.654 0c-.036 0-.073.026-.073.065 0 .04.038.065.073.065a.067.067 0 00.062-.065c0-.034-.036-.066-.062-.066zm-1.537-1.493a.061.061 0 00-.063.064c0 .04.028.072.063.072.034 0 .062-.04.062-.072 0-.038-.026-.064-.062-.064zm15.311-1.52c-.038 0-.063.024-.063.064 0 .032.027.064.063.064a.061.061 0 00.063-.064c0-.038-.027-.065-.063-.065z" fill="#0A7AE0"/><path d="M27.002 20.92a.748.748 0 00-.145-.448.72.72 0 00-.063-.59.736.736 0 00.19-.493.704.704 0 00-.152-.435.76.76 0 00.035-.2.748.748 0 00-.162-.463.637.637 0 00.171-.44.638.638 0 00-.407-.598.646.646 0 00-.708.161.726.726 0 00-.475-.051.768.768 0 00-1.214.062l-.046-.072c0-.259-.053-.518-.133-.751a.617.617 0 00.027-.178.71.71 0 00-.576-.697 2.503 2.503 0 00-1.33-.706.285.285 0 00.027-.135.406.406 0 00-.404-.403.408.408 0 00-.395.403c0 .046 0 .09.019.125a2.402 2.402 0 00-.522.133 1.048 1.048 0 00-.253-.08.502.502 0 00.038-.17.414.414 0 00-.405-.402.402.402 0 00-.243.09 2.463 2.463 0 00-1.079-.948.374.374 0 00.19-.33.4.4 0 00-.405-.404.404.404 0 00-.403.369.398.398 0 00.034.195 2.158 2.158 0 00-.413-.038c-.08 0-.161 0-.234.006.01-.046.02-.091.02-.135a.537.537 0 00-.539-.537.607.607 0 00-.297.089 2.504 2.504 0 00-.808-.92.505.505 0 00.034-.171.467.467 0 00-.466-.466c-.19 0-.35.117-.422.278a2.239 2.239 0 00-.514-.053c-.044 0-.097 0-.143.008a.512.512 0 00-.74-.19.513.513 0 00-.184.216 1.887 1.887 0 00-.584-.032.544.544 0 00-.476-.295.531.531 0 00-.477.303c-.099-.006-.19-.019-.287-.019-.09 0-.181.006-.27.019a.539.539 0 00-.22-.705.545.545 0 00-.77.686c-.034.004-.06.004-.097.004a3.3 3.3 0 00-.431.038.552.552 0 00-.824-.242.552.552 0 00-.202.251 2.75 2.75 0 00-.466-.045h-.055a.554.554 0 00-.65-.285.557.557 0 00-.221.124.856.856 0 00-.45-.135.863.863 0 00-.422.116.53.53 0 00-.287-.08c-.036 0-.072 0-.108.006a.864.864 0 00-.539-.197.833.833 0 00-.656.331.424.424 0 00-.647.356c0 .233.189.43.423.43.04 0 .079-.005.116-.019a.81.81 0 00.26.356 3.25 3.25 0 00-.152.286.527.527 0 00-.59.856c.1.099.235.155.375.155h.02c0 .152.016.303.043.455-.02-.006-.036-.006-.063-.006a.608.608 0 00-.566.374.63.63 0 00.206.735.64.64 0 00-.089.448.666.666 0 00-.045.965c-.05.1-.077.21-.08.322a.5.5 0 00.034.197.722.722 0 00-.225.538c0 .26.136.492.343.634a.999.999 0 00-.063.296.786.786 0 000 1.225.764.764 0 00-.063.322.805.805 0 00-.26.59.77.77 0 00.26.582.952.952 0 00-.045.276c0 .038 0 .072.01.099a.792.792 0 00.027 1.129.686.686 0 00-.037.24.754.754 0 00.01.144.793.793 0 00-.064 1.028.939.939 0 00-.036.608.768.768 0 00-.125.42c0 .224.099.43.243.574a.867.867 0 000 .42.788.788 0 00-.028 1.091.942.942 0 00-.02.161c0 .09.02.178.039.26a.809.809 0 00-.234.571c0 .216.09.413.234.555a.754.754 0 00-.038.24c0 .067.011.128.019.19a.784.784 0 00-.215.545c0 .224.09.42.234.563a.934.934 0 00-.036.233c0 .05.01.106.019.16a.786.786 0 00.879 1.288.788.788 0 00.252-.197.834.834 0 00.476.447.795.795 0 00.525 1.37.803.803 0 00.57-.207c.056.008.119.019.181.019a.764.764 0 00.172-.02.85.85 0 00.574.207.855.855 0 00.609-.252c.065.008.127.02.19.02a.615.615 0 00.152-.02c.145.152.35.243.577.243a.788.788 0 00.574-.242c.063.007.126.018.189.018a.836.836 0 00.224-.024.791.791 0 001.15-.027c.064.006.117.02.18.02a.765.765 0 00.17-.02.808.808 0 001.161.044c.123.016.248.01.37-.02a.797.797 0 001.203-.679.728.728 0 00-.146-.456c.238-.064.445-.21.584-.413a.737.737 0 001.209-.619.729.729 0 00-.258-.498c.182-.083.335-.216.441-.385a.84.84 0 00.628.277.886.886 0 00.658-.296c.027 0 .063.008.1.008a.822.822 0 00.304-.064.673.673 0 001.113-.477.667.667 0 00-.162-.463c.093-.137.155-.294.18-.458a.54.54 0 00.082-.089.754.754 0 00.126.008.904.904 0 00.234-.027.703.703 0 00.954-.153.695.695 0 00-.11-.956v-.052a.949.949 0 00.44-.439.783.783 0 00.656.35.783.783 0 001.225-.756.776.776 0 00-.415-.57.785.785 0 00-.353-.086c.193-.094.354-.244.46-.43a.802.802 0 00.911.26.805.805 0 00.525-.786.797.797 0 00-.295-.584.996.996 0 00.396-.42.76.76 0 00.628.312.774.774 0 00.782-.778.768.768 0 00-.37-.663.91.91 0 00.469-.48.72.72 0 001.33-.377.71.71 0 00-.208-.493c.01-.045.01-.08.01-.125a.832.832 0 00-.037-.26.756.756 0 00.324-.624" fill="#0A7AE0"/><path d="M5.59.474c.09 0 .152-.07.152-.144A.145.145 0 005.59.18c-.08 0-.143.066-.143.151 0 .072.063.144.145.144M7.127.412a.092.092 0 00.091-.09.094.094 0 00-.091-.09c-.044 0-.09.045-.09.089 0 .051.046.09.09.09zm7.594 3.05a.092.092 0 00.089-.09.094.094 0 00-.091-.09.092.092 0 00-.09.09c0 .052.038.09.092.09zm3.081 1.52c.053 0 .09-.037.09-.09 0-.045-.038-.08-.092-.08-.043 0-.089.038-.089.08 0 .053.048.09.091.09zM2.491 1.953c.063 0 .108-.046.108-.101 0-.065-.045-.106-.108-.106a.103.103 0 000 .206zm1.537.079a.181.181 0 00.162-.18.18.18 0 00-.162-.178.181.181 0 00-.2.179.18.18 0 00.2.179zm1.527.01a.193.193 0 00.198-.19.196.196 0 00-.198-.193.192.192 0 00-.19.197c0 .108.082.187.19.187m1.537-.011a.181.181 0 00.163-.18.18.18 0 00-.163-.178.181.181 0 00-.199.179.18.18 0 00.125.17c.024.009.05.011.074.009zm1.526-.036c.082 0 .152-.065.152-.142a.155.155 0 00-.152-.152.155.155 0 00-.152.152c0 .081.072.142.152.142zm1.528-.053a.092.092 0 00.09-.09.085.085 0 00-.09-.09.091.091 0 00-.09.09.094.094 0 00.09.09zm1.537-.082c.01 0 .01 0 .01-.005 0-.006 0-.02-.01-.02s-.02.006-.02.02c0 .005.01.005.02.005zM.963 3.48a.114.114 0 00.109-.107c0-.053-.055-.108-.109-.108a.114.114 0 00-.108.108c0 .051.055.106.108.106zm1.528.117a.224.224 0 00.224-.224.227.227 0 00-.224-.225c-.116 0-.215.108-.215.225a.22.22 0 00.215.224zm1.537.106a.329.329 0 00.323-.33.321.321 0 00-.323-.322.332.332 0 00-.333.322c0 .178.152.33.333.33zm1.527.055c.215 0 .387-.17.387-.387a.382.382 0 00-.387-.384.386.386 0 100 .77zm1.537 0a.39.39 0 00.387-.387.388.388 0 00-.746-.147.385.385 0 00.36.534zm1.526-.029a.36.36 0 00.361-.356.364.364 0 00-.36-.36.363.363 0 00-.4.358.358.358 0 00.4.358zm1.528-.062a.292.292 0 00.296-.296.29.29 0 00-.296-.293.297.297 0 00-.297.293.3.3 0 00.297.296zm1.537-.053a.239.239 0 00.234-.24.232.232 0 00-.234-.234.234.234 0 00-.244.233c0 .133.109.24.244.24zm1.527-.09c.08 0 .152-.071.152-.15 0-.08-.072-.145-.152-.145a.144.144 0 00-.134.089.14.14 0 00-.01.055c0 .08.062.152.144.152z" fill="#83B2DD"/><path d="M11.683 1.915c.036 0 .062-.026.062-.066 0-.024-.026-.05-.062-.05-.027 0-.054.026-.054.05 0 .038.027.066.054.066zM8.654.385c.038 0 .063-.026.063-.05 0-.035-.027-.067-.063-.067-.036 0-.053.027-.053.066 0 .025.019.051.053.051zm-4.653 0c.034 0 .063-.026.063-.05 0-.035-.029-.067-.063-.067-.026 0-.055.027-.055.066 0 .025.027.051.055.051zM.963 5.063c.09 0 .162-.07.162-.17a.168.168 0 00-.162-.162.168.168 0 00-.161.161c0 .1.072.17.161.17zm1.528.144c.18 0 .314-.135.314-.313a.302.302 0 00-.314-.305.305.305 0 00-.305.303c0 .18.134.315.305.315zm1.537.178a.496.496 0 00.494-.493.487.487 0 00-.494-.483.492.492 0 00-.495.483c0 .279.225.493.495.493zm1.527.089c.324 0 .584-.26.584-.582a.58.58 0 00-.584-.572.58.58 0 00-.584.572c0 .322.261.582.584.582zm1.537 0a.58.58 0 00.53-.358.573.573 0 00-.421-.782.58.58 0 00-.693.558c0 .322.261.582.584.582zm1.526-.027c.304 0 .548-.24.548-.553a.55.55 0 00-.548-.547.55.55 0 00-.548.547c0 .313.244.553.548.553zm1.528-.062a.485.485 0 00.456-.68.481.481 0 00-.456-.296.485.485 0 00-.486.483c0 .279.217.493.486.493zm1.537-.072a.42.42 0 00.383-.26.415.415 0 00-.305-.565.42.42 0 00-.5.404c0 .233.19.42.422.42zm1.527-.07a.34.34 0 00.342-.341.348.348 0 00-.342-.349.348.348 0 00-.342.349c0 .189.152.34.342.34zm1.528-.082a.267.267 0 00.27-.267.261.261 0 00-.27-.26.261.261 0 00-.26.26.26.26 0 00.26.267zm1.537-.089a.181.181 0 00.178-.18c0-.098-.081-.17-.178-.17-.1 0-.181.072-.181.17 0 .099.082.18.18.18zm1.527-.098a.079.079 0 00.075-.05.076.076 0 00.005-.032c0-.038-.036-.07-.082-.07a.076.076 0 00-.07.07c0 .046.038.082.072.082zM.963 6.61c.109 0 .198-.08.198-.188a.198.198 0 00-.198-.197.192.192 0 00-.188.197c0 .106.082.19.19.19m1.526.168a.36.36 0 00.361-.358.361.361 0 00-.361-.358.352.352 0 00-.35.36c0 .199.152.356.35.356zm1.537.231a.59.59 0 100-1.18.595.595 0 00-.603.591c0 .33.27.59.603.59zm1.527.163a.758.758 0 00.705-.462.749.749 0 00-.165-.827.765.765 0 00-1.076 0 .752.752 0 00-.219.537c0 .42.333.752.755.752zm1.537 0a.762.762 0 00.708-.756.756.756 0 00-.708-.755.766.766 0 00-.706.468.756.756 0 00.706 1.043zm1.526-.027a.723.723 0 100-1.448.728.728 0 00-.672.446.723.723 0 00.672 1.002zm1.528-.054a.675.675 0 00.673-.67.669.669 0 00-.673-.671.67.67 0 000 1.34zm1.537-.082a.594.594 0 00.592-.59.589.589 0 00-.592-.59.593.593 0 00-.601.591c0 .33.268.59.6.59zm1.527-.07a.523.523 0 00.521-.519.518.518 0 00-.52-.519.522.522 0 00-.522.52.517.517 0 00.521.518zm1.528-.072a.452.452 0 00.449-.447.442.442 0 00-.445-.443.446.446 0 00-.446.443c0 .243.198.447.442.447zm1.537-.089a.362.362 0 00.356-.43.36.36 0 00-.494-.262.361.361 0 00-.117.588.36.36 0 00.255.104zm1.527-.09a.267.267 0 10-.002-.535.27.27 0 00-.268.267c0 .144.126.27.268.27m1.537-.109a.161.161 0 100-.322.155.155 0 00-.161.161c0 .09.063.161.161.161zm1.528-.098c.036 0 .063-.025.063-.065s-.027-.064-.063-.064a.067.067 0 00-.063.064c0 .033.036.065.063.065zM.963 8.147a.202.202 0 00.208-.204.204.204 0 00-.208-.207.204.204 0 00-.205.209.2.2 0 00.205.202zm1.528.2a.403.403 0 00.405-.404.406.406 0 00-.405-.402.406.406 0 00-.282.685.4.4 0 00.282.12zm1.537.285a.692.692 0 00.683-.69.677.677 0 00-.423-.628.692.692 0 00-.952.63c0 .376.313.688.692.688zm1.527.072a.762.762 0 00.708-.756.756.756 0 00-.708-.755.756.756 0 00-.697.462.755.755 0 00.698 1.049zm1.537 0a.763.763 0 00.702-.469.754.754 0 00-.555-1.031.764.764 0 00-.78.32.755.755 0 00.632 1.178" fill="#83B2DD"/><path d="M8.618 8.704a.762.762 0 00.707-.756.756.756 0 00-.707-.755.763.763 0 00-.763.75c0 .42.343.761.763.761zm1.527 0a.762.762 0 00.708-.756.756.756 0 00-.707-.755.762.762 0 00-.708.755.756.756 0 00.707.756zm1.538-.019a.746.746 0 00.689-.458.738.738 0 00-.163-.806.736.736 0 00-.526-.211.735.735 0 00-.746.733c0 .41.333.742.746.742zm1.527-.053a.692.692 0 00.683-.69.678.678 0 00-.683-.68.685.685 0 00-.683.68c0 .378.305.69.683.69zm1.528-.081a.61.61 0 00.62-.606.606.606 0 00-.61-.608.612.612 0 00-.611.608.6.6 0 00.6.606zm1.537-.09a.524.524 0 00.481-.32.517.517 0 00-.481-.717.523.523 0 00-.521.519.518.518 0 00.52.519zm1.527-.088a.43.43 0 00.438-.42.438.438 0 00-.438-.44.438.438 0 00-.432.44c0 .23.2.42.432.42zm1.535-.09c.19 0 .343-.143.343-.33a.341.341 0 00-.343-.351.338.338 0 00-.342.35.33.33 0 00.342.332zm1.528-.09a.245.245 0 00.234-.34.25.25 0 00-.234-.16.26.26 0 00-.251.26c0 .132.116.24.25.24zm1.527-.116c.082 0 .145-.051.145-.134 0-.072-.063-.135-.145-.135-.072 0-.125.065-.125.135 0 .08.053.134.125.134zM.963 9.697a.229.229 0 00.225-.224.222.222 0 00-.225-.226.222.222 0 00-.157.383.229.229 0 00.157.066zm1.528.187a.42.42 0 00.422-.411.42.42 0 00-.84-.004.416.416 0 00.418.415zm1.537.286a.704.704 0 00.737-.7.696.696 0 00-.46-.654.705.705 0 00-.944.656.697.697 0 00.665.698" fill="#83B2DD"/><path d="M5.555 10.224a.759.759 0 00.705-.462.749.749 0 000-.58.759.759 0 00-.705-.47.758.758 0 00-.7.47.749.749 0 00-.055.29c0 .421.333.752.755.752zm1.537 0A.762.762 0 007.8 9.47a.756.756 0 00-.708-.756.766.766 0 00-.706.467.757.757 0 00.706 1.044zm1.526 0a.758.758 0 00.706-.461.758.758 0 00-.705-1.05.766.766 0 00-.764.76c0 .42.343.751.763.751zm1.528 0a.758.758 0 00.706-.461.748.748 0 000-.582.76.76 0 00-1.24-.244.756.756 0 00.534 1.287zm1.537 0a.75.75 0 00.755-.751.748.748 0 00-.464-.703.758.758 0 00-.584-.001.764.764 0 00-.472.704c0 .42.342.751.765.751zm1.527 0a.759.759 0 00.705-.462.75.75 0 000-.58.758.758 0 00-1.24-.245.756.756 0 00.535 1.287zm1.528-.01a.748.748 0 00.745-.741.74.74 0 10-.745.742zm1.537-.079a.673.673 0 00.673-.662.67.67 0 00-.674-.672.676.676 0 00-.675.672.67.67 0 00.676.662zm1.527-.09a.578.578 0 00.538-.795.581.581 0 00-.54-.359.582.582 0 00-.58.578.576.576 0 00.58.577m1.537-.073a.505.505 0 00.503-.501.5.5 0 00-.503-.501.506.506 0 00-.504.502.5.5 0 00.504.5zm1.528-.106a.402.402 0 00.405-.394.398.398 0 00-.405-.404.404.404 0 00-.403.404.397.397 0 00.403.394zm1.527-.091a.306.306 0 00.29-.185.302.302 0 00.024-.118.304.304 0 00-.314-.315.306.306 0 00-.304.315.3.3 0 00.304.303zm1.536-.116c.108 0 .19-.081.19-.19a.19.19 0 00-.19-.194.198.198 0 00-.196.197c0 .108.09.187.198.187m1.527-.115c.044 0 .08-.04.08-.072 0-.046-.036-.072-.08-.072a.07.07 0 00-.072.072c0 .038.036.072.072.072zM.963 11.234a.24.24 0 00.244-.24c0-.135-.109-.234-.244-.234a.233.233 0 00-.241.233c0 .133.106.24.241.24zm1.528.17c.234 0 .422-.18.422-.41a.415.415 0 00-.422-.414.415.415 0 00-.414.412.411.411 0 00.414.412zm1.537.286a.703.703 0 00.7-.7.697.697 0 00-.702-.697.704.704 0 00-.702.698.697.697 0 00.702.699m1.53.063a.766.766 0 00.763-.76.758.758 0 00-.764-.761.758.758 0 00-.7.47.749.749 0 00-.055.291c0 .42.333.76.755.76zm1.536-.001a.763.763 0 00.754-.759.756.756 0 00-.755-.761.765.765 0 00-.764.76.759.759 0 00.765.76z" fill="#83B2DD"/><path d="M8.618 11.752a.765.765 0 00.763-.759.757.757 0 00-.471-.701.765.765 0 00-1.055.701.757.757 0 00.763.76z" fill="#83B2DD"/><path d="M10.146 11.752a.765.765 0 00.763-.76.759.759 0 10-.763.76zm1.537 0c.422 0 .755-.34.755-.759a.75.75 0 00-.464-.703.766.766 0 00-1.055.702.759.759 0 00.764.76zm1.527 0a.765.765 0 00.764-.76.759.759 0 10-.764.76zm1.528 0a.765.765 0 00.764-.76.758.758 0 00-.764-.76.762.762 0 00-.755.761.755.755 0 00.755.76zm1.537 0c.422 0 .753-.34.753-.759a.75.75 0 00-.753-.761.765.765 0 00-.764.76.758.758 0 00.764.76zm1.527-.036a.73.73 0 00.736-.723.727.727 0 00-.732-.729.734.734 0 00-.732.73.73.73 0 00.728.723zm1.535-.088a.64.64 0 00.638-.635.637.637 0 00-.638-.634.64.64 0 00-.646.634c0 .35.287.634.646.634zm1.528-.091a.55.55 0 00.557-.544.549.549 0 00-.552-.55.554.554 0 00-.553.55c0 .303.242.544.548.544zm1.527-.097a.449.449 0 00.416-.275.448.448 0 00-.416-.618.45.45 0 00-.439.446c0 .25.196.447.44.447zm1.536-.108a.343.343 0 00.367-.34.339.339 0 00-.229-.322.343.343 0 00-.138-.018.343.343 0 00-.343.341.34.34 0 00.343.34zm1.529-.117a.223.223 0 00.224-.222.227.227 0 00-.224-.225.235.235 0 00-.226.225.226.226 0 00.226.222zm1.535-.114c.055 0 .1-.053.1-.108 0-.053-.045-.108-.1-.108a.109.109 0 00-.106.108c0 .051.043.108.106.108zM.963 12.754a.24.24 0 00.244-.24.24.24 0 00-.244-.233.239.239 0 00-.241.233c0 .132.106.24.241.24zm1.528.197a.439.439 0 00.441-.428.438.438 0 00-.606-.403.431.431 0 00-.258.403c0 .231.19.428.423.428zm1.537.252a.688.688 0 00.633-.426.68.68 0 00.05-.263.677.677 0 00-.685-.682.692.692 0 00-.69.682.69.69 0 00.692.687m1.527.072a.76.76 0 00.763-.76.756.756 0 00-.763-.751.755.755 0 100 1.511zm1.537 0a.763.763 0 00.702-.468.754.754 0 00-.555-1.032.764.764 0 00-.78.32.755.755 0 00.633 1.18z" fill="#83B2DD"/><path d="M8.618 13.273a.763.763 0 00.765-.76.756.756 0 00-.765-.751.763.763 0 00-.763.752c0 .42.343.759.763.759z" fill="#83B2DD"/><path d="M10.146 13.273c.422 0 .764-.34.764-.76a.755.755 0 00-.47-.697.765.765 0 00-.829.164.757.757 0 00.535 1.293zm1.537 0a.755.755 0 00.698-1.047.75.75 0 00-.698-.464.763.763 0 00-.765.752c0 .42.342.76.765.76z" fill="#83B2DD"/><path d="M13.21 13.273a.756.756 0 00.292-1.458.765.765 0 00-.828.165.757.757 0 00.536 1.293z" fill="#83B2DD"/><path d="M14.738 13.273a.76.76 0 00.763-.76.755.755 0 00-.471-.697.765.765 0 00-.829.164.757.757 0 00.537 1.293zm1.537 0c.422 0 .753-.34.753-.76a.749.749 0 00-.753-.75.763.763 0 00-.765.75c0 .421.342.76.765.76z" fill="#83B2DD"/><path d="M17.802 13.273a.755.755 0 00.29-1.458.765.765 0 00-.828.165.758.758 0 00.114 1.165.77.77 0 00.424.128zm1.535 0a.755.755 0 00.699-1.047.751.751 0 00-.699-.464.763.763 0 00-.762.752c0 .42.342.76.762.76zm1.528-.07a.688.688 0 00.633-.426.68.68 0 00.05-.263.678.678 0 00-.683-.68.685.685 0 10.002 1.367m1.525-.106a.573.573 0 00.224-1.109.581.581 0 00-.785.42.574.574 0 00.561.69zm1.536-.1a.482.482 0 00.45-.478.478.478 0 00-.45-.478.482.482 0 00-.482.479.478.478 0 00.482.477zm1.529-.123a.356.356 0 00.355-.353.352.352 0 00-.355-.354.346.346 0 00-.327.214.341.341 0 00-.025.135c0 .204.152.358.352.358zm1.535-.118a.239.239 0 00.215-.148.236.236 0 00-.173-.32.239.239 0 00-.285.226.24.24 0 00.243.242zm1.528-.134a.104.104 0 00.108-.108c0-.051-.046-.098-.108-.098a.1.1 0 00-.1.098c0 .066.046.108.1.108zM.963 14.294a.252.252 0 00.251-.252.244.244 0 00-.25-.25.244.244 0 00-.252.25c0 .134.109.252.251.252zm1.528.178a.438.438 0 00.441-.43.43.43 0 00-.441-.428.43.43 0 000 .858zm1.537.233a.673.673 0 00.62-.667.667.667 0 00-.62-.666.68.68 0 00-.674.67.67.67 0 00.674.663zm1.527.089a.759.759 0 00.705-.463.749.749 0 00-.165-.826.765.765 0 00-1.076 0 .751.751 0 00-.219.537c0 .42.333.752.755.752zm1.537 0a.762.762 0 00.708-.756.756.756 0 00-.708-.755.766.766 0 00-.706.468.756.756 0 00.706 1.043zm1.526 0a.756.756 0 00.765-.752.758.758 0 00-.764-.76.765.765 0 00-.764.76c0 .42.343.752.763.752zm1.528 0a.756.756 0 00.764-.752.756.756 0 00-.472-.702.763.763 0 00-1.046.702c0 .42.34.752.754.752zm1.537 0a.751.751 0 00.7-.463.74.74 0 00.055-.289.748.748 0 00-.465-.701.758.758 0 00-.583-.001.76.76 0 00-.472.702c0 .42.342.752.765.752z" fill="#83B2DD"/><path d="M13.2 14.794a.76.76 0 00.707-.462.75.75 0 00-.165-.828.766.766 0 00-1.304.538c0 .42.342.752.763.752zm1.538 0a.757.757 0 00.763-.752.758.758 0 00-.763-.76.763.763 0 00-.755.76c0 .42.342.752.755.752zm1.537 0a.753.753 0 00.698-.464.739.739 0 00.055-.288.747.747 0 00-.463-.7.757.757 0 00-.583-.002.766.766 0 00-.414.411.755.755 0 00.706 1.043zm1.527 0a.76.76 0 00.703-.463.749.749 0 00-.165-.825.764.764 0 00-.538-.223.763.763 0 00-.755.759c0 .42.344.752.755.752zm1.535 0a.751.751 0 00.7-.463.742.742 0 00.056-.289.75.75 0 00-.465-.701.76.76 0 00-.83.164.755.755 0 00.54 1.289zm1.528 0a.76.76 0 00.706-.462.75.75 0 00-.165-.828.766.766 0 00-1.304.538c0 .42.343.752.763.752zm1.527-.053a.71.71 0 00.71-.699.705.705 0 00-1.35-.266.688.688 0 00-.052.266c0 .386.304.699.692.699zm1.545-.072a.604.604 0 00.602-.6.598.598 0 00-.602-.599.603.603 0 00-.602.6.598.598 0 00.602.599zm1.52-.207a.396.396 0 00.394-.392.398.398 0 00-.394-.393.39.39 0 00-.388.393.39.39 0 00.388.392zm1.535-.08a.343.343 0 00.368-.339.339.339 0 00-.23-.322.343.343 0 00-.455.322.34.34 0 00.317.34zm1.528-.134a.203.203 0 00.207-.206.201.201 0 00-.207-.204.202.202 0 00-.206.204c0 .116.09.206.206.206zm1.537-.134c.036 0 .072-.038.072-.072a.069.069 0 00-.045-.065.07.07 0 00-.027-.005c-.046 0-.082.025-.082.07 0 .04.038.072.082.072zM.963 15.812a.248.248 0 00.178-.426.252.252 0 00-.356.354.245.245 0 00.178.072zm1.528.18a.434.434 0 00.441-.43.434.434 0 00-.74-.3.427.427 0 00-.123.3c0 .243.19.43.422.43zm1.537.214a.644.644 0 00.608-.639.639.639 0 00-.608-.639.64.64 0 00-.591.391.63.63 0 00-.048.244c0 .36.28.643.639.643zm1.527.118a.763.763 0 00.708-.756.756.756 0 00-.708-.755.759.759 0 00-.697.462.755.755 0 00.698 1.049zm1.537 0a.763.763 0 00.702-.469.754.754 0 00-.555-1.031.764.764 0 00-.78.32.755.755 0 00.632 1.178" fill="#83B2DD"/><path d="M8.618 16.323a.762.762 0 00.707-.755.756.756 0 00-.707-.756.763.763 0 00-.763.75c0 .42.343.761.763.761zm1.528 0a.762.762 0 00.707-.755.756.756 0 00-.707-.756.763.763 0 00-.708.756.756.756 0 00.708.755zm1.537 0a.755.755 0 00.698-1.049.748.748 0 00-.698-.463.762.762 0 00-.765.751c0 .42.342.761.765.761zm1.527 0a.762.762 0 00.707-.755.756.756 0 00-.707-.756.763.763 0 00-.707.756.756.756 0 00.707.755zm1.528 0a.762.762 0 00.707-.755.756.756 0 00-.707-.756.763.763 0 00-.707.756.756.756 0 00.707.755zm1.537 0c.422 0 .753-.34.753-.76a.745.745 0 00-.465-.695.762.762 0 00-1.053.694c0 .42.342.761.765.761zm1.527 0a.762.762 0 00.707-.755.756.756 0 00-.707-.756.763.763 0 00-.707.756.756.756 0 00.707.755zm1.535 0a.755.755 0 00.699-1.049.75.75 0 00-.699-.463.763.763 0 00-.762.751c0 .42.342.761.762.761zm1.528 0a.762.762 0 00.707-.755.756.756 0 00-.707-.756.763.763 0 00-.763.75c0 .42.343.761.763.761zm1.527 0a.762.762 0 00.708-.755.756.756 0 00-.708-.756.763.763 0 00-.707.756.756.756 0 00.707.755zm1.536-.098a.668.668 0 00.665-.663.661.661 0 00-.665-.662.667.667 0 00-.666.662.661.661 0 00.666.663zm1.529-.144a.523.523 0 00.521-.519.518.518 0 00-.521-.518.522.522 0 00-.521.518.518.518 0 00.521.52zm1.535-.132c.217 0 .386-.17.386-.387a.382.382 0 00-.386-.384.385.385 0 100 .769m1.528-.099a.287.287 0 00.265-.175.282.282 0 000-.216.28.28 0 00-.263-.171.28.28 0 00-.28.276.28.28 0 00.278.286zm1.537-.151c.072 0 .125-.065.125-.133 0-.074-.053-.136-.125-.136-.082 0-.145.064-.145.134 0 .072.063.135.145.135zM.963 17.342a.252.252 0 00.251-.25.251.251 0 10-.502 0c0 .133.109.25.251.25zm1.528.161a.42.42 0 00.422-.41.42.42 0 00-.84-.005.416.416 0 00.418.415zm1.537.197a.62.62 0 00.61-.608.606.606 0 00-.376-.561.613.613 0 00-.833.443.605.605 0 00.26.624c.1.067.218.102.339.102zm1.527.142a.758.758 0 00.704-.46.75.75 0 00-.164-.828.764.764 0 00-1.077 0 .751.751 0 00-.218.538c0 .42.333.752.755.752m1.537-.002a.762.762 0 00.708-.755.756.756 0 00-.708-.756.768.768 0 00-.707.47.755.755 0 00.705 1.043" fill="#83B2DD"/><path d="M8.618 17.842a.757.757 0 00.765-.75.758.758 0 00-.764-.76.765.765 0 00-.764.76c0 .42.343.752.763.752m1.528-.002a.758.758 0 00.705-.46.75.75 0 00-.164-.829.763.763 0 00-.541-.222.763.763 0 00-.754.761c0 .42.34.752.754.752m1.537-.002a.75.75 0 00.7-1.04.75.75 0 00-.7-.47.764.764 0 00-.765.76c0 .42.342.752.765.752m1.527-.002a.758.758 0 00.704-.46.75.75 0 00-.164-.828.764.764 0 00-.54-.223.763.763 0 00-.755.761c0 .42.342.752.755.752m1.528-.002a.759.759 0 00.704-.46.748.748 0 00.001-.58.76.76 0 00-1.46.29c0 .42.342.752.755.752m1.537-.002a.75.75 0 00.697-.462.74.74 0 00.056-.288.75.75 0 00-.753-.76.764.764 0 00-.765.76c0 .42.342.752.765.752m1.527-.002a.756.756 0 00.761-.75.757.757 0 10-1.516 0c0 .42.342.752.753.752m1.537-.002a.748.748 0 00.756-.75.752.752 0 00-.756-.76.767.767 0 00-.705.47.755.755 0 00.705 1.043m1.528-.003a.757.757 0 00.765-.75.758.758 0 00-.764-.76.765.765 0 00-.764.76c0 .42.343.752.763.752m1.527-.002a.758.758 0 00.704-.46.75.75 0 00-.163-.828.764.764 0 00-.54-.223.763.763 0 00-.756.761c0 .42.343.752.755.752m1.536-.045a.715.715 0 00.713-.71.708.708 0 00-.713-.71.716.716 0 00-.715.71.71.71 0 00.715.71zm1.529-.099a.613.613 0 00.563-.376.605.605 0 00-.447-.828.613.613 0 00-.729.596c0 .332.28.608.613.608zm1.535-.17a.442.442 0 10-.09-.878.446.446 0 00-.35.35.441.441 0 00.442.528m1.526-.142a.302.302 0 00.301-.3.3.3 0 00-.301-.3.302.302 0 00-.302.3.3.3 0 00.302.3zm1.537-.135a.16.16 0 00.161-.16c0-.09-.072-.171-.161-.171a.171.171 0 00-.171.17c0 .09.072.161.17.161zM.963 18.865a.249.249 0 00.251-.252.243.243 0 00-.25-.25.243.243 0 00-.252.25c0 .144.109.25.251.25m1.528.153a.403.403 0 00.405-.403.406.406 0 00-.405-.404.408.408 0 00-.367.556.397.397 0 00.214.218.4.4 0 00.153.033zm1.537.188a.59.59 0 100-1.182.6.6 0 00-.603.59c0 .33.27.592.603.592zm1.527.168a.765.765 0 00.764-.76.758.758 0 00-.764-.76.76.76 0 00-.7.47.749.749 0 00-.055.29c0 .421.333.76.755.76zm1.537 0a.762.762 0 00.754-.76.755.755 0 00-.755-.76.766.766 0 00-.764.76.758.758 0 00.765.76zm1.526 0a.765.765 0 00.763-.76.758.758 0 00-.763-.758.765.765 0 00-.763.759.758.758 0 00.763.76z" fill="#83B2DD"/><path d="M10.146 19.372a.765.765 0 00.763-.76.759.759 0 10-.763.76zm1.537 0c.422 0 .755-.34.755-.76a.75.75 0 00-.755-.76.766.766 0 00-.764.76.758.758 0 00.764.76zm1.527 0a.765.765 0 00.764-.76.759.759 0 10-.764.76z" fill="#83B2DD"/><path d="M14.738 19.372a.765.765 0 00.764-.76.758.758 0 00-.764-.76.762.762 0 00-.535 1.296.763.763 0 00.535.224z" fill="#83B2DD"/><path d="M16.275 19.372c.422 0 .753-.34.753-.76a.75.75 0 00-.463-.702.757.757 0 00-.83.164.759.759 0 00.54 1.298zm1.527 0a.765.765 0 00.764-.76.758.758 0 00-.764-.76.762.762 0 00-.755.76.756.756 0 00.755.76zm1.535 0c.423 0 .756-.34.756-.76a.75.75 0 00-.756-.76.766.766 0 00-.763.76.758.758 0 00.763.76zm1.528 0a.765.765 0 00.763-.76.758.758 0 00-.763-.758.765.765 0 00-.763.759.758.758 0 00.763.76z" fill="#83B2DD"/><path d="M22.392 19.372a.765.765 0 00.764-.76.759.759 0 10-.764.76zm1.536 0a.765.765 0 00.763-.758.758.758 0 00-.761-.76.765.765 0 00-.763.759.758.758 0 00.763.76" fill="#83B2DD"/><path d="M25.457 19.372a.765.765 0 00.764-.76.759.759 0 10-.764.76zm1.535-.26a.504.504 0 00.503-.5.5.5 0 00-.503-.501.51.51 0 00-.512.502c0 .276.234.5.514.5m1.526-.188a.319.319 0 00.316-.312.318.318 0 00-.316-.313.317.317 0 00-.314.313c0 .17.143.312.314.312zm1.537-.151a.161.161 0 100-.322c-.1 0-.171.072-.171.16 0 .09.072.162.17.162zm-29.094 1.6a.242.242 0 00.244-.24.24.24 0 00-.244-.234.239.239 0 00-.241.233c0 .133.106.24.241.24zm1.528.153a.393.393 0 00.364-.389.39.39 0 00-.364-.39.396.396 0 00-.386.385c0 .214.178.394.386.394zm1.537.169a.564.564 0 00.565-.563.57.57 0 00-.565-.564.57.57 0 00-.567.564c0 .313.251.563.567.563zm1.527.18a.744.744 0 00.742-.739.737.737 0 00-.742-.738.745.745 0 00-.685.456.735.735 0 00.401.964c.09.038.187.057.284.057z" fill="#83B2DD"/><path d="M7.092 20.893a.764.764 0 00.702-.469.754.754 0 00-.555-1.031.764.764 0 00-.78.32.759.759 0 00.634 1.18z" fill="#83B2DD"/><path d="M8.618 20.893c.422 0 .765-.34.765-.76a.756.756 0 00-.765-.751.763.763 0 00-.763.752c0 .42.343.759.763.759z" fill="#83B2DD"/><path d="M10.146 20.893a.762.762 0 00.764-.76.755.755 0 00-.47-.698.764.764 0 00-1.037.552.754.754 0 00.323.777c.124.084.27.128.42.129zm1.537 0a.754.754 0 00.698-1.047.75.75 0 00-.698-.464.763.763 0 00-.765.752c0 .42.342.759.765.759z" fill="#83B2DD"/><path d="M13.21 20.893a.755.755 0 00.292-1.458.764.764 0 00-1.036.552.755.755 0 00.322.777.764.764 0 00.422.129z" fill="#83B2DD"/><path d="M14.738 20.893a.762.762 0 00.763-.76.755.755 0 00-.471-.698.764.764 0 00-1.037.552.753.753 0 00.323.777.764.764 0 00.422.129zm1.537 0a.753.753 0 00.753-.76.749.749 0 00-.753-.751.763.763 0 00-.765.752c0 .42.342.759.765.759z" fill="#83B2DD"/><path d="M17.802 20.893c.42 0 .761-.341.761-.76a.755.755 0 00-.47-.698.764.764 0 00-1.037.552.755.755 0 00.322.777.77.77 0 00.424.129zm1.535 0a.754.754 0 00.699-1.047.75.75 0 00-.699-.464.763.763 0 00-.762.752c0 .42.342.759.762.759zm1.528 0a.763.763 0 00.765-.76.756.756 0 00-.765-.751.763.763 0 00-.763.752c0 .42.343.759.763.759z" fill="#83B2DD"/><path d="M22.392 20.893a.76.76 0 00.763-.76.754.754 0 00-.47-.698.764.764 0 00-1.037.552.754.754 0 00.322.777.764.764 0 00.422.129zm1.536 0a.761.761 0 00.764-.76.755.755 0 00-.762-.751.763.763 0 00-.765.752c0 .42.342.759.765.759" fill="#83B2DD"/><path d="M25.457 20.893a.755.755 0 00.292-1.458.764.764 0 00-1.036.552.755.755 0 00.322.777.764.764 0 00.422.129zm1.508-.26a.482.482 0 00.486-.475.478.478 0 00-.478-.483.482.482 0 00-.485.476.478.478 0 00.477.482zm1.555-.187a.311.311 0 00.315-.313.31.31 0 00-.315-.302.308.308 0 00-.314.303c0 .177.143.312.314.312zm1.537-.18c.072 0 .125-.051.125-.132 0-.073-.053-.135-.125-.135-.082 0-.145.064-.145.133 0 .081.063.136.145.136M.963 21.887a.221.221 0 00.225-.224.222.222 0 00-.225-.225.222.222 0 00-.224.226.22.22 0 00.224.223zm1.528.142a.372.372 0 00.378-.367.378.378 0 00-.378-.375.378.378 0 00-.37.375c0 .204.172.367.37.367zm1.537.151a.522.522 0 00.521-.518.518.518 0 00-.521-.52.522.522 0 00-.521.52.518.518 0 00.52.518zm1.527.161c.377 0 .69-.303.69-.68a.686.686 0 00-.69-.677.686.686 0 00-.663.41.677.677 0 00.391.906c.087.032.18.046.272.041zm1.537.072a.763.763 0 00.708-.755.756.756 0 00-.708-.756.766.766 0 00-.706.469.755.755 0 00.706 1.043zm1.526 0a.76.76 0 00.706-.462.759.759 0 00-.705-1.05.765.765 0 00-.764.76c0 .423.343.752.763.752zm1.527 0a.76.76 0 00.707-.462.75.75 0 00-.166-.827.765.765 0 00-.54-.222.763.763 0 00-.754.76c0 .422.34.751.754.751zm1.538 0a.751.751 0 00.7-.462.742.742 0 00.055-.29.749.749 0 00-.465-.7.76.76 0 00-.583-.002.764.764 0 00-.472.703c0 .422.342.751.765.751zm1.527 0a.76.76 0 00.705-.462.757.757 0 00-.705-1.049.763.763 0 00-.755.76.75.75 0 00.755.751zm1.528 0a.759.759 0 00.704-.462.749.749 0 00-.165-.826.764.764 0 00-.54-.223.763.763 0 00-.755.76c0 .422.343.751.756.751zm1.537 0a.75.75 0 00.698-.463.743.743 0 00.055-.288.749.749 0 00-.463-.701.757.757 0 00-.583-.002.764.764 0 00-.472.703c0 .422.342.751.765.751zm1.527 0a.76.76 0 00.703-.462.749.749 0 00-.165-.826.765.765 0 00-.538-.223.763.763 0 00-.755.76c0 .422.344.751.755.751zm1.535 0a.751.751 0 00.7-.462.743.743 0 00.056-.29.749.749 0 00-.465-.7.759.759 0 00-.83.164.753.753 0 00.54 1.289zm1.528 0a.76.76 0 00.706-.462.759.759 0 00-.705-1.05.765.765 0 00-.764.76c0 .423.343.752.763.752zm1.527 0a.76.76 0 00.705-.462.757.757 0 00-.705-1.049.763.763 0 00-.755.76c0 .422.343.751.755.751zm1.536 0a.76.76 0 00.706-.462.75.75 0 00-.165-.827.766.766 0 00-1.304.538c0 .422.342.751.765.751m1.527 0a.759.759 0 00.705-.462.749.749 0 00-.166-.826.765.765 0 00-.539-.223.762.762 0 00-.755.76.75.75 0 00.755.751zm1.535-.303a.443.443 0 00.45-.448.448.448 0 00-.45-.455.455.455 0 00-.454.452.45.45 0 00.454.451zm1.528-.197a.252.252 0 00.096-.483.252.252 0 00-.348.232c0 .134.117.251.252.251zm1.537-.16c.045 0 .08-.046.08-.091 0-.052-.035-.09-.08-.09a.089.089 0 00-.064.026.088.088 0 00-.026.064c0 .045.035.09.09.09zM.963 23.389a.203.203 0 00.208-.207.201.201 0 00-.208-.204.202.202 0 00-.205.204c0 .116.09.207.205.207zm1.528.134a.34.34 0 00.324-.208.343.343 0 00-.324-.474.341.341 0 00-.343.341c0 .197.153.341.343.341zm1.537.08a.412.412 0 00.413-.42.41.41 0 00-.413-.412.42.42 0 00-.422.411c0 .233.188.42.422.42zm1.527.223a.64.64 0 100-1.278.644.644 0 00-.608.639.639.639 0 00.608.639zm1.537.117a.762.762 0 00.754-.76.746.746 0 00-.467-.694.757.757 0 00-.289-.057.758.758 0 00-.704.461.748.748 0 00-.058.29c0 .421.344.76.764.76zm1.526 0a.763.763 0 00.706-1.05.752.752 0 00-.706-.46.758.758 0 00-.704.46.761.761 0 00.704 1.05zm1.527 0c.423 0 .765-.34.765-.76a.75.75 0 00-.764-.75.762.762 0 00-.708.755.756.756 0 00.707.755zm1.538 0c.422 0 .755-.34.755-.76a.74.74 0 00-.466-.696.75.75 0 00-.29-.055.757.757 0 00-.764.75c0 .422.342.761.765.761zm1.527 0a.761.761 0 00.704-1.05.753.753 0 00-.704-.46.762.762 0 00-.707.755.755.755 0 00.707.755zm1.528 0a.761.761 0 00.704-1.05.751.751 0 00-.704-.46.762.762 0 00-.707.755.756.756 0 00.707.755zm1.537 0c.422 0 .753-.34.753-.76a.74.74 0 00-.464-.695.75.75 0 00-.29-.056.757.757 0 00-.764.75c0 .422.342.761.765.761zm1.527 0a.761.761 0 00.703-1.05.754.754 0 00-.703-.46.762.762 0 00-.707.755.755.755 0 00.707.755zm1.535 0c.423 0 .756-.34.756-.76a.742.742 0 00-.466-.696.75.75 0 00-.29-.055.758.758 0 00-.704.461.762.762 0 00.704 1.05zm1.528 0a.763.763 0 00.706-1.05.753.753 0 00-.706-.46.758.758 0 00-.704.46.761.761 0 00.704 1.05zm1.527 0a.761.761 0 00.704-1.05.753.753 0 00-.704-.46.762.762 0 00-.707.755.755.755 0 00.707.755zm1.536 0a.762.762 0 00.706-1.05.751.751 0 00-.704-.46.757.757 0 00-.765.75c0 .421.342.76.765.76m3.062-.401c.198 0 .35-.163.35-.36a.344.344 0 00-.35-.348.352.352 0 00-.36.348c0 .197.162.36.362.36m1.526-.18a.18.18 0 10-.184-.252.179.179 0 00.109.244.19.19 0 00.075.008zM.963 24.9c.109 0 .198-.09.198-.188a.198.198 0 00-.272-.181.191.191 0 00-.114.181.189.189 0 00.19.19m1.526.115a.305.305 0 00.314-.305.304.304 0 00-.314-.312.305.305 0 00-.305.312c0 .17.134.305.305.305zm1.537.106a.41.41 0 00.413-.41.411.411 0 00-.413-.421.42.42 0 00-.422.42c0 .224.188.411.422.411zm1.527.18a.6.6 0 00.601-.59.596.596 0 00-.6-.6.599.599 0 00-.598.595.593.593 0 00.597.595z" fill="#83B2DD"/><path d="M7.092 25.454c.404 0 .744-.34.744-.742a.738.738 0 00-.46-.683.746.746 0 00-1.013.54.737.737 0 00.315.76.753.753 0 00.414.125zm1.526.01a.76.76 0 00.706-.462.759.759 0 00-.705-1.05.766.766 0 00-.764.76c0 .42.343.752.763.752zm1.528 0a.76.76 0 00.706-.462.748.748 0 000-.581.76.76 0 00-1.46.29c0 .421.34.753.754.753zm1.537 0a.75.75 0 00.7-1.042.751.751 0 00-.7-.47.765.765 0 00-.765.76c0 .42.342.752.765.752zm1.527 0a.759.759 0 00.705-.463.75.75 0 00-.165-.826.765.765 0 00-.54-.222.762.762 0 00-.755.759c0 .42.342.752.755.752zm1.528 0a.76.76 0 00.704-.463.757.757 0 00-.705-1.049.763.763 0 00-.755.76c0 .42.343.752.756.752zm1.537 0a.75.75 0 00.698-.464.741.741 0 00.055-.288.75.75 0 00-.753-.76.765.765 0 00-.765.76c0 .42.342.752.765.752zm1.527 0a.759.759 0 00.703-.463.749.749 0 00-.165-.825.765.765 0 00-.538-.223.762.762 0 00-.755.759c0 .42.344.752.755.752zm1.535 0a.749.749 0 00.7-1.042.751.751 0 00-.7-.47.765.765 0 00-.762.76c0 .42.342.752.762.752zm1.528 0a.76.76 0 00.706-.462.75.75 0 00-.165-.828.766.766 0 00-1.304.538c0 .42.343.752.763.752zm1.527 0a.759.759 0 00.705-.463.75.75 0 00-.165-.826.765.765 0 00-.54-.222.762.762 0 00-.755.759c0 .42.343.752.755.752zm1.536-.082a.68.68 0 00.684-.67.678.678 0 00-.682-.68.685.685 0 00-.683.68c0 .367.304.67.683.67m1.527-.197a.476.476 0 00.476-.473.472.472 0 00-.476-.474.476.476 0 00-.476.474c0 .26.215.473.476.473zm1.535-.197a.28.28 0 00.2-.477.283.283 0 00-.485.2.28.28 0 00.285.277zm1.528-.204a.072.072 0 00.072-.072c0-.046-.027-.072-.072-.072a.07.07 0 00-.072.072c0 .038.037.072.072.072zM.963 26.41a.181.181 0 00.181-.178.18.18 0 00-.18-.18.181.181 0 00-.181.18.18.18 0 00.18.177zm1.528.098a.28.28 0 00.287-.276.288.288 0 00-.285-.286.286.286 0 00-.28.286c0 .153.126.276.278.276zm1.537.134a.408.408 0 00.413-.41.404.404 0 00-.413-.411.416.416 0 00-.422.41c0 .233.188.411.422.411zm1.527.125c.297 0 .539-.24.539-.535a.538.538 0 00-.539-.536.53.53 0 00-.53.536.53.53 0 00.53.535zm1.537.135a.669.669 0 00.47-1.142.673.673 0 00-.471-.199.675.675 0 00-.674.67.669.669 0 00.675.67zm1.526.089a.765.765 0 00.763-.76.757.757 0 00-.763-.759.765.765 0 00-.763.76.758.758 0 00.763.759zm1.528.001a.766.766 0 00.704-.469.757.757 0 00-.412-.992.768.768 0 00-.292-.057.763.763 0 00-.754.759.755.755 0 00.754.76z" fill="#83B2DD"/><path d="M11.683 26.992c.422 0 .755-.34.755-.759a.748.748 0 00-.465-.701.758.758 0 00-.83.164.76.76 0 00.54 1.296zm1.527 0a.766.766 0 00.705-.469.757.757 0 00-.413-.992.763.763 0 00-1.047.702.756.756 0 00.755.76z" fill="#83B2DD"/><path d="M14.738 26.992a.765.765 0 00.705-.469.757.757 0 00-.413-.992.763.763 0 00-1.047.702.756.756 0 00.755.76z" fill="#83B2DD"/><path d="M16.275 26.992c.422 0 .753-.34.753-.759a.748.748 0 00-.463-.7.76.76 0 00-.83 1.237.763.763 0 00.54.222zm1.527 0a.765.765 0 00.763-.759.757.757 0 00-.47-.702.763.763 0 00-1.047.702.756.756 0 00.754.76z" fill="#83B2DD"/><path d="M19.337 26.992c.423 0 .756-.34.756-.759a.748.748 0 00-.465-.701.757.757 0 00-.83.164.76.76 0 00.54 1.296zm1.528-.034a.723.723 0 00.674-1.003.72.72 0 00-.674-.447.727.727 0 00-.729.725c0 .403.324.725.729.725zm1.527-.072a.652.652 0 10.008-1.305.652.652 0 00-.008 1.305zm1.536-.18a.477.477 0 00.477-.473.476.476 0 00-.951 0c0 .26.215.473.476.473m1.527-.16a.316.316 0 00.314-.313.317.317 0 00-.314-.313.32.32 0 00-.316.313c0 .17.145.312.316.312zm1.535-.205c.055 0 .1-.053.1-.108 0-.051-.045-.106-.1-.106a.108.108 0 00-.106.106c0 .053.044.108.106.108zM.963 27.905c.082 0 .153-.064.153-.142a.151.151 0 00-.153-.152c-.08 0-.142.065-.142.152 0 .08.062.142.142.142zm1.528.106a.26.26 0 00.26-.248.259.259 0 00-.26-.26.259.259 0 00-.251.26c0 .132.116.25.25.25m1.538.115a.37.37 0 00.367-.375.364.364 0 00-.367-.367.372.372 0 00-.379.367c0 .207.172.375.379.375zm1.527.118a.495.495 0 00.495-.492.487.487 0 00-.495-.483.492.492 0 00-.494.482c0 .277.224.493.494.493zm1.538.106a.6.6 0 00.548-.369.592.592 0 00-.435-.809.6.6 0 00-.715.58.597.597 0 00.602.598zm1.525.117a.714.714 0 100-1.432.72.72 0 00-.719.716.72.72 0 00.72.716zm1.528.044a.762.762 0 00.764-.76.756.756 0 00-.759-.703.762.762 0 00-.759.703.756.756 0 00.754.76zm1.537 0a.754.754 0 00.698-1.048.75.75 0 00-.698-.463.763.763 0 00-.765.752c0 .42.342.759.765.759zm1.527 0a.76.76 0 00.763-.76.756.756 0 00-.759-.703.763.763 0 00-.759.703.756.756 0 00.755.76zm1.528 0a.76.76 0 00.763-.76.756.756 0 00-.76-.703.762.762 0 00-.758.703.755.755 0 00.755.76zm1.537 0a.753.753 0 00.753-.76.745.745 0 00-.464-.694.763.763 0 00-1.053.694c0 .42.341.76.764.76zm1.527 0c.42 0 .761-.341.761-.76a.756.756 0 00-.758-.691.763.763 0 00-.758.691.756.756 0 00.755.76zm1.535-.07a.688.688 0 00.635-.426.68.68 0 00.05-.264.676.676 0 00-.423-.628.688.688 0 00-.95.633.683.683 0 00.688.685zm1.528-.135a.554.554 0 00.553-.55.549.549 0 00-.553-.55.546.546 0 00-.548.546c0 .312.242.554.548.554zm1.527-.127c.244 0 .44-.185.44-.418a.439.439 0 00-.44-.44.438.438 0 00-.431.44c0 .231.198.418.431.418zm1.536-.123a.302.302 0 00.301-.3.3.3 0 00-.301-.3.302.302 0 00-.302.3.3.3 0 00.302.3zm1.53-.198a.107.107 0 00.075-.03.104.104 0 00.03-.076c0-.052-.043-.099-.106-.099a.101.101 0 00-.099.098c0 .065.044.108.1.108M.962 29.416a.139.139 0 00.135-.133.138.138 0 00-.133-.134.14.14 0 00-.137.133c0 .072.063.134.135.134zm1.528.091a.222.222 0 00.224-.225.22.22 0 10-.44 0 .22.22 0 00.216.225zm1.537.098a.322.322 0 00.323-.322.33.33 0 00-.323-.33.336.336 0 00-.333.33c0 .18.152.322.333.322zm1.527.107a.433.433 0 00.4-.266.428.428 0 00-.316-.586.434.434 0 00-.515.424.434.434 0 00.431.428zm1.538.09a.523.523 0 00.522-.52.519.519 0 00-.522-.52.524.524 0 00-.523.52.518.518 0 00.522.52zm1.525.09a.62.62 0 00.613-.608.606.606 0 00-.376-.563.613.613 0 00-.833.44.605.605 0 00.257.625c.1.067.218.103.34.104m1.527.09a.703.703 0 00.702-.698.697.697 0 00-.702-.7.703.703 0 00-.702.7.697.697 0 00.702.698zm1.537.046a.748.748 0 00.745-.742.74.74 0 00-.745-.743.748.748 0 00-.746.742.74.74 0 00.746.743z" fill="#83B2DD"/><path d="M13.21 30.033a.759.759 0 00.704-.46.747.747 0 00.002-.581.761.761 0 00-1.242-.245.755.755 0 00.536 1.286zm1.528 0a.758.758 0 00.704-.46.749.749 0 00.001-.581.761.761 0 00-1.241-.245.755.755 0 00.536 1.286zm1.537-.044a.716.716 0 00.714-.71.71.71 0 00-.714-.712.716.716 0 00-.714.712.71.71 0 00.714.71zm1.527-.088a.626.626 0 00.625-.622.62.62 0 00-.863-.574.625.625 0 00-.382.576c0 .341.28.62.62.62zm1.535-.135a.49.49 0 00.495-.483.499.499 0 00-.495-.492.497.497 0 00-.494.492.49.49 0 00.494.483zm1.528-.134c.198 0 .36-.152.36-.35a.36.36 0 00-.72 0c0 .194.16.35.36.35zm1.527-.118c.134 0 .244-.106.244-.23a.242.242 0 00-.412-.174.236.236 0 00.168.404zm1.536-.178c.038 0 .064-.026.064-.05 0-.035-.026-.067-.063-.067-.036 0-.062.026-.062.066 0 .025.026.051.063.051M.963 30.893a.09.09 0 00.09-.09.095.095 0 00-.09-.09c-.043 0-.09.045-.09.09 0 .052.047.09.09.09zm1.528.089a.18.18 0 00.115-.3.18.18 0 10-.255.254.182.182 0 00.14.046zm1.537.098a.279.279 0 00.278-.276.28.28 0 00-.278-.279.28.28 0 00-.28.279.28.28 0 00.28.276zm1.527.152a.433.433 0 00.404-.43.429.429 0 00-.404-.428.439.439 0 00-.431.43c0 .24.197.428.431.428zm1.537.017a.444.444 0 00.311-.758.45.45 0 00-.31-.136.452.452 0 00-.451.449c0 .25.197.447.449.447m1.527.072a.523.523 0 00.522-.52.518.518 0 00-.522-.52.523.523 0 00-.522.52.518.518 0 00.522.52zm1.528.062a.586.586 0 00.585-.582.581.581 0 10-.585.582zm1.537.027a.612.612 0 00.61-.608.614.614 0 00-1.043-.432.607.607 0 00.433 1.04zm1.527 0a.613.613 0 00.61-.608.606.606 0 00-.61-.608.62.62 0 00-.61.606c0 .34.28.61.61.61zm1.528-.02a.597.597 0 00.6-.588.593.593 0 00-.596-.595.599.599 0 00-.598.595c0 .331.27.589.594.589zm1.537-.07a.523.523 0 00.522-.52.518.518 0 00-.522-.519.524.524 0 00-.522.52.518.518 0 00.522.52zm1.527-.045a.477.477 0 00.476-.473.472.472 0 00-.476-.474.48.48 0 00-.475.474.47.47 0 00.475.473zm1.535-.18a.298.298 0 00.297-.295.295.295 0 00-.297-.294.291.291 0 00-.296.294c0 .16.125.295.296.295zm1.528-.132a.161.161 0 100-.322.16.16 0 00-.162.16.16.16 0 00.162.162zM.963 32.385c.036 0 .063-.025.063-.051 0-.032-.027-.065-.063-.065-.036 0-.062.027-.062.065 0 .026.026.053.062.053m1.528.07c.082 0 .135-.051.135-.125 0-.08-.053-.133-.133-.133-.074 0-.128.051-.128.133 0 .072.054.125.126.125zm1.537.08a.21.21 0 00.205-.205.21.21 0 00-.203-.212.212.212 0 00-.193.133.21.21 0 00.193.287m1.525.16a.372.372 0 00.377-.368.378.378 0 00-.377-.375.371.371 0 00-.369.375c0 .204.162.367.37.367zm1.537-.02c.196 0 .35-.151.35-.348a.349.349 0 00-.351-.358c-.196 0-.36.16-.36.36a.35.35 0 00.361.346zm1.526.065c.234 0 .415-.19.415-.413a.41.41 0 00-.254-.388.423.423 0 00-.583.388c0 .223.19.413.422.413zm3.065.043a.464.464 0 00.423-.289.458.458 0 00-.343-.623.465.465 0 00-.473.2.459.459 0 00.393.712zm1.527 0a.464.464 0 00.463-.46.46.46 0 00-.463-.462.464.464 0 00-.463.461.46.46 0 00.463.461zm1.528-.043a.42.42 0 00.422-.413.422.422 0 00-.718-.299.416.416 0 00.296.712zm1.537-.091a.33.33 0 00.33-.322.33.33 0 00-.332-.331.333.333 0 00-.333.33c0 .18.154.323.335.323zm1.527-.118c.114 0 .215-.096.215-.204a.217.217 0 00-.217-.212c-.106 0-.205.098-.205.214 0 .108.099.206.205.206m1.537-.136a.076.076 0 00.073-.072.07.07 0 00-.022-.05.07.07 0 00-.05-.02c-.046 0-.073.024-.073.07a.07.07 0 00.072.072zm-16.846 1.52c.045 0 .082-.026.082-.072 0-.045-.038-.07-.082-.07-.036 0-.072.025-.072.07 0 .046.038.072.072.072zm1.537.08c.08 0 .143-.07.143-.152 0-.081-.063-.151-.143-.151a.156.156 0 00-.152.151c0 .08.07.152.152.152zm1.527.055a.202.202 0 00.206-.207.2.2 0 00-.206-.204.202.202 0 00-.207.204c0 .116.09.207.207.207zm1.537.062a.269.269 0 00.26-.269.259.259 0 00-.261-.259.262.262 0 00-.269.26c0 .141.118.268.27.268zm1.526.027a.298.298 0 00.297-.296.296.296 0 00-.594 0 .3.3 0 00.297.296zm1.528.026c.19 0 .332-.144.332-.322a.333.333 0 00-.332-.331.33.33 0 00-.324.331c0 .178.145.322.324.322zm1.537 0a.322.322 0 00.323-.322.33.33 0 00-.323-.331.338.338 0 00-.333.331.33.33 0 00.333.322zm1.527-.01a.311.311 0 00.314-.312.31.31 0 00-.314-.312.316.316 0 00-.314.312c0 .17.143.313.314.313z" fill="#83B2DD"/><path d="M13.21 34.121a.271.271 0 00.278-.269.27.27 0 00-.278-.267.264.264 0 00-.27.267c0 .152.118.27.27.27zm1.528-.045a.225.225 0 00.208-.138.222.222 0 00.016-.086.222.222 0 00-.224-.223.219.219 0 00-.215.223.22.22 0 00.215.224zm1.537-.135c.044 0 .09-.045.09-.089a.091.091 0 00-.09-.089.092.092 0 00-.092.09.095.095 0 00.092.088zM4.028 35.435c.007 0 .014 0 .02-.003a.052.052 0 00.033-.048c0-.032-.019-.066-.053-.066s-.063.027-.063.066c0 .025.027.051.063.051zm1.527.063a.128.128 0 00.126-.125c0-.064-.063-.115-.126-.115a.118.118 0 00-.118.115c0 .072.056.125.118.125zm1.537.027a.148.148 0 00.143-.142c0-.091-.063-.152-.144-.152a.15.15 0 00-.11.043.148.148 0 00-.043.108c0 .07.065.143.154.143zm1.526.028a.181.181 0 00.18-.18.18.18 0 00-.18-.18.18.18 0 00-.075.35.18.18 0 00.075.01zm1.528 0a.181.181 0 00.18-.18.18.18 0 00-.18-.18.18.18 0 00-.184.106.18.18 0 00.109.244.18.18 0 00.075.01zm1.537-.01c.089 0 .161-.081.161-.17a.168.168 0 00-.161-.161.168.168 0 00-.162.161c0 .089.072.17.162.17zm1.527-.081c.053 0 .09-.038.09-.089a.089.089 0 00-.09-.089.096.096 0 00-.09.089.09.09 0 00.09.089z" fill="#83B2DD"/><path d="M106.867 14.794v3.175h-3.637v8.29h-4.17v-8.29h-3.782v-3.175h11.589zm11.376 8.29h-5.821V21.77h5.596v-2.621h-5.598v-1.18h5.823v-3.175h.072-10.055v11.465h9.983v-3.175zm-38.68-8.29l-2.138 8.318h-.424l-2.138-8.318h-4.455l4.042 11.465h5.526l4.033-11.465h-4.445zm8.814 7.252l1.016-4.103h.422l1.023 4.105-2.461-.002zm3.576 4.213h4.457l-4.044-11.465h-5.517l-4.042 11.465h4.448l.422-1.583h3.854l.422 1.583zm-28.222-2.476c-1.779 0-2.066-2.057-2.066-3.257 0-1.197.324-3.256 2.066-3.256 1.735 0 2.058 2.059 2.058 3.258 0 1.198-.287 3.255-2.058 3.255zm0-9.4c-4.448 0-6.639 2.486-6.639 6.145 0 3.649 2.112 6.142 6.639 6.142 4.52 0 6.631-2.494 6.631-6.143 0-3.658-2.191-6.144-6.631-6.144zm68.033.41h-4.385l-2.44 3.954h-.63v-3.953h-4.16v11.465h4.16v-4.078h.628l2.517 4.078H132l-3.9-5.794 3.664-5.671zm-80.62 0v7.058h-.367l-3.3-7.057H41.71v11.465h4.168v-6.92h.37l3.368 6.922h5.688V14.794h-4.16z" fill="#0A7AE0"/></g><defs><clipPath id="clip0_55_6121"><path fill="#fff" d="M0 0h132v38H0z"/></clipPath></defs></svg>