<svg width="111" height="54" fill="none" xmlns="http://www.w3.org/2000/svg"><path d="M34.717 34.96h6.901v2.233h-3.283v15.685h-3.618V34.96zM45.71 46.152l.62-8.96h.207l.62 8.96H45.71zm-4.008 6.726h3.543l.335-4.758h1.706l.337 4.758h3.54L49.278 34.96H43.59l-1.886 17.918zm14.644-6.271v3.378c0 .455.356.587.563.587a.58.58 0 00.579-.587v-4.171c0-.558-.104-1.175-1.454-1.175h-1.469v-1.968h1.528c1.024 0 1.395-.235 1.395-1.337V37.78a.58.58 0 00-.579-.587c-.207 0-.563.117-.563.587v2.923h-3.62v-2.54c0-1.25.148-3.203 2.685-3.203h2.996c2.537 0 2.7 1.954 2.7 3.202v2.864c0 1.953-1.38 2.482-2.462 2.438v.176c2.433-.058 2.462 1.792 2.462 2.424v3.613c0 1.263-.163 3.201-2.7 3.201h-2.996c-2.537 0-2.685-1.938-2.685-3.201v-3.07h3.62zM63.48 34.96h8.382v17.918h-3.62V37.193H67.1v15.685h-3.62V34.96zm14.375 9.855v-7.622h.475c.386 0 .668.323.668.896v5.83c0 .573-.282.896-.668.896h-.475zm-3.62 8.063h3.62v-6.095h2.077c2.522 0 2.685-1.938 2.685-3.201v-5.42c0-1.248-.163-3.202-2.685-3.202h-5.696v17.918zm15.517-2.893a.58.58 0 01-.578.587c-.208 0-.564-.132-.564-.587V37.78c0-.47.356-.587.564-.587a.58.58 0 01.578.587v12.205zm-4.761-.308c0 1.263.163 3.201 2.685 3.201h3.011c2.522 0 2.685-1.938 2.685-3.201V38.162c0-1.248-.163-3.202-2.685-3.202h-3.011c-2.522 0-2.685 1.954-2.685 3.202v11.515zm20.16-14.717h4.717v17.918h-3.62V41.643h-.133l-1.869 11.235h-2.893l-1.854-11.235h-.134v11.235h-3.62V34.96h4.703l2.359 12.602 2.344-12.602zM30.026 10.463c-1.108-4.803-3.885-8.71-4.267-9.34-.606.895-2.82 4.346-3.947 8.165-1.23 4.274-1.41 8.063-.986 11.779.421 3.73 2.013 7.563 2.013 7.563.846 1.998 2.113 4.157 2.937 5.214 1.21-1.557 3.988-6.198 4.854-12.249.482-3.377.503-6.33-.604-11.132zM25.76 32.64c-.545-1.014-1.39-2.938-1.47-5.934-.021-2.878 1.146-5.36 1.487-5.874.304.514 1.31 2.673 1.43 5.625.082 2.878-.885 5.155-1.447 6.183zm3.945-14.026c-.041 1.836-.262 3.774-.544 4.935.1-1.998-.14-4.803-.604-7.006-.463-2.188-1.773-5.86-2.818-7.549-.966 1.616-2.156 4.788-2.779 7.535-.626 2.746-.644 6.08-.644 7.079-.166-.838-.581-3.848-.464-6.86.098-2.481.685-5.051 1.007-6.226 1.229-3.922 2.619-6.433 2.88-6.83.26.397 2.011 3.496 2.92 6.742.902 3.245 1.085 6.359 1.046 8.18z" fill="#0A7AE0"/><path d="M27.638 34.96h-8.424v5.596c.007 0 .013-.015.02-.015a5.116 5.116 0 017.19 0 4.987 4.987 0 010 7.109c-.008.014-.017.014-.026.029-.01 0-.02.015-.03.03a10.198 10.198 0 01-7.154 2.907c-2.6 0-5.198-.969-7.18-2.937a9.974 9.974 0 01-1.245-12.719c.36-.529.773-1.028 1.245-1.498 1.982-1.968 4.58-2.937 7.18-2.937V17.072c-9.987 0-18.082 8.004-18.082 17.888 0 9.884 8.095 17.903 18.082 17.903 5.207 0 9.897-2.188 13.196-5.669V34.96h-4.772z" fill="#0A7AE0"/></svg>