<svg width="19" height="19" fill="none" xmlns="http://www.w3.org/2000/svg"><path opacity=".958" fill-rule="evenodd" clip-rule="evenodd" d="M8.999.538c.988-.093 1.718.29 2.19 1.15.964.031 1.929.05 2.894.056 1.022.082 1.66.62 1.911 1.614.025 4.466.025 8.931 0 13.397-.205.934-.78 1.473-1.726 1.614-3.29.025-6.58.025-9.87 0-.855-.133-1.418-.61-1.69-1.428a323.581 323.581 0 01-.055-6.884l.019-6.699c.252-.994.889-1.532 1.911-1.614l2.894-.037C7.797 1.071 8.305.681 9 .538zm.111.928c.748-.037 1.212.309 1.392 1.039.045.057.1.1.167.13.358.018.717.025 1.076.018.076.534-.097.961-.52 1.28-.138.08-.286.13-.445.15a58.17 58.17 0 01-2.894 0 1.074 1.074 0 01-.872-.65 2.393 2.393 0 01-.093-.78 6.25 6.25 0 001.15-.055l.093-.093c.12-.533.435-.88.946-1.04zM4.583 2.653h1.41C5.916 3.706 6.35 4.454 7.292 4.9c.085.03.171.055.26.074.592.04 1.186.06 1.781.055a23.49 23.49 0 001.781-.055c.927-.246 1.44-.846 1.54-1.8.019-.173.025-.346.019-.52.47-.006.94 0 1.41.019.504.05.831.317.983.798.025 4.391.025 8.782 0 13.174-.124.446-.415.712-.872.798-3.24.024-6.482.024-9.722 0-.457-.086-.748-.352-.872-.798a1169.16 1169.16 0 010-13.174c.166-.47.494-.743.983-.817z" fill="#404349"/><path opacity=".944" fill-rule="evenodd" clip-rule="evenodd" d="M11.745 8.628c.517.044.671.304.464.78l-3.284 3.21a.57.57 0 01-.668-.038 67.87 67.87 0 01-1.874-1.911c-.063-.445.13-.649.575-.612a16.1 16.1 0 011.651 1.54l2.95-2.876c.068-.028.13-.06.186-.093z" fill="#404349"/></svg>