<svg width="72" height="72" fill="none" xmlns="http://www.w3.org/2000/svg"><g clip-path="url(#clip0_248_5595)"><path d="M19.303 10.152c-.823.213-1.666.68-2.529 1.422-.954.823-4.377 4.306-4.936 5.027-2.265 2.895-2.305 7.394-.111 13.204 2.67 7.099 7.678 14.29 14.015 20.13 8.735 8.053 20.435 13.263 26.457 11.8.894-.212 2.377-.903 3.057-1.421.69-.518 5.282-5.23 5.708-5.85.792-1.148 1.097-2.681.792-3.981-.345-1.453-.457-1.585-4.875-6.013-4.458-4.459-4.6-4.57-6.073-4.875-1.168-.244-2.356-.03-3.504.63-.264.162-1.523 1.31-2.793 2.57l-2.306 2.274-.74-.386c-1.819-.944-3.16-1.848-5.16-3.493-2.052-1.686-4.916-4.642-6.5-6.714-1.148-1.503-2.834-4.275-2.844-4.651 0-.071.792-.904 1.757-1.849 2.031-1.98 2.834-2.904 3.29-3.778.57-1.107.681-2.508.285-3.666-.396-1.178-.782-1.625-4.662-5.515-3.839-3.84-4.428-4.347-5.525-4.723-.761-.274-2.02-.335-2.803-.142zm2.356 2.854c.285.163 1.91 1.696 4.093 3.89 3.951 3.96 4.104 4.144 4.093 5.19 0 .924-.243 1.249-2.894 3.9-1.34 1.33-2.509 2.56-2.59 2.732-.122.213-.152.508-.122 1.005.03.61.112.843.731 2.072 1.402 2.783 3.25 5.23 6.307 8.359 3.037 3.107 6.064 5.423 9.182 7.028 1.107.569 1.32.65 1.828.64.345 0 .71-.071.924-.183.193-.102 1.452-1.28 2.793-2.61 1.727-1.717 2.57-2.478 2.895-2.62.609-.275 1.401-.275 1.96 0 .609.304 7.79 7.474 8.104 8.104.173.335.244.64.244 1.077 0 1.046-.213 1.33-3.098 4.225-2.854 2.864-3.118 3.057-4.641 3.402-1.473.325-3.94.06-6.44-.68-3.808-1.128-8.926-3.83-13.141-6.937-8.115-5.972-15.082-15.102-17.977-23.542-1.381-4.012-1.533-6.886-.477-9.02.325-.68.63-1.025 2.742-3.168 1.3-1.32 2.55-2.519 2.762-2.671.915-.63 1.849-.7 2.722-.193z" fill="#0A7AE0"/></g><defs><clipPath id="clip0_248_5595"><path fill="#fff" transform="translate(10 10)" d="M0 0h52v52H0z"/></clipPath></defs></svg>