<svg width="12" height="12" fill="none" xmlns="http://www.w3.org/2000/svg"><path fill-rule="evenodd" clip-rule="evenodd" d="M9.903 2.1a.998.998 0 01-.121.05l-6.43 2.142 2.836.852a1 1 0 01.67.67l.852 2.837 2.143-6.43a.997.997 0 01.05-.121zm-3.65 8.652a1.518 1.518 0 00.146.475c.087.174.233.379.472.538.245.163.526.237.812.237a1.39 1.39 0 001.284-.776 1.548 1.548 0 00.144-.455l2.622-7.864a3.252 3.252 0 00.217-.675c.07-.35.157-1.14-.44-1.739-.599-.598-1.39-.51-1.74-.44a3.22 3.22 0 00-.674.217L1.23 2.89a1.547 1.547 0 00-.455.144 1.39 1.39 0 00-.538.472A1.45 1.45 0 000 4.319c0 .287.074.568.238.813.158.238.363.384.538.472a1.547 1.547 0 00.474.146l3.848 1.155 1.154 3.847z" fill="#fff"/></svg>