<svg width="53" height="52" fill="none" xmlns="http://www.w3.org/2000/svg"><g clip-path="url(#clip0_82_2618)" fill-rule="evenodd" clip-rule="evenodd" fill="#0A7AE0"><path opacity=".951" d="M4.918.152c10.766-.017 21.531 0 32.297.05 2.217.593 3.622 1.998 4.215 4.215.165 6.058.2 12.118.101 18.18-.337.987-.963 1.224-1.879.711a1.052 1.052 0 01-.355-.812l-.102-17.672c-.32-1.269-1.116-2.064-2.386-2.387-10.495-.068-20.99-.068-31.485 0-1.27.322-2.065 1.117-2.386 2.387a4393.911 4393.911 0 000 42.25c.321 1.27 1.117 2.065 2.386 2.387 10.495.067 20.99.067 31.485 0 1.1-.271 1.861-.931 2.285-1.981.103-1.895.204-3.79.304-5.688.499-.658 1.091-.76 1.778-.304a.93.93 0 01.355.71 46.91 46.91 0 010 4.368c-.272 2.744-1.745 4.453-4.418 5.129-10.698.068-21.396.068-32.093 0-2.274-.548-3.713-1.953-4.317-4.215a4564.677 4564.677 0 010-43.063C1.314 2.2 2.72.777 4.918.152z"/><path opacity=".951" d="M23.91 6.55c3.453-.017 6.907 0 10.36.051.795.323 1.015.882.66 1.676-.157.19-.343.343-.559.457-3.487.068-6.974.068-10.46 0-.703-.373-.89-.932-.56-1.676a3.85 3.85 0 01.56-.508z"/><path opacity=".953" d="M7.66 13.05c8.938-.017 17.876 0 26.813.051.608.423.76.982.457 1.676a1.275 1.275 0 01-.762.457c-8.734.068-17.468.068-26.203 0-.92-.369-1.14-.995-.66-1.879a.76.76 0 00.356-.305z"/><path opacity=".956" d="M7.863 19.449c8.836-.017 17.672 0 26.508.05.702.383.888.942.558 1.676a1.795 1.795 0 01-.558.457c-8.87.068-17.74.068-26.61 0-.671-.39-.857-.949-.558-1.675a1.56 1.56 0 01.66-.508z"/><path opacity=".955" d="M46.152 20.566c.387-.034.76.017 1.117.152l4.825 4.825c.092.219.177.439.254.66-.077.22-.162.44-.254.66L32.035 46.922c-1.968.378-3.949.7-5.941.964-.66-.118-1.05-.508-1.168-1.168.265-1.993.587-3.973.965-5.941a5708.706 5708.706 0 0120.261-20.211zm.407 2.742a60.333 60.333 0 012.945 2.945c-.947.998-1.911 1.98-2.895 2.946a118.67 118.67 0 01-2.894-2.946l2.844-2.945zm-4.57 4.57a40.688 40.688 0 013.046 2.895L30.918 44.89a46.886 46.886 0 01-3.453.457c.119-1.154.271-2.305.457-3.453A915.692 915.692 0 0041.988 27.88z"/><path opacity=".956" d="M7.66 25.949c8.937-.017 17.875 0 26.812.05.608.424.76.982.457 1.676a1.275 1.275 0 01-.762.457c-8.7.068-17.4.068-26.101 0-.79-.173-1.112-.664-.965-1.472a1.19 1.19 0 01.559-.711z"/><path opacity=".933" d="M15.278 37.73c1.39.002 1.812.646 1.27 1.93l-6.45 6.45c-.487.389-.995.422-1.523.1l-2.387-2.386c-.448-.984-.143-1.593.914-1.828.323.04.61.158.864.356l1.218 1.218c.068.068.136.068.203 0a477.06 477.06 0 015.891-5.84z"/></g><defs><clipPath id="clip0_82_2618"><path fill="#fff" transform="translate(.5)" d="M0 0h52v52H0z"/></clipPath></defs></svg>