<svg width="57" height="56" fill="none" xmlns="http://www.w3.org/2000/svg"><path opacity=".963" fill-rule="evenodd" clip-rule="evenodd" d="M13.57 2.242c7.364-.018 14.729 0 22.093.055 1.274.2 2.368.746 3.282 1.64a434.61 434.61 0 008.148 8.258 6.205 6.205 0 011.203 2.953c.073 5.542.073 11.084 0 16.625-.447.917-1.122 1.117-2.023.602a.763.763 0 01-.274-.383c-.022-5.616-.076-11.23-.164-16.844-2.552.019-5.104 0-7.656-.054-1.36-.375-2.253-1.232-2.68-2.57a275.76 275.76 0 01-.055-7.766 707.76 707.76 0 00-21.437-.055c-1.856.398-2.859 1.547-3.008 3.445a3584.083 3584.083 0 000 39.594c.15 1.899 1.152 3.047 3.008 3.446l16.078.109c.787.473.951 1.111.492 1.914-.133.17-.297.297-.492.383a623.64 623.64 0 01-16.516 0c-2.573-.495-4.195-2.008-4.867-4.54a1045.65 1045.65 0 01-.164-21.109c-.017-7.04.038-14.076.164-21.11.691-2.531 2.313-4.063 4.867-4.593zm24.28 4.156a505.32 505.32 0 006.235 6.29 65.605 65.605 0 01-5.36 0 1.217 1.217 0 01-.71-.493 52.596 52.596 0 01-.164-5.797z" fill="#0A7AE0"/><path opacity=".959" fill-rule="evenodd" clip-rule="evenodd" d="M16.304 12.742c4.594-.018 9.188 0 13.781.055.787.473.951 1.111.493 1.914-.133.17-.297.297-.493.383a434.24 434.24 0 01-13.78 0c-1.016-.784-1.016-1.568 0-2.352z" fill="#0A7AE0"/><path opacity=".962" fill-rule="evenodd" clip-rule="evenodd" d="M19.804 19.742c6.927-.018 13.854 0 20.781.055.787.473.951 1.111.493 1.914-.133.17-.297.297-.493.383-6.927.073-13.854.073-20.78 0-1.016-.784-1.016-1.568 0-2.352z" fill="#0A7AE0"/><path opacity=".964" fill-rule="evenodd" clip-rule="evenodd" d="M16.414 25.54c8.02-.02 16.042 0 24.062.054 1.076.66 1.15 1.426.22 2.297-8.168.073-16.334.073-24.5 0-.925-.888-.852-1.672.218-2.352z" fill="#0A7AE0"/><path opacity=".948" fill-rule="evenodd" clip-rule="evenodd" d="M36.539 30.133c5.933.424 9.452 3.56 10.554 9.406a10.464 10.464 0 01-.93 5.688 296.42 296.42 0 004.759 4.812c1.267 2.013.993 3.781-.82 5.305-1.278.656-2.554.656-3.829 0l-5.195-4.977c-4.81 1.879-9.003.967-12.578-2.734-2.9-3.904-3.229-8.023-.985-12.36 2.143-3.231 5.15-4.945 9.024-5.14zm-.656 2.515c4.18-.034 7.005 1.898 8.476 5.797.954 4.417-.559 7.68-4.539 9.79-4.194 1.42-7.566.345-10.117-3.227-2.026-3.912-1.461-7.394 1.695-10.446a8.816 8.816 0 014.485-1.914zm8.859 14.766c1.454 1.4 2.895 2.822 4.32 4.266.365 1.332-.128 1.86-1.476 1.586L43.32 49a9.65 9.65 0 001.422-1.586z" fill="#0A7AE0"/><path opacity=".955" fill-rule="evenodd" clip-rule="evenodd" d="M16.195 31.445c2.698-.018 5.396 0 8.094.055.273.128.474.328.602.602.28.847.007 1.412-.82 1.695a134.04 134.04 0 01-7.657 0c-.798-.376-1.035-.978-.71-1.805.186-.168.35-.35.491-.547z" fill="#0A7AE0"/><path opacity=".949" fill-rule="evenodd" clip-rule="evenodd" d="M16.304 37.242c1.86-.018 3.72 0 5.578.055.668.332.905.861.711 1.586-.164.31-.4.547-.71.71a70.13 70.13 0 01-5.579 0c-1.015-.783-1.015-1.567 0-2.35z" fill="#0A7AE0"/><path opacity=".936" fill-rule="evenodd" clip-rule="evenodd" d="M31.616 39.539a1.565 1.565 0 011.368.547c.022 1.448.587 2.633 1.695 3.555.747.412 1.55.63 2.406.656.92.638.993 1.367.219 2.187-2.907.306-4.967-.88-6.18-3.554a4.446 4.446 0 01-.218-2.844c.214-.224.452-.407.71-.547z" fill="#0A7AE0"/><path opacity=".95" fill-rule="evenodd" clip-rule="evenodd" d="M16.414 43.04c2.188-.02 4.375 0 6.562.054 1.076.66 1.15 1.426.22 2.297a111.9 111.9 0 01-7 0c-.925-.888-.852-1.672.218-2.352z" fill="#0A7AE0"/></svg>