<svg width="1189" height="673" fill="none" xmlns="http://www.w3.org/2000/svg"><path d="M764.58 457.227c-.784-1.911-3.611-1.715-3.989.317 0 .015-.006.031-.006.047-.256 1.544-.061 3.395-1.269 4.392-.495.41-1.135.578-1.73.834-3.768 1.631-4.942 6.492-8.169 9.033-3.912 3.085-10.545 2.57-12.854 6.988-2.215 4.241 1.574 9.44.467 14.092-.673 2.822-2.994 4.881-4.914 7.056-2.081 2.371-3.823 5.159-4.34 8.269-.523 3.111.362 6.572 2.766 8.609.567.473 1.202.868 1.686 1.425 2.437 2.793.111 8.296 3.639 10.066.623.312 1.324.417 2.02.395 4.607-.167 8.469-3.628 10.45-7.718 1.87-3.856 2.337-8.225 2.577-12.504.133-2.37.206-4.774.918-7.034 1.124-3.583 3.712-6.477 5.926-9.504 6.9-9.445 11.269-23.97 6.822-34.763zm388.42-6.961a2.03 2.03 0 00-1.58.936c-2.86 4.506-3.31 10.184-4.17 15.509-.76 4.726-2.23 9.791-5.57 13.014a3.311 3.311 0 01-4.22.288l-6.38-4.563c-3.93-2.809-8.36-7.335-6.28-11.693 1.21-2.521 4.49-4.476 3.08-7.342-.57-1.135-1.7-1.882-2.95-2.06-6.86-.975-13.8-1.376-20.72-1.197-1.19.03-2.45.104-3.41.809-.96.722-1.39 1.942-1.78 3.089l-3.24 9.75c-.48 1.462-2.33 1.919-3.44.856-3.53-3.365-8.7-5.178-12.59-2.536-1.3.882-2.29 2.152-3.25 3.4l-10.71 13.981c-5.08 6.623-10.62 13.59-18.52 16.284-6.3 2.142-13.75 1.424-19.01 5.503-5.72 4.441-6.48 12.643-6.76 19.883-.31 7.696-.61 15.391-.92 23.082-.21 5.342-.43 10.773-2.17 15.826-.7 2.025-1.64 4.218-.86 6.21 1.18 3.016 5.48 3.366 8.41 2.003 2.95-1.358 5.3-3.829 8.34-4.963 6.44-2.416 13.98 1.825 20.42-.59 3.46-1.297 5.94-4.274 8.87-6.517 8.01-6.165 18.81-6.565 29.02-6.332 1.48.033 2.74 1.079 3.01 2.526.29 1.609.31 3.289.44 4.931.2 2.504.81 5.203 2.76 6.788 1.44 1.18 3.78 1.258 5.18.24.9-.646 2.19-.301 2.68.695 2.35 4.825.12 12.237 4.13 16.21 4.44 4.402 12.16.729 18.12 2.654 2.09.68 3.93 2.054 6.07 2.544 4.19.951 8.41-1.736 11.14-5.053 2.74-3.311 4.56-7.323 7.41-10.539 4.66-5.26 11.59-7.903 16.88-12.521 5.28-4.602 8.67-10.929 11.95-17.106 1.67-3.15 3.38-6.388 3.86-9.922.35-2.542.04-5.119.01-7.684-.04-3.785.49-7.652-.54-11.292-.93-3.36-3.11-6.209-5.2-8.998-8.1-10.745-15.81-22.04-20.06-34.802-1.59-4.784-2.67-9.723-3.52-14.694-.56-3.306-1.63-3.164-1.55-4.348.1-1.271-.88-2.358-2.15-2.274l-.23.015zm-747.533-19.99c-.112 1.625-.885 3.122-1.709 4.53-7.362 12.548-20.5 23.394-19.854 37.928.228 4.981 2.137 9.711 3.205 14.583 1.074 4.869 1.174 10.378-1.808 14.379-4.597 6.171-14.574 6.327-18.959 12.654-1.186 1.714-1.848 3.756-3.122 5.403-1.302 1.692-3.183 2.888-4.402 4.641-1.291 1.87-1.714 4.19-2.159 6.416-2.749 13.834-9.126 28.919-22.442 33.56-2.799.98-6.271 1.881-7.078 4.73-.373 1.297-.045 2.671.089 4.012.601 5.821-2.755 11.847-8.024 14.396-1.759.851-3.751 1.38-5.131 2.766-2.615 2.609-5.142 7.501-8.547 8.758a1.42 1.42 0 00-.802 1.937c2.644 5.915 1.063 13.683-1.352 20.394-.712 1.976.612 4.074 2.699 4.307 2.137.245 4.213 1.314 5.242 3.656 1.285 2.933-.067 6.361-1.313 9.31-1.241 2.944-2.766 5.887-2.916 9.081-.284 5.866 4.095 10.929 8.842 14.391 4.741 3.461 10.211 6.104 13.984 10.606-9.816-.228-20.094-1.191-28.318-6.555-5.215-3.4-9.216-8.331-13.127-13.172-5.103-6.332-11.964-13.522-10.801-23.238.178-1.497.15-3.01-.062-4.502a58.604 58.604 0 00-5.459-17.584c-1.964-3.962-4.379-7.712-5.904-11.869-5.191-14.157.818-30.177-2.448-44.901-1.096-4.958-3.233-9.661-4.051-14.674-2.315-14.151 5.993-29.415.211-42.536-1.14-2.599-2.788-4.936-4.424-7.257-3.249-4.61-6.577-9.307-11.134-12.629-3.167-2.309-6.806-3.867-10.123-5.959-9.587-6.06-15.987-16.55-18.074-27.701-.74-3.929-1.068-8.169-3.505-11.335-1.614-2.104-4.129-3.701-4.719-6.283-.729-3.172 1.792-6.193 1.992-9.443.123-1.976-.618-3.895-.818-5.86-.328-3.3.885-6.544 2.226-9.571a100.507 100.507 0 0111.246-19.309c1.068-1.436 2.226-2.977 2.259-4.764.034-1.535-.768-2.943-1.547-4.262-2.821-4.786-2.537-14.54-6.243-17.234-.518-.373-1.831.084-2.449.712-.907.93-1.274 2.243-1.986 3.328-1.319 1.987-3.912 3.038-6.244 2.521-2.326-.512-4.24-2.549-4.602-4.908-.094-.612-.1-1.252-.373-1.809-.701-1.424-2.648-1.502-4.145-2.036-2.36-.846-3.879-3.094-5.231-5.214-1.475-2.304-2.944-4.613-4.418-6.923-3.1-4.852-6.861-10.166-12.549-11.079-2.548-.412-5.854-2.081-7.595-3.177-9.599-6.06-21.012-8.147-31.847-11.536-10.84-3.394-22.153-10.25-24.373-21.385-.551-2.777-.49-5.637-.99-8.419-1.442-7.991-6.528-14.758-10.751-21.686-3.395-5.559-5.62-14.651-6.895-21.362-.261-1.391-2.315-1.202-2.31.206.056 11.552 3.84 26.76 8.12 36.754 1.023 2.393-2.137 4.385-3.823 2.41-5.949-6.967-8.976-16.216-10.217-23.305-1.725-9.816-2.977-20.272-9.11-28.129-1.858-2.388-4.156-4.508-5.353-7.284-1.151-2.694-1.151-5.715-1.13-8.648.084-10.317.33-21.235 5.788-29.996 3.478-5.593 8.831-9.85 12.131-15.542 3.834-6.617 4.546-14.524 5.17-22.147.868-10.607 1.658-21.708-2.527-31.491-1.168-2.715-2.86-5.431-5.548-6.666-1.597-.74-3.45-.913-4.88-1.937-1.28-.912-2.031-2.376-3.105-3.533-3.422-3.656-9.22-3.423-14.162-2.599a121.304 121.304 0 00-40.739 14.613c-4.19 2.426-12.782 5.03-19.215 5.603-1.602.14-2.37-1.925-1.074-2.877 7.713-5.681 20.612-13.405 12.276-17.884-1.614-.868-1.903-3.584-.134-5.142.284-.25.624-.445.969-.612l17.768-8.53a3213.275 3213.275 0 00-7.334-5.56c-.006-3.611 3.956-5.932 7.534-6.422 3.572-.484 7.368.056 10.684-1.374 3.311-1.43 5.554-6.177 2.916-8.642-.59-.556-1.43-1.035-1.269-1.959.112-.628.63-1.112 1.252-1.28 14.173-3.8 28.358-7.623 42.781-10.344 8.62-1.62 9.572-1.47 16.527 3.873 10.195 5.754 22.52-.495 25.971 2.465 3.45 2.96 12.654 5.592 14.301 3.617 1.641-1.975 8.625-9.293 14.256-4.23 5.075 1.654 10.345-1.624 15.648-2.275 9.505-1.163 18.208 6.16 27.784 6.294 1.414.016 2.933-.09 4.113.684 1.179.779 1.502 2.894.211 3.45 8.141 4.257 17.946-.862 27.122-.462 2.443.111 4.864.618 7.307.657 2.515.028 5.002-.445 7.473-.918 4.518-.874 9.037-1.742 13.555-2.605 1.353-.261 2.766-.54 3.873-1.368 1.019-.757 1.67-1.898 2.477-2.883 3.21-3.94 8.82-5.453 11.691-9.644 1.124-1.641 1.747-3.6 2.933-5.203 3.889-5.258 11.952-4.718 18.096-2.47-3.756 2.51-7.513 5.014-11.269 7.518-1.324.884-2.676 1.797-3.589 3.105-2.955 4.218-.011 9.933 2.894 14.19.851 1.235 2.098 2.643 3.556 2.27.845-.223 1.419-.99 1.836-1.764a12.053 12.053 0 001.385-7.084c-.328-2.949-1.752-5.82-1.313-8.753.479-3.2 3.15-5.726 6.144-6.956 2.993-1.224 6.299-1.385 9.532-1.53 7.362-.323 14.724-.651 22.086-.974 2.17-.106 4.446-.178 6.405.751 3.839 1.826 5.375 6.956 9.348 8.459 1.87.706 3.979.473 5.882 1.068 4.252 1.336 6.144 7.345 3.422 10.873 1.553 2.922 5.075 4.012 8.008 5.543 2.933 1.53 5.798 4.763 4.474 7.796-1.135 2.587-4.496 3.138-7.318 3.328-3.617.244-7.528.411-10.567-1.575-.412-.267-.834-.59-1.324-.624-1.319-.083-1.831 1.831-1.291 3.033.545 1.202 1.641 2.165 1.903 3.45.356 1.709-.935 3.417-2.526 4.14-1.592.713-3.406.68-5.148.64 2.343 1.158 1.297 5.148-1.135 6.1-2.437.956-5.153-.062-7.562-1.064-2.643-1.107-5.353-2.253-7.39-4.257-.874-.862-1.625-1.88-2.666-2.532-1.953-1.218-4.462-.89-6.722-.434-2.253.462-4.663 1.019-6.794.156-2.137-.862-3.523-3.85-1.959-5.537 1.619-1.753 4.457-.662 6.834-.512 5.67.356 9.715-5.203 12.592-10.105.334-.568.679-1.174.651-1.836-.044-1.175-1.202-1.942-2.231-2.516l-7.813-4.34c-.751-.417-1.58-.857-2.426-.696-.69.14-1.246.646-1.731 1.152-3.466 3.634-5.954 8.559-10.572 10.523-3.634 1.553-7.885.93-11.575 2.348-5.637 2.17-9.054 8.72-13.906 11.825-.913.584-1.692 1.341-2.365 2.198-1.564 1.981-4.557 2.905-7.189 3.49-6.6 1.468-13.194 2.937-19.794 4.4-3.678.819-7.484 1.693-10.211 4.52-.957.99-1.68 2.209-1.998 3.55-.996 4.218 2.043 6.922 4.947 9.081a103.074 103.074 0 0016.761 10.133c1.157.557 1.541 1.976.885 3.083-.852 1.447-1.052 3.367-.612 5.02.673 2.537 2.459 4.607 4.195 6.582 1.525 1.725 3.551 3.645 5.832 2.928 1.43-.446 2.36-1.787 2.56-3.273.161-1.157-.028-2.242-.406-3.288a3.516 3.516 0 012.098-4.508c8.808-3.283 15.798-11.335 17.484-20.628.979-5.392.801-11.936 5.358-14.969 2.371-1.586 5.393-1.669 8.236-1.714 7.34-.094 15.631.195 20.578 5.62 2.437 2.677 3.723 6.317 6.984 8.27 1.269.762 2.788 1.068 4.223.706 3.734-.957 2.961-4.952 5.37-6.894.601-.479 1.386-.729 2.132-.545 1.263.306 1.613 1.513 1.903 2.598a102.321 102.321 0 0011.847 27.517c2.014 3.256 4.312 6.873 3.478 10.607-.407 1.814-1.52 3.389-2.154 5.13-2.165 6.01 1.197 14.107-3.622 18.291-3.829 3.322-9.716 1.263-14.285-.929-1.33-.64-2.843-1.53-2.955-3.005-.072-.929.468-1.786.991-2.56 2.315-3.405 2.999-6.343 4.468-9.248.868-1.714-.584-3.678-2.482-3.339l-2.615.484c-6.138 1.13-12.482 2.349-17.935 5.248-1.742.923-2.526 3.027-1.786 4.846.707 1.726.762 3.818.445 5.699-.495 2.96-1.675 5.837-1.625 8.831.017.829.111 1.719-.328 2.431-.262.418-.69.724-1.119.98-2.826 1.731-6.254 2.471-9.537 2.042l2.559-1.992c.145-1.358-1.864-1.686-3.177-1.336-5.147 1.353-9.632 4.441-14.006 7.474-1.069.74-2.176 1.519-2.805 2.66-.773 1.385-.723 3.088-1.386 4.529-1.869 4.051-7.562 3.729-11.941 4.58-5.198 1.018-9.532 4.477-13.645 7.821-3.16 2.577-6.51 5.431-7.495 9.388-.412 1.63-.445 3.5-1.625 4.702-.952.974-2.46 1.269-3.367 2.292-1.43 1.614-.745 4.202-1.614 6.177-1.157 2.654-4.568 3.333-6.788 5.198-1.336 1.113-2.237 2.671-3.551 3.811-2.37 2.065-5.692 2.499-8.714 3.373-.241.07-.484.146-.726.228a6.043 6.043 0 00-4.082 5.678 5.863 5.863 0 01-.239 1.667c-.367 1.246-1.196 2.315-1.564 3.561-.79 2.644.618 5.426.629 8.186.011 2.81-1.43 5.487-1.386 8.297.039 2.777 1.52 5.42 1.308 8.191-.222 2.96-2.604 5.631-5.52 6.182-1.146-2.788-2.287-5.575-3.433-8.363-.646-1.586-1.302-3.183-1.575-4.875-.251-1.553-.178-3.144-.262-4.719-.105-1.842-.456-3.734-1.502-5.253-1.046-1.513-2.916-2.576-4.73-2.226-1.825.345-3.328 2.009-5.181 1.87-1.046-.083-1.942-.729-2.904-1.152-6.979-3.071-15.459 5.927-22.053 2.087-.829-.484-1.558-1.152-2.46-1.486-1.335-.495-2.827-.183-4.195.223a33.935 33.935 0 00-12.71 7.022c-1.441 1.269-2.849 2.81-3.055 4.719-.145 1.375.362 2.738.362 4.118 0 2.209-1.264 4.19-2.36 6.11-2.187 3.823-3.884 8.019-4.201 12.415-.434 6.076 1.947 12.303 6.327 16.538 1.035.996 2.237 1.914 3.65 2.148 1.08.172 2.176-.073 3.239-.312 2.265-.512 4.524-1.029 6.789-1.541 1.335-.306 2.754-.651 3.7-1.642 1.408-1.469 1.308-3.812 2.265-5.603 1.002-1.87 3.011-2.922 4.908-3.868 2.248-1.124 4.624-2.27 7.134-2.142 2.51.122 5.119 2.031 5.075 4.541-.056 3.01-3.628 5.052-3.745 8.057-.045 1.13.423 2.232.389 3.361-.061 1.736-1.279 3.189-2.448 4.474-1.174 1.286-2.426 2.693-2.576 4.424-.156 1.731 1.48 3.662 3.116 3.077.673-.245 1.168-.84 1.814-1.152.868-.423 1.892-.289 2.849-.15 4.34.651 9.315 1.725 11.346 5.615 1.286 2.465.996 5.425.674 8.191-.229 1.959-.462 3.951-1.252 5.759-.512 1.169-1.247 2.237-1.664 3.445-.991 2.877-.011 6.138 1.791 8.586 1.225 1.664 2.783 3.027 4.43 4.274 1.157.874 2.699 1.057 4.001.428 2.949-1.408 5.832-3.049 8.28-2.537a4.864 4.864 0 012.421 1.346c5.425 5.404 8.297 3.15 9.894 3.434 1.669.295 3.478-.696 4.129-2.259.567-1.364.322-3.028 1.174-4.235.562-.801 1.502-1.235 2.398-1.636a4584.45 4584.45 0 007.93-3.534c1.079-.484 2.27-.973 3.422-.684 1.146.295 2.014 1.797 1.258 2.71 3.533.634 7.223.384 10.634-.735.873-.283 1.797-.628 2.687-.411 1.853.445 2.382 2.888 3.929 4.001 2.493 1.803 6.027-.585 9.02.144 1.136.278 2.115.991 3.222 1.364 2.465.823 5.12-.151 7.641-.796 2.52-.646 5.592-.807 7.323 1.141.673.756 1.04 1.741 1.708 2.504 1.786 2.042 4.947 1.842 7.551 2.582 7.796 2.22 10.456 12.893 18.069 15.692 4.785 1.753 10.806.05 14.712 3.333 3.79 3.189 3.323 9.221 5.994 13.4 1.285 2.014 3.272 3.533 4.396 5.642.962 1.798 1.235 3.912 2.292 5.654 2.961 4.853 9.967 4.491 15.27 6.522 3.65 1.397 6.655 4.079 10.166 5.787 1.247.607 2.961 1.13 4.747 1.569 7.74 1.892 14.835 5.888 20.183 11.792 1.63 1.797 3.044 3.634 3.89 5.314.812 1.619 1.519 3.372 1.391 5.175z" fill="#E1E4EC"/><path d="M240.054 294.226c-2.443.885-4.88 1.776-7.323 2.66-1.336.484-2.749.98-4.151.735-1.403-.245-2.727-1.519-2.493-2.922.067-.395.25-.767.3-1.168.05-.429-.061-.857-.167-1.274-.667-2.633-1.552-5.554-3.928-6.867-1.709-.946-3.773-.818-5.693-1.174a11.3 11.3 0 01-6.015-3.233c-.562-.585-1.163-1.28-1.97-1.308-.468-.017-.907.195-1.325.406-1.875.941-3.745 1.881-5.62 2.821-.773.39-1.719.774-2.465.329-.495-.295-.735-.891-.796-1.464-.161-1.552.807-3.06 2.104-3.934 1.291-.874 2.865-1.23 4.407-1.475 3.099-.5 6.255-.634 9.387-.411 3.456.25 7.017.996 9.766 3.105 1.915 1.469 3.345 3.522 5.354 4.858 1.708 1.129 3.722 1.663 5.609 2.454 1.508.631 2.933 1.426 4.316 2.304a4.45 4.45 0 012.05 3.55c.022.434.039.907-.195 1.274-.251.389-.718.573-1.152.734zm24.809 8.217c-.015.235-.045.495-.216.66-.184.18-.475.19-.735.186-1.321-.01-2.637-.026-3.958-.036-.36-.005-.736-.005-1.056.165-.566.306-.746 1.026-1.171 1.502-.466.515-1.191.71-1.882.77a6.589 6.589 0 01-5.079-1.826c-.591-.581-1.161-1.316-1.982-1.396-.285-.03-.57.03-.851.084l-3.107.631c-.806.165-1.692.32-2.422-.065-.731-.39-1.041-1.571-.35-2.026.35-.231.806-.191 1.226-.236 1.145-.12 2.172-1.016 2.447-2.137.255-1.05-.015-2.377.835-3.042.356-.275.816-.35 1.262-.405a36.679 36.679 0 0113.914.862 3.52 3.52 0 012.37 2.056c.554 1.342.833 2.793.755 4.253zM411.241 7.622c-.089.261-.378.372-.629.462-7.729 2.693-15.508 5.397-23.605 6.594-3.951.584-7.969.812-11.864 1.725-5.375 1.263-10.356 3.811-15.269 6.338-3.84 1.959-7.674 3.928-11.513 5.898-2.148 1.096-4.335 2.226-6.049 3.929-.629.623-1.197 1.33-1.948 1.803-.873.54-1.92.729-2.944.89a86.807 86.807 0 01-24.314.345c-1.752-.222-3.311-1.107-4.568-2.348a3.06 3.06 0 00-.716-.518c-1.157-.567-2.515-.567-3.728-1.001-2.243-.79-3.69-2.916-4.981-4.908-.222-.334-.45-.707-.461-1.113-.034-.724.617-1.297 1.257-1.653 2.821-1.575 6.633-1.118 9.009 1.08.306.278.629.606 1.047.628.378.012.712-.233 1.012-.473 1.119-.884 2.265-1.808 2.972-3.049.707-1.235.873-2.905.022-4.045-.701-.963-1.914-1.364-2.866-2.076-.951-.707-1.641-2.153-.851-3.038.373-.412.957-.557 1.497-.674a83.224 83.224 0 0119.47-1.83c1.52.033 3.05.11 4.547-.117 2.087-.334 4.023-1.247 5.987-2.015 15.453-6.037 32.787-3.121 49.292-4.819 3.461-.356 6.928-.923 10.4-.7 3.473.222 7.034 1.335 9.449 3.839.228.228.456.55.345.846zm-151.106 33.51c-.823.818-2.176.612-3.3.901-2.025.529-3.188 2.727-3.455 4.802-.268 2.076.1 4.19-.106 6.272-.061.6-.173 1.218-.523 1.714-.434.612-1.152.929-1.842 1.224-4.207 1.808-8.776 3.656-13.233 2.615-2.326-.556-4.452-1.875-6.828-2.142-2.949-.345-5.804.974-8.619 1.92-2.816.946-6.127 1.485-8.587-.184-.333-.228-.651-.5-.818-.874-.2-.445-.144-.974-.317-1.435-.194-.529-.662-.902-.979-1.37-1.542-2.203.484-5.608-1.03-7.84a31.606 31.606 0 01-16.254 1.297c-.601-.123-1.235-.267-1.664-.707-.768-.768-.512-2.142.212-2.955.723-.812 1.775-1.23 2.76-1.697a20.264 20.264 0 004.808-3.25c1.274-1.157 2.415-2.493 3.912-3.339 1.747-.985 3.817-1.202 5.815-1.396 4.909-.473 9.977-.935 14.75.066.786.162 1.516.585 1.959 1.258.002 0 .005.006.007.006.484.745.79 1.624 1.486 2.175 1.185.94 3.032.53 4.284 1.386.863.596 1.258 1.664 1.998 2.398 1.597 1.586 4.218 1.214 6.416.74 2.053-.461 4.168-.934 5.904-2.114 1.224-.824 2.221-1.976 3.528-2.654 1.503-.785 3.267-.868 4.958-.935 1.369-.056 2.827-.084 3.985.64 1.157.723 1.736 2.515.773 3.478z" fill="#E1E4EC"/><path d="M268.143 24.788c-.568.529-.98 1.352-.701 2.075.161.412.5.718.74 1.08 1.124 1.708-.451 4.018-2.304 4.88-3.895 1.825-8.675.256-12.676 1.825-.924.362-1.781.874-2.716 1.186-3.817 1.263-7.768-1.119-11.68-2.02-2.604-.612-5.314-.557-7.941-1.046-1.213-.229-2.443-.59-3.4-1.375-.951-.779-1.569-2.076-1.263-3.272.378-1.486 1.942-2.304 3.367-2.866 3.155-1.252 6.499-2.192 9.894-2.125 3.561.072 7.156 1.252 10.639.484 3.306-.724 5.993-3.083 9.115-4.396 3.313-1.392 6.963-1.547 10.585-1.464.678.017 1.298.451 1.498 1.096l.003.012c.501 1.597-.027 3.45-1.291 4.546-.584.506-1.302.851-1.869 1.38zm27.916-2.019c-.69 1.586-2.064 2.754-3.366 3.895-2.477 2.176-4.847 4.49-6.823 7.128-.873 1.163-1.714 2.432-2.988 3.122-.957.518-2.103.674-2.927 1.386-1.38 1.19-1.269 3.4-2.315 4.902-1.547 2.215-4.813 2.06-7.479 1.664l-4.919-.718c-1.123-.167-2.305-.345-3.01-1.491a2.63 2.63 0 01-.128-2.515c.598-1.23 1.822-1.547 2.982-1.82 2.059-.5 4.418-.612 6.688-.835a6.847 6.847 0 001.669-.367c1.066-.39 2.11-.835 3.129-1.33.684-.334 1.38-.718 1.842-1.324.467-.607.634-1.497.206-2.126-.501-.746-1.609-.88-2.126-1.614-.651-.918-.011-2.22.857-2.938.868-.707 1.975-1.152 2.665-2.042.93-1.196.874-2.877 1.442-4.28.784-1.947 2.743-3.227 4.78-3.733 2.036-.5 4.173-.362 6.265-.217.874.061 1.781.134 2.521.595 1.475.907 1.725 3.06 1.035 4.658zm241.895-12.576c-.281 1.119-1.325 1.536-2.292 1.853-7.635 2.493-16.672 3.194-21.697 9.46a3.968 3.968 0 011.998 2.114c-1.313.652-2.627 1.303-3.94 1.96 1.219.84 2.432 1.685 3.65 2.537a3470.77 3470.77 0 00-4.679 4.435c-3.506 3.327-7.062 6.688-11.263 9.081-.69.395-1.464.835-1.681 1.603-.378 1.302 1.08 2.46 1.13 3.812.028.795-.429 1.513-.885 2.159-3.639 5.18-8.503 9.649-14.373 12.003-5.877 2.365-12.81 2.443-18.38-.568-3.606 7.913-12.215 13.266-20.907 13.016-1.842-.056-3.767-.329-5.464.39-2.282.95-3.5 3.371-5.07 5.286-4.118 5.025-11.352 7.067-14.629 12.676-2.304 3.95-2.905 9.783-7.29 11.085-3.483-3.25-6.967-6.5-10.45-9.755-2.554-2.376-5.32-5.27-5.075-8.759.067-.963.362-1.964.011-2.871-.584-1.475-2.571-1.875-3.389-3.233-.529-.868-.473-1.97-.395-2.983.445-6.065 1.658-13.288 7.223-15.742-1.324-1.659-1.503-4.14-.429-5.971a2.695 2.695 0 01-.559-.29c-1.43-.929-.842-3.144.851-3.366a32.813 32.813 0 017.922-.061c.239-.796.478-1.597.723-2.393a36.41 36.41 0 01-6.7.234c-.612-.04-1.263-.095-1.764-.457-1.463-1.046-.545-3.283.056-4.98 1.514-4.285-.417-9.527-4.357-11.797-6.512-3.745-15.48.645-22.13-2.332-.809-.361-1.213-1.28-.959-2.13l.441-1.465a3.921 3.921 0 01-2.103-1.007c-.85-.784-.641-2.175.379-2.715a17.198 17.198 0 014.011-1.52c2.804-.667 5.726-.617 8.592-.929 5.553-.617 10.845-2.604 16.07-4.58 3.296-1.24 6.592-2.487 9.887-3.728a40.36 40.36 0 018.684-2.226l9.019-1.268c1.33-.195 2.677-.384 4.012-.25 1.386.127 2.721.59 4.112.667 1.614.072 3.2-.39 4.764-.807a90.092 90.092 0 0126.799-2.943c1.057.038 2.159.094 3.138-.307.791-.328 1.431-.923 2.143-1.396 4.858-3.222 11.185.016 16.933.974 7.863 1.296 16.956-1.714 23.283 3.132.973.752 1.858 1.681 3.01 2.115 1.146.434 2.415.328 3.634.217 4.262-.395 8.525-.785 12.782-1.174 1.597-.145 3.31-.273 4.645.757.747.578 1.187 1.519.958 2.437zm360.725 347.675c-.326 2.276-1.479 4.39-3.064 6.049-.237.25-.495.495-.805.645-.562.279-1.225.222-1.855.162-1.063-.112-2.233-.273-2.936-1.086-.309-.356-.483-.801-.641-1.241a16.594 16.594 0 01-.849-3.973c-.124-1.396-.067-2.799-.011-4.196.073-1.875.146-3.772.669-5.57.298-1.023.754-2.02 1.383-2.87.433-.583 1.249-.657 1.817-.204.005.003.005.006.011.008.472.368 1.029.618 1.417 1.068.45.54.585 1.275.883 1.91.523 1.101 1.524 1.874 2.294 2.815 1.446 1.786 2.002 4.207 1.687 6.483zM512.638 75.088c-.106 2.009-1.775 3.661-3.65 4.385-1.881.707-3.951.673-5.96.64-4.157-.095-8.319-.184-12.476-.273-.673-.005-1.413-.05-1.903-.517-.44-.418-.546-1.069-.629-1.67a76.467 76.467 0 01-.473-4.886c-.083-1.224-.111-2.531.551-3.572 1.024-1.62 3.233-1.892 5.147-1.992.69-.045 1.397-.078 2.054.128.651.211 1.202.64 1.814.935 1.708.829 3.717.523 5.587.206.894-.15 1.76-.507 2.834-.78a3.152 3.152 0 013.006.796c.379.368.749.746 1.11 1.113 1.497 1.536 3.094 3.344 2.988 5.487zm52.244 53.431c1.519-.145 2.643 1.38 2.064 2.793a42.845 42.845 0 01-2.637 5.298c-.251.428-.54.879-1.002 1.057-.434.167-.918.061-1.369-.028a15.029 15.029 0 00-7.234.395c-1.285.401-2.56.98-3.906.924-.618-.028-1.252-.184-1.848-.017-.434.123-.796.406-1.141.69-1.602 1.314-3.594 1.887-5.141 3.105-.668.523-1.586.601-2.315.156-.006-.005-.017-.011-.022-.017-1.086-.656-1.336-2.159-.468-3.077a8.617 8.617 0 012.732-1.936c1.347-.612 3.15-1.252 3.15-2.738-.851.568-2.12-.173-2.321-1.18-.194-1.007.429-2.025 1.258-2.632-.573-.885-2.376-.245-2.754-1.23-.101-.267-.045-.562.016-.84.128-.595.251-1.196.379-1.797a2.098 2.098 0 012.07-1.675c.4 0 .801.005 1.202.005.256 0 .523 0 .745-.128.279-.155.429-.473.529-.773.59-1.725.284-3.717-.757-5.209-.295-.423-.784-.679-1.302-.729-1.797-.172-3.678-.573-4.708-2.008-1.308-1.826-.5-4.519 1.108-6.083-.206-.868-1.414-1.14-1.742-1.97-.451-1.146.991-2.064 1.547-3.155.245-.484.317-1.029.49-1.541.729-2.098 2.927-3.049 5.203-3.545a1.03 1.03 0 011.218.785c.162.695.295 1.408.496 2.092.345 1.174 1.057 2.382 2.081 2.944.528.295.64 1.013.272 1.491a34.585 34.585 0 01-2.248 2.638 1.06 1.06 0 00.34 1.697l3.784 1.703c.578.256 1.179.54 1.558 1.052.84 1.14.167 2.838.762 4.123.646 1.397 2.499 1.797 3.4 3.044 1.08 1.486.518 3.762 1.675 5.192 1.08 1.33 3.094 1.285 4.802 1.124h.034zm-26.487-5.949c-.006.156-.028.318-.111.451-.317.523-1.113.195-1.709.306-.851.162-1.168 1.197-1.318 2.054-.19 1.096-.384 2.231-.101 3.311.112.423.29.823.373 1.252.223 1.152-.311 2.326-1.029 3.261-.356.467-.774.912-1.275 1.218-1.541.963-3.544.59-5.297 1.069-.857.239-1.647.684-2.504.94a6.348 6.348 0 01-3.1.161c-.473-.1-.973-.278-1.224-.684-.428-.69.061-1.569.54-2.226a573.07 573.07 0 002.126-2.916c.25-.339.512-.79.3-1.157-.134-.223-.395-.334-.618-.468-.656-.411-.985-1.274-.779-2.009.212-.751.946-1.307 1.72-1.307.245 0 .495.039.74 0 .59-.084.99-.668 1.152-1.241.161-.579.156-1.191.323-1.764.517-1.775 2.448-2.688 4.218-3.211.489-.15 1.007-.284 1.513-.184h.005c.394.078.794.106 1.19.045 1.392-.228 2.839-.045 3.974.979.595.535.919 1.314.891 2.12zm455.208-90.082c-.298 1.322-1.731 2.122-3.09 2.203-1.353.093-2.675-.354-4.003-.64-1.327-.278-2.798-.384-3.965.299-1.073.639-1.712 1.83-2.773 2.494-1.427.906-3.518.528-4.555-.806-.248-.31-.44-.67-.751-.913-.26-.192-.583-.291-.905-.36-2.352-.52-4.76.304-7.142.708-5.07.844-10.63-.428-14.297-4.033-.658-.646-1.29-1.601-.881-2.427.205-.428.633-.695 1.055-.887a6.742 6.742 0 013.469-.577c1.296.124 2.525.62 3.809.738 1.043.1 2.092-.055 3.134-.148 7.359-.702 14.675 1.265 22.022 2.041 2.451.26 4.92.385 7.384.478.943.037 1.694.893 1.495 1.812-.006.006-.006.012-.006.018zm-241.184-1.75c-2.777 1.452-5.298 3.116-8.409 3.438-3.11.323-6.594.824-8.469 3.328-.946 1.263-1.319 2.85-1.664 4.38-.078.344-.156.723-.016 1.046.1.222.283.39.467.55.735.657 1.469 1.297 2.204 1.948 1.09.968 2.292 2.243 1.947 3.662-.389 1.613-2.543 2.092-4.123 1.597-1.581-.501-2.91-1.625-4.496-2.098-2.009-.612-4.168-.111-6.266-.15-2.104-.04-4.524-.952-5.036-2.989-.228-.907-.022-1.864.222-2.77.924-3.423 2.404-6.74 4.697-9.438 2.293-2.7 5.453-4.741 8.948-5.315 3.133-.512 6.332.156 9.51.073 3.951-.106 7.857-1.43 11.079-3.729 3.344-1.213 11.285.273-.595 6.466zm-115.973-15.76c-1.041-.017-1.525 1.252-1.797 2.26a19.659 19.659 0 01-2.46 5.503c-.195.284-.406.59-.723.729-.379.167-.813.078-1.208-.028-2.22-.59-4.318-1.67-6.594-1.97-2.282-.3-4.947.445-5.938 2.52-.545 1.142-.539 2.572-1.43 3.468-1.213 1.218-3.255.706-4.869.105-2.298-.846-4.596-1.702-6.889-2.554-1.658-.612-3.355-1.252-4.696-2.404-1.341-1.146-2.276-2.943-1.92-4.68.606-2.943 4.201-3.99 7.173-4.468 8.747-1.391 17.562-2.732 26.393-2.732.835 0 1.647.272 2.326.756.417.301.84.596 1.257.896.869.63 1.853 1.642 1.375 2.6zm213.073 3.968c-.173.362-.568.557-.935.718-1.664.751-3.361 1.52-5.181 1.67-1.297.116-2.599-.084-3.89-.284a787.01 787.01 0 00-5.064-.785c-.801-.128-1.63-.267-2.281-.745-.351-.256-.629-.59-.985-.84-.367-.251-.801-.385-1.23-.513-.907-.278-1.814-.545-2.721-.823-.734-.223-1.491-.446-2.259-.418-.79.04-1.542.362-2.315.529-1.068.234-2.181.2-3.272.117a34.484 34.484 0 01-10.651-2.588c-.946-.395-1.897-.851-2.571-1.619-.423-.484-.729-1.135-.578-1.753.083-.35.295-.65.539-.907 1.503-1.558 3.968-1.513 6.127-1.369 3.873.273 7.746.54 11.619.813 1.33.1 2.682.189 3.923.667 3.016 1.169 5.042 4.43 8.23 4.953.913.156 1.848.056 2.771-.011 2.471-.2 6.222-.156 9.282.028a.826.826 0 01.668.406c.284.506.523 1.035.712 1.58.128.379.234.807.062 1.174zm168.751 281.642c-1.83 2.594-4.43 5.087-7.61 5.07-.69-.006-1.45-.184-1.81-.768-.16-.261-.22-.567-.26-.868-.36-2.526-.06-5.247 1.39-7.357 1.13-1.663 4.05-1.98 6.44-1.702-.06.077-.13.144-.19.217.85.89 2.35 1.157 2.84 2.287.47 1.029-.16 2.198-.8 3.121z" fill="#E1E4EC"/><path d="M1168 76.37c-.32.21-.66.4-1.02.567-1.79.846-4 1.024-5.7 0-.95-.573-1.67-1.463-2.52-2.176-1.98-1.647-4.63-2.242-7.19-2.51a36.912 36.912 0 00-9.43.218 2.353 2.353 0 011.01 1.93c0 1.125-.78 2.232-2.09 2.41l-1.34.184c3.08.294 6.08 1.297 8.73 2.865 2.57 1.52 2.62 5.187.1 6.79a55.486 55.486 0 00-10.99 9.198c-1.31 1.424-3.27 2.014-5.17 1.669-3.75-.684-7.74-.022-11.03 1.914a12.802 12.802 0 012.03 7.535l6.77 1.875c-1.09 1.175-.95 3.038-.39 4.535.56 1.498 1.47 2.883 1.74 4.463.17 1.046.05 2.115.03 3.178-.19 6.443 2.7 13.104.51 19.176-.1.278-.22.573-.47.74-.38.261-.89.139-1.33.01-4.02-1.201-8.25-2.525-11.13-5.581-5.39-5.725-4.29-15.514-9.7-21.223-1.36-1.442-3.09-2.544-3.97-4.418a4.107 4.107 0 01-.39-1.453c-.23-3.433 3.84-3.8 4.89-6.321.33-.752.32-1.597.31-2.415-.02-1.976-.05-3.957-.07-5.932-.02-2.315-.1-4.792-1.98-6.466-.99-.88-2.43-1.124-3.57-.462-1.84 1.08-1.57 3.55-1.4 5.575.18 2.193-.59 5.148-3.21 4.619-1.15-.234-2.06-1.124-2.46-2.226-.89-2.382-2.96-4.524-5.51-5.047-1.98-.412-4.24.3-5.41 1.953a5.121 5.121 0 00-.88 2.51c-.12 1.37.25 2.677.88 3.9 1 1.91-.45 4.185-2.61 4.141-4.65-.089-9.42-1.603-14.13-2.064-5.89-.58-11.81.506-17.64 1.591-1.14.211-2.32.445-3.25 1.135-1.17.868-1.75 2.32-2.26 3.689-1.32 3.49-2.63 6.973-3.94 10.462-.21.557-.42 1.13-.4 1.725.07 1.642 1.87 2.666 3.49 2.927 1.62.267 3.37.133 4.82.913 1.17.634 2.01 1.802 3.24 2.298.99.395 2.09.306 3.14.328 1.27.034 2.52.245 3.72.618 1.19.362 2.1 1.296 2.52 2.459.39 1.102.79 2.204 1.33 3.239.73 1.397 1.5 3.011 2.9 3.884.75.468 1.63.696 2.42 1.102 4.43 2.27 4.7 9.204 9.12 11.469.91.467 2.07.834 2.33 1.825.1.378.03.784-.03 1.169-1.51 8.819-3.05 17.717-6.39 26.014-.86 2.126-2.26 4.513-4.55 4.63-2.27.117-4.43-2.187-6.61-.701-.37.25-.67.595-.9.974-1.1 1.842-.73 4.017-1.41 5.932-1 2.815-4.02 4.451-5.33 7.145-.17.344-.3.746-.18 1.107.17.473.68.69 1.15.885 3.5 1.48 6.2 4.396 8.46 7.451 2.31 3.1 4.34 6.555 4.16 10.634a8.073 8.073 0 01-1.85 4.786c-.43.517-.97 1.001-1.62 1.185-1.06.289-2.17-.301-3-1.024-3.7-3.261-3.99-9.087-7.32-12.721-1.98-2.142-4.94-3.328-7.85-3.099-.46.038-.95-.017-1.34-.273-1.42-.907-.3-2.643-.13-4.113.18-1.457-.74-2.882-1.98-3.667-1.24-.784-2.75-1.029-4.22-1.107-2.28-.122-4.96.412-6.36 2.064-.52.618-1.51.59-1.98-.066a7.692 7.692 0 01-1.37-4.875c.06-.768-.74-1.33-1.47-1.057-3.62 1.374-6.65 4.346-7.97 8.002-.18.489-.32.996-.36 1.519-.24 3.088 2.32 4.067 4.57 4.769.78.245 1.78.729 2.82 1.229v.006c.43.206 1.29.624 1.29.624h.24c.58 0 1.16-.123 1.68-.396 1.16-.629 2.22-1.658 3.55-1.674 2.14-.023 3.35 2.654 3 4.768-.34 2.115-1.62 3.968-2.11 6.055-.14.628-.22 1.285-.08 1.914.19.896.77 1.647 1.34 2.365 2.03 2.548 4.05 5.091 6.08 7.64 4.53 5.698 9.33 12.27 8.42 19.493-.55 4.385-3.2 8.414-3.07 12.826.04 1.436.38 2.877.13 4.291-.29 1.697-1.39 3.133-2.45 4.49-4.67 6.005-9.77 12.32-17 14.719-4.64 1.542-10.22 1.536-13.49 5.176-1.17 1.301-1.91 2.976-3.24 4.117-1.33 1.141-3.65 1.48-4.66.05-.12-2.877-1.7-6.844-4.42-5.893-.65.228-1.16.729-1.65 1.213l-7.417 7.385a78.672 78.672 0 019.907 14.985c.94 1.847 1.81 4.018 1 5.926-.46 1.108-1.47 2.07-1.38 3.273.07.801.63 1.463 1.17 2.07 3.15 3.545 6.3 7.089 9.46 10.634-3.75 4.207-7.51 8.414-11.26 12.621-1.84 2.058-3.995 4.267-6.748 4.329-2.754.06-5.216-3.718-3.118-5.499-2.884-.267-5.404-2.748-5.725-5.631-2.52-.139-5.04-.283-7.56-.428-.794-.045-1.617-.1-2.28-.512-1.981-1.208-1.267-4.191-.422-6.349.845-2.154 1.165-5.325-1.012-6.116-.539 2.337-.991 4.691-1.457 7.045-1.136 5.865-2.28 11.964-.794 17.756.852 3.334 2.862 6.684 6.133 7.763 1.871.618 3.991.445 5.695 1.425 1.887 1.091 2.768 3.3 3.511 5.347 2.251 6.183 4.501 12.36 6.744 18.542.998 2.743 1.129 7.028-1.769 7.334-.947.1-1.843-.351-2.688-.785-5.688-2.976-11.923-6.593-13.664-12.776-.553-1.964-.59-4.057-1.216-5.998-1.391-4.297-5.39-7.174-7.735-11.036-3.824-6.332-2.783-14.301-2.739-21.702a73.057 73.057 0 00-5.098-27.233c-1.69.646-3.373 1.297-5.055 1.942.604 2.182-1.1 4.702-3.351 4.941-2.25.245-4.457-1.853-4.326-4.117.058-1.002.503-1.948.554-2.949.291-5.159-8.806-7.056-8.398-12.204.116-1.48 1.085-2.899.757-4.346-.24-1.062-1.121-1.836-1.952-2.537-3.896-3.267-7.786-6.545-11.682-9.81-1.253-1.052-3.052-1.075-4.356-.095-5.011 3.761-8.908 9.571-12.928 14.278-4.356 5.103-8.704 10.2-13.06 15.298-1.893 2.22-3.831 4.513-4.748 7.278-2.542 7.646 3.182 17.006-1.355 23.667-1.442 2.126-3.78 3.606-4.895 5.92-.91 1.887-2.432 3.957-4.239 5.593-1.726 1.569-4.465.49-4.683-1.831-.415-4.457-3.19-7.851-5.696-12.832-1.952-3.861-2.396-8.742-5.768-11.446-1.158-.924-2.622-1.547-3.402-2.805-.757-1.218-.699-2.754-.699-4.19.066-10.328-3.591-20.233-7.524-29.837-.408-.997-1.653-1.275-2.483-.59l-.051.038c-.729.579-1.829.34-2.28-.472-1.013-1.842-3.423-2.872-5.281-4.135-1.485-1.019-2.578-3.122-2.396-4.714.182-1.624-.641-3.199-1.981-4.139l-7.437-5.237c-2.17-1.53-4.377-3.077-6.882-3.962-5.383-1.897-11.297-.484-17-.295-9.92.329-19.527-3.105-28.85-6.488-6.075-2.209-12.426-4.597-16.687-9.46-1.981-2.259-3.838-6.622-6.708-7.774-1.544-.618-3.03 1.135-4.348 2.159-1.537 1.191-1.369 2.588-1.1 3.901 1.297 6.366 4.851 12.254 9.877 16.371 2.614 2.132 5.724 3.951 7.56 6.683.692 1.024 1.988 1.458 3.175 1.119 3.125-.879 5.907-2.977 7.553-5.782.503-.851.955-1.825 2.091-2.003.976-.145 1.923.389 2.469 1.219.881 1.318.765 2.949.626 4.484 3.191 1.72 6.956 1.926 10.481 2.778 3.533.845 7.24 2.743 8.369 6.188 1.063 3.255-.51 6.722-2.039 9.782-9.374 9.215-17.291 20.322-28.77 26.727-2.855 1.591-6.009 2.961-7.954 5.592-1.129 1.536-1.799 3.445-3.256 4.675-4.02 3.411-10.233-.59-15.375.55-3.802.847-8.391 4.23-10.765.969-.364-.506-.597-1.108-.743-1.72a160.87 160.87 0 00-9.753-29.308c-.706-1.609-1.456-3.223-2.585-4.569-.947-1.119-2.127-2.02-3.161-3.055-1.719-1.72-3.016-3.806-4.29-5.871l-18.554-29.426a2.01 2.01 0 00-2.51-.779l-1.319.573a1.292 1.292 0 00-.612 1.804c5.871 10.778 10.278 23.354 15.353 34.489 6.134 13.461 14.306 25.881 22.442 38.24 3.62 5.487 8.077 11.519 14.611 12.209 6.657.707 12.593-4.513 19.046-5.859 1.486-.307 2.972.623 3.292 2.098 1.69 7.756-3.015 18.446-7.283 25.324-5.572 8.982-14.633 15.386-22.332 22.798-4.239 4.085-8.099 8.515-11.697 13.122-4.61 5.904-8.973 12.671-8.587 20.021.444 8.236 6.722 15.114 8.864 23.105 2.615 9.721-1.115 19.86-4.902 29.226-1.493 3.7-3.066 7.495-5.907 10.389-2.658 2.704-6.234 4.426-9.061 6.964-4.429 3.979-6.772 9.966-6.154 15.737.261 2.47 1.035 4.952.595 7.406-.69 3.84-4.112 6.583-6.65 9.638-7.484 9.02-7.74 21.942-14.696 31.34-4.774 6.449-12.331 10.64-20.239 12.983-7.907 2.342-16.237 3.01-24.49 3.666l-.055.006a5.107 5.107 0 01-5.52-4.897c-.702-17.712-11.218-33.582-13.984-39.481-3.078-6.572-.501-14.663-2.922-21.507-1.703-4.825-5.203-8.826-7.139-13.561-4.53-11.088.178-23.519 3.862-34.916.662-2.047 1.296-4.134 1.48-6.282.206-2.393-.161-4.791-.523-7.162-.724-4.768-1.458-9.56-2.988-14.128-2.287-6.8-6.266-12.888-10.262-18.854-2.148-3.199-4.395-6.655-4.357-10.511.023-2.654 1.136-5.153 1.987-7.663a41.314 41.314 0 001.892-8.28 3.642 3.642 0 00-2.398-3.873c-5.821-2.036-11.642-4.079-17.468-6.115-5.342-1.87-12.203-3.378-15.898.913-1.252 1.457-2.037 3.51-3.846 4.161-1.752.63-3.622-.373-5.297-1.185-6.416-3.116-14.012-3.728-20.845-1.686-2.694.807-5.387 2.026-8.191 1.781-2.906-.256-5.421-2.036-7.775-3.756-5.826-4.257-11.875-8.77-15.03-15.258-1.135-2.332-1.864-4.869-3.261-7.057-1.908-2.976-4.896-5.063-7.451-7.506-5.72-5.453-9.409-12.994-10.205-20.856-.596-5.843.351-11.725 1.358-17.513 3.21-18.496 7.896-38.373 22.342-50.365 3.984-3.311 8.909-6.332 10.183-11.357.656-2.593.206-5.365.835-7.963.879-3.617 3.689-6.389 6.371-8.959 5.465-5.226 11.819-10.807 19.371-10.484 2.855.122 5.626 1.107 8.481 1.141 6.093.061 11.369-4.152 17.311-5.515 6.271-1.436 12.782.395 18.959 2.214 6.182 1.821 13.166 4.347 15.454 10.373.6 1.591.834 3.355 1.808 4.747 1.002 1.424 2.632 2.242 4.229 2.938a78.287 78.287 0 0014.39 4.663c3.528.785 7.373 1.391 10.756.039 1.603-.64 3.027-1.864 3.918-3.333 2.093-3.439 6.332-4.991 10.206-3.907 9.342 2.621 18.329 9.093 28.04 8.064 1.252-.134 2.532-.384 3.734-.034.222.061.434.167.629.278.55.312.995.624 1.385.935a4.195 4.195 0 003.389.835c5.425-1.013 10.851-1.981 14.624-3.912 1.914-.979 3.951-2.142 4.746-4.135.891-2.231-.067-4.729-1.018-6.933l-2.721-6.327c-.484-1.13-1.001-2.299-1.953-3.066-1.091-.879-2.554-1.085-3.94-1.258-3.672-.462-7.39-.924-11.057-.45-4.184.54-8.552 2.259-12.448.639-1.786-.74-3.233-2.114-4.469-3.6-3.539-4.268-5.581-9.554-7.567-14.735-.206-.54-.418-1.113-.34-1.686.167-1.196 1.469-1.853 2.621-2.209 6.249-1.909 13.5-1.08 18.792-4.908 1.168-.841 2.209-1.898 3.533-2.471 1.448-.618 3.083-.59 4.658-.54 8.403.284 16.789.985 25.125 2.092.979.134 2.015.262 2.911-.155 2.527-1.164 1.427-5.314-1.005-6.672-2.429-1.353-5.424-1.174-8.033-2.154-4.897-1.831-7.502-8.186-5.303-12.927-2.471-.622-5.203-.116-7.29 1.347 1.33 2.871.685 6.539-1.541 8.792-2.004.696-4.162 1.402-6.205.835-2.042-.568-3.684-3.011-2.632-4.853.506-.873 1.502-1.457 1.068-2.832a2.616 2.616 0 00-1.129-1.441c-1.057-.646-2.338-.646-3.561-.634-2.972.033-6.973 1.063-6.834 4.034.033.757.378 1.514.189 2.248-.35 1.352-2.175 1.714-2.921 2.894-1.308 2.086 1.519 4.925.451 7.145-.468.968-1.542 1.469-2.304 2.231-.757.762-1.075 2.271-.123 2.771-3.177 3.428-10.461-.039-12.871 3.968-.401.668-.595 1.48-1.168 2.003-.696.624-1.764.673-2.471 1.286-.996.868-.835 2.493-.24 3.667.602 1.18 1.548 2.181 1.965 3.438.384 1.147.284 2.393.173 3.601-.29 3.083-.969 6.639-3.701 8.097-2.509 1.341-5.77.166-7.684-1.937-1.914-2.103-2.799-4.919-3.634-7.64l-3.039-9.916c-.767-2.516-1.642-5.181-3.672-6.85-3.568-2.922-10.061-2.315-11.664-6.639-.551-1.486-.367-3.356-1.536-4.424-1.263-1.152-3.272-.635-4.919-1.096-2.17-.607-3.528-3.239-2.765-5.359-1.871-.512-4.034.818-4.424 2.721 2.827-.623 5.403 1.87 6.694 4.463 1.297 2.588 2.003 5.575 4.079 7.596 1.335 1.307 3.105 2.059 4.618 3.155 2.466 1.775 4.252 4.541 4.625 7.557.573 4.668-2.131 9.048-4.719 12.982-1.074 1.631-2.349 3.4-4.263 3.767-1.257.239-2.543-.189-3.728-.679a32.021 32.021 0 01-7.874-4.718c1.603-2.137 4.813-1.792 7.484-1.82 2.672-.034 6.077-1.748 5.415-4.341-.312-1.218-1.442-2.008-2.287-2.932-.974-1.063-1.619-2.387-2.482-3.539-3.539-4.719-10.005-5.893-15.843-6.711-.506-2.437-1.035-4.925-2.353-7.029-1.319-2.108-3.623-3.778-6.105-3.633-3.7.217-6.672 4.251-10.322 3.589-.824-.15-1.608-.545-2.449-.557-1.902-.033-3.272 1.853-3.873 3.657-.595 1.808-.823 3.817-2.031 5.292-2.766 3.388-9.587 2.732-10.523 7.005-.316 1.436.262 2.9.346 4.363.083 1.463-.718 3.255-2.188 3.261l.612-.523c-2.765.411-3.555 3.945-5.314 6.115-3.322 4.107-9.793 2.955-14.752 4.769-1.786.657-3.534 1.742-5.425 1.558-1.892-.189-3.551-2.67-2.177-3.984a26.888 26.888 0 00-8.941-.723l-1.821-8.503c-.161-.768-.327-1.569-.161-2.337.156-.735.595-1.374 1.024-1.992 2.215-3.233 4.263-7.562 2.143-10.863-.612-.957-1.553-1.752-1.798-2.86-.323-1.452.663-2.843 1.592-4.012 1.375-1.736 3.027-3.617 5.236-3.745 1.008-.061 1.986.262 2.96.506 4.864 1.241 9.99.646 14.97.051 2.298-.279 5.08-.946 5.693-3.178.205-.762.1-1.574-.012-2.359l-.934-6.727c-.118-.863-.245-1.748-.651-2.522-.763-1.441-2.327-2.214-3.628-3.188a12.191 12.191 0 01-4.603-7.234c1.453-1.019 3.417-.29 5.109.228 1.697.523 4.023.523 4.696-1.113.162-.389.201-.829.412-1.191.451-.745 1.447-.885 2.314-.984 9.111-1.03 17.646-6.333 22.61-14.046.746-1.152 1.43-2.382 2.499-3.244 2.665-2.142 6.733-1.341 9.677-3.071 3.288-1.937 4.1-6.272 4.34-10.079.128-2.036.222-4.178 1.302-5.909.384-.612.974-1.196 1.697-1.207.445-.006.863.206 1.258.411 1.236.651 2.476 1.302 3.717 1.954.245 2.359-.934 4.808-2.932 6.087a10.724 10.724 0 011.77 5.626c3.939-.339 7.879-.673 11.824-1.007 1.658-.139 3.378-.3 4.813-1.141 1.225-.717 2.148-1.875 3.4-2.538 2.287-1.207 5.292-.038 6.65 2.076 1.074 1.67 3.522 1.63 4.63.112.228-.318.528-.568.901-.691.24-.078.524-.177.807-.283a1.775 1.775 0 00.952-2.51c-.524-.963-1.274-1.897-.874-2.993 1.486-4.079 6.555-6.322 10.617-4.998a1.164 1.164 0 001.497-.818c.111-.445.229-.896.34-1.341.083-.317.161-.646.106-.968-.151-.818-1.085-1.202-1.642-1.82-.723-.796-.768-2.126-.095-2.965 1.019-1.28 2.95-1.12 4.585-1.08 3.056.078 6.061-.685 9.021-1.436l4.585-1.168c.028-.017.061.01.09-.145.127-.65-.229-1.286-.824-1.564a10.147 10.147 0 01-2.544-1.725.947.947 0 00-.856-.245c-2.354.54-12.51 2.86-17.941 4.135-2.02.478-4.379.895-5.809-.996a3.956 3.956 0 01-.607-1.263c-.851-2.994 1.141-5.876.785-8.837-.089-.751-.328-1.525-.089-2.243.212-.64.762-1.101 1.308-1.49 1.891-1.37 4.039-2.388 5.792-3.935 1.748-1.552 3.094-3.851 2.654-6.15-2.131.051-4.256.107-6.388.157-.634.017-1.301.038-1.864.34-1.107.6-1.402 2.014-1.925 3.154-1.074 2.332-3.378 3.812-5.593 5.103-2.214 1.286-4.568 2.62-5.876 4.825-1.308 2.203-1.035 5.575 1.241 6.75.991.511 2.343.656 2.793 1.68.278.64.067 1.38-.183 2.037a18.603 18.603 0 01-4.062 6.305c-.707.717-1.486 1.402-1.914 2.314-1.025 2.165.2 5.031-1.169 6.995-1.502 2.153-4.891 1.636-7.106 3.055-1.725 1.102-3.217 3.495-5.175 2.605-.74-.335-1.202-1.086-1.269-1.893-.139-1.652.857-2.932 1.808-4.134a20.128 20.128 0 01-7.829-9.315c-.222-.557-.496-1.191-1.063-1.375-.406-.128-.84.011-1.235.173-2.677 1.09-4.93 3.122-7.696 3.956-2.766.835-6.527-.256-6.978-3.11-.123-.791.022-1.62-.212-2.382-.35-1.13-1.441-1.842-2.158-2.782-1.57-2.043-1.252-4.914-.858-7.457.112-.707.228-1.436.59-2.059.378-.65 1.002-1.124 1.642-1.519 2.726-1.675 6.182-2.226 8.391-4.535 1.013-1.057 1.686-2.41 2.727-3.434 2.693-2.643 7.173-2.526 10.111-4.897 3.556-2.87 4.279-8.898 8.631-10.306-.852-1.062.228-2.56 1.241-3.478 3.539-3.204 7.501-6.593 12.275-6.783 1.625-.066 3.278.25 4.863-.116 1.297-.301 2.443-1.041 3.634-1.636 2.227-1.113 4.675-1.753 7.145-2.06a30.754 30.754 0 017.296.007c4.107.483 8.08 1.713 12.03 2.932 2.148.668 4.302 1.335 6.456 2.003 8.385 2.599 16.777 5.197 25.163 7.796 1.041.323 1.975.974 2.537 1.903 1.653 2.727-1.024 5.025-3.544 5.481-2.092.384-4.29.012-6.344.557-1.58.423-3.038 1.38-4.669 1.42-3.217.082-5.854-3.368-9.037-2.917 3.139 4 6.95 8.33 11.714 9.343.884.19 1.842-.15 2.376-.885.384-.54 1.263-.995 1.997-1.068a31.181 31.181 0 014.942-.061c1.107.072 2.125-.513 2.749-1.436.862-1.275 2.42-2.176 3.856-2.905l7.846-4.006c-2.097-1.213-2.882-4.24-1.646-6.322.778-1.307 2.264-2.086 3.772-2.175 1.175-.067 2.103.995 1.953 2.158-.211 1.631.818 3.879 2.415 4.558 1.956.83 3.296-.902 4.687-2.06 3.089-2.565 6.563-4.88 10.59-5.602 1.1-.2 2.288-.262 3.293.227 1.005.496 1.733 1.693 1.376 2.75 4.123-1.074 8.238-2.143 12.36-3.217.496-.127 1.02-.261 1.515-.122.496.139.874.523 1.319.779 1.405.812 3.467.072 4.027-1.452a15.91 15.91 0 01-7.4-4.413c1.231-.83 2.812.183 4.123.879 4.144 2.187 9.17 1.051 13.838 1.525 4.698.473 9.221 2.626 13.934 2.325-3.584-1.796-6.482-4.947-7.917-8.697-.598-1.57-.714-3.31-.139-4.886 1.158-3.155 3.912-3.4 6.424-3.561l4.014-.256c1.682-.111 3.248 1.024 3.547 2.693.451 2.505 1.915 4.836 4.049 6.232.321-1.029.153-2.142.284-3.21.117-1.08.707-2.265 1.785-2.448.029 0 .058-.006.087-.006 2.863.078 2.6 3.455 4.501 4.696 1.173.401 2.433-.4 3.191-1.374.757-.974 1.252-2.159 2.134-3.021 2.039-1.981 5.586-1.726 7.888-1.987.728-.078 1.471-.095 2.185.072a.595.595 0 00.582-1.002c-.043-.05-.094-.105-.138-.155-.459-.551-.677-1.291-.452-1.97.314-.957 1.246-1.207 2.098-1.374a34.665 34.665 0 015.878-.651c.961-.029 1.792-.813 1.726-1.776a2.285 2.285 0 01.095-.835c.335-1.068 1.26-1.83 2.17-2.476 4.072-2.855 9.418-2.654 14.509-2.281h.007c3.227-.245 6.439-.496 9.666-.746.866-.067 1.755-.14 2.541-.5 2.324-1.064 3.081-4.235 5.405-5.293 2.549-1.163 5.324.78 7.895 1.88 7.99 3.401 17.247-1.407 25.776.413.896.19 1.734.578 2.477 1.101a3.66 3.66 0 011.573 3.006c0 .75-.233 1.513-.728 2.164a83.507 83.507 0 00-3.423 4.93c-1.901 2.961.735 6.722 4.18 6.005 4.006-.83 7.968-1.892 11.858-3.178 1.631-.534 3.307-1.118 5.011-.924 1.981.223 3.685 1.47 5.579 2.076 3.132 1.002 6.511.2 9.796-.027a27.92 27.92 0 0111.188 1.524c-.532-.673-1.056-1.34-1.581-2.009-.779-.996.146-2.41 1.362-2.097.816.21 1.719.506 2.71.873.058.023.131.044.196.067 6.876 1.886 11.414 3.328 18.304 5.214.918.25 1.85.506 2.615 1.074.728.54 1.245 1.319 1.93 1.92 2.549 2.26 6.555 1.435 9.65.006 3.103-1.425 6.25-3.373 9.637-2.978 4.158.49 7.953 4.474 11.901 3.077-1.013-1.82-2.025-3.633-3.045-5.453a132.467 132.467 0 0130.25 3.573c7.02 1.663 14 3.917 21.21 3.94 3.01.01 6.03-.368 9.02-.045 2.41.256 4.75.963 7.1 1.575a94.51 94.51 0 0030.14 2.866c4.69-.312 9.35-.974 14.05-1.113 9.49-.279 18.88 1.591 28.19 3.444 15.3 3.055 31.7 6.727 43 17.067 1.27 1.163 1.13 3.238-.33 4.157z" fill="#E1E4EC"/><path d="M1057.4 276.109c-.31 1.597-.78 3.244-1.91 4.418-1.12 1.169-3.06 1.703-4.41.796-1.13-.752-1.54-2.276-1.34-3.623.2-1.347.89-2.559 1.57-3.734.8-1.383 1.65-2.811 2.64-4.068 1.13-1.415 3.43-.768 3.67 1.023.23 1.701.09 3.494-.22 5.188zm36.62-111.677c-.54.312-1.19.629-1.76.356-.47-.217-.68-.751-.82-1.252-.33-1.274-.41-2.627-.95-3.828-.52-1.163-1.46-2.087-2.19-3.122-2.44-3.406-2.86-7.996-5.53-11.213-1.1-1.324-2.58-2.426-3.14-4.051-.16-.468-.24-.979-.53-1.38-.3-.406-.78-.64-1.21-.89a9.794 9.794 0 01-4.23-4.947c-.51-1.324-.76-2.81-1.68-3.884-.4-.462-.91-.83-1.25-1.336a1.585 1.585 0 01-.15-.253c-1.07-2.082 1.7-4.039 3.43-2.459 3.75 3.417 8.04 6.29 11.19 10.258 1.9 2.387 3.34 5.108 4.76 7.813.74 1.402 1.48 3.06.83 4.507-.32.735-1.01 1.441-.8 2.22.11.39.43.679.74.946 1.55 1.38 3.11 2.755 4.67 4.135 1.11.973 2.29 2.103 2.42 3.572.19 2.159-1.92 3.734-3.8 4.808zm23.32 48.051c-.38 1.035-1.92 1.753-1.51 2.777.12.289.37.49.58.724.94 1.057.82 2.821-.09 3.906-.92 1.091-2.45 1.53-3.86 1.341-1.1-.145-2.27-.629-3.3-.178-.41.178-.75.495-1.08.807-1.83 1.73-3.66 3.467-5.49 5.197-.36.345-.78.707-1.28.712-1.41.012-1.47-2.537-2.84-2.887-.99-.255-1.89.855-2.2 1.727-.15.409-.35.798-.64 1.128-2.01 2.362-4.47-1.391-6.72-.591-1.06.373-1.55 1.642-1.5 2.766.05 1.124.51 2.181.74 3.283a8.576 8.576 0 01-.23 4.296c-.14.39-.3.779-.61 1.035-.24.2-.56.295-.87.356-2.72.501-5.17-1.636-7.06-3.673-.66-.712-1.32-1.452-1.72-2.337-.8-1.708-.53-3.695-.23-5.559.27-1.708.59-3.539 1.81-4.775.57-.572 1.29-.973 1.82-1.574.53-.595.85-1.347 1.26-2.026 1.48-2.376 4.19-3.661 6.82-4.585 2.64-.929 5.42-1.669 7.62-3.405 3.04-2.416 4.43-6.383 4.97-10.228.75-5.281.11-10.985-2.99-15.331-.51-.712-1.09-1.391-1.4-2.209-.93-2.454.74-5.426-.48-7.751-.58-1.119-1.75-1.854-2.35-2.972-.8-1.497-.14-3.712 1.49-4.19 1.15-.339 2.38.2 3.31.946.94.746 1.69 1.697 2.65 2.409 2.21 1.627 5.07 1.693 7.87 1.367a3.583 3.583 0 012.91.992c.75.72 1.49 1.439 2.24 2.16.42.417.89 1.024.58 1.541-.3.534-1.09.401-1.69.54-1.46.329-1.76 2.276-1.49 3.739.26 1.464.77 3.116-.09 4.33a16.433 16.433 0 00-6.76-3.367c-.3-.072-.66-.111-.86.117-.13.15-.15.379-.13.578.12 1.286 1.1 2.305 2.03 3.206 2.04 1.981 4.08 3.962 6.12 5.948 1.42 1.386 2.9 2.866 3.44 4.78 1.08 3.807-1.86 8.192.04 11.664.57 1.052 1.59 2.137 1.17 3.266zm-32.47 224.48c-1.88 1.764-4.78 1.864-7.31 1.381-2.53-.485-5-1.453-7.57-1.47-4.23-.028-8.04 2.477-12.19 3.311-6.32 1.269-12.67-1.402-18.95-2.871-11.6-2.722-24.52-1.531-34.6-7.897-1.35-.857-2.64-1.841-4.11-2.464-2.51-1.057-5.459-1.03-7.718-2.543-3.585-2.399-3.937-7.468-6.094-11.208-2.273-3.94-6.609-6.405-8.665-10.461-1.725-3.411-1.664-7.646-3.984-10.696-1.582-2.092-4.085-3.316-5.83-5.286-2.076-2.343-2.908-5.531-4.66-8.124-1.813-2.688-4.586-4.719-5.932-7.668-1.353-2.95-.156-7.468 3.084-7.663 1.651-.095 3.118.974 4.376 2.042a53.848 53.848 0 014.41 4.185c2.665 6.794 7.88 12.582 14.434 15.831 1.664.829 3.443 1.525 4.809 2.793 1.218 1.131 2.009 2.621 2.868 4.04a40.151 40.151 0 007.819 9.294c1.463 1.279 3.093 2.543 3.763 4.362 1.13 3.044-.77 6.316-1.07 9.549-.39 4.19 2.28 8.475 6.23 9.961 4.73 1.792 10.08-.317 15.08.495 5.78.941 10.41 5.637 16.19 6.583 2.91.473 5.93-.05 8.85.395 3.83.579 7.35 2.799 11.22 2.794 2.37 0 4.64-.835 6.95-1.358 6.25-1.408 13-.428 18.6 2.693z" fill="#E1E4EC"/><path d="M1054.92 390.869c-.95.94.18 2.465.29 3.795.14 1.792-1.64 3.044-2.94 4.279a10.993 10.993 0 00-3.14 5.448c-.61 2.582-.36 5.565-2.1 7.562-2.13 2.437-5.95 2.059-9.13 1.475-1.01-.184-2.06-.39-2.88-1.007-.44-.329-.78-.763-1.2-1.119-2.62-2.237-6.64-.785-10.01-1.491-.54-.106-1.07-.284-1.46-.646-1.02-.918-.77-2.549-1.24-3.828-.71-1.892-2.9-2.788-3.98-4.502-1.79-2.866.13-6.878-1.38-9.899-.51-1.007-1.37-1.848-1.65-2.944-.47-1.825 1.24-3.845 3.11-3.695.8.061 1.53.44 2.32.579 1.71.295 3.56-.735 4.21-2.349.18-.439.28-.923.59-1.28.46-.517 1.21-.617 1.88-.8 3.71-1.024 5.47-5.12 8.05-7.98a14.702 14.702 0 015.89-3.974c.65-.233 1.34-.439 1.84-.912 1.37-1.297.54-3.556.7-5.437.21-2.398 2.5-4.407 4.91-4.368 2.09 1.486 4.16 2.994 6.21 4.535 1.27.952 2.61 2.043 2.96 3.589.39 1.647-.48 3.295-1.31 4.769-.46.802-.92 1.62-1.57 2.271-.4.411-.89.768-1.15 1.285-.24.501-.23 1.085-.21 1.641.13 3.834.44 8.114 3.28 10.695.49.446 1.05.83 1.42 1.381.36.55.48 1.347.04 1.847-.57.668-1.72.462-2.35 1.08zm34.3 50.245c-.73.694-1.75.971-2.63 1.449-.71.392-1.34.921-1.98 1.413a25.22 25.22 0 01-8.09 4.136c-.93.278-2.06.465-2.8-.166-.84-.721-.68-2.048-.41-3.125.38-1.481.94-3.072 2.26-3.849.64-.374 1.4-.513 2.13-.665a32.838 32.838 0 005.78-1.77c.55-.227 1.09-.471 1.53-.861.51-.445.84-1.052 1.26-1.579a5.524 5.524 0 011.97-1.53 7.176 7.176 0 011.45 1.896c.76 1.488.74 3.504-.47 4.651zm99.61 6.929c-4.65-.467-9.58-1.04-13.25-3.94-2.62-2.064-4.83-5.376-8.17-5.331-3.22.045-5.71 3.334-8.91 3.334-1.14-.006-2.24-.429-3.31-.802a35.676 35.676 0 00-12.9-1.887c-1.36-4.106 1.56-9.332-1.25-12.609-2.14-2.487-6.17-2.003-9-3.656-2.1-1.219-3.42-3.544-5.59-4.63-3.15-1.558-7.91-.573-9.47-3.711-1.27-2.571.76-6.4-1.47-8.208-.81-.662-1.95-.757-2.87-1.263-2.25-1.224-2.42-4.814-.54-6.555 1.87-1.742 5.03-1.581 7.05 0 1.82 1.43 2.74 3.684 3.94 5.67 1.2 1.981 3.05 3.917 5.36 3.89 1.62-.017 3.04-.985 4.39-1.87 2.12-1.397 4.37-2.699 6.87-3.189 1.57-.312 3.27-.25 4.77.262 1.16 1.38 2.41 2.643 3.95 3.35 3.62 1.647 8.07-.184 11.75 1.352 1.86.779 3.26 2.332 4.61 3.834 3.47 3.879 6.93 7.751 10.39 11.625.87.968 1.8 2.176 1.47 3.433-.17.685-.7 1.235-.89 1.92-.25.907.13 1.864.58 2.699a19.998 19.998 0 005.42 6.505c1.7 1.324 3.63 2.387 5.12 3.928 1.5 1.547 2.55 3.778 1.95 5.849zm-98.29-87.166c-1.02 2.25-3.76 3.13-6.23 3.246-3.82.174-7.73-.959-10.67-3.404-2.92-2.445-4.76-6.249-4.53-10.058.11-1.976.75-3.926.58-5.897-.23-2.618-1.84-4.873-3.32-7.039a109.793 109.793 0 01-11.88-22.509c-.96-2.476-1.83-5.047-1.81-7.698.01-2.65 1.07-5.432 3.29-6.891 1.1-.732 2.52-1.007 3.84-.818 1.74 3.832 2.85 8.11 5.55 11.329 1.71 2.028 3.95 3.531 5.73 5.49 1.98 2.192 3.31 4.885 4.53 7.577a144.387 144.387 0 016.6 17.277c.94 3.056 1.82 6.213 3.66 8.842 1.17 1.664 2.68 3.066 3.77 4.778 1.1 1.713 1.73 3.921.89 5.775zm40.23 246.502c-.39 1.597-1.83 2.772-3.38 3.3-.77.256-4.66-.295-6.07.05-.45.112-.9.217-1.35.189-1.5-.094-2.47-1.558-3.2-2.86-.47-.818-.94-1.669-1.03-2.604-.08-.851.17-1.692.41-2.51.26-.896.52-1.792.78-2.682.19-.64.4-1.307.89-1.759.72-.656 1.81-.634 2.79-.567 1.39.094 2.77.184 4.15.273 1.97.134 4.03.244 5.81-.59.08-.039.17-.078.25-.122-.27 1.023-.73 2.059-.83 3.11-.21 2.287 1.33 4.552.78 6.772z" fill="#E1E4EC"/></svg>